<svg CLMInterim-lightningAgreementDocumentSearch_lightningAgreementDocumentSearch="" value="0690K00000HK5m3QAD" data-fileid="0690K00000HK5m3QAD" xmlns="http://www.w3.org/2000/svg" viewBox="0 0 24 24" class="slds-icon_x-small" style="cursor: pointer; vertical-align: text-bottom; margin-right: 0.5rem; fill: rgb(0, 112, 210);"><path CLMInterim-lightningAgreementDocumentSearch_lightningAgreementDocumentSearch="" d="M22.4 14.3H21c-.4 0-.7.3-.7.7v4.6c0 .4-.3.7-.7.7H4.4c-.4 0-.7-.3-.7-.7V15c0-.4-.3-.7-.7-.7H1.6c-.4 0-.7.3-.7.7v6.2c0 1 .9 1.9 1.9 1.9h18.4c1 0 1.9-.9 1.9-1.9V15c0-.4-.3-.7-.7-.7zm-10.9 3.1c.3.2.7.2 1 0l6.2-6.3c.3-.3.3-.7 0-.9l-.9-1c-.3-.3-.7-.3-1 0l-2.6 2.6c-.3.2-.8.1-.8-.4V1.6c0-.4-.4-.7-.7-.7h-1.4c-.4 0-.7.3-.7.7v9.8c0 .4-.5.6-.8.3L7.2 9.1c-.2-.2-.6-.2-.9 0l-1 1.1c-.3.2-.3.6 0 .9l6.2 6.3z"></path></svg>