<?xml version="1.0" encoding="utf-8"?>
<!-- Generator: Adobe Illustrator 23.0.1, SVG Export Plug-In . SVG Version: 6.00 Build 0)  -->
<svg version="1.1" id="Layer_1" xmlns="http://www.w3.org/2000/svg" xmlns:xlink="http://www.w3.org/1999/xlink" x="0px" y="0px"
	 viewBox="0 0 253.3 142.5" style="enable-background:new 0 0 253.3 142.5;" xml:space="preserve">
<style type="text/css">
	.st0{fill:#F5F6F7;}
	.st1{fill:#FFFFFF;}
	.st2{fill:#E8E8E8;}
	.st3{fill:#00A1E0;}
	.st4{fill:#DFE6ED;}
	.st5{fill:#959A9E;}
	.st6{fill:#F2F2F4;}
	.st7{fill:#EF4160;}
	.st8{fill:#F6BD60;}
	.st9{fill:#75DAA0;}
	.st10{fill:#E01E5A;}
	.st11{fill:#36C5F0;}
	.st12{fill:#2EB67D;}
	.st13{fill:#ECB22E;}
</style>
<title>Asset 2</title>
<path class="st0" d="M251.7,142.5H1.6c-0.9,0-1.6-0.7-1.6-1.6c0,0,0,0,0,0v-107c0-0.9,0.7-1.6,1.6-1.6h250.1c0.9,0,1.6,0.7,1.6,1.6
	v107C253.3,141.8,252.6,142.5,251.7,142.5L251.7,142.5z"/>
<rect x="0.2" y="12.3" class="st1" width="252.8" height="19.8"/>
<path class="st2" d="M252.8,12.5v19.3H0.5V12.5H252.8 M253.3,12.1H0v20.2h253.3V12.1z"/>
<path class="st3" d="M13.7,18c0.5-0.5,1.2-0.8,1.9-0.8c1,0,1.9,0.5,2.3,1.4c0.4-0.2,0.9-0.3,1.3-0.3c1.8,0.1,3.2,1.6,3.1,3.4
	c-0.1,1.7-1.4,3-3.1,3.1c-0.2,0-0.4,0-0.6,0c-0.4,0.7-1.2,1.2-2,1.2c-0.3,0-0.7-0.1-1-0.2c-0.4,1-1.5,1.7-2.6,1.6
	c-1.1,0-2.1-0.7-2.6-1.8c-0.2,0-0.3,0.1-0.5,0c-1.4,0-2.5-1.2-2.5-2.5c0-0.9,0.5-1.7,1.2-2.2c-0.2-0.4-0.2-0.7-0.2-1.1
	c0-1.6,1.3-2.9,2.9-3C12.3,16.8,13.2,17.2,13.7,18"/>
<path class="st4" d="M176.6,26H81.4c-1.5,0-2.8-1.2-2.8-2.8v-2c0-1.5,1.2-2.8,2.8-2.8h95.3c1.5,0,2.8,1.2,2.8,2.8c0,0,0,0,0,0v2
	C179.4,24.8,178.2,26,176.6,26L176.6,26z M81.4,19.1c-1.2,0-2.1,1-2.1,2.1v2c0,1.2,1,2.1,2.1,2.1h95.3c1.2,0,2.1-1,2.1-2.1v-2
	c0-1.2-1-2.1-2.1-2.1H81.4z"/>
<path class="st1" d="M205.2,109.3H48c-1.4,0-2.5-1.1-2.5-2.5V72.2c0-1.4,1.1-2.5,2.5-2.5h157.2c1.4,0,2.5,1.1,2.5,2.5v34.6
	C207.7,108.2,206.6,109.3,205.2,109.3C205.2,109.3,205.2,109.3,205.2,109.3z"/>
<rect x="45.6" y="130.3" class="st1" width="162.1" height="11"/>
<path class="st5" d="M207.7,130.5H45.6v-12.4c0-1.4,1.1-2.5,2.5-2.5h157.2c1.4,0,2.5,1.1,2.5,2.5L207.7,130.5L207.7,130.5z"/>
<path class="st4" d="M198.6,83.6h-12c-0.8,0-1.4-0.6-1.4-1.4v-2.7c0-0.8,0.6-1.4,1.4-1.5c0,0,0,0,0,0h12.1c0.8,0,1.4,0.7,1.4,1.5
	c0,0,0,0,0,0v2.7C200,82.9,199.4,83.6,198.6,83.6z M186.6,78.3c-0.6,0-1.1,0.5-1.1,1.1v2.7c0,0.6,0.5,1.1,1.1,1.1h12.1
	c0.6,0,1.1-0.5,1.1-1.1l0,0v-2.7c0-0.6-0.5-1.1-1.1-1.1l0,0H186.6z"/>
<path class="st3" d="M136,63.6h-18.8c-0.7,0-1.2-0.6-1.2-1.3v-3.8c0-0.7,0.6-1.3,1.3-1.3H136c0.7,0,1.3,0.6,1.3,1.3v0v3.8
	C137.3,63,136.7,63.6,136,63.6L136,63.6z"/>
<path class="st4" d="M232.4,23.1h-15.7c-0.5,0-0.9-0.4-0.9-1l0,0c0-0.5,0.4-0.9,0.9-1h15.7c0.5,0,0.9,0.4,0.9,1l0,0
	C233.3,22.7,232.9,23.1,232.4,23.1z"/>
<path class="st4" d="M200.4,138.3h-37.8c-0.5,0-0.9-0.4-0.9-0.9l0,0c0-0.5,0.4-1,0.9-1h37.8c0.6,0,1,0.4,1,1l0,0
	C201.4,137.9,201,138.3,200.4,138.3z"/>
<path class="st4" d="M151.6,138.3H52.8c-0.5,0-1-0.4-1-0.9l0,0c0-0.6,0.4-1,1-1h98.7c0.5,0,1,0.5,0.9,1l0,0
	C152.5,137.9,152.1,138.3,151.6,138.3z"/>
<path class="st6" d="M98.7,124H52.8c-0.5,0-1-0.4-1-0.9c0,0,0,0,0-0.1l0,0c0-0.5,0.4-1,0.9-1c0,0,0.1,0,0.1,0h45.9c0.6,0,1,0.4,1,1
	l0,0C99.7,123.6,99.3,124,98.7,124z"/>
<path class="st6" d="M200.4,124h-11.8c-0.5,0-0.9-0.4-0.9-0.9l0,0c0-0.5,0.4-1,0.9-1h11.8c0.5,0,1,0.4,1,0.9c0,0,0,0.1,0,0.1l0,0
	C201.4,123.6,201,124,200.4,124C200.5,124,200.4,124,200.4,124z"/>
<path class="st6" d="M183.6,124h-21.1c-0.5,0-0.9-0.4-0.9-0.9l0,0c0-0.5,0.4-1,0.9-1h21.1c0.6,0,1,0.4,1,1l0,0
	C184.5,123.6,184.1,124,183.6,124z"/>
<circle class="st4" cx="240.6" cy="22.2" r="4.1"/>
<path class="st2" d="M253.3,12.7H0V1.6C0,0.7,0.7,0,1.6,0c0,0,0,0,0,0h250.1c0.9,0,1.6,0.7,1.6,1.6c0,0,0,0,0,0L253.3,12.7z"/>
<circle class="st7" cx="5.9" cy="6.4" r="2.5"/>
<circle class="st8" cx="12.4" cy="6.4" r="2.4"/>
<circle class="st9" cx="18.9" cy="6.4" r="2.5"/>
<path class="st2" d="M251.7,1.6L251.7,1.6v139.3H1.6V1.6H251.7 M251.7,0H1.6C0.7,0,0,0.7,0,1.6c0,0,0,0,0,0v139.3
	c0,0.9,0.7,1.6,1.6,1.6c0,0,0,0,0,0h250.1c0.9,0,1.6-0.7,1.6-1.6l0,0V1.6C253.3,0.7,252.6,0,251.7,0C251.7,0,251.7,0,251.7,0
	L251.7,0z"/>
<circle class="st9" cx="57.1" cy="80.8" r="3.6"/>
<path class="st4" d="M125.7,84.2H67.4c-0.6,0-1-0.4-1-1l0,0c0-0.5,0.5-1,1-0.9h58.3c0.5,0,0.9,0.4,0.9,0.9l0,0
	C126.6,83.7,126.2,84.2,125.7,84.2z"/>
<path class="st4" d="M85.7,79.3H67.4c-0.5,0-1-0.4-1-0.9l0,0c0-0.6,0.4-1,1-1h18.3c0.5,0,1,0.5,0.9,1l0,0
	C86.6,78.9,86.2,79.3,85.7,79.3z"/>
<path class="st4" d="M198.6,101h-12c-0.8,0-1.4-0.6-1.4-1.4v-2.7c0-0.8,0.6-1.4,1.4-1.4h12.1c0.8,0,1.4,0.7,1.4,1.4v2.7
	C200,100.3,199.4,101,198.6,101z M186.6,95.8c-0.6,0-1.1,0.5-1.1,1.1v2.7c0,0.6,0.5,1.1,1.1,1.1h12.1c0.6,0,1.1-0.5,1.1-1.1l0,0
	v-2.7c0-0.6-0.5-1.1-1.1-1.1l0,0H186.6z"/>
<circle class="st4" cx="57.1" cy="98.2" r="3.6"/>
<path class="st4" d="M112.3,101.6H67.4c-0.6,0-1-0.4-1-1l0,0c0-0.6,0.4-1,1-1h45c0.6,0,1,0.4,1,1l0,0
	C113.3,101.2,112.9,101.6,112.3,101.6L112.3,101.6z"/>
<path class="st4" d="M95.2,96.7H67.4c-0.6,0-1-0.4-1-1l0,0c0-0.6,0.4-1,1-1h27.8c0.5,0,1,0.5,0.9,1l0,0
	C96.1,96.3,95.7,96.7,95.2,96.7z"/>
<path class="st6" d="M201.4,89.9H51.9c-0.2,0-0.3-0.1-0.4-0.3s0.1-0.3,0.3-0.4c0,0,0.1,0,0.1,0h149.5c0.2,0,0.3,0.1,0.4,0.3
	s-0.1,0.3-0.3,0.4C201.4,89.9,201.4,89.9,201.4,89.9z"/>
<path class="st1" d="M59.3,79.9L57,82.4c-0.1,0.1-0.4,0.2-0.5,0c0,0,0,0,0,0l-0.3-0.3c-0.1-0.1-0.1-0.4,0-0.5l2.3-2.5
	c0.1-0.1,0.4-0.2,0.5,0c0,0,0,0,0,0l0.3,0.3C59.4,79.5,59.4,79.7,59.3,79.9z"/>
<path class="st1" d="M55.8,80.2l1.5,1.3c0.1,0.1,0.2,0.4,0,0.5c0,0,0,0,0,0l-0.3,0.3c-0.1,0.1-0.4,0.2-0.5,0c0,0,0,0,0,0L55,81
	c-0.1-0.2-0.1-0.4,0-0.5l0.3-0.3C55.4,80.1,55.6,80,55.8,80.2z"/>
<g>
	<g>
		<path d="M116.5,50.3l0.7-1.6c0.8,0.6,1.8,0.9,2.8,0.9c0.7,0,1.2-0.3,1.2-0.7c0-1.2-4.4-0.3-4.5-3.3c0-1.5,1.4-2.7,3.3-2.7
			c1.1,0,2.3,0.3,3.1,0.9l-0.7,1.7c-0.7-0.5-1.7-0.8-2.6-0.8c-0.6,0-1,0.3-1,0.6c0,1.2,4.5,0.5,4.5,3.4c0,1.6-1.3,2.7-3.2,2.7
			C118.7,51.4,117.4,51.1,116.5,50.3"/>
		<path d="M143.5,48.1c-0.4,0.6-1,1-1.8,1c-1.1,0-2-0.9-2-2s0.9-2,2-2c0.8,0,1.4,0.4,1.8,1l1.9-1.1c-0.7-1.3-2.1-2.2-3.7-2.2
			c-2.4,0-4.3,1.9-4.3,4.3s1.9,4.3,4.3,4.3c1.6,0,3-0.9,3.7-2.2L143.5,48.1z"/>
		<rect x="124.3" y="39.3" width="2.4" height="11.9"/>
		<polygon points="146.4,39.3 146.4,51.2 148.8,51.2 148.8,47.7 151.7,51.2 154.8,51.2 151.1,47 154.5,43 151.5,43 148.8,46.3 
			148.8,39.3 		"/>
		<path d="M134,48.1c-0.4,0.6-1.1,1-1.9,1c-1.1,0-2-0.9-2-2s0.9-2,2-2c0.8,0,1.5,0.5,1.9,1V48.1z M134,43v1
			c-0.4-0.7-1.4-1.1-2.4-1.1c-2.1,0-3.8,1.9-3.8,4.2s1.7,4.3,3.8,4.3c1,0,2-0.5,2.4-1.1v1h2.4V43C136.4,43,134,43,134,43z"/>
	</g>
	<g>
		<g>
			<path class="st10" d="M101.4,48.1c0,0.8-0.7,1.5-1.5,1.5s-1.5-0.7-1.5-1.5s0.7-1.5,1.5-1.5h1.5V48.1z"/>
			<path class="st10" d="M102.2,48.1c0-0.8,0.7-1.5,1.5-1.5s1.5,0.7,1.5,1.5v3.7c0,0.8-0.7,1.5-1.5,1.5s-1.5-0.7-1.5-1.5V48.1z"/>
		</g>
		<g>
			<path class="st11" d="M103.7,42.1c-0.8,0-1.5-0.7-1.5-1.5s0.7-1.5,1.5-1.5s1.5,0.7,1.5,1.5v1.5H103.7z"/>
			<path class="st11" d="M103.7,42.9c0.8,0,1.5,0.7,1.5,1.5s-0.7,1.5-1.5,1.5h-3.8c-0.8,0-1.5-0.7-1.5-1.5s0.7-1.5,1.5-1.5H103.7z"
				/>
		</g>
		<g>
			<path class="st12" d="M109.7,44.4c0-0.8,0.7-1.5,1.5-1.5s1.5,0.7,1.5,1.5s-0.7,1.5-1.5,1.5h-1.5V44.4z"/>
			<path class="st12" d="M108.9,44.4c0,0.8-0.7,1.5-1.5,1.5s-1.5-0.7-1.5-1.5v-3.8c0-0.8,0.7-1.5,1.5-1.5s1.5,0.7,1.5,1.5V44.4z"/>
		</g>
		<g>
			<path class="st13" d="M107.4,50.4c0.8,0,1.5,0.7,1.5,1.5s-0.7,1.5-1.5,1.5s-1.5-0.7-1.5-1.5v-1.5H107.4z"/>
			<path class="st13" d="M107.4,49.6c-0.8,0-1.5-0.7-1.5-1.5s0.7-1.5,1.5-1.5h3.8c0.8,0,1.5,0.7,1.5,1.5s-0.7,1.5-1.5,1.5H107.4z"/>
		</g>
	</g>
</g>
</svg>
