<svg id="Layer_1" data-name="Layer 1" xmlns="http://www.w3.org/2000/svg" xmlns:xlink="http://www.w3.org/1999/xlink" viewBox="0 0 879 549.33"><defs><style>.cls-1{fill:url(#linear-gradient);}.cls-2,.cls-3{fill:#fff;}.cls-2{opacity:0.65;isolation:isolate;}</style><linearGradient id="linear-gradient" x1="439.5" y1="1889.73" x2="439.5" y2="-561.44" gradientTransform="translate(0 600)" gradientUnits="userSpaceOnUse"><stop offset="0" stop-color="#80868d"/><stop offset="1" stop-color="#f7f9fc"/></linearGradient></defs><title>Artboard 8</title><rect id="_Clipping_Path_" data-name="&lt;Clipping Path&gt;" class="cls-1" y="0.33" width="879" height="549"/><path class="cls-2" d="M878.57,360.19v188.9H.12v-81q4.48-.18,9-.07A96.48,96.48,0,0,1,108.55,430a95.73,95.73,0,0,1,37.13,17.11,44.05,44.05,0,0,1,69.93-16,95.43,95.43,0,0,1,32.46-7.85c3.08-.19,6.2-.24,9.35-.13a95.46,95.46,0,0,1,55.13,19.57,97,97,0,0,1,22.9-3.54A96,96,0,0,1,405,465.47,150.18,150.18,0,0,1,466.43,437c-.05-.72-.11-1.33-.11-2.05a44,44,0,0,1,42.53-45.42,41.88,41.88,0,0,1,14.48,1.94,96.38,96.38,0,0,1,138-31.22A78.05,78.05,0,0,1,767.05,394.1a110,110,0,0,1,25-2.83v-.16a96.56,96.56,0,0,1,86.57-30.92Z"/><path class="cls-3" d="M878.57,420V549.09H.12V455.87a139.58,139.58,0,0,1,21.24-2.24h.49a135.89,135.89,0,0,1,64.28,14.15A100.67,100.67,0,0,1,272,454.24a137,137,0,0,1,86.84,42.48,63.2,63.2,0,0,1,13.42-1.11,59.93,59.93,0,0,1,56.45,45.81,59.73,59.73,0,0,1,59,2.33A138.08,138.08,0,0,1,509.63,523a59.84,59.84,0,0,1,105.53-26.12,138.45,138.45,0,0,1,33.38,9.92,137.61,137.61,0,0,1,125.22-72.36,135.64,135.64,0,0,1,40.76,7.37,85.81,85.81,0,0,1,57.34-22.07Q875.25,419.75,878.57,420Z"/></svg>