<?xml version="1.0" encoding="UTF-8"?>
<svg width="24px" height="24px" viewBox="0 0 24 24" version="1.1" xmlns="http://www.w3.org/2000/svg" xmlns:xlink="http://www.w3.org/1999/xlink">
    <!-- Generator: Sketch 44.1 (41455) - http://www.bohemiancoding.com/sketch -->
    <title>configuration-error-no-triangle</title>
    <desc>Created with Sketch.</desc>
    <defs></defs>
    <g id="Page-1" stroke="none" stroke-width="1" fill="none" fill-rule="evenodd">
        <g id="configuration-error-no-triangle" fill="#555555">
            <g id="configuration" transform="translate(3.000000, 3.000000)" fill-rule="nonzero">
                <path d="M1.8955402,14.627539 C2.30233987,14.2207399 2.96263933,14.2216399 3.370489,14.6294889 C3.77833867,15.037263 3.77923867,15.6976365 3.372439,16.1044356 C2.96571433,16.5112347 2.30533987,16.5103347 1.8974902,16.1024856 C1.48964053,15.6946366 1.48881553,15.034263 1.8955402,14.627539 Z M9.06755937,6.57383205 L0.466041361,14.3228896 C-0.182633112,14.9072133 -0.154508134,15.9717609 0.552666291,16.6789343 L1.32104067,17.4473076 C2.02821509,18.154556 3.09276423,18.182606 3.67708875,17.5339324 L11.4260825,8.93242675 C13.1438811,9.70275002 15.2290294,9.38490073 16.6362532,7.97775389 C17.8371522,6.77685659 18.2447769,5.0822354 17.8597272,3.54361385 L15.1910044,6.21225786 L12.5287316,5.47125952 L11.7877322,2.8089905 L14.45638,0.140271501 C12.9177562,-0.244777634 11.2231326,0.16284645 10.0222336,1.36381875 C8.61508474,2.77096559 8.29731,4.85611091 9.06755937,6.57383205 Z" id="Shape" fill="#4BC077"></path>
            </g>
            <g id="error" transform="translate(19.000000, 12.000000)">
                <rect id="Rectangle" x="0" y="0.794117647" width="2.2" height="5.4" rx="0.9" fill="#ff000c"></rect>
                <circle id="Oval-3-Copy-2" cx="1.1" cy="7.99411765" r="1.3" fill="#ff000c"></circle>
            </g>
        </g>
    </g>
</svg>