<?xml version="1.0" encoding="UTF-8"?>
<svg width="24px" height="24px" viewBox="0 0 24 24" version="1.1" xmlns="http://www.w3.org/2000/svg" xmlns:xlink="http://www.w3.org/1999/xlink">
    <!-- Generator: Sketch 44.1 (41455) - http://www.bohemiancoding.com/sketch -->
    <title>configuration</title>
    <desc>Created with Sketch.</desc>
    <defs></defs>
    <g id="Page-1" stroke="none" stroke-width="1" fill="#4BC077" fill-rule="evenodd">
        <g id="configuration" fill-rule="nonzero" fill="#4BC077">
            <g transform="translate(3.000000, 3.000000)" id="Shape">
                <path d="M1.8955507,14.627504 C2.30234978,14.220705 2.9626483,14.221605 3.37049738,14.629454 C3.77834647,15.0372281 3.77924646,15.6976016 3.37244738,16.1044007 C2.96572329,16.5111998 2.30534978,16.5102998 1.89750069,16.1024507 C1.48965161,15.6946016 1.48882661,15.0342281 1.8955507,14.627504 Z M9.06755958,6.57379714 L0.466053909,14.3228547 C-0.182619634,14.9071784 -0.154494697,15.971726 0.552678714,16.6788994 L1.32105199,17.4472727 C2.0282254,18.1545211 3.09277301,18.1825711 3.67709669,17.5338975 L11.4260793,8.93239184 C13.1438754,9.70271511 15.2290207,9.38486582 16.6362426,7.97771899 C17.8371399,6.77682168 18.244764,5.08220049 17.8597148,3.54357895 L15.1909958,6.21222295 L12.5287268,5.47122462 L11.7877285,2.8089556 L14.4563725,0.140236595 C12.9177509,-0.24481254 11.2231297,0.162811544 10.0222324,1.36378385 C8.6150856,2.77093068 8.29731131,4.856076 9.06755958,6.57379714 Z"></path>
            </g>
        </g>
    </g>
</svg>