<svg xmlns="http://www.w3.org/2000/svg" xmlns:xlink="http://www.w3.org/1999/xlink" width="36" height="36" viewBox="0 0 36 36">
  <defs>
    <rect id="send_review-copy-a" width="36" height="36" x="0" y="0" rx="4"/>
    <path id="send_review-copy-c" d="M14.0024814,5.90769231 L17.9013047,5.90769231 C18.1865845,5.90769231 18.4243176,5.66754221 18.4243176,5.3793621 C18.4243176,5.23527205 18.376771,5.13921201 18.2816777,4.99512195 L13.4319219,0.144090056 C13.289282,0.0480300188 13.1941887,0 13.0515489,0 C12.7662691,0 12.528536,0.240150094 12.528536,0.528330206 L12.528536,4.41876173 C12.528536,5.23527205 13.1941887,5.90769231 14.0024814,5.90769231 Z M22.5976474,10.9795696 L22.1716365,10.5521642 C21.8876291,10.2672273 21.4616181,10.2672273 21.1302763,10.5521642 L15.4974644,16.2034133 C15.4501298,16.2509028 15.4974644,16.2983923 15.4974644,16.3458818 L15.4974644,17.533119 C15.4974644,17.6280979 15.4974644,17.7230769 15.5921335,17.7230769 L16.8228319,17.7230769 C16.8701664,17.7230769 16.917501,17.6755874 16.9648355,17.6755874 L22.5976474,12.0718279 C22.9289893,11.6919119 22.9289893,11.2645066 22.5976474,10.9795696 L22.5976474,10.9795696 Z M9.54455629,0 C9.97192448,0 10.304322,0.337123746 10.304322,0.722408027 L10.304322,0.722408027 L10.304322,5.92374582 C10.304322,7.1277592 11.2540291,8.13913043 12.4886483,8.13913043 L12.4886483,8.13913043 L17.7120373,8.13913043 C18.0919201,8.13913043 18.4243176,8.47625418 18.4243176,8.86153846 L18.4243176,8.86153846 L18.4243176,9.82474916 C18.4243176,10.0173913 18.3293469,10.2100334 18.1868908,10.3545151 L18.1868908,10.3545151 L13.6757821,14.9297659 C13.3433847,15.1705686 13.248414,15.5558528 13.248414,15.9411371 L13.248414,15.9411371 L13.2487709,17.5099475 C11.7582093,16.5949995 10.522409,16.667659 9.70390667,17.872444 L9.51005409,18.1961123 L9.38118043,18.3980212 C8.73996427,19.367981 8.46934686,19.2002465 8.04931427,17.7768613 L7.97311705,17.5111259 C7.51258523,15.8636592 6.94873149,15.0951721 6.05691904,15.250348 C5.50698409,15.3460371 5.24323887,15.6009311 4.47671801,16.5908362 L4.1369864,17.0281118 L3.96011901,17.2433263 L3.90497405,17.3069952 C3.37731491,17.90791 3.26860231,17.9258069 3.1133771,17.6651473 C2.96179367,17.410603 2.62318622,17.321796 2.35707619,17.4667913 C2.09096616,17.6117865 1.99812401,17.9356773 2.14970745,18.1902215 C2.77716921,19.2438774 3.80048863,19.0754126 4.75420658,17.9892887 L4.88034792,17.8417994 L5.01352643,17.6781433 L5.45491948,17.1113924 L5.70282816,16.8037731 C5.97262324,16.4791796 6.12651079,16.3362729 6.228753,16.3010558 L6.25540505,16.2940655 C6.2504927,16.2949203 6.25391186,16.2977853 6.28328155,16.3357782 L6.34900135,16.4232533 L6.34900135,16.4232533 C6.50941836,16.6418887 6.67969975,17.0331599 6.85047276,17.6073899 L6.90171004,17.785158 C7.67982274,20.568711 9.23275091,20.8605558 10.6533863,18.4194626 C11.1353278,17.7121783 11.9350026,17.7728605 13.2821639,18.8442904 C13.4179993,19.470276 13.9684802,19.9384615 14.6254892,19.9384615 L14.6254892,19.9384615 L17.9969494,19.9384615 C18.1868908,19.9384615 18.3768323,20.1792642 18.3293469,20.3719064 C18.1394055,21.3832776 17.1896984,22.1538462 16.1450206,22.1538462 L16.1450206,22.1538462 L2.18432632,22.1538462 C0.997192448,22.1538462 0,21.1424749 0,19.9384615 L0,19.9384615 L0,2.21538462 C0,1.01137124 0.997192448,0 2.18432632,0 L2.18432632,0 Z"/>
  </defs>
  <g fill="none" fill-rule="evenodd">
    <mask id="send_review-copy-b" fill="#fff">
      <use xlink:href="#send_review-copy-a"/>
    </mask>
    <use fill="#E53535" xlink:href="#send_review-copy-a"/>
    <g mask="url(#send_review-copy-b)">
      <g transform="translate(6.77 6.77)">
        <mask id="send_review-copy-d" fill="#fff">
          <use xlink:href="#send_review-copy-c"/>
        </mask>
        <use fill="#0079CC" xlink:href="#send_review-copy-c"/>
        <g mask="url(#send_review-copy-d)">
          <rect width="28.385" height="27.692" fill="#FFF" transform="translate(-2.77 -2.77)"/>
        </g>
      </g>
    </g>
  </g>
</svg>
