<svg xmlns="http://www.w3.org/2000/svg" xmlns:xlink="http://www.w3.org/1999/xlink" width="16" height="14" viewBox="0 0 16 14">
  <defs>
    <path id="comments-copy-2-a" d="M14.7214739,9.50769231 C14.6907046,9.38461538 14.6907046,9.26153846 14.7522431,9.13846154 C15.1522431,8.43076923 15.3983969,7.63076923 15.3983969,6.76923077 C15.3983969,4.06153846 13.0599354,1.84615385 10.1676277,1.84615385 C8.81378156,1.84615385 7.58301233,2.33846154 6.65993541,3.13846154 C9.82916618,3.50769231 12.3214739,6.09230769 12.3214739,9.23076923 C12.3214739,10 12.1676277,10.7384615 11.8907046,11.4153846 C12.2291662,11.2923077 12.5676277,11.1384615 12.87532,10.9846154 C12.9983969,10.9230769 13.1214739,10.8923077 13.2445508,10.9538462 L15.1214739,11.6923077 C15.3060893,11.7538462 15.4599354,11.6 15.3983969,11.4153846 L14.7214739,9.50769231 L14.7214739,9.50769231 Z M5.85993541,4.30769231 C2.96762772,4.30769231 0.629166177,6.52307692 0.629166177,9.23076923 C0.629166177,10.0923077 0.875320023,10.8923077 1.27532002,11.6 C1.33685848,11.7230769 1.36762772,11.8461538 1.30608925,11.9692308 L0.629166177,13.8461538 C0.567627716,14.0307692 0.721473869,14.1846154 0.906089254,14.1230769 L2.78301233,13.3846154 C2.90608925,13.3538462 3.02916618,13.3538462 3.1522431,13.4153846 C3.9522431,13.8769231 4.87532002,14.1230769 5.85993541,14.1230769 C8.7522431,14.1230769 11.0907046,11.9076923 11.0907046,9.2 C11.0907046,6.52307692 8.7522431,4.30769231 5.85993541,4.30769231 L5.85993541,4.30769231 Z"/>
  </defs>
  <use fill="#706E6B" fill-rule="evenodd" transform="translate(0 -1)" xlink:href="#comments-copy-2-a"/>
</svg>
