<svg xmlns="http://www.w3.org/2000/svg" xmlns:xlink="http://www.w3.org/1999/xlink" width="26" height="26" viewBox="0 0 26 26">
  <defs>
    <path id="answer-copy-a" d="M13,2 C6.35,2 1,6.9 1,13 C1,14.95 1.55,16.75 2.5,18.4 C2.6,18.6 2.65,18.85 2.6,19.05 L1.5,22.5 C1.3,23.15 1.9,23.7 2.55,23.5 L6.05,22.3 C6.3,22.2 6.55,22.25 6.75,22.4 C8.6,23.45 10.75,24.05 13.05,24.05 C19.7,24.05 25.05,19.15 25.05,13.05 C24.95,6.9 19.6,2 13,2 L13,2 Z"/>
  </defs>
  <g fill="none" fill-rule="evenodd">
    <mask id="answer-copy-b" fill="#fff">
      <use xlink:href="#answer-copy-a"/>
    </mask>
    <use fill="#706E6B" xlink:href="#answer-copy-a"/>
    <g fill="#027E46" mask="url(#answer-copy-b)">
      <rect width="27" height="27" transform="translate(-1 -1)"/>
    </g>
    <path fill="#FFF" d="M18.75,10.55 L12.65,16.55 C12.4,16.8 12.15,16.9 11.8,16.9 C11.5,16.9 11.2,16.8 10.95,16.55 L8,13.65 C7.75,13.4 7.75,13.05 8,12.85 L8.85,12.05 C9.1,11.8 9.45,11.8 9.7,12.05 L11.8,14.15 L17.05,8.95 C17.3,8.7 17.65,8.7 17.9,8.95 L18.75,9.75 C18.95,9.95 18.95,10.35 18.75,10.55 Z" mask="url(#answer-copy-b)"/>
  </g>
</svg>
