<svg xmlns="http://www.w3.org/2000/svg" viewBox="0 0 448 448">
	<path id="svg_1" fill="#333333" stroke="null" d="m235.29656,301.83046l14.09659,0a7.0483,7.09126 0 0 0 7.0483,-7.09126l0,-127.64274a7.0483,7.09126 0 0 0 -7.0483,-7.09126l-14.09659,0a7.0483,7.09126 0 0 0 -7.0483,7.09126l0,127.64274a7.0483,7.09126 0 0 0 7.0483,7.09126zm96.3267,-198.55537l-48.40417,0l-19.97017,-33.50622a28.19318,28.36505 0 0 0 -24.1874,-13.76887l-59.21743,0a28.19318,28.36505 0 0 0 -24.17565,13.76887l-19.98192,33.50622l-48.40417,0a9.39773,9.45502 0 0 0 -9.39773,9.45502l0,9.45502a9.39773,9.45502 0 0 0 9.39773,9.45502l9.39773,0l0,198.55537a28.19318,28.36505 0 0 0 28.19318,28.36505l169.15909,0a28.19318,28.36505 0 0 0 28.19318,-28.36505l0,-198.55537l9.39773,0a9.39773,9.45502 0 0 0 9.39773,-9.45502l0,-9.45502a9.39773,9.45502 0 0 0 -9.39773,-9.45502zm-152.80704,-17.1904a3.52415,3.54563 0 0 1 3.03077,-1.71963l55.21165,0a3.52415,3.54563 0 0 1 3.02489,1.71963l10.25527,17.1904l-81.77197,0l10.2494,-17.1904l-0.00001,0zm115.21613,244.11083l-169.15909,0l0,-198.55537l169.15909,0l0,198.55537zm-124.51988,-28.36505l14.09659,0a7.0483,7.09126 0 0 0 7.0483,-7.09126l0,-127.64274a7.0483,7.09126 0 0 0 -7.0483,-7.09126l-14.09659,0a7.0483,7.09126 0 0 0 -7.0483,7.09126l0,127.64274a7.0483,7.09126 0 0 0 7.0483,7.09126z"/>
</svg>