<svg xmlns="http://www.w3.org/2000/svg" width="284" height="173" viewBox="0 0 284 173">
  <g fill="none" fill-rule="evenodd" transform="translate(-10 -20)">
    <rect width="300" height="200"/>
    <g transform="translate(29 22)">
      <polyline fill="#FFF" points=".634 19.118 19.664 0 84.366 65" transform="translate(143 23)"/>
      <polyline stroke="#C2E8FF" stroke-linecap="round" stroke-linejoin="round" stroke-width="3" points="13.455 87.362 100 0 152.364 51.855"/>
      <polyline stroke="#C2E8FF" stroke-linecap="round" stroke-linejoin="round" stroke-width="3" points="100 .638 100 68.87 80.909 49.739 44 87.362"/>
      <polyline stroke="#C2E8FF" stroke-linecap="round" stroke-linejoin="round" stroke-width="3" points="143.273 42.087 162.364 22.957 227.273 88"/>
      <path fill="#C2E8FF" d="M137.197281 26.6383112L140.727273 38.2608696 140.727273 38.2608696 137.778498 36.3708673 133.314555 32.6963529 135.289405 26.6198386C135.460107 26.0945965 136.024281 25.8071851 136.549523 25.9778872 136.860407 26.0789236 137.102283 26.3255291 137.197281 26.6383112zM225.684114 75.5707062L229.181818 87.0869565 229.181818 87.0869565 225.638317 87.0869565 221.769101 82.160121 223.770431 75.5707062C223.930931 75.0422573 224.489435 74.7439758 225.017884 74.9044757 225.337221 75.0014645 225.587125 75.2513689 225.684114 75.5707062zM5.74323289 75.765356L9.18181818 87.0869565 9.18181818 87.0869565 5.63831676 87.0869565.769100874 87.160121 3.82060751 75.7966193C3.96384122 75.2632315 4.51235133 74.9469491 5.04573913 75.0901828 5.37920843 75.1797312 5.64288974 75.4349744 5.74323289 75.765356z"/>
      <path fill="#C2E8FF" d="M12.5118219 81.7908008L14.0909091 87.7246377 14.0909091 87.7246377 9 87.7246377 10.5790872 81.7908008C10.7211158 81.2570908 11.2689101 80.9395703 11.8026201 81.0815989 12.1490519 81.1737899 12.419631 81.4443689 12.5118219 81.7908008zM230.784549 81.7908008L232.363636 87.7246377 232.363636 87.7246377 227.272727 87.7246377 228.851814 81.7908008C228.993843 81.2570908 229.541637 80.9395703 230.075347 81.0815989 230.421779 81.1737899 230.692358 81.4443689 230.784549 81.7908008z"/>
    </g>
    <g stroke-linecap="round" stroke-width="3" transform="translate(12 109)">
      <path stroke="#C2E8FF" stroke-linejoin="round" d="M68.6372606 22.1543876C61.8881972 22.1543876 58.1840198 16.2091973 58.1840198 16.2091973 58.1724533 16.2091973 54.7487639 22.1543876 47.7047543 22.1543876 40.9527994 22.1543876 37.2515136 16.2091973 37.2515136 16.2091973 37.239947 16.2091973 31.4451215 23.556828 24.3577375 22.050289M66.8594335 6.36153137C59.6159016 7.86807036 55.1194176.638996521 55.1194176.638996521L55.1107427.638996521C55.1107427.638996521 51.6812701 6.58418685 44.6372606 6.58418685 37.8881972 6.58418685 34.1840198.638996521 34.1840198.638996521L34.1724533.638996521C34.1724533.638996521 30.7487639 6.58418685 23.7047543 6.58418685 16.9527994 6.58418685 13.2515136.638996521 13.2515136.638996521L13.239947.638996521C13.239947.638996521 7.44512146 7.98662717.357737464 6.48008818" transform="translate(19 17)"/>
      <g stroke="#8CD3F8">
        <path stroke-linejoin="round" d="M0,1.5 L119,1.5 C105.09085,3.48210094 97.7575171,9.98210094 97,21 C97,36.685446 111.935059,41.5 119,41.5 L183,41.5 C192.415527,41.5 202,41.6098885 202,51 C202,60.3901115 193.468506,61.5 185,61.5 L157,61.5 C152.502197,61.5 146,64.7274061 146,72 C146,79.2725939 152.481445,82.5 156,82.5"/>
        <line x1="216" x2="256" y1="1.5" y2="1.5"/>
        <line x1="262" x2="280" y1="1.5" y2="1.5"/>
      </g>
    </g>
    <g transform="translate(174 87)">
      <path fill="#C2E8FF" d="M18.9136025,2.35240645 L33.2155648,49.4185143 C33.5367105,50.4753677 32.9403015,51.5924567 31.8834481,51.9136025 C31.6949332,51.9708864 31.4989885,52 31.3019623,52 L2.69803765,52 C1.59346815,52 0.698037653,51.1045695 0.698037653,50 C0.698037653,49.8029739 0.727151263,49.6070291 0.784435201,49.4185143 L15.0863975,2.35240645 C15.4075433,1.295553 16.5246323,0.699144029 17.5814857,1.02028973 C18.2199465,1.2142986 18.7195936,1.71394567 18.9136025,2.35240645 Z" transform="translate(0 1)"/>
      <g stroke="#8CD3F8" stroke-linecap="round" stroke-linejoin="round" stroke-width="3">
        <polygon points="17.5 .5 34 53.5 0 53.5"/>
        <path d="M17.5,5.32394366 C17.5,42.4711356 17.5,61.4711356 17.5,62.3239437 C17.5,61.4711356 17.5,42.4711356 17.5,5.32394366 Z"/>
        <path d="M18,28.3239437 C23.3333333,34.7851611 26,38.1184944 26,38.3239437 C26,38.1184944 23.3333333,34.7851611 18,28.3239437 Z" transform="matrix(-1 0 0 1 44 0)"/>
      </g>
    </g>
    <g transform="translate(132 62)">
      <path fill="#C2E8FF" d="M25.6478873,0 L50.7274574,72.3449136 C51.0892516,73.3885508 50.5365086,74.5278782 49.4928714,74.8896724 C49.2821865,74.9627098 49.0607706,75 48.837785,75 L2.45798968,75 C1.35342018,75 0.457989684,74.1045695 0.457989684,73 C0.457989684,72.7770143 0.495279843,72.5555985 0.568317287,72.3449136 L25.6478873,0 L25.6478873,0 Z" transform="translate(1 3)"/>
      <g stroke="#8CD3F8" stroke-linecap="round" stroke-linejoin="round" stroke-width="3">
        <polygon points="26.5 0 52.648 78.5 .648 78.5"/>
        <path d="M26.5 5C26.5 58.1639615 26.5 85.4972948 26.5 87 26.5 85.4972948 26.5 58.1639615 26.5 5zM15.6478873 33C22.9812207 40.078692 26.6478873 43.7453587 26.6478873 44 26.6478873 43.7453587 22.9812207 40.078692 15.6478873 33zM27.6478873 62C36.9812207 51.078692 41.6478873 45.7453587 41.6478873 46 41.6478873 45.7453587 36.9812207 51.078692 27.6478873 62z"/>
      </g>
    </g>
  </g>
</svg>
