<?xml version="1.0" standalone="no"?><!-- Generator: Gravit.io --><svg xmlns="http://www.w3.org/2000/svg" xmlns:xlink="http://www.w3.org/1999/xlink" style="isolation:isolate" viewBox="1472.085 148.388 320 308" width="320" height="308"><defs><clipPath id="_clipPath_FlQyV7NN4x2n37Dyrzx09DPWGptNdM5K"><rect width="2834.646" height="595.276"/></clipPath></defs><g clip-path="url(#_clipPath_FlQyV7NN4x2n37Dyrzx09DPWGptNdM5K)"><g><path d=" M 240.745 291.888 L 293.774 291.888 C 303.873 291.888 312.072 300.087 312.072 310.185 L 312.072 443.59 C 312.072 453.689 303.873 461.888 293.774 461.888 L 216.351 461.888 C 206.252 461.888 198.053 453.689 198.053 443.59 L 198.053 324.917 C 203.005 331 210.552 334.888 219 334.888 C 233.902 334.888 246 322.79 246 307.888 C 246 301.901 244.047 296.367 240.745 291.888 Z " fill-rule="evenodd" fill="rgb(142,68,173)"/><path d="M 336.274 170.611 L 344.533 170.611 C 349.294 170.611 353.16 174.476 353.16 179.237 L 353.16 453.262 C 353.16 458.022 349.294 461.888 344.533 461.888 L 336.274 461.888 C 331.513 461.888 327.648 458.022 327.648 453.262 L 327.648 179.237 C 327.648 174.476 331.513 170.611 336.274 170.611 Z" style="stroke:none;fill:#8E44AD;stroke-miterlimit:10;"/><circle vector-effect="non-scaling-stroke" cx="376.2310019708177" cy="272.7381797237157" r="30.603181065351578" fill="rgb(142,68,173)"/><circle vector-effect="non-scaling-stroke" cx="315.5358540670074" cy="234.33075261156355" r="17.46414593299221" fill="rgb(142,68,173)"/><rect x="316.633" y="160.888" width="6.404" height="61" transform="matrix(1,0,0,1,0,0)" fill="rgb(142,68,173)"/><rect x="327.648" y="147.388" width="8.504" height="61" transform="matrix(1,0,0,1,0,0)" fill="rgb(142,68,173)"/><circle vector-effect="non-scaling-stroke" cx="217.52649962526476" cy="306.3612956503258" r="15.47350037473501" fill="rgb(142,68,173)"/></g><g><g><path d=" M 722.745 291.888 L 775.774 291.888 C 785.873 291.888 794.072 300.087 794.072 310.185 L 794.072 443.59 C 794.072 453.689 785.873 461.888 775.774 461.888 L 698.351 461.888 C 688.252 461.888 680.053 453.689 680.053 443.59 L 680.053 324.917 C 685.005 331 692.552 334.888 701 334.888 C 715.902 334.888 728 322.79 728 307.888 C 728 301.901 726.047 296.367 722.745 291.888 Z " fill-rule="evenodd" fill="rgb(142,68,173)"/><path d="M 818.274 170.611 L 826.533 170.611 C 831.294 170.611 835.16 174.476 835.16 179.237 L 835.16 453.262 C 835.16 458.022 831.294 461.888 826.533 461.888 L 818.274 461.888 C 813.513 461.888 809.648 458.022 809.648 453.262 L 809.648 179.237 C 809.648 174.476 813.513 170.611 818.274 170.611 Z" style="stroke:none;fill:#8E44AD;stroke-miterlimit:10;"/><circle vector-effect="non-scaling-stroke" cx="858.2310019708177" cy="272.7381797237157" r="30.603181065351578" fill="rgb(142,68,173)"/><circle vector-effect="non-scaling-stroke" cx="797.5358540670074" cy="234.33075261156355" r="17.46414593299221" fill="rgb(142,68,173)"/><rect x="798.633" y="160.888" width="6.404" height="61" transform="matrix(1,0,0,1,0,0)" fill="rgb(142,68,173)"/><rect x="809.648" y="147.388" width="8.504" height="61" transform="matrix(1,0,0,1,0,0)" fill="rgb(142,68,173)"/><circle vector-effect="non-scaling-stroke" cx="699.5264996252648" cy="306.3612956503258" r="15.473500374734954" fill="rgb(142,68,173)"/></g><g><rect x="914.718" y="149.051" width="20.837" height="72.673" transform="matrix(1,0,0,1,0,0)" fill="rgb(39,174,96)"/><rect x="914.718" y="149.051" width="20.837" height="72.673" transform="matrix(0,1,-1,0,1110.524,-739.749)" fill="rgb(39,174,96)"/></g></g><g><path d=" M 1175.061 291.888 L 1228.091 291.888 C 1238.189 291.888 1246.388 300.087 1246.388 310.185 L 1246.388 443.59 C 1246.388 453.689 1238.189 461.888 1228.091 461.888 L 1150.667 461.888 C 1140.568 461.888 1132.37 453.689 1132.37 443.59 L 1132.37 324.917 C 1137.322 331 1144.869 334.888 1153.317 334.888 C 1168.218 334.888 1180.317 322.79 1180.317 307.888 C 1180.317 301.901 1178.364 296.367 1175.061 291.888 Z " fill-rule="evenodd" fill="rgb(142,68,173)"/><rect x="1356.008" y="137.051" width="20.837" height="72.673" transform="matrix(0,1,-1,0,1539.815,-1193.039)" fill="rgb(192,57,43)"/><path d="M 1270.591 170.611 L 1278.85 170.611 C 1283.611 170.611 1287.476 174.476 1287.476 179.237 L 1287.476 453.262 C 1287.476 458.022 1283.611 461.888 1278.85 461.888 L 1270.591 461.888 C 1265.83 461.888 1261.964 458.022 1261.964 453.262 L 1261.964 179.237 C 1261.964 174.476 1265.83 170.611 1270.591 170.611 Z" style="stroke:none;fill:#8E44AD;stroke-miterlimit:10;"/><circle vector-effect="non-scaling-stroke" cx="1310.5475818166672" cy="272.7381797237157" r="30.603181065351464" fill="rgb(142,68,173)"/><circle vector-effect="non-scaling-stroke" cx="1249.8524339128564" cy="234.33075261156355" r="17.464145932992096" fill="rgb(142,68,173)"/><rect x="1250.949" y="160.888" width="6.404" height="61" transform="matrix(1,0,0,1,0,0)" fill="rgb(142,68,173)"/><rect x="1261.964" y="147.388" width="8.504" height="61" transform="matrix(1,0,0,1,0,0)" fill="rgb(142,68,173)"/><circle vector-effect="non-scaling-stroke" cx="1151.8430794711142" cy="306.3612956503258" r="15.473500374735067" fill="rgb(142,68,173)"/></g><g><g style="opacity:0.4;"><path d=" M 2141.71 368.43 L 2169.069 368.43 C 2174.279 368.43 2178.509 372.66 2178.509 377.871 L 2178.509 446.698 C 2178.509 451.908 2174.279 456.138 2169.069 456.138 L 2129.124 456.138 C 2123.914 456.138 2119.684 451.908 2119.684 446.698 L 2119.684 385.471 C 2122.239 388.609 2126.133 390.615 2130.491 390.615 C 2138.179 390.615 2144.421 384.373 2144.421 376.685 C 2144.421 373.596 2143.414 370.741 2141.71 368.43 Z " fill-rule="evenodd" fill="rgb(142,68,173)"/><path d="M 2190.996 305.86 L 2195.257 305.86 C 2197.714 305.86 2199.708 307.854 2199.708 310.311 L 2199.708 451.688 C 2199.708 454.144 2197.714 456.138 2195.257 456.138 L 2190.996 456.138 C 2188.54 456.138 2186.546 454.144 2186.546 451.688 L 2186.546 310.311 C 2186.546 307.854 2188.54 305.86 2190.996 305.86 Z" style="stroke:none;fill:#8E44AD;stroke-miterlimit:10;"/><circle vector-effect="non-scaling-stroke" cx="2211.6112119684713" cy="358.5504654134026" r="15.789107896692713" fill="rgb(142,68,173)"/><circle vector-effect="non-scaling-stroke" cx="2180.296747076326" cy="338.7349106378011" r="9.010281770079928" fill="rgb(142,68,173)"/><rect x="2180.863" y="300.843" width="3.304" height="31.472" transform="matrix(1,0,0,1,0,0)" fill="rgb(142,68,173)"/><rect x="2186.546" y="293.878" width="4.387" height="31.472" transform="matrix(1,0,0,1,0,0)" fill="rgb(142,68,173)"/><circle vector-effect="non-scaling-stroke" cx="2129.7307530098506" cy="375.8976491605626" r="7.9832474419731625" fill="rgb(142,68,173)"/></g><g style="opacity:0.4;"><path d=" M 1931.079 231.94 L 1958.438 231.94 C 1963.649 231.94 1967.879 236.17 1967.879 241.38 L 1967.879 310.208 C 1967.879 315.418 1963.649 319.648 1958.438 319.648 L 1918.493 319.648 C 1913.283 319.648 1909.053 315.418 1909.053 310.208 L 1909.053 248.98 C 1911.608 252.119 1915.502 254.125 1919.86 254.125 C 1927.548 254.125 1933.79 247.883 1933.79 240.195 C 1933.79 237.106 1932.783 234.251 1931.079 231.94 Z " fill-rule="evenodd" fill="rgb(142,68,173)"/><path d="M 1980.365 169.369 L 1984.627 169.369 C 1987.083 169.369 1989.077 171.364 1989.077 173.82 L 1989.077 315.197 C 1989.077 317.654 1987.083 319.648 1984.627 319.648 L 1980.365 319.648 C 1977.909 319.648 1975.915 317.654 1975.915 315.197 L 1975.915 173.82 C 1975.915 171.364 1977.909 169.369 1980.365 169.369 Z" style="stroke:none;fill:#8E44AD;stroke-miterlimit:10;"/><circle vector-effect="non-scaling-stroke" cx="2000.9804267869083" cy="222.05985471663075" r="15.789107896692485" fill="rgb(142,68,173)"/><circle vector-effect="non-scaling-stroke" cx="1969.6659618947617" cy="202.2442999410292" r="9.010281770080155" fill="rgb(142,68,173)"/><rect x="1970.232" y="164.353" width="3.304" height="31.472" transform="matrix(1,0,0,1,0,0)" fill="rgb(142,68,173)"/><rect x="1975.915" y="157.388" width="4.387" height="31.472" transform="matrix(1,0,0,1,0,0)" fill="rgb(142,68,173)"/><circle vector-effect="non-scaling-stroke" cx="1919.0999678282856" cy="239.40703846378995" r="7.983247441972935" fill="rgb(142,68,173)"/></g><line x1="1991.818" y1="162.57" x2="2182.879" y2="289.424" vector-effect="non-scaling-stroke" stroke-width="23" stroke="rgb(52,152,219)" stroke-linejoin="miter" stroke-linecap="round" stroke-miterlimit="3"/></g><g><g><rect x="1744.718" y="149.051" width="20.837" height="72.673" transform="matrix(1,0,0,1,0,0)" fill="rgb(39,174,96)"/><rect x="1744.718" y="149.051" width="20.837" height="72.673" transform="matrix(0,1,-1,0,1940.524,-1569.749)" fill="rgb(39,174,96)"/></g><g style="opacity:0.4;"><path d=" M 1495.079 231.94 L 1522.438 231.94 C 1527.649 231.94 1531.879 236.17 1531.879 241.38 L 1531.879 310.208 C 1531.879 315.418 1527.649 319.648 1522.438 319.648 L 1482.493 319.648 C 1477.283 319.648 1473.053 315.418 1473.053 310.208 L 1473.053 248.98 C 1475.608 252.119 1479.502 254.125 1483.86 254.125 C 1491.548 254.125 1497.79 247.883 1497.79 240.195 C 1497.79 237.106 1496.783 234.251 1495.079 231.94 Z " fill-rule="evenodd" fill="rgb(142,68,173)"/><path d="M 1544.365 169.369 L 1548.627 169.369 C 1551.083 169.369 1553.077 171.364 1553.077 173.82 L 1553.077 315.197 C 1553.077 317.654 1551.083 319.648 1548.627 319.648 L 1544.365 319.648 C 1541.909 319.648 1539.915 317.654 1539.915 315.197 L 1539.915 173.82 C 1539.915 171.364 1541.909 169.369 1544.365 169.369 Z" style="stroke:none;fill:#8E44AD;stroke-miterlimit:10;"/><circle vector-effect="non-scaling-stroke" cx="1564.9804267869083" cy="222.05985471663072" r="15.789107896692485" fill="rgb(142,68,173)"/><circle vector-effect="non-scaling-stroke" cx="1533.6659618947617" cy="202.2442999410292" r="9.010281770080155" fill="rgb(142,68,173)"/><rect x="1534.232" y="164.353" width="3.304" height="31.472" transform="matrix(1,0,0,1,0,0)" fill="rgb(142,68,173)"/><rect x="1539.915" y="157.388" width="4.387" height="31.472" transform="matrix(1,0,0,1,0,0)" fill="rgb(142,68,173)"/><circle vector-effect="non-scaling-stroke" cx="1483.0999678282858" cy="239.40703846378995" r="7.983247441972935" fill="rgb(142,68,173)"/></g><g style="opacity:0.4;"><path d=" M 1705.71 368.43 L 1733.069 368.43 C 1738.279 368.43 1742.509 372.66 1742.509 377.871 L 1742.509 446.698 C 1742.509 451.908 1738.279 456.138 1733.069 456.138 L 1693.124 456.138 C 1687.914 456.138 1683.684 451.908 1683.684 446.698 L 1683.684 385.471 C 1686.239 388.609 1690.133 390.615 1694.491 390.615 C 1702.179 390.615 1708.421 384.373 1708.421 376.685 C 1708.421 373.596 1707.414 370.741 1705.71 368.43 Z " fill-rule="evenodd" fill="rgb(142,68,173)"/><path d="M 1754.996 305.86 L 1759.257 305.86 C 1761.714 305.86 1763.708 307.854 1763.708 310.311 L 1763.708 451.688 C 1763.708 454.144 1761.714 456.138 1759.257 456.138 L 1754.996 456.138 C 1752.54 456.138 1750.546 454.144 1750.546 451.688 L 1750.546 310.311 C 1750.546 307.854 1752.54 305.86 1754.996 305.86 Z" style="stroke:none;fill:#8E44AD;stroke-miterlimit:10;"/><circle vector-effect="non-scaling-stroke" cx="1775.611211968471" cy="358.5504654134026" r="15.789107896692485" fill="rgb(142,68,173)"/><circle vector-effect="non-scaling-stroke" cx="1744.296747076326" cy="338.7349106378011" r="9.010281770080155" fill="rgb(142,68,173)"/><rect x="1744.863" y="300.843" width="3.304" height="31.472" transform="matrix(1,0,0,1,0,0)" fill="rgb(142,68,173)"/><rect x="1750.546" y="293.878" width="4.387" height="31.472" transform="matrix(1,0,0,1,0,0)" fill="rgb(142,68,173)"/><circle vector-effect="non-scaling-stroke" cx="1693.7307530098503" cy="375.8976491605626" r="7.983247441972935" fill="rgb(142,68,173)"/></g><line x1="1555.818" y1="162.57" x2="1746.879" y2="289.424" vector-effect="non-scaling-stroke" stroke-width="23" stroke="rgb(52,152,219)" stroke-linejoin="miter" stroke-linecap="round" stroke-miterlimit="3"/></g></g></svg>