<?xml version="1.0" standalone="no"?><!-- Generator: Gravit.io --><svg xmlns="http://www.w3.org/2000/svg" xmlns:xlink="http://www.w3.org/1999/xlink" style="isolation:isolate" viewBox="1108.046 150.388 269 321" width="269" height="321"><defs><clipPath id="_clipPath_6t4W7pQLQgxyyVnBOEYgnBhRbkpmncFz"><rect width="2834.646" height="595.276"/></clipPath></defs><g clip-path="url(#_clipPath_6t4W7pQLQgxyyVnBOEYgnBhRbkpmncFz)"><g><path d=" M 246.516 296.498 L 300.503 296.498 C 310.785 296.498 319.132 304.845 319.132 315.127 L 319.132 450.941 C 319.132 461.223 310.785 469.57 300.503 469.57 L 221.681 469.57 C 211.4 469.57 203.053 461.223 203.053 450.941 L 203.053 330.124 C 208.095 336.317 215.778 340.275 224.378 340.275 C 239.549 340.275 251.866 327.958 251.866 312.787 C 251.866 306.693 249.878 301.058 246.516 296.498 Z " fill-rule="evenodd" fill="rgb(142,68,173)"/><path d="M 343.771 173.031 L 352.18 173.031 C 357.027 173.031 360.962 176.966 360.962 181.813 L 360.962 460.787 C 360.962 465.634 357.027 469.57 352.18 469.57 L 343.771 469.57 C 338.924 469.57 334.989 465.634 334.989 460.787 L 334.989 181.813 C 334.989 176.966 338.924 173.031 343.771 173.031 Z" style="stroke:none;fill:#8E44AD;stroke-miterlimit:10;"/><circle vector-effect="non-scaling-stroke" cx="384.4499970915593" cy="277.0027818056854" r="31.156063514501" fill="rgb(142,68,173)"/><circle vector-effect="non-scaling-stroke" cx="322.6583199755448" cy="237.90147936332048" r="17.779656263605148" fill="rgb(142,68,173)"/><rect x="323.775" y="163.132" width="6.52" height="62.102" transform="matrix(1,0,0,1,0,0)" fill="rgb(142,68,173)"/><rect x="334.989" y="149.388" width="8.658" height="62.102" transform="matrix(1,0,0,1,0,0)" fill="rgb(142,68,173)"/><circle vector-effect="non-scaling-stroke" cx="222.8783113064657" cy="311.23333885555184" r="15.753047352738008" fill="rgb(142,68,173)"/></g><g><g><path d=" M 737.52 297.693 L 791.579 297.693 C 801.874 297.693 810.232 306.051 810.232 316.346 L 810.232 452.34 C 810.232 462.635 801.874 470.993 791.579 470.993 L 712.653 470.993 C 702.358 470.993 694 462.635 694 452.34 L 694 331.363 C 699.049 337.564 706.742 341.528 715.354 341.528 C 730.545 341.528 742.878 329.195 742.878 314.004 C 742.878 307.901 740.887 302.259 737.52 297.693 Z " fill-rule="evenodd" fill="rgb(142,68,173)"/><path d=" M 737.52 297.693 L 791.579 297.693 C 801.874 297.693 810.232 306.051 810.232 316.346 L 810.232 452.34 C 810.232 462.635 801.874 470.993 791.579 470.993 L 712.653 470.993 C 702.358 470.993 694 462.635 694 452.34 L 694 331.363 C 699.049 337.564 706.742 341.528 715.354 341.528 C 730.545 341.528 742.878 329.195 742.878 314.004 C 742.878 307.901 740.887 302.259 737.52 297.693 Z " fill-rule="evenodd" fill="rgb(142,68,173)"/><path d="M 834.904 174.062 L 843.324 174.062 C 848.177 174.062 852.118 178.002 852.118 182.856 L 852.118 462.199 C 852.118 467.053 848.177 470.993 843.324 470.993 L 834.904 470.993 C 830.051 470.993 826.111 467.053 826.111 462.199 L 826.111 182.856 C 826.111 178.002 830.051 174.062 834.904 174.062 Z" style="stroke:none;fill:#8E44AD;stroke-miterlimit:10;"/><path d="M 834.904 174.062 L 843.324 174.062 C 848.177 174.062 852.118 178.002 852.118 182.856 L 852.118 462.199 C 852.118 467.053 848.177 470.993 843.324 470.993 L 834.904 470.993 C 830.051 470.993 826.111 467.053 826.111 462.199 L 826.111 182.856 C 826.111 178.002 830.051 174.062 834.904 174.062 Z" style="stroke:none;fill:#8E44AD;stroke-miterlimit:10;"/><circle vector-effect="non-scaling-stroke" cx="875.6369126583965" cy="278.171564787494" r="31.19727037777284" fill="rgb(142,68,173)"/><circle vector-effect="non-scaling-stroke" cx="875.6369126583965" cy="278.171564787494" r="31.19727037777284" fill="rgb(142,68,173)"/><circle vector-effect="non-scaling-stroke" cx="813.7635101604479" cy="239.0185471461676" r="17.80317155347268" fill="rgb(142,68,173)"/><circle vector-effect="non-scaling-stroke" cx="813.7635101604479" cy="239.0185471461676" r="17.80317155347268" fill="rgb(142,68,173)"/><rect x="814.881" y="164.15" width="6.529" height="62.184" transform="matrix(1,0,0,1,0,0)" fill="rgb(142,68,173)"/><rect x="814.881" y="164.15" width="6.529" height="62.184" transform="matrix(1,0,0,1,0,0)" fill="rgb(142,68,173)"/><rect x="826.111" y="150.388" width="8.669" height="62.184" transform="matrix(1,0,0,1,0,0)" fill="rgb(142,68,173)"/><rect x="826.111" y="150.388" width="8.669" height="62.184" transform="matrix(1,0,0,1,0,0)" fill="rgb(142,68,173)"/><circle vector-effect="non-scaling-stroke" cx="713.8515329205461" cy="312.4473950113412" r="15.77388225917855" fill="rgb(142,68,173)"/><circle vector-effect="non-scaling-stroke" cx="713.8515329205461" cy="312.4473950113412" r="15.77388225917855" fill="rgb(142,68,173)"/></g><g><rect x="914.718" y="149.051" width="20.837" height="72.673" transform="matrix(1,0,0,1,0,0)" fill="rgb(39,174,96)"/><rect x="914.718" y="149.051" width="20.837" height="72.673" transform="matrix(1,0,0,1,0,0)" fill="rgb(39,174,96)"/><rect x="914.718" y="149.051" width="20.837" height="72.673" transform="matrix(0,1,-1,0,1110.524,-739.749)" fill="rgb(39,174,96)"/><rect x="914.718" y="149.051" width="20.837" height="72.673" transform="matrix(0,1,-1,0,1110.524,-739.749)" fill="rgb(39,174,96)"/></g></g><g><g><path d=" M 1152.559 297.693 L 1206.618 297.693 C 1216.913 297.693 1225.271 306.051 1225.271 316.346 L 1225.271 452.34 C 1225.271 462.635 1216.913 470.993 1206.618 470.993 L 1127.692 470.993 C 1117.397 470.993 1109.039 462.635 1109.039 452.34 L 1109.039 331.363 C 1114.088 337.564 1121.781 341.528 1130.393 341.528 C 1145.584 341.528 1157.917 329.195 1157.917 314.004 C 1157.917 307.901 1155.926 302.259 1152.559 297.693 Z " fill-rule="evenodd" fill="rgb(142,68,173)"/><path d=" M 1152.559 297.693 L 1206.618 297.693 C 1216.913 297.693 1225.271 306.051 1225.271 316.346 L 1225.271 452.34 C 1225.271 462.635 1216.913 470.993 1206.618 470.993 L 1127.692 470.993 C 1117.397 470.993 1109.039 462.635 1109.039 452.34 L 1109.039 331.363 C 1114.088 337.564 1121.781 341.528 1130.393 341.528 C 1145.584 341.528 1157.917 329.195 1157.917 314.004 C 1157.917 307.901 1155.926 302.259 1152.559 297.693 Z " fill-rule="evenodd" fill="rgb(142,68,173)"/><path d="M 1249.943 174.062 L 1258.363 174.062 C 1263.216 174.062 1267.157 178.002 1267.157 182.856 L 1267.157 462.199 C 1267.157 467.053 1263.216 470.993 1258.363 470.993 L 1249.943 470.993 C 1245.09 470.993 1241.15 467.053 1241.15 462.199 L 1241.15 182.856 C 1241.15 178.002 1245.09 174.062 1249.943 174.062 Z" style="stroke:none;fill:#8E44AD;stroke-miterlimit:10;"/><path d="M 1249.943 174.062 L 1258.363 174.062 C 1263.216 174.062 1267.157 178.002 1267.157 182.856 L 1267.157 462.199 C 1267.157 467.053 1263.216 470.993 1258.363 470.993 L 1249.943 470.993 C 1245.09 470.993 1241.15 467.053 1241.15 462.199 L 1241.15 182.856 C 1241.15 178.002 1245.09 174.062 1249.943 174.062 Z" style="stroke:none;fill:#8E44AD;stroke-miterlimit:10;"/><circle vector-effect="non-scaling-stroke" cx="1290.675914032558" cy="278.171564787494" r="31.19727037777284" fill="rgb(142,68,173)"/><circle vector-effect="non-scaling-stroke" cx="1290.675914032558" cy="278.171564787494" r="31.19727037777284" fill="rgb(142,68,173)"/><circle vector-effect="non-scaling-stroke" cx="1228.8025115346095" cy="239.0185471461676" r="17.803171553472566" fill="rgb(142,68,173)"/><circle vector-effect="non-scaling-stroke" cx="1228.8025115346095" cy="239.0185471461676" r="17.803171553472566" fill="rgb(142,68,173)"/><rect x="1229.92" y="164.15" width="6.529" height="62.184" transform="matrix(1,0,0,1,0,0)" fill="rgb(142,68,173)"/><rect x="1229.92" y="164.15" width="6.529" height="62.184" transform="matrix(1,0,0,1,0,0)" fill="rgb(142,68,173)"/><rect x="1241.15" y="150.388" width="8.669" height="62.184" transform="matrix(1,0,0,1,0,0)" fill="rgb(142,68,173)"/><rect x="1241.15" y="150.388" width="8.669" height="62.184" transform="matrix(1,0,0,1,0,0)" fill="rgb(142,68,173)"/><circle vector-effect="non-scaling-stroke" cx="1128.8905342947075" cy="312.4473950113412" r="15.773882259178436" fill="rgb(142,68,173)"/><circle vector-effect="non-scaling-stroke" cx="1128.8905342947075" cy="312.4473950113412" r="15.773882259178436" fill="rgb(142,68,173)"/></g><g><rect x="1329.757" y="149.051" width="20.837" height="72.673" transform="matrix(0,1,-1,0,1525.563,-1154.788)" fill="rgb(192,57,43)"/></g></g><g><g style="opacity:0.4;"><path d=" M 2141.71 384.43 L 2169.069 384.43 C 2174.279 384.43 2178.509 388.66 2178.509 393.871 L 2178.509 462.698 C 2178.509 467.908 2174.279 472.138 2169.069 472.138 L 2129.124 472.138 C 2123.914 472.138 2119.684 467.908 2119.684 462.698 L 2119.684 401.471 C 2122.239 404.609 2126.133 406.615 2130.491 406.615 C 2138.179 406.615 2144.421 400.373 2144.421 392.685 C 2144.421 389.596 2143.414 386.741 2141.71 384.43 Z " fill-rule="evenodd" fill="rgb(142,68,173)"/><path d="M 2190.996 321.86 L 2195.257 321.86 C 2197.714 321.86 2199.708 323.854 2199.708 326.311 L 2199.708 467.688 C 2199.708 470.144 2197.714 472.138 2195.257 472.138 L 2190.996 472.138 C 2188.54 472.138 2186.546 470.144 2186.546 467.688 L 2186.546 326.311 C 2186.546 323.854 2188.54 321.86 2190.996 321.86 Z" style="stroke:none;fill:#8E44AD;stroke-miterlimit:10;"/><circle vector-effect="non-scaling-stroke" cx="2211.6112119684713" cy="374.55046541340243" r="15.789107896692713" fill="rgb(142,68,173)"/><circle vector-effect="non-scaling-stroke" cx="2180.296747076326" cy="354.73491063780097" r="9.010281770079928" fill="rgb(142,68,173)"/><rect x="2180.863" y="316.843" width="3.304" height="31.472" transform="matrix(1,0,0,1,0,0)" fill="rgb(142,68,173)"/><rect x="2186.546" y="309.878" width="4.387" height="31.472" transform="matrix(1,0,0,1,0,0)" fill="rgb(142,68,173)"/><circle vector-effect="non-scaling-stroke" cx="2129.7307530098506" cy="391.89764916056265" r="7.9832474419731625" fill="rgb(142,68,173)"/></g><g style="opacity:0.4;"><path d=" M 1931.079 231.94 L 1958.438 231.94 C 1963.649 231.94 1967.879 236.17 1967.879 241.38 L 1967.879 310.208 C 1967.879 315.418 1963.649 319.648 1958.438 319.648 L 1918.493 319.648 C 1913.283 319.648 1909.053 315.418 1909.053 310.208 L 1909.053 248.98 C 1911.608 252.119 1915.502 254.125 1919.86 254.125 C 1927.548 254.125 1933.79 247.883 1933.79 240.195 C 1933.79 237.106 1932.783 234.251 1931.079 231.94 Z " fill-rule="evenodd" fill="rgb(142,68,173)"/><path d="M 1980.365 169.369 L 1984.627 169.369 C 1987.083 169.369 1989.077 171.364 1989.077 173.82 L 1989.077 315.197 C 1989.077 317.654 1987.083 319.648 1984.627 319.648 L 1980.365 319.648 C 1977.909 319.648 1975.915 317.654 1975.915 315.197 L 1975.915 173.82 C 1975.915 171.364 1977.909 169.369 1980.365 169.369 Z" style="stroke:none;fill:#8E44AD;stroke-miterlimit:10;"/><circle vector-effect="non-scaling-stroke" cx="2000.9804267869083" cy="222.05985471663075" r="15.789107896692485" fill="rgb(142,68,173)"/><circle vector-effect="non-scaling-stroke" cx="1969.6659618947617" cy="202.2442999410292" r="9.010281770080155" fill="rgb(142,68,173)"/><rect x="1970.232" y="164.353" width="3.304" height="31.472" transform="matrix(1,0,0,1,0,0)" fill="rgb(142,68,173)"/><rect x="1975.915" y="157.388" width="4.387" height="31.472" transform="matrix(1,0,0,1,0,0)" fill="rgb(142,68,173)"/><circle vector-effect="non-scaling-stroke" cx="1919.0999678282856" cy="239.40703846378995" r="7.983247441972935" fill="rgb(142,68,173)"/></g><rect x="2176.718" y="149.051" width="20.837" height="72.673" transform="matrix(0,1,-1,0,2372.524,-2001.749)" fill="rgb(192,57,43)"/><line x1="2000.818" y1="163.57" x2="2178.879" y2="300.424" vector-effect="non-scaling-stroke" stroke-width="23" stroke="rgb(52,152,219)" stroke-linejoin="miter" stroke-linecap="round" stroke-miterlimit="3"/></g><g><g><rect x="1744.718" y="149.647" width="20.837" height="72.673" transform="matrix(1,0,0,1,0,0)" fill="rgb(39,174,96)"/><rect x="1744.718" y="149.647" width="20.837" height="72.673" transform="matrix(0,1,-1,0,1941.12,-1569.153)" fill="rgb(39,174,96)"/></g><g style="opacity:0.4;"><path d=" M 1495.079 232.535 L 1522.438 232.535 C 1527.649 232.535 1531.879 236.765 1531.879 241.976 L 1531.879 310.803 C 1531.879 316.013 1527.649 320.243 1522.438 320.243 L 1482.493 320.243 C 1477.283 320.243 1473.053 316.013 1473.053 310.803 L 1473.053 249.576 C 1475.608 252.714 1479.502 254.72 1483.86 254.72 C 1491.548 254.72 1497.79 248.478 1497.79 240.79 C 1497.79 237.701 1496.783 234.846 1495.079 232.535 Z " fill-rule="evenodd" fill="rgb(142,68,173)"/><path d="M 1544.365 169.965 L 1548.627 169.965 C 1551.083 169.965 1553.077 171.959 1553.077 174.415 L 1553.077 315.793 C 1553.077 318.249 1551.083 320.243 1548.627 320.243 L 1544.365 320.243 C 1541.909 320.243 1539.915 318.249 1539.915 315.793 L 1539.915 174.415 C 1539.915 171.959 1541.909 169.965 1544.365 169.965 Z" style="stroke:none;fill:#8E44AD;stroke-miterlimit:10;"/><circle vector-effect="non-scaling-stroke" cx="1564.9804267869083" cy="222.65537025330877" r="15.789107896692485" fill="rgb(142,68,173)"/><circle vector-effect="non-scaling-stroke" cx="1533.6659618947617" cy="202.83981547770722" r="9.010281770080155" fill="rgb(142,68,173)"/><rect x="1534.232" y="164.948" width="3.304" height="31.472" transform="matrix(1,0,0,1,0,0)" fill="rgb(142,68,173)"/><rect x="1539.915" y="157.983" width="4.387" height="31.472" transform="matrix(1,0,0,1,0,0)" fill="rgb(142,68,173)"/><circle vector-effect="non-scaling-stroke" cx="1483.0999678282856" cy="240.00255400046797" r="7.983247441972935" fill="rgb(142,68,173)"/></g><g style="opacity:0.4;"><path d=" M 1705.71 384.026 L 1733.069 384.026 C 1738.279 384.026 1742.509 388.256 1742.509 393.466 L 1742.509 462.294 C 1742.509 467.504 1738.279 471.734 1733.069 471.734 L 1693.124 471.734 C 1687.914 471.734 1683.684 467.504 1683.684 462.294 L 1683.684 401.067 C 1686.239 404.205 1690.133 406.211 1694.491 406.211 C 1702.179 406.211 1708.421 399.969 1708.421 392.281 C 1708.421 389.192 1707.414 386.337 1705.71 384.026 Z " fill-rule="evenodd" fill="rgb(142,68,173)"/><path d="M 1754.996 321.455 L 1759.257 321.455 C 1761.714 321.455 1763.708 323.45 1763.708 325.906 L 1763.708 467.283 C 1763.708 469.74 1761.714 471.734 1759.257 471.734 L 1754.996 471.734 C 1752.54 471.734 1750.546 469.74 1750.546 467.283 L 1750.546 325.906 C 1750.546 323.45 1752.54 321.455 1754.996 321.455 Z" style="stroke:none;fill:#8E44AD;stroke-miterlimit:10;"/><circle vector-effect="non-scaling-stroke" cx="1775.611211968471" cy="374.14598095008034" r="15.789107896692485" fill="rgb(142,68,173)"/><circle vector-effect="non-scaling-stroke" cx="1744.296747076326" cy="354.330426174479" r="9.010281770080155" fill="rgb(142,68,173)"/><rect x="1744.863" y="316.439" width="3.304" height="31.472" transform="matrix(1,0,0,1,0,0)" fill="rgb(142,68,173)"/><rect x="1750.546" y="309.474" width="4.387" height="31.472" transform="matrix(1,0,0,1,0,0)" fill="rgb(142,68,173)"/><circle vector-effect="non-scaling-stroke" cx="1693.7307530098535" cy="391.4931646972408" r="7.983247441972935" fill="rgb(142,68,173)"/></g><line x1="1565" y1="163.596" x2="1742.879" y2="300.02" vector-effect="non-scaling-stroke" stroke-width="23" stroke="rgb(52,152,219)" stroke-linejoin="miter" stroke-linecap="round" stroke-miterlimit="3"/></g></g></svg>