<svg xmlns="http://www.w3.org/2000/svg" xmlns:xlink="http://www.w3.org/1999/xlink" width="36" height="36" viewBox="0 0 36 36">
  <defs>
    <rect id="send_review-copy-4-a" width="36" height="36" x="0" y="0" rx="4"/>
    <path id="send_review-copy-4-c" d="M17.8615385,4.70769231 L13.2923077,0.138461538 C13.1884615,0.0346153846 13.0846154,0 12.9461538,0 C12.6692308,0 12.4615385,0.207692308 12.4615385,0.484615385 L12.4615385,4.15384615 C12.4615385,4.91538462 13.0846154,5.53846154 13.8461538,5.53846154 L17.5153846,5.53846154 C17.7923077,5.53846154 18,5.33076923 18,5.05384615 C18,4.91538462 17.9653846,4.81153846 17.8615385,4.70769231 Z M9.36,0 C9.756,0 10.08,0.321923077 10.08,0.715384615 L10.08,0.715384615 L10.08,5.72307692 C10.08,6.90346154 11.052,7.86923077 12.24,7.86923077 L12.24,7.86923077 L17.28,7.86923077 C17.676,7.86923077 18,8.19115385 18,8.58461538 L18,8.58461538 L18.0013948,11.9691786 C17.0976198,11.40375 16.0292848,11.0769231 14.8846154,11.0769231 C14.7891665,11.0769231 14.6942484,11.0791956 14.5999122,11.0836894 C14.5671795,11.0792706 14.5327347,11.0769231 14.4977376,11.0769231 L14.4977376,11.0769231 L3.50226244,11.0769231 C3.09909502,11.0769231 2.76923077,11.3884615 2.76923077,11.7692308 L2.76923077,11.7692308 L2.76923077,12.4615385 C2.76923077,12.8423077 3.09909502,13.1538462 3.50226244,13.1538462 L3.50226244,13.1538462 L10.3984601,13.1530594 C9.88795384,13.7538129 9.4959706,14.4584219 9.25865259,15.2307443 L3.50769231,15.2307692 C3.10153846,15.2307692 2.76923077,15.5423077 2.76923077,15.9230769 L2.76923077,15.9230769 L2.76923077,16.6153846 C2.76923077,16.9961538 3.10153846,17.3076923 3.50769231,17.3076923 L3.50769231,17.3076923 L9.01001441,17.3077337 C9.10663491,18.9732047 9.89589114,20.4528252 11.094006,21.4628182 L2.16,21.4615385 C0.972,21.4615385 0,20.4957692 0,19.3153846 L0,19.3153846 L0,2.14615385 C0,0.965769231 0.972,0 2.16,0 L2.16,0 Z M5.35928132,2.84916491 C5.2831776,2.74258606 5.13097017,2.74258606 5.05486645,2.84916491 L5.05486645,2.84916491 L4.21772556,4.44784764 C4.21772556,4.48337392 4.14162185,4.5189002 4.10356999,4.5189002 L4.10356999,4.5189002 L2.23902892,4.76758419 C2.12487335,4.80311047 2.04876963,4.9452156 2.08682149,5.01626817 L2.08682149,5.01626817 L3.45668839,6.25968807 C3.49474025,6.29521435 3.49474025,6.36626692 3.49474025,6.4017932 L3.49474025,6.4017932 L3.19032539,8.14258107 C3.15227353,8.24915991 3.30448096,8.35573876 3.41863654,8.2846862 L3.41863654,8.2846862 L5.09291831,7.46758169 C5.13097017,7.43205541 5.20707388,7.43205541 5.24512574,7.46758169 L5.24512574,7.46758169 L6.91940751,8.2846862 C7.03356309,8.35573876 7.18577052,8.24915991 7.14771866,8.14258107 L7.14771866,8.14258107 L6.8433038,6.4017932 C6.8433038,6.33074063 6.8433038,6.29521435 6.88135565,6.25968807 L6.88135565,6.25968807 L8.25122256,5.01626817 C8.36537813,4.9452156 8.28927442,4.80311047 8.17511884,4.76758419 L8.17511884,4.76758419 L6.31057778,4.5189002 C6.27252592,4.5189002 6.23447406,4.48337392 6.1964222,4.44784764 L6.1964222,4.44784764 Z"/>
    <path id="send_review-copy-4-e" d="M4.54127219,10.412574 L0.587130178,6.43446746 C0.443343195,6.29068047 0.443343195,6.0510355 0.587130178,5.90724852 L1.11434911,5.38002959 C1.25813609,5.2362426 1.49778107,5.2362426 1.64156805,5.38002959 L4.61316568,8.37559172 C4.70902367,8.4714497 4.87677515,8.4714497 4.97263314,8.37559172 L10.7960059,2.50428994 C10.9397929,2.36050296 11.1794379,2.36050296 11.3232249,2.50428994 L11.8504438,3.03150888 C11.9942308,3.17529586 11.9942308,3.41494083 11.8504438,3.55872781 L5.06849112,10.412574 C4.92470414,10.5803254 4.68505917,10.5803254 4.54127219,10.412574 L4.54127219,10.412574 Z"/>
  </defs>
  <g fill="none" fill-rule="evenodd">
    <mask id="send_review-copy-4-b" fill="#fff">
      <use xlink:href="#send_review-copy-4-a"/>
    </mask>
    <use fill="#E53535" xlink:href="#send_review-copy-4-a"/>
    <g mask="url(#send_review-copy-4-b)">
      <g transform="translate(4 4)">
        <g transform="translate(4.154 2.077)">
          <mask id="send_review-copy-4-d" fill="#fff">
            <use xlink:href="#send_review-copy-4-c"/>
          </mask>
          <use fill="#FFF" xlink:href="#send_review-copy-4-c"/>
          <g mask="url(#send_review-copy-4-d)">
            <rect width="27.692" height="27.692" fill="#FFF" transform="translate(-4.154 -2.077)"/>
          </g>
        </g>
        <g transform="translate(14.538 12.462)">
          <mask id="send_review-copy-4-f" fill="#fff">
            <use xlink:href="#send_review-copy-4-e"/>
          </mask>
          <use fill="#000" xlink:href="#send_review-copy-4-e"/>
          <g fill="#FFF" mask="url(#send_review-copy-4-f)">
            <rect width="12.462" height="12.462"/>
          </g>
        </g>
      </g>
    </g>
  </g>
</svg>
