<svg xmlns="http://www.w3.org/2000/svg" xmlns:xlink="http://www.w3.org/1999/xlink" width="36" height="36" viewBox="0 0 36 36">
  <defs>
    <rect id="send_review-copy-2-a" width="36" height="36" x="0" y="0" rx="4"/>
    <path id="send_review-copy-2-c" d="M9.855,2.07692308 C10.1821154,2.07692308 10.4365385,2.33942308 10.4365385,2.67692308 L10.4365385,2.67692308 L10.4365385,6.87692308 C10.4365385,7.85192308 11.0180769,8.45192308 11.9630769,8.45192308 L11.9630769,8.45192308 L16.0338462,8.45192308 C16.3609615,8.45192308 16.6153846,8.71442308 16.6153846,9.05192308 L16.6153846,9.05192308 L16.6149231,11.0769231 L16.5384615,11.0769231 C15.4840997,11.0769231 14.6202964,11.8928009 14.5439473,12.9276607 L14.5384615,13.0769231 L14.5379231,14.5379231 L13.0769231,14.5384615 C12.0225613,14.5384615 11.158758,15.3543393 11.0824088,16.3891992 L11.0769231,16.5384615 L11.0769231,20.0769231 L3.82153846,20.0769231 C2.92378846,20.0769231 2.15724808,19.3323606 2.08283841,18.4219637 L2.07692308,18.2769231 L2.07692308,3.87692308 C2.07692308,2.90192308 2.87653846,2.07692308 3.82153846,2.07692308 L3.82153846,2.07692308 Z M19.7692308,12.4615385 C20.3215155,12.4615385 20.7692308,12.9092537 20.7692308,13.4615385 L20.7689231,17.3069231 L24.6153846,17.3076923 C25.1676694,17.3076923 25.6153846,17.7554076 25.6153846,18.3076923 L25.6153846,19.0769231 C25.6153846,19.6292078 25.1676694,20.0769231 24.6153846,20.0769231 L20.7689231,20.0769231 L20.7692308,24.6153846 C20.7692308,25.1676694 20.3215155,25.6153846 19.7692308,25.6153846 L19,25.6153846 C18.4477153,25.6153846 18,25.1676694 18,24.6153846 L17.9999231,20.0769231 L13.4615385,20.0769231 C12.9092537,20.0769231 12.4615385,19.6292078 12.4615385,19.0769231 L12.4615385,18.3076923 C12.4615385,17.7554076 12.9092537,17.3076923 13.4615385,17.3076923 L17.9999231,17.3069231 L18,13.4615385 C18,12.9092537 18.4477153,12.4615385 19,12.4615385 L19.7692308,12.4615385 Z M12.8449704,2.07692308 C12.9408284,2.07692308 13.0686391,2.11420118 13.1325444,2.1887574 L13.1325444,2.1887574 L16.5195266,6.14023669 C16.583432,6.2147929 16.6153846,6.36390533 16.6153846,6.47573964 C16.6153846,6.69940828 16.4556213,6.92307692 16.2639053,6.92307692 L16.2639053,6.92307692 L13.547929,6.92307692 C12.9727811,6.92307692 12.4615385,6.32662722 12.4615385,5.6556213 L12.4615385,5.6556213 L12.4615385,2.48698225 C12.4615385,2.26331361 12.6532544,2.07692308 12.8449704,2.07692308 Z"/>
  </defs>
  <g fill="none" fill-rule="evenodd">
    <mask id="send_review-copy-2-b" fill="#fff">
      <use xlink:href="#send_review-copy-2-a"/>
    </mask>
    <use fill="#E53535" xlink:href="#send_review-copy-2-a"/>
    <g mask="url(#send_review-copy-2-b)">
      <g transform="translate(4 4)">
        <mask id="send_review-copy-2-d" fill="#fff">
          <use xlink:href="#send_review-copy-2-c"/>
        </mask>
        <use fill="#FFF" xlink:href="#send_review-copy-2-c"/>
        <g fill="#FFF" mask="url(#send_review-copy-2-d)">
          <rect width="27.692" height="27.692"/>
        </g>
      </g>
    </g>
  </g>
</svg>
