<svg xmlns="http://www.w3.org/2000/svg" xmlns:xlink="http://www.w3.org/1999/xlink" width="36" height="36" viewBox="0 0 36 36">
  <defs>
    <rect id="send_review-a" width="36" height="36" x="0" y="0" rx="4"/>
    <path id="send_review-c" d="M9.855,2.07692308 C10.1821154,2.07692308 10.4365385,2.33942308 10.4365385,2.67692308 L10.4365385,2.67692308 L10.4365385,6.87692308 C10.4365385,7.85192308 11.0180769,8.45192308 11.9630769,8.45192308 L11.9630769,8.45192308 L16.0338462,8.45192308 C16.3609615,8.45192308 16.6153846,8.71442308 16.6153846,9.05192308 L16.6153846,9.05192308 L16.6149231,12.4609231 L9.26923077,12.4615385 C8.21486897,12.4615385 7.35106565,13.2774163 7.27471651,14.3122761 L7.26923077,14.4615385 L7.26892308,20.0769231 L3.82153846,20.0769231 C2.92378846,20.0769231 2.15724808,19.3323606 2.08283841,18.4219637 L2.07692308,18.2769231 L2.07692308,3.87692308 C2.07692308,2.90192308 2.87653846,2.07692308 3.82153846,2.07692308 L3.82153846,2.07692308 Z M9.03461538,16.347608 C9.03461538,15.9657895 9.45,15.7922356 9.72692308,16.035211 L9.72692308,16.035211 L15.8192308,21.727778 C16.2346154,22.0748857 16.7538462,22.2831503 17.3076923,22.2831503 C17.8615385,22.2831503 18.3807692,22.0748857 18.7961538,21.6930672 L18.7961538,21.6930672 L24.9230769,16.035211 C25.2,15.7922356 25.6153846,16.0005003 25.6153846,16.347608 L25.6153846,16.347608 L25.6153846,24.2269537 C25.6153846,24.9905907 24.9923077,25.6153846 24.2307692,25.6153846 L24.2307692,25.6153846 L10.3846154,25.6153846 C9.62307692,25.6153846 9,24.9905907 9,24.2269537 L9,24.2269537 L9.00075233,22.7109834 C9.00081502,22.6364653 9.00088294,22.5600551 9.00095652,22.4819548 L9.0017833,21.7388809 C9.00479261,19.4055164 9.01288014,16.2822226 9.03461538,16.347608 Z M25.1098843,13.8461538 C25.5635693,13.8461538 25.7031646,14.266536 25.5635693,14.5252327 L25.5635693,14.5252327 L17.6764308,21.3160216 C17.4670378,21.5100441 17.1529482,21.5100441 16.9435551,21.3160216 L16.9435551,21.3160216 L9.05641669,14.5575698 C8.89468917,14.1352284 9.09131553,13.8784909 9.51010164,13.8784909 L9.51010164,13.8784909 Z M12.8449704,2.07692308 C12.9408284,2.07692308 13.0686391,2.11420118 13.1325444,2.1887574 L13.1325444,2.1887574 L16.5195266,6.14023669 C16.583432,6.2147929 16.6153846,6.36390533 16.6153846,6.47573964 C16.6153846,6.69940828 16.4556213,6.92307692 16.2639053,6.92307692 L16.2639053,6.92307692 L13.547929,6.92307692 C12.9727811,6.92307692 12.4615385,6.32662722 12.4615385,5.6556213 L12.4615385,5.6556213 L12.4615385,2.48698225 C12.4615385,2.26331361 12.6532544,2.07692308 12.8449704,2.07692308 Z"/>
  </defs>
  <g fill="none" fill-rule="evenodd">
    <mask id="send_review-b" fill="#fff">
      <use xlink:href="#send_review-a"/>
    </mask>
    <use fill="#E53535" xlink:href="#send_review-a"/>
    <g mask="url(#send_review-b)">
      <g transform="translate(4 4)">
        <mask id="send_review-d" fill="#fff">
          <use xlink:href="#send_review-c"/>
        </mask>
        <use fill="#FFF" xlink:href="#send_review-c"/>
        <g fill="#FFF" mask="url(#send_review-d)">
          <rect width="27.692" height="27.692"/>
        </g>
      </g>
    </g>
  </g>
</svg>
