<?xml version="1.0" encoding="UTF-8"?>
<svg width="237px" height="182px" viewBox="0 0 237 182" version="1.1" xmlns="http://www.w3.org/2000/svg" xmlns:xlink="http://www.w3.org/1999/xlink">
    <defs></defs>
    <g id="Services-Empty-State" stroke="none" stroke-width="1" fill="none" fill-rule="evenodd" transform="translate(-602.000000, -302.000000)">
        <g id="Illustration" transform="translate(602.000000, 302.000000)">
            <polygon id="Path" fill="#BEC8D2" points="0 55 56.8847656 55 67.7617188 65 167 65 167 182 0 182"></polygon>
            <polygon id="Rectangle-3" fill="#EDF3F5" fill-rule="nonzero" points="5 60 5 177 162 177 162 70 65.8125687 70 54.9356156 60"></polygon>
            <polygon id="Rectangle-4" fill="#BEC8D2" fill-rule="nonzero" points="32 98 200 98 170 182 2 182"></polygon>
            <path d="M105.939213,102.876558 L107.062656,105.109913 L102.595945,107.356798 L101.472502,105.123442 C101.142408,104.467231 100.839005,103.810035 100.562673,103.152841 L99.5936688,100.848274 L104.202803,98.9102648 L105.171808,101.214832 C105.403878,101.76676 105.659741,102.320978 105.939213,102.876558 Z M103.947347,90.0484792 L103.304814,92.4644991 L98.4727746,91.1794343 L99.115307,88.7634144 C99.3173686,88.0036317 99.568754,87.2639609 99.8687863,86.547256 L100.834176,84.2411721 L105.446344,86.1719516 L104.480954,88.4780354 C104.269204,88.9838551 104.09115,89.5077586 103.947347,90.0484792 Z M112.477507,81.3111558 L110.132554,82.1778729 L108.39912,77.4879683 L110.744072,76.6212511 C111.427042,76.3688188 112.132814,76.1437656 112.860695,75.9457375 L115.273012,75.28944 L116.585607,80.1140741 L114.17329,80.7703716 C113.585801,80.9302045 113.020403,81.1104961 112.477507,81.3111558 Z M126.24012,80.0499136 L123.750948,79.8174802 L124.215815,74.8391372 L126.704986,75.0715706 C127.387275,75.1352813 128.078436,75.2120503 128.778077,75.3017224 L131.257792,75.6195443 L130.622149,80.5789754 L128.142433,80.2611535 C127.499072,80.1786948 126.864823,80.1082471 126.24012,80.0499136 Z M140.420586,82.9633166 L138.026359,82.2438195 L139.465354,77.4553651 L141.859581,78.1748623 C142.508603,78.3699022 143.16084,78.5729487 143.815915,78.7838453 L146.19563,79.5499763 L144.663368,84.3094062 L142.283653,83.5432752 C141.65941,83.3423048 141.03826,83.1489358 140.420586,82.9633166 Z M154.404038,87.9667089 L152.063005,87.0894625 L153.817497,82.4073951 L156.158531,83.2846415 C156.865313,83.5494909 157.471999,83.7757914 158.024016,83.9803384 L160.368255,84.8489836 L158.630964,89.5374612 L156.286726,88.668816 C155.728375,88.461922 155.116147,88.2335547 154.404038,87.9667089 Z M169.431016,92.1418963 L166.944643,91.8812288 L167.465978,86.9084821 L169.952351,87.1691496 C170.084686,87.1829453 170.084686,87.1829453 170.219372,87.1966836 C170.658636,87.2412503 171.185119,87.2753441 171.776431,87.2962847 L174.274865,87.3847636 L174.097907,92.3816313 L171.599473,92.2931523 C170.903945,92.2685211 170.269448,92.2274325 169.714649,92.1711438 C169.571941,92.1565875 169.571941,92.1565875 169.431016,92.1418963 Z M185.102059,91.175692 L182.647088,91.6480422 L181.702387,86.7380992 L184.157359,86.2657489 C184.788739,86.1442679 185.410395,86.0127303 186.020606,85.8711397 L188.455907,85.306064 L189.586058,90.1766654 L187.150757,90.7417411 C186.478108,90.8978195 185.794665,91.0424309 185.102059,91.175692 Z M200.01543,85.0752771 L198.070071,86.6454921 L194.929641,82.7547724 L196.875001,81.1845574 C197.324809,80.82149 197.734552,80.4452654 198.103466,80.0562344 L199.823707,78.2421866 L203.451803,81.6826695 L201.731561,83.4967173 C201.206978,84.0499066 200.634187,84.5758425 200.01543,85.0752771 Z M207.413357,70.3620575 L206.996216,72.8270105 L202.06631,71.9927279 L202.483451,69.5277749 C202.586205,68.9205907 202.670765,68.3095026 202.736514,67.6974421 L203.003536,65.2117431 L207.974934,65.7457866 L207.707912,68.2314856 C207.631337,68.9443155 207.532923,69.6555235 207.413357,70.3620575 Z M205.996425,54.1957651 L206.946642,56.5081423 L202.321888,58.4085757 L201.371671,56.0961985 C201.148152,55.5522591 200.90077,55.0291971 200.629709,54.5282653 L199.439943,52.3295257 L203.837422,49.9499929 L205.027189,52.1487325 C205.383376,52.806983 205.7064,53.4899807 205.996425,54.1957651 Z M193.606117,42.9574109 L196.000873,43.6751456 L194.565404,48.4646579 L192.170648,47.7469231 C191.599951,47.5765597 191.050861,47.4428453 190.505975,47.3398148 L188.049503,46.8753293 L188.978474,41.9623859 L191.434946,42.4268714 C192.149518,42.5619874 192.865862,42.7364311 193.58228,42.950281 C193.594202,42.9538421 193.594202,42.9538421 193.606117,42.9574109 Z M177.040736,45.7355167 L178.993585,44.1746259 L182.115367,48.0803242 L180.162518,49.6412151 C179.735917,49.9821927 179.339013,50.351666 178.975156,50.7460223 L177.279869,52.5834124 L173.605089,49.1928386 L175.300376,47.3554485 C175.835686,46.7752676 176.417504,46.2336593 177.040736,45.7355167 Z M172.227006,61.9742505 L171.394705,59.6168634 L176.109479,57.9522601 L176.941781,60.3096472 C177.118033,60.8088595 177.336768,61.3053084 177.598545,61.7971698 L178.773095,64.0040754 L174.359283,66.3531751 L173.184733,64.1462695 C172.806287,63.4351932 172.486785,62.7100401 172.227006,61.9742505 Z M185.339135,72.496381 L182.860977,72.1666387 L183.520461,67.2103215 L185.99862,67.5400638 C186.600289,67.6201216 187.193754,67.6738752 187.779063,67.701844 L190.276213,67.8211697 L190.037562,72.815471 L187.540411,72.6961453 C186.813825,72.6614256 186.079969,72.5949559 185.339135,72.496381 Z M201.398497,68.9833799 L199.296762,70.3371564 L196.589209,66.1336868 L198.690944,64.7799103 C199.187101,64.460324 199.672568,64.1164773 200.146854,63.7493446 L202.123778,62.2190597 L205.184348,66.1729074 L203.207424,67.7031924 C202.620129,68.1578019 202.016983,68.5849984 201.398497,68.9833799 Z M211.970698,56.6841682 L210.879552,58.9334796 L206.38093,56.751189 L207.472075,54.5018775 C207.742693,53.944019 207.991273,53.3844645 208.216251,52.8281508 L209.153529,50.5104989 L213.788833,52.3850543 L212.851555,54.7027062 C212.584435,55.3632267 212.290261,56.0254135 211.970698,56.6841682 Z M215.321201,41.1087727 L215.187331,43.6051858 L210.194504,43.3374454 L210.328374,40.8410322 C210.36245,40.2055875 210.391208,39.5542592 210.414819,38.8882639 L210.503396,36.3898335 L215.500257,36.5669873 L215.41168,39.0654177 C215.387019,39.7610117 215.356931,40.4424836 215.321201,41.1087727 Z" id="Path-2206" fill="#BEC8D2" fill-rule="nonzero" opacity="0.5"></path>
            <polygon id="Path" fill="#EDF3F5" points="192.904975 103 35.523596 103 9.09502455 177 166.476404 177"></polygon>
            <polygon id="Rectangle-5" fill-opacity="0.5" fill="#BEC8D2" opacity="0.5" points="10.9975646 172 168 172 166.326503 177 9 177"></polygon>
            <path d="M208.193097,8.15729343 L208.193097,8.00128621 C208.193097,7.5599895 208.262079,7.13521218 208.38967,6.7376716 L204.487225,2.83746138 C203.83905,2.1896572 203.836705,1.13597741 204.485521,0.487533085 C205.13886,-0.16543208 206.187038,-0.160148491 206.836795,0.489236743 L210.620435,4.27070956 C211.089368,4.07039248 211.604441,3.95974913 212.145362,3.95974913 L214.240832,3.95974913 C214.675986,3.95974913 215.094715,4.03148003 215.486272,4.16406342 L219.163205,0.489236743 C219.812962,-0.160148491 220.86114,-0.16543208 221.514479,0.487533085 C222.163295,1.13597741 222.16095,2.1896572 221.512775,2.83746138 L217.893966,6.45419752 C218.086724,6.93044115 218.193097,7.45288297 218.193097,8.00128621 L218.193097,8.33977164 C220.122269,6.87743238 222.52696,6.00992379 225.133706,6.00992379 C231.48309,6.00992379 236.633706,11.156748 236.633706,17.5099238 C236.633706,23.8630995 231.48309,29.0099238 225.133706,29.0099238 C222.52696,29.0099238 220.122269,28.1424152 218.193097,26.6800759 L218.193097,27.918212 C218.193097,30.1502913 216.428317,31.9597491 214.240832,31.9597491 L212.145362,31.9597491 C209.962586,31.9597491 208.193097,30.1549108 208.193097,27.918212 L208.193097,26.8625541 C206.307502,28.2143017 203.996406,29.0099238 201.5,29.0099238 C195.150617,29.0099238 190,23.8630995 190,17.5099238 C190,11.156748 195.150617,6.00992379 201.5,6.00992379 C203.996406,6.00992379 206.307502,6.80554591 208.193097,8.15729343 Z M225.133706,23.0099238 C228.173175,23.0099238 230.633706,20.5455736 230.633706,17.5099238 C230.633706,14.474274 228.173175,12.0099238 225.133706,12.0099238 C222.094238,12.0099238 219.633706,14.474274 219.633706,17.5099238 C219.633706,20.5455736 222.094238,23.0099238 225.133706,23.0099238 Z M201.5,23.0099238 C204.539468,23.0099238 207,20.5455736 207,17.5099238 C207,14.474274 204.539468,12.0099238 201.5,12.0099238 C198.460532,12.0099238 196,14.474274 196,17.5099238 C196,20.5455736 198.460532,23.0099238 201.5,23.0099238 Z" id="Combined-Shape" fill="#BEC8D2"></path>
        </g>
    </g>
</svg>