<?xml version="1.0" encoding="UTF-8"?>
<svg width="205px" height="150px" viewBox="0 0 205 150" version="1.1" xmlns="http://www.w3.org/2000/svg" xmlns:xlink="http://www.w3.org/1999/xlink">
    <defs></defs>
    <g id="Support-Home---Favourite-Products-Empty-State" stroke="none" stroke-width="1" fill="none" fill-rule="evenodd" transform="translate(-185.000000, -360.000000)">
        <g id="Illustration" transform="translate(185.000000, 360.000000)">
            <g id="Floor" transform="translate(0.000000, 144.385027)" fill="#EDF3F5">
                <rect id="Rectangle-1576" x="0" y="0" width="205" height="5.13368984"></rect>
            </g>
            <g id="toolbox" transform="translate(14.414062, 27.272727)">
                <path d="M118.595703,32.4064171 L57.6059079,32.4064171 C57.5959675,32.4064171 57.5860267,32.4063752 57.5760856,32.4062914 L70.7890625,51.657754 L105.382813,51.657754 L118.595703,32.4064171 Z M126.523438,20.855615 L140.617188,0.320855615 L175.851563,51.657754 L175.851563,119.679144 L70.7890625,119.679144 L0.3203125,119.679144 L0.3203125,51.657754 L35.5546875,0.320855615 L49.6484375,20.855615 L126.523438,20.855615 Z M35.5546875,8.816159 L5.125,53.1525712 L5.125,114.86631 L65.984375,114.86631 L65.984375,53.1525712 L35.5546875,8.816159 Z M29.7890625,26.631016 C29.7890625,23.4413501 32.3769001,20.855615 35.5546875,20.855615 C38.7389543,20.855615 41.3203125,23.4334635 41.3203125,26.631016 C41.3203125,29.820682 38.7324749,32.4064171 35.5546875,32.4064171 C32.3704207,32.4064171 29.7890625,29.8285685 29.7890625,26.631016 Z M71.75,56.4705882 L71.75,114.86631 L171.046875,114.86631 L171.046875,56.4705882 L71.75,56.4705882 Z" id="Rectangle-1547" fill="#BEC8D2" fill-rule="nonzero"></path>
                <polygon id="Path" fill="#EDF3F5" points="71.75 61.2834225 71.75 114.86631 171.046875 114.86631 171.046875 61.2834225"></polygon>
                <path d="M124.426338,32.4064171 L138.697479,32.4064171 C141.878241,32.4064171 144.460938,29.820682 144.460938,26.631016 C144.460938,23.4478404 141.880549,20.855615 138.697479,20.855615 L132.354072,20.855615 L140.617188,8.816159 L170.168493,51.8727585 L111.125029,51.7865805 L124.426338,32.4064171 Z" id="Path" fill="#EDF3F5"></path>
                <path d="M54.4512709,27.5935829 L138.697479,27.5935829 C139.225376,27.5935829 139.65625,27.1619352 139.65625,26.631016 C139.65625,26.1024136 139.223519,25.6684492 138.697479,25.6684492 L53.3162346,25.8506538 L54.4512709,27.5935829 Z" id="Path" fill="#FFFFFF"></path>
            </g>
            <g id="Hammer" transform="translate(106.503906, 0.000000)">
                <path d="M46.282013,20.0671096 L46.114421,24.7058824 L8.48828125,24.7058824 L8.48828125,24.2231889 L0.643596649,24.2560021 L0.643596649,0.808579824 L8.48828125,0.808579824 L8.48828125,0.320855615 L55.8945312,0.320855615 L55.8945312,14.3878523 L51.1406745,14.4382333 C48.6416041,14.4647183 46.3988131,16.8342025 46.282013,20.0671096 Z M8.328125,5.61497326 L5.4453125,5.61497326 L5.4453125,19.4117647 L8.328125,19.4117647 L8.328125,5.61497326 Z M41.4804687,19.8930481 C41.6893682,14.1109279 45.992697,9.67968768 51.0898437,9.62566845 L51.0898437,5.13368984 L13.2929687,5.13368984 L13.2929687,19.8930481 L41.4804687,19.8930481 Z M19.21875,65.6149733 L19.21875,24.7058824 L30.4296875,24.7058824 L30.4296875,65.6149733 L19.21875,65.6149733 Z M16.015625,79.2513369 L16.015625,58.5561497 L33.6328125,58.5561497 L33.6328125,79.2513369 L16.015625,79.2513369 Z" id="Stroke-26" fill="#BEC8D2" fill-rule="nonzero"></path>
                <polygon id="Path" fill="#FFFFFF" points="24.0234375 60.802139 25.625 60.802139 25.625 24.7058824 24.0234375 24.7058824"></polygon>
                <polygon id="Path" fill="#FFFFFF" points="28.828125 79.2513369 28.828125 65.6149733 20.8203125 65.6149733 20.8203125 79.2513369"></polygon>
                <path d="M41.4804687,19.8930481 C41.6893682,14.1109279 45.992697,9.67968768 51.0898437,9.62566845 L13.2929687,9.62566845 L13.2929687,19.8930481 L41.4804687,19.8930481 Z" id="Path" fill="#EDF3F5"></path>
                <polygon id="Path" fill="#EDF3F5" points="8.328125 9.62566845 5.4453125 9.62566845 5.4453125 19.4117647 8.328125 19.4117647"></polygon>
            </g>
            <g id="screwdriver" transform="translate(94.492188, 26.470588)">
                <path d="M14.4140625,44.1176471 L26.4257812,44.1176471 L26.4257812,48.9304813 L20.3827445,48.9304813 L20.3839886,53.0046486 L5.05713255,53.0010394 L5.05653617,48.9304813 L0,48.9304813 L0,44.1176471 L10.4101562,44.1176471 L10.4101562,19.2513369 L14.4140625,19.2513369 L14.4140625,44.1176471 Z M13.6952271,15.1018863 L13.6952271,5.39477459 L11.2522307,5.39445111 L11.2515902,15.1018863 L13.6952271,15.1018863 Z M6.44786073,0.580980685 L18.4999146,0.58257652 L18.4999146,19.9147205 L6.44658514,19.9147205 L6.44786073,0.580980685 Z" id="Stroke-1" fill="#BEC8D2" fill-rule="nonzero"></path>
                <polygon id="Path" fill="#EEF1F6" points="9.86181945 52.2005401 15.5793011 52.2025706 15.5775515 49.2263707 9.86098129 49.2270925"></polygon>
            </g>
            <g id="Headphones" transform="translate(1.601562, 23.262032)">
                <path d="M6.24609375,56.4705882 L5.07219734,56.4705882 C2.0529775,56.4705882 0.640625,54.5283227 0.640625,51.3264155 L0.640625,39.7530423 C0.640625,36.6129824 2.18886305,34.0106952 5.00518845,34.0106952 L6.28193616,34.0106952 C6.62875343,28.6485162 9.48261465,24.3850267 14.4140625,24.3850267 L20.1796875,24.3850267 C21.5064653,24.3850267 22.5820313,25.4624164 22.5820313,26.7914439 L22.5820313,64.0106952 C22.5820313,65.3397227 21.5064653,66.4171123 20.1796875,66.4171123 L14.5394648,66.4171123 C8.88921057,66.4171123 6.24609375,62.7823011 6.24609375,56.7901604 L6.24609375,56.4705882 Z M17.7773438,29.197861 L14.4140625,29.197861 C12.4597149,29.197861 11.0507813,31.5660046 11.0507813,35.1314192 L11.0507813,56.7901604 C11.0507813,60.3938497 11.9309655,61.6042781 14.5394648,61.6042781 L17.7773438,61.6042781 L17.7773438,29.197861 Z" id="Stroke-3" fill="#BEC8D2" fill-rule="nonzero"></path>
                <path d="M83.4414062,24.8661939 L63.1234577,54.4696837 C62.6778205,53.6428315 62.4608577,52.5813753 62.4608577,51.3264155 L62.4608577,39.7530423 C62.4608577,36.6129824 64.0090958,34.0106952 66.8254212,34.0106952 L68.1021689,34.0106952 C68.4489862,28.6485162 71.3028474,24.3850267 76.2342952,24.3850267 L81.9999202,24.3850267 C82.5407745,24.3850267 83.0398838,24.5640613 83.4414062,24.8661939 Z" id="Stroke-3" fill="#BEC8D2" fill-rule="nonzero" transform="translate(72.951132, 39.427355) scale(-1, 1) translate(-72.951132, -39.427355) "></path>
                <path d="M17.7773438,33.2085561 L14.4140625,33.2085561 C12.4597149,33.2085561 11.0507813,35.5766998 11.0507813,39.1421144 L11.0507813,56.7901604 C11.0507813,60.3938497 11.9309655,61.6042781 14.5394648,61.6042781 L17.7773438,61.6042781 L17.7773438,33.2085561 Z" id="Path" fill="#EDF3F5"></path>
                <path d="M67.9663086,40.5007292 L67.9663086,38.8212587 C67.9663086,35.2558442 69.3752423,32.8877005 71.3295898,32.8877005 L73.1914063,32.8877005 L67.9663086,40.5007292 Z" id="Path" fill="#EDF3F5" transform="translate(70.578857, 36.694215) scale(-1, 1) translate(-70.578857, -36.694215) "></path>
                <path d="M18.7660976,28.0751499 L13.9614101,28.0751499 C13.9614101,12.9103117 26.5230001,0.641994777 41.9887539,0.641994777 C57.4545077,0.641994777 70.0160976,12.9103117 70.0160976,28.0751499 L65.2114101,28.0751499 C65.2114101,15.5960193 54.8277956,5.454829 41.9887539,5.454829 C29.1497122,5.454829 18.7660976,15.5960193 18.7660976,28.0751499 Z" id="Stroke-9" fill="#BEC8D2" fill-rule="nonzero"></path>
            </g>
        </g>
    </g>
</svg>