<?xml version="1.0" encoding="UTF-8" standalone="no"?>
<svg width="25px" height="25px" viewBox="0 0 25 25" version="1.1" xmlns="http://www.w3.org/2000/svg" xmlns:xlink="http://www.w3.org/1999/xlink" xmlns:sketch="http://www.bohemiancoding.com/sketch/ns">
    <!-- Generator: Sketch 3.2.2 (9983) - http://www.bohemiancoding.com/sketch -->
    <title>icon_checkmark_25x25</title>
    <desc>Created with Sketch.</desc>
    <defs></defs>
    <g id="Page-1" stroke="none" stroke-width="1" fill="none" fill-rule="evenodd" sketch:type="MSPage">
        <g id="icon_checkmark_25x25" sketch:type="MSLayerGroup">
            <path d="M18.7748717,1.62569261 C16.8594477,0.541832963 14.768423,0 12.5003995,0 C10.2325758,0 8.14115164,0.541832963 6.22592734,1.62569261 C4.31070304,2.70935853 2.79442553,4.17968823 1.67669527,6.03687544 C0.558765243,7.89406265 0,9.92230402 0,12.1212121 C0,14.3201202 0.558965016,16.3481679 1.6764955,18.2055488 C2.79422576,20.0621548 4.31050327,21.532872 6.22572757,22.6167317 C8.14095188,23.7005913 10.232376,24.2424242 12.5001998,24.2424242 C14.7680235,24.2424242 16.8596474,23.7005913 18.774672,22.6167317 C20.6896965,21.5330657 22.205974,20.0625423 23.3237043,18.2055488 C24.4412348,16.3481679 25,14.3199265 25,12.1212121 C25,9.92230402 24.4412348,7.89386894 23.3239041,6.03687544 C22.2061737,4.17988195 20.6898963,2.70955225 18.7748717,1.62569261 L18.7748717,1.62569261 Z" id="Shape" fill="#63B60A" sketch:type="MSShapeGroup"></path>
            <path d="M19.3412781,9.04060136 L9.62295535,17.7686287 L5.46875,11.5430427 L7.19337463,10.4932381 L10.0131989,14.6924568 L17.9439545,7.57575758 L19.3412781,9.04060136 L19.3412781,9.04060136 Z" id="✓" fill="#FFFFFF" sketch:type="MSShapeGroup"></path>
        </g>
    </g>
</svg>