<?xml version="1.0" encoding="UTF-8" standalone="no"?>
<svg width="25px" height="25px" viewBox="0 0 25 25" version="1.1" xmlns="http://www.w3.org/2000/svg" xmlns:xlink="http://www.w3.org/1999/xlink" xmlns:sketch="http://www.bohemiancoding.com/sketch/ns">
    <!-- Generator: Sketch 3.2.2 (9983) - http://www.bohemiancoding.com/sketch -->
    <title>icon_alert_25x25</title>
    <desc>Created with Sketch.</desc>
    <defs></defs>
    <g id="Page-1" stroke="none" stroke-width="1" fill="none" fill-rule="evenodd" sketch:type="MSPage">
        <g id="icon_alert_25x25" sketch:type="MSLayerGroup">
            <path d="M24.4557861,22.0908088 L13.8866983,1.00349265 C13.7306172,0.693933823 13.5150766,0.449264706 13.2394009,0.269669117 C12.9644009,0.0898897058 12.6660902,0 12.3449753,0 C12.0238605,0 11.7255496,0.0900735292 11.4503807,0.269669117 C11.1752118,0.449264706 10.9595023,0.693933823 10.8035902,1.00349265 L0.234164488,22.0908088 C-0.0869503773,22.7200367 -0.0778287557,23.3490809 0.261698271,23.978125 C0.417779352,24.2674632 0.631123947,24.4972427 0.901732055,24.6667279 C1.17250909,24.8365809 1.4637253,24.9216912 1.77571854,24.9216912 L22.9144009,24.9216912 C23.226732,24.9216912 23.5177794,24.8365809 23.7885564,24.6667279 C24.0593334,24.4972427 24.2723402,24.2674632 24.4285902,23.978125 C24.7681172,23.3488971 24.7772388,22.7200367 24.4557861,22.0908088 L24.4557861,22.0908088 L24.4557861,22.0908088 Z" id="Shape" fill="#B81212" sketch:type="MSShapeGroup"></path>
            <path d="M11.075,7 L13.7,7 L13.7,9.58 L13.1375,16.8 L11.6375,16.8 L11.075,9.58 L11.075,7 L11.075,7 Z M11.4125,21.04 C11.1374986,20.7466652 11,20.3966687 11,19.99 C11,19.5833313 11.1374986,19.2333348 11.4125,18.94 C11.6875014,18.6466652 12.0156231,18.5 12.396875,18.5 C12.7781269,18.5 13.1062486,18.6466652 13.38125,18.94 C13.6562514,19.2333348 13.79375,19.5833313 13.79375,19.99 C13.79375,20.3966687 13.6562514,20.7466652 13.38125,21.04 C13.1062486,21.3333348 12.7781269,21.48 12.396875,21.48 C12.0156231,21.48 11.6875014,21.3333348 11.4125,21.04 L11.4125,21.04 L11.4125,21.04 Z" id="!" fill="#FFFFFF" sketch:type="MSShapeGroup"></path>
        </g>
    </g>
</svg>