<?xml version="1.0" encoding="utf-8"?><svg xmlns="http://www.w3.org/2000/svg" xmlns:xlink="http://www.w3.org/1999/xlink"><defs><svg viewBox="0 0 33 32" id="account_32" xmlns="http://www.w3.org/2000/svg"><title>icon/account_32</title><g stroke="currentColor" stroke-width="2" fill="none" fill-rule="evenodd"><circle cx="16.667" cy="16" r="12"/><ellipse stroke-linecap="round" stroke-linejoin="round" cx="16.667" cy="12.529" rx="3" ry="2.971"/><path d="M22.667 22a6 6 0 1 0-12 0" stroke-linecap="round" stroke-linejoin="round"/></g></svg><svg viewBox="0 0 24 24" id="add_24" xmlns="http://www.w3.org/2000/svg"><title>icon/add_24</title><g fill="none" fill-rule="evenodd"><path d="M0 0h24v24H0z"/><path d="M12 6v12m-6-6h12" stroke-linecap="round" stroke="currentColor" stroke-width="2"/></g></svg><svg viewBox="0 0 24 24" id="approval_24" xmlns="http://www.w3.org/2000/svg"><title>icon/approval_24</title><g fill="none" fill-rule="evenodd"><path d="M0 0h24v24H0z"/><path d="M14 15l2 2m0 0l5-5M4.342 6H15M4.342 10H15M4.342 14.333h6.217" stroke="currentColor" stroke-width="2" stroke-linecap="round"/></g></svg><svg viewBox="0 0 24 24" id="arrowDown_24" xmlns="http://www.w3.org/2000/svg"><title>icon/arrow/arrowDown_24</title><g fill="none" fill-rule="evenodd"><path d="M0 0h24v24H0z"/><path d="M16.95 11L12 15.95M7 11l4.95 4.95" stroke="currentColor" stroke-width="2" stroke-linecap="round" stroke-linejoin="round"/></g></svg><svg viewBox="0 0 24 24" id="arrowLeft_24" xmlns="http://www.w3.org/2000/svg"><title>icon/arrow/arrowLeft_24</title><g fill="none" fill-rule="evenodd"><path d="M0 0h24v24H0z"/><path d="M8 12l6 6m-6-6l6-6" stroke="currentColor" stroke-width="2" stroke-linecap="round" stroke-linejoin="round"/></g></svg><svg viewBox="0 0 24 24" id="arrowRight_24" xmlns="http://www.w3.org/2000/svg"><title>icon/arrow/arrowRight_24</title><g fill="none" fill-rule="evenodd"><path d="M0 0h24v24H0z"/><path d="M16 12l-6-6m6 6l-6 6" stroke="currentColor" stroke-width="2" stroke-linecap="round" stroke-linejoin="round"/></g></svg><svg viewBox="0 0 16 16" id="arrowSolid_16" xmlns="http://www.w3.org/2000/svg"><title>icon/arrow/arrowSolid_16</title><g fill="none" fill-rule="evenodd"><path d="M0 0h16v16H0z"/><path fill="currentColor" d="M4 6l4.064 4.981 4.05-4.943z"/></g></svg><svg viewBox="0 0 24 24" id="arrowUp_24" xmlns="http://www.w3.org/2000/svg"><title>icon/arrow/arrowUp_24</title><g fill="none" fill-rule="evenodd"><path d="M0 0h24v24H0z"/><path d="M7.05 15L12 10.05M17 15l-4.95-4.95" stroke="currentColor" stroke-width="2" stroke-linecap="round" stroke-linejoin="round"/></g></svg><svg viewBox="0 0 24 24" id="bookmark_24" xmlns="http://www.w3.org/2000/svg"><title>icon/bookmark_24</title><g fill="none" fill-rule="evenodd"><path d="M0 0h24v24H0z"/><path stroke="currentColor" stroke-width="2" stroke-linecap="round" stroke-linejoin="round" d="M7 4h10v15.632l-5-3.278-5 3.278z"/></g></svg><svg viewBox="0 0 24 24" id="calendar_24" xmlns="http://www.w3.org/2000/svg"><title>icon/calendar_24</title><g fill="none" fill-rule="evenodd"><path d="M0 0h24v24H0z"/><g transform="translate(3 4)"><path stroke="currentColor" stroke-width="2" stroke-linecap="round" stroke-linejoin="round" d="M0 3h18v14H0zm5 2V0m8 5V0"/><circle fill="currentColor" cx="5" cy="9" r="1"/><circle fill="currentColor" cx="5" cy="13" r="1"/><circle fill="currentColor" cx="9" cy="13" r="1"/><circle fill="currentColor" cx="13" cy="13" r="1"/><circle fill="currentColor" cx="9" cy="9" r="1"/><circle fill="currentColor" cx="13" cy="9" r="1"/></g></g></svg><svg viewBox="0 0 23 21" id="cart_32" xmlns="http://www.w3.org/2000/svg"><title>icon/cart_32</title><g stroke-width="2" stroke="currentColor" fill="none" fill-rule="evenodd"><path stroke-linecap="round" stroke-linejoin="round" d="M1 1h4l1.693 5.078L9 13h11l2-7H7"/><g transform="translate(8.5 15.5)"><circle cx="2" cy="2" r="2"/><circle cx="10" cy="2" r="2"/></g></g></svg><svg viewBox="0 0 24 24" id="check_24" xmlns="http://www.w3.org/2000/svg"><title>icon/check_24</title><g fill="none" fill-rule="evenodd"><path d="M0 0h24v24H0z"/><path d="M5 13l5 4m0 0l8-9" stroke="currentColor" stroke-width="2" stroke-linecap="round"/></g></svg><svg viewBox="0 0 16 16" id="close_16" xmlns="http://www.w3.org/2000/svg"><title>icon/close_16</title><g fill="none" fill-rule="evenodd"><path d="M0 0h16v16H0z"/><path d="M4.5 4.5l7 7m0-7l-7 7" stroke="currentColor" stroke-linecap="round"/></g></svg><svg viewBox="0 0 24 24" id="close_24" xmlns="http://www.w3.org/2000/svg"><title>icon/close_24</title><g fill="none" fill-rule="evenodd"><path d="M0 0h24v24H0z"/><path d="M5 5l14.142 14.142M19 5L5 19" stroke="currentColor" stroke-width="2" stroke-linecap="round"/></g></svg><svg viewBox="0 0 24 24" id="copy_24" xmlns="http://www.w3.org/2000/svg"><title>icon/copy_24</title><g fill="none" fill-rule="evenodd"><path d="M0 0h24v24H0z"/><path stroke="currentColor" stroke-width="2" stroke-linecap="round" stroke-linejoin="round" d="M8 8h13v13H8z"/><path stroke="currentColor" stroke-width="2" stroke-linecap="round" stroke-linejoin="round" d="M4 18V4h13"/></g></svg><svg viewBox="0 0 16 16" id="edit_16" xmlns="http://www.w3.org/2000/svg"><title>icon/edit_16</title><g fill="none" fill-rule="evenodd"><path d="M0 0h24v24H0z"/><g stroke="currentColor"><path stroke-linecap="round" stroke-linejoin="round" d="M12.48 1.94l2.298 2.3-9.012 9.012-3.725 1.426 1.426-3.725z"/><path d="M10.69 4.9l1.136 1.137" stroke-linecap="square"/></g></g></svg><svg viewBox="0 0 24 24" id="edit_24" xmlns="http://www.w3.org/2000/svg"><title>icon/edit_24</title><g stroke="currentColor" stroke-width="2" fill="none" fill-rule="evenodd"><path stroke-linecap="round" stroke-linejoin="round" d="M16.159 4.634l3.536 3.536-9.9 9.899-4.596 1.06 1.06-4.595z"/><path d="M14.295 7.699l2.503 2.503" stroke-linecap="square"/></g></svg><svg viewBox="0 0 24 24" id="email_24" xmlns="http://www.w3.org/2000/svg"><title>icon/email_24</title><g fill="none" fill-rule="evenodd"><path d="M0 0h24v24H0z"/><path d="M3 6h18v12H3zm0 0l9 6m0 0l9-6" stroke="currentColor" stroke-width="2" stroke-linecap="round" stroke-linejoin="round"/></g></svg><svg viewBox="0 0 24 24" id="error_24" xmlns="http://www.w3.org/2000/svg"><title>icon/error_24</title><g stroke="currentColor" stroke-width="2" fill="none" fill-rule="evenodd" stroke-linecap="round"><ellipse stroke-linejoin="round" cx="12" cy="12" rx="9" ry="9"/><path d="M9 15l6-6M9 9l6 6"/></g></svg><svg viewBox="0 0 32 32" id="error_32" xmlns="http://www.w3.org/2000/svg"><title>icon/error_32</title><g stroke="currentColor" stroke-width="2" fill="none" fill-rule="evenodd" stroke-linecap="round"><ellipse stroke-linejoin="round" cx="16" cy="16" rx="12" ry="12"/><path d="M12 12l8.485 8.485m-8.485 0L20.485 12"/></g></svg><svg viewBox="0 0 22 21" id="externalLink_32" xmlns="http://www.w3.org/2000/svg"><title>icon/external link_32</title><g fill="none" fill-rule="evenodd"><path d="M-6-6h32v32H-6z"/><path stroke="currentColor" stroke-width="2" stroke-linecap="round" stroke-linejoin="round" d="M19.35 10l.003 9.353H1V1h9"/><path fill="currentColor" d="M20.23 6.436L21.427.11 15.03.178z"/></g></svg><svg viewBox="0 0 24 24" id="format_24" xmlns="http://www.w3.org/2000/svg"><title>icon/format_24</title><g fill="none" fill-rule="evenodd"><path d="M0 0h24v24H0z"/><path d="M5 20h14" stroke="currentColor" stroke-width="2" stroke-linecap="round"/><path d="M9.789 13.299l-.805 2.994H6.42L10.444 3.36h3.05L17.5 16.293h-2.62l-.805-2.994H9.789zm2.134-8.048l-1.647 6.176h3.312l-1.665-6.176z" fill="currentColor"/></g></svg><svg viewBox="0 0 24 24" id="grid_24" xmlns="http://www.w3.org/2000/svg"><title>icon/grid_24</title><g fill="none" fill-rule="evenodd"><path d="M0 0h24v24H0z"/><path d="M0 0h24v24H0z"/><rect fill="currentColor" x="4" y="4" width="4" height="4" rx="2"/><rect fill="currentColor" x="4" y="10" width="4" height="4" rx="2"/><rect fill="currentColor" x="10" y="4" width="4" height="4" rx="2"/><rect fill="currentColor" x="10" y="10" width="4" height="4" rx="2"/><rect fill="currentColor" x="16" y="4" width="4" height="4" rx="2"/><rect fill="currentColor" x="16" y="10" width="4" height="4" rx="2"/><rect fill="currentColor" x="4" y="16" width="4" height="4" rx="2"/><rect fill="currentColor" x="10" y="16" width="4" height="4" rx="2"/><rect fill="currentColor" x="16" y="16" width="4" height="4" rx="2"/></g></svg><svg viewBox="0 0 27 26" id="groupingA_32" xmlns="http://www.w3.org/2000/svg"><title>icon/groupingA_32</title><g transform="translate(-3 -3)" stroke-width="2" stroke="currentColor" fill="none" fill-rule="evenodd"><circle cx="16.667" cy="16" r="12"/><g transform="translate(5.65 10)" stroke-linejoin="round"><path d="M13.993 2.763A3.005 3.005 0 0 1 16 2c1.657 0 3 1.33 3 2.97 0 1.642-1.343 2.972-3 2.972-1.586 0-2.885-1.22-2.993-2.763a2.95 2.95 0 0 0 .986-2.416z" stroke-linecap="round"/><path d="M21.85 11c0-.063-2.536-2.558-5.85-2.558"/><path d="M8.007 2.763A3.005 3.005 0 0 0 6 2C4.343 2 3 3.33 3 4.97c0 1.642 1.343 2.972 3 2.972 1.586 0 2.885-1.22 2.993-2.763a2.95 2.95 0 0 1-.986-2.416z" stroke-linecap="round"/><path d="M.35 11S2.686 8.442 6 8.442"/><ellipse stroke-linecap="round" cx="11" cy="2.971" rx="3" ry="2.971"/><path d="M17 12.442a6 6 0 0 0-12 0" stroke-linecap="round"/></g></g></svg><svg viewBox="0 0 27 26" id="groupingB_32" xmlns="http://www.w3.org/2000/svg"><title>icon/groupB_32</title><g stroke-width="2" transform="translate(-3 -3)" stroke="currentColor" fill="none" fill-rule="evenodd"><circle cx="16.667" cy="16" r="12"/><g transform="translate(5.5 11)" stroke-linecap="round" stroke-linejoin="round"><ellipse cx="15.5" cy="2.971" rx="3" ry="2.971"/><ellipse cx="6.5" cy="2.971" rx="3" ry="2.971"/><path d="M12.5 13a6 6 0 0 0-6-6c-3.314 0-6 2.227-6 3m21 1c0-1.596-2.686-4-6-4s-4 2-4 2"/></g></g></svg><svg viewBox="0 0 28 22" id="groupingC_32" xmlns="http://www.w3.org/2000/svg"><title>icon/groupingC_32</title><g transform="translate(-2 -4)" stroke-width="2" stroke="currentColor" fill="none" fill-rule="evenodd" stroke-linecap="round" stroke-linejoin="round"><ellipse cx="16" cy="7.971" rx="3" ry="2.971"/><path d="M19.995 13.523A5.978 5.978 0 0 0 16 12a5.97 5.97 0 0 0-3.943 1.478c-.696.607-.133-.809-.133 0"/><ellipse cx="23" cy="14.971" rx="3" ry="2.971"/><path d="M29 25a6 6 0 1 0-12 0"/><ellipse cx="9" cy="14.971" rx="3" ry="2.971"/><path d="M15 25a6 6 0 1 0-12 0"/></g></svg><svg viewBox="0 0 24 24" id="info_24" xmlns="http://www.w3.org/2000/svg"><title>icon/info_24</title><g fill="none" fill-rule="evenodd"><ellipse stroke="currentColor" stroke-width="2" stroke-linecap="round" stroke-linejoin="round" cx="12" cy="12" rx="9" ry="9"/><path d="M12 12v5" stroke="currentColor" stroke-width="2" stroke-linecap="round"/><circle fill="currentColor" cx="12" cy="8" r="1"/></g></svg><svg viewBox="0 0 32 32" id="info_32" xmlns="http://www.w3.org/2000/svg"><title>icon/info_32</title><g fill="none" fill-rule="evenodd"><circle stroke="currentColor" stroke-width="2" stroke-linecap="round" stroke-linejoin="round" cx="16" cy="16" r="12"/><path d="M16 15v7" stroke="currentColor" stroke-width="2" stroke-linecap="round"/><circle fill="currentColor" cx="16" cy="11" r="1"/></g></svg><svg viewBox="0 0 24 24" id="list_24" xmlns="http://www.w3.org/2000/svg"><title>icon/list_24</title><g fill="none" fill-rule="evenodd"><path d="M0 0h24v24H0z"/><g transform="translate(3 6)"><path d="M5 1h11M5 6h11M5 11h11" stroke="currentColor" stroke-width="2" stroke-linecap="round"/><circle fill="currentColor" cx="1" cy="1" r="1"/><circle fill="currentColor" cx="1" cy="6" r="1"/><circle fill="currentColor" cx="1" cy="11" r="1"/></g></g></svg><svg viewBox="0 0 16 16" id="locked_16" xmlns="http://www.w3.org/2000/svg"><title>icon/locked_16</title><g fill="none" fill-rule="evenodd"><path d="M0 0h16v16H0z"/><rect stroke="currentColor" x="4.259" y="7.349" width="8.664" height="6.498" rx="1"/><path d="M5.592 7.349V5.294c0-1.028.514-3.083 3.083-3.083 1.477 0 3.082 1.028 3.082 3.083v2.055" stroke="currentColor"/></g></svg><svg viewBox="0 0 24 24" id="locked_24" xmlns="http://www.w3.org/2000/svg"><title>icon/locked_24</title><g fill="none" fill-rule="evenodd"><path d="M0 0h24v24H0z"/><g transform="translate(6 3)" stroke="currentColor" stroke-width="2"><rect x=".259" y="8.327" width="12" height="9" rx="1"/><path d="M2.105 7.327V4.481c0-1.423.712-4.27 4.27-4.27 2.046 0 4.27 1.424 4.27 4.27v2.846"/></g></g></svg><svg viewBox="0 0 16 16" id="message_16" xmlns="http://www.w3.org/2000/svg"><title>icon/message_16</title><g fill="none" fill-rule="evenodd"><path d="M0 0h16v16H0z"/><path stroke="currentColor" stroke-linecap="round" stroke-linejoin="round" d="M3 3h10v7.222H7.444L3 13z"/></g></svg><svg viewBox="0 0 24 24" id="message_24" xmlns="http://www.w3.org/2000/svg"><title>icon/message_24</title><g fill="none" fill-rule="evenodd"><path d="M0 0h24v24H0z"/><g transform="translate(3 3)"><path stroke="currentColor" stroke-width="2" stroke-linecap="round" stroke-linejoin="round" d="M0 0h18v13H8l-8 5z"/><circle fill="currentColor" cx="5" cy="7" r="1"/><circle fill="currentColor" cx="9" cy="7" r="1"/><circle fill="currentColor" cx="13" cy="7" r="1"/></g></g></svg><svg viewBox="0 0 24 24" id="moreHorz_24" xmlns="http://www.w3.org/2000/svg"><title>icon/moreHorz_24</title><g fill="none" fill-rule="evenodd"><path d="M0 0h24v24H0z"/><path d="M6 10c-1.1 0-2 .9-2 2s.9 2 2 2 2-.9 2-2-.9-2-2-2zm6 0c-1.1 0-2 .9-2 2s.9 2 2 2 2-.9 2-2-.9-2-2-2zm6 4c1.1 0 2-.9 2-2s-.9-2-2-2-2 .9-2 2 .9 2 2 2z" fill="currentColor"/></g></svg><svg viewBox="0 0 24 24" id="moreVert_24" xmlns="http://www.w3.org/2000/svg"><title>icon/moreVert_24</title><g fill="none" fill-rule="evenodd"><path d="M0 0h24v24H0z"/><path d="M12 16c-1.1 0-2 .9-2 2s.9 2 2 2 2-.9 2-2-.9-2-2-2zm0-6c-1.1 0-2 .9-2 2s.9 2 2 2 2-.9 2-2-.9-2-2-2zm0-2c1.1 0 2-.9 2-2s-.9-2-2-2-2 .9-2 2 .9 2 2 2z" fill="currentColor"/></g></svg><svg viewBox="0 0 32 32" id="notificationCount_32" xmlns="http://www.w3.org/2000/svg"><title>icon/notification count_32</title><g fill="none" fill-rule="evenodd"><path d="M22 21v-8a6 6 0 1 0-12 0v8l-2 3h16l-2-3zM16 7V5m-3 19a2 2 0 1 0 4 0" stroke="currentColor" stroke-width="2" stroke-linecap="round" stroke-linejoin="round"/><g transform="translate(17 2)" fill="currentColor"><circle cx="7" cy="7" r="7"/><text font-family="OpenSans-Semibold, Open Sans" font-size="9" font-weight="500"><tspan x="4" y="10">4</tspan></text></g></g></svg><svg viewBox="0 0 24 24" id="notification_24" xmlns="http://www.w3.org/2000/svg"><title>icon/notification_24</title><path d="M16.5 16.706v-6.118C16.5 8.054 14.485 6 12 6s-4.5 2.054-4.5 4.588v6.118L6 19h12l-1.5-2.294zM12 6V4m-2 15a2 2 0 1 0 4 0" stroke="currentColor" stroke-width="2" fill="none" fill-rule="evenodd" stroke-linecap="round" stroke-linejoin="round"/></svg><svg viewBox="0 0 24 24" id="process_24" xmlns="http://www.w3.org/2000/svg"><title>icon/process_24</title><g fill="none" fill-rule="evenodd"><path d="M0 0h24v24H0z"/><path d="M7 2h14v8H7zM3 14h14v8H3zm0 4h6m6-12h6" stroke="currentColor" stroke-width="2" stroke-linecap="round" stroke-linejoin="round"/></g></svg><svg viewBox="0 0 24 24" id="remove_24" xmlns="http://www.w3.org/2000/svg"><title>icon/remove_24</title><g stroke="currentColor" stroke-width="2" fill="none" fill-rule="evenodd" stroke-linecap="round"><ellipse stroke-linejoin="round" cx="12" cy="12" rx="9" ry="9"/><path d="M7 12h10"/></g></svg><svg viewBox="0 0 32 32" id="remove_32" xmlns="http://www.w3.org/2000/svg"><title>icon/remove_32</title><g stroke="currentColor" stroke-width="2" fill="none" fill-rule="evenodd" stroke-linecap="round"><circle stroke-linejoin="round" cx="16" cy="16" r="12"/><path d="M24 16H9"/></g></svg><svg viewBox="0 0 24 24" id="reorder_24" xmlns="http://www.w3.org/2000/svg"><title>icon/reorder_24</title><g fill="none" fill-rule="evenodd"><path d="M0 0h24v24H0z"/><path d="M5 14h14M5 10h14" stroke="currentColor" stroke-width="2" stroke-linecap="round"/></g></svg><svg viewBox="0 0 24 24" id="resizeHorz_24" xmlns="http://www.w3.org/2000/svg"><title>icon/resizeHorz_24</title><g fill="none" fill-rule="evenodd"><path d="M0 0h24v24H0z"/><path fill="currentColor" d="M15.019 15.064l3.683-3.005-3.655-2.995zm-6.317-6L5.02 12.07l3.656 2.994z"/><path d="M12 19V5" stroke="currentColor" stroke-width="2" stroke-linecap="round"/></g></svg><svg viewBox="0 0 24 24" id="resizeVert_24" xmlns="http://www.w3.org/2000/svg"><title>icon/resizeVert_24</title><g fill="none" fill-rule="evenodd"><path d="M0 0h24v24H0z"/><path fill="currentColor" d="M8.936 15.019l3.005 3.683 2.995-3.655zm6-6.317L11.93 5.02 8.936 8.675z"/><path d="M5 12h14" stroke="currentColor" stroke-width="2" stroke-linecap="round"/></g></svg><svg viewBox="0 0 24 24" id="search_24" xmlns="http://www.w3.org/2000/svg"><title>icon/search _24</title><g stroke="currentColor" stroke-width="2" fill="none" fill-rule="evenodd" stroke-linecap="round"><ellipse stroke-linejoin="round" cx="10.286" cy="10.341" rx="7.286" ry="7.341"/><path d="M15 15.955L21 22"/></g></svg><svg viewBox="0 0 32 32" id="search_32" xmlns="http://www.w3.org/2000/svg"><title>icon/search_32</title><g stroke="currentColor" stroke-width="2" fill="none" fill-rule="evenodd" stroke-linecap="round"><circle stroke-linejoin="round" cx="13.5" cy="13.5" r="8.5"/><path d="M19 20l7 7"/></g></svg><svg viewBox="0 0 24 24" id="setting_24" xmlns="http://www.w3.org/2000/svg"><title>icon/setting_24</title><g fill="none" fill-rule="evenodd"><path d="M0 0h24v24H0z"/><path d="M17.995 13.333a6.44 6.44 0 0 0 .06-.833 6.44 6.44 0 0 0-.06-.833l1.843-1.402a.421.421 0 0 0 .105-.545l-1.747-2.94a.445.445 0 0 0-.533-.188l-2.176.85a6.43 6.43 0 0 0-1.477-.833l-.332-2.252A.423.423 0 0 0 13.25 4H9.754a.423.423 0 0 0-.428.357l-.332 2.252a6.761 6.761 0 0 0-1.477.833l-2.176-.85a.432.432 0 0 0-.533.188L3.061 9.72a.412.412 0 0 0 .104.544l1.844 1.403a6.56 6.56 0 0 0-.06.833c0 .28.025.561.06.833l-1.844 1.402a.421.421 0 0 0-.104.545l1.747 2.94a.445.445 0 0 0 .533.188l2.176-.85c.455.34.944.62 1.477.832l.332 2.253c.026.204.21.357.428.357h3.496a.423.423 0 0 0 .428-.357l.332-2.253a6.761 6.761 0 0 0 1.477-.832l2.176.85c.2.076.428 0 .533-.188l1.747-2.94a.421.421 0 0 0-.105-.544l-1.843-1.403zM11.5 15A2.503 2.503 0 0 1 9 12.5c0-1.379 1.121-2.5 2.5-2.5s2.5 1.121 2.5 2.5-1.121 2.5-2.5 2.5z" stroke="currentColor" stroke-width="2"/></g></svg><svg viewBox="0 0 24 24" id="success_24" xmlns="http://www.w3.org/2000/svg"><title>icon/success_24</title><g stroke="currentColor" stroke-width="2" fill="none" fill-rule="evenodd" stroke-linecap="round"><ellipse stroke-linejoin="round" cx="12" cy="12" rx="9" ry="9"/><path d="M12 14l4-4m-4.496 4.56L9 12"/></g></svg><svg viewBox="0 0 32 32" id="success_32" xmlns="http://www.w3.org/2000/svg"><title>icon/success_32</title><g stroke="currentColor" stroke-width="2" fill="none" fill-rule="evenodd"><circle cx="16" cy="16" r="12"/><path d="M12 17.333L14.667 20m0 0l6.666-6.667" stroke-linecap="round" stroke-linejoin="round"/></g></svg><svg viewBox="0 0 16 16" id="thinArrowDown_16" xmlns="http://www.w3.org/2000/svg"><title>icon/arrow/thinArrow down_16</title><g fill="none" fill-rule="evenodd"><path d="M0 0h16v16H0z"/><g stroke-linejoin="round" stroke="currentColor"><path stroke-linecap="round" d="M12.024 9.46l-3.837 4.613-4.163-4.612"/><path d="M8.024-.05v13.51"/></g></g></svg><svg viewBox="0 0 16 16" id="thinArrowRight_16" xmlns="http://www.w3.org/2000/svg"><title>icon/arrow/thinArrow right_16</title><g fill="none" fill-rule="evenodd"><path d="M0 0h16v16H0z"/><g stroke-linejoin="round" stroke="currentColor"><path stroke-linecap="round" d="M9 4l4.61 3.837L9 12"/><path d="M-.51 8H13"/></g></g></svg><svg viewBox="0 0 24 24" id="time_24" xmlns="http://www.w3.org/2000/svg"><title>icon/time_24</title><g stroke="currentColor" stroke-width="2" fill="none" fill-rule="evenodd"><ellipse cx="11.6" cy="12.4" rx="9" ry="9"/><path stroke-linecap="round" stroke-linejoin="round" d="M11.6 8.4v4.693L14 15.4"/></g></svg><svg viewBox="0 0 24 24" id="warning_24" xmlns="http://www.w3.org/2000/svg"><title>icon/warning_24</title><g fill="none" fill-rule="evenodd"><path d="M12.56 3.526c-.31-.541-.808-.547-1.122 0l-9.313 16.26c-.31.54-.024.979.636.979h18.476c.661 0 .95-.433.636-.98L12.56 3.525z" stroke="currentColor" stroke-width="2"/><rect fill="currentColor" x="11" y="9" width="2" height="6" rx="1"/><circle fill="currentColor" cx="12" cy="17" r="1"/></g></svg><svg viewBox="0 0 32 32" id="warning_32" xmlns="http://www.w3.org/2000/svg"><title>icon/warning_32</title><g fill="none" fill-rule="evenodd"><path d="M16.616 6.462c-.34-.613-.89-.62-1.234 0L5.138 24.89c-.341.613-.027 1.11.7 1.11H26.16c.727 0 1.044-.49.7-1.11L16.616 6.462z" stroke="currentColor" stroke-width="2"/><path d="M16 13v6" stroke="currentColor" stroke-width="2" stroke-linecap="round"/><circle fill="currentColor" cx="16" cy="22" r="1"/></g></svg></defs></svg>