<?xml version="1.0" standalone="no"?>
<!DOCTYPE svg PUBLIC "-//W3C//DTD SVG 1.1//EN" "http://www.w3.org/Graphics/SVG/1.1/DTD/svg11.dtd" >
<svg>
<metadata>
Created by FontForge 20120731 at Wed Aug  3 11:16:38 2016
 By www
(c) Copyright 1997 International Typeface Corporation. All rights reserved.
</metadata>
<defs>
<font id="OfficinaSerifITCTTBook" horiz-adv-x="500" >
  <font-face 
    font-family="Officina Serif ITC TT"
    font-weight="400"
    font-stretch="normal"
    units-per-em="1000"
    panose-1="0 0 4 0 0 0 0 0 0 0"
    ascent="800"
    descent="-200"
    x-height="480"
    cap-height="686"
    bbox="-108 -233 1040 915"
    underline-thickness="54"
    underline-position="-73"
    unicode-range="U+0020-F002"
  />
<missing-glyph 
d="M63 0v766h375v-766h-375zM125 63h250v641h-250v-641z" />
    <glyph glyph-name=".notdef" 
d="M63 0v766h375v-766h-375zM125 63h250v641h-250v-641z" />
    <glyph glyph-name=".null" horiz-adv-x="0" 
 />
    <glyph glyph-name="glyph2" horiz-adv-x="206" 
 />
    <glyph glyph-name="space" unicode=" " horiz-adv-x="206" 
 />
    <glyph glyph-name="exclam" unicode="!" horiz-adv-x="333" 
d="M216 672l-22 -394q-1 -13 -14 -13h-29q-13 0 -14 13l-23 398q0 10 14 10h74q14 0 14 -11v-3zM237 57q0 -29 -20.5 -50t-49.5 -21q-30 0 -50.5 20.5t-20.5 50.5q0 29 21 49.5t51 20.5q28 0 48.5 -21t20.5 -49z" />
    <glyph glyph-name="quotedbl" unicode="&#x22;" 
d="M365 672l-15 -237q-1 -13 -14 -13h-22q-13 0 -14 13l-17 242q0 9 14 9h55q14 0 13 -14zM217 672l-15 -237q-1 -13 -14 -13h-22q-13 0 -14 13l-17 241q0 10 14 10h55q14 0 13 -14z" />
    <glyph glyph-name="numbersign" unicode="#" 
d="M465 391q0 -14 -14 -14h-62l-20 -199h55q14 0 14 -14v-36q0 -14 -14 -14h-62l-19 -181q-1 -13 -14 -13h-36q-13 0 -13 11v4l19 179h-127l-19 -181q-1 -13 -14 -13h-35q-14 0 -14 9v6l19 179h-59q-14 0 -14 14v36q0 14 14 14h67l19 199h-59q-14 0 -14 14v38q0 14 14 14h67
l21 202q1 13 14 13h36q13 0 13 -12v-2l-21 -201h127l21 202q1 13 14 13h35q14 0 14 -9v-5l-21 -201h54q14 0 14 -14v-38zM326 377h-127l-19 -199h127z" />
    <glyph glyph-name="dollar" unicode="$" 
d="M438 168q0 -70 -42.5 -119.5t-111.5 -59.5v-65q0 -14 -14 -14h-26q-14 0 -14 14v61q-51 2 -110.5 20.5t-59.5 33.5l1 7l18 47q3 5 7 5t8 -3q88 -45 136 -43v251q-80 46 -100 64q-54 49 -54 121q0 65 43.5 111.5t110.5 53.5v57q0 14 14 14h26q14 0 14 -14v-55
q46 -3 91.5 -19.5t45.5 -29.5q0 -2 -2 -7l-17 -43q-2 -5 -7 -5q-4 0 -16 6q-54 28 -95 32v-228q82 -47 108 -74q46 -49 46 -119zM230 382v204q-73 -10 -73 -90q0 -38 15.5 -62t57.5 -52zM359 160q0 38 -16.5 64.5t-58.5 56.5v-226q75 18 75 105z" />
    <glyph glyph-name="percent" unicode="%" horiz-adv-x="741" 
d="M711 168q0 -84 -36 -131t-100 -47q-62 0 -95.5 42.5t-33.5 120.5q0 85 36 131.5t102 46.5q60 0 93.5 -43t33.5 -120zM542 652q0 -3 -2 -8l-273 -653q-4 -10 -18 -10h-38q-13 0 -13 7q0 4 2 9l272 653q4 10 15 10h42q13 0 13 -8zM294 490q0 -84 -36 -131t-100 -47
q-62 0 -95.5 42.5t-33.5 121.5q0 84 36 130.5t102 46.5q60 0 93.5 -43t33.5 -120zM645 163q0 113 -64 113q-69 0 -69 -118q0 -113 63 -113q70 0 70 118zM228 485q0 113 -64 113q-69 0 -69 -119q0 -112 64 -112q69 0 69 118z" />
    <glyph glyph-name="ampersand" unicode="&#x26;" horiz-adv-x="611" 
d="M577 33q0 -4 -6 -9l-40 -33q-6 -4 -10 -4q-6 0 -11 6l-60 69q-88 -72 -187 -72q-93 0 -149.5 49.5t-56.5 131.5q0 92 78 151q20 15 54 39q-87 101 -87 173q0 71 50 116.5t127 45.5q68 0 109.5 -40.5t41.5 -106.5q0 -103 -136 -192l166 -187q30 51 30 117v12q0 12 12 12
h49q12 0 12 -17q0 -98 -58 -176l69 -79q3 -3 3 -6zM356 542q0 40 -24 65t-63 25t-65.5 -25.5t-26.5 -63.5q0 -56 78 -142q101 71 101 141zM408 111l-180 207q-52 -41 -70.5 -71t-18.5 -71q0 -56 35.5 -89t95.5 -33q74 0 138 57z" />
    <glyph glyph-name="quotesingle" unicode="'" horiz-adv-x="333" 
d="M207 672l-15 -237q-1 -13 -14 -13h-22q-13 0 -14 13l-17 241q0 10 14 10h55q14 0 13 -14z" />
    <glyph glyph-name="parenleft" unicode="(" horiz-adv-x="370" 
d="M317 -201q0 -6 -17 -17t-26 -11q-15 0 -69 81q-123 184 -123 397q0 232 145 429q37 50 47 50q7 0 12 -4l24 -14q7 -4 7 -10t-9 -18q-144 -192 -144 -433q0 -239 144 -432q9 -12 9 -18z" />
    <glyph glyph-name="parenright" unicode=")" horiz-adv-x="370" 
d="M288 249q0 -230 -145 -428q-37 -50 -47 -50q-7 0 -12 3l-24 15q-7 4 -7 9q0 7 9 19q144 193 144 432q0 240 -144 433q-9 12 -9 18t23 20q13 8 20 8q14 0 69 -81q123 -182 123 -398z" />
    <glyph glyph-name="asterisk" unicode="*" 
d="M415 543q0 -6 -11 -9l-114 -26l77 -88q5 -6 5 -9q0 -5 -8 -11l-35 -25q-7 -5 -9 -5q-5 0 -10 8l-60 100l-60 -100q-5 -8 -10 -8q-3 0 -10 5l-35 26q-8 6 -8 9t6 10l76 88l-113 26q-12 3 -12 9q0 2 2 8l14 42q4 11 9 11l8 -3l108 -46l-11 122q0 9 14 9h44q13 0 13 -8v-6
l-10 -117l111 47q4 2 5 2q6 0 9 -11l13 -42q2 -6 2 -8z" />
    <glyph glyph-name="plus" unicode="+" 
d="M478 230q0 -14 -14 -14h-177v-176q0 -14 -14 -14h-47q-14 0 -14 14v176h-176q-14 0 -14 14v47q0 14 14 14h176v177q0 13 14 13h47q14 0 14 -13v-177h177q14 0 14 -14v-47z" />
    <glyph glyph-name="comma" unicode="," horiz-adv-x="296" 
d="M233 107q0 -3 -4 -10l-115 -212q-5 -9 -10 -9q-1 0 -5 1l-3 1l-22 8q-11 4 -11 9q0 1 2 8l58 200q3 11 15 11h81q14 0 14 -7z" />
    <glyph glyph-name="hyphen" unicode="-" horiz-adv-x="352" 
d="M315 232q0 -14 -14 -14h-250q-14 0 -14 14v47q0 14 14 14h250q14 0 14 -14v-47z" />
    <glyph glyph-name="hyphen" unicode="&#x2010;" horiz-adv-x="352" 
d="M315 232q0 -14 -14 -14h-250q-14 0 -14 14v47q0 14 14 14h250q14 0 14 -14v-47z" />
    <glyph glyph-name="period" unicode="." horiz-adv-x="296" 
d="M219 57q0 -29 -20.5 -50t-49.5 -21q-30 0 -50.5 20.5t-20.5 50.5q0 29 21 49.5t51 20.5q28 0 48.5 -21t20.5 -49z" />
    <glyph glyph-name="slash" unicode="/" 
d="M437 721q0 -3 -3 -10l-387 -930q-4 -10 -17 -10h-38q-14 0 -14 8q0 2 3 9l387 930q4 10 16 10h40q13 0 13 -7z" />
    <glyph glyph-name="zero" unicode="0" 
d="M456 328q0 -166 -53 -254t-154 -88q-87 0 -135 66q-69 94 -69 263q0 161 56.5 251.5t157.5 90.5q95 0 146 -85t51 -244zM375 326q0 260 -122 260q-60 0 -93.5 -70t-33.5 -195q0 -132 36 -206q28 -58 88 -58q68 0 95 67q30 73 30 202z" />
    <glyph glyph-name="one" unicode="1" 
d="M425 14q0 -14 -14 -14h-265q-14 0 -14 14v38q0 14 14 14h102v489l-140 -81q-5 -4 -10 -4q-4 0 -8 9l-12 22q-3 5 -3 10q0 4 8 8l177 125h50q14 0 14 -14v-564h87q14 0 14 -14v-38z" />
    <glyph glyph-name="two" unicode="2" 
d="M430 14q0 -14 -14 -14h-335q-12 0 -12 14q0 107 39.5 181.5t130.5 136.5q68 47 85 69q25 33 25 79q0 49 -26.5 77.5t-71.5 28.5q-77 0 -113 -100q-3 -8 -8 -8q-3 0 -8 2l-44 13q-8 3 -8 9q0 12 13 40t27 46q53 69 146 69q80 0 127 -49t47 -132q0 -58 -25.5 -99t-92.5 -87
q-79 -55 -113 -102t-42 -115h259q14 0 14 -14v-45z" />
    <glyph glyph-name="three" unicode="3" 
d="M432 179q0 -87 -58.5 -140t-155.5 -53q-51 0 -107 15t-56 29q0 3 3 8l19 45q4 6 9 6q1 0 5 -2q67 -30 128 -30q63 0 97.5 33t34.5 92q0 123 -146 123h-34q-14 0 -14 14v40q0 14 14 14h33q59 0 94 32.5t35 87.5q0 44 -26.5 71t-70.5 27q-52 0 -98 -46q-18 -18 -22 -18
q-5 0 -7 2l-36 32q-4 2 -4 5q0 16 49 52q54 39 121 39q76 0 123.5 -45t47.5 -117q0 -107 -103 -147q41 -13 64 -31q61 -48 61 -138z" />
    <glyph glyph-name="four" unicode="4" 
d="M469 156q0 -14 -14 -14h-79v-142q0 -14 -14 -14h-47q-14 0 -14 14v142h-256q-14 0 -14 14v56l259 429q5 8 11 8h6l50 -8q12 -2 12 -9q0 -4 -4 -9l-255 -416h191l11 161q1 13 14 13h36q14 0 14 -14v-160h79q14 0 14 -14v-37z" />
    <glyph glyph-name="five" unicode="5" 
d="M433 218q0 -105 -62 -168.5t-165 -63.5q-65 0 -125 16q-14 4 -14 13q0 6 1 8l10 45q2 7 9 7q2 0 10 -2q42 -16 98 -16q84 0 120.5 43.5t36.5 115.5q0 60 -27.5 93.5t-76.5 33.5q-61 0 -116 -55q-6 -6 -10 -6l-8 1l-35 11q-11 3 -11 10q0 2 1 6l31 321q1 13 14 13h260
q14 0 14 -14v-42q0 -14 -14 -14h-209l-22 -203q58 43 120 43q76 0 123 -54t47 -142z" />
    <glyph glyph-name="six" unicode="6" 
d="M442 224q0 -105 -54 -171.5t-139 -66.5q-102 0 -152 92q-38 69 -38 182q0 181 75 289t201 108q31 0 58.5 -6.5t27.5 -14.5q0 -2 -1 -6l-12 -46q-1 -5 -6 -5q-2 0 -8 2q-32 11 -63 11q-80 0 -131 -71q-40 -56 -53 -148q57 65 127 65q76 0 122 -58.5t46 -155.5zM361 223
q0 146 -112 146q-52 0 -80.5 -37.5t-28.5 -106.5q0 -168 110 -168q111 0 111 166z" />
    <glyph glyph-name="seven" unicode="7" 
d="M426 607l-231 -606q-4 -10 -10 -10l-6 1l-54 7q-12 3 -12 9q0 3 3 9l216 555h-258q-14 0 -14 14v44q0 14 14 14h338q14 0 14 -14v-23z" />
    <glyph glyph-name="eight" unicode="8" 
d="M460 167q0 -63 -45 -114q-59 -67 -165 -67q-95 0 -152.5 49t-57.5 131q0 78 57 127q29 25 89 48q-118 49 -118 155q0 66 46 111q51 50 138 50q79 0 129 -42t50 -110q0 -106 -113 -163q142 -55 142 -175zM355 497q0 44 -28.5 70t-77.5 26q-46 0 -74 -26t-28 -68
q0 -74 106 -126q102 45 102 124zM378 162q0 86 -130 140q-43 -18 -64 -31q-62 -37 -62 -109q0 -49 36 -79.5t94 -30.5q55 0 90.5 31t35.5 79z" />
    <glyph glyph-name="nine" unicode="9" 
d="M433 383q0 -185 -67 -291t-185 -106q-95 0 -95 24v7l5 39q0 8 8 8q1 0 8 -2q28 -8 61 -8q79 0 122.5 53.5t61.5 172.5q-46 -77 -130 -77q-76 0 -122.5 61t-46.5 161q0 104 54 168t141 64q185 0 185 -274zM352 432q0 154 -107 154q-51 0 -81 -42.5t-30 -114.5
q0 -74 28.5 -116t79.5 -42q110 0 110 161z" />
    <glyph glyph-name="colon" unicode=":" horiz-adv-x="296" 
d="M219 403q0 -29 -20.5 -49.5t-49.5 -20.5q-30 0 -50.5 20.5t-20.5 50.5q0 29 21 49.5t51 20.5q28 0 48.5 -21t20.5 -50zM219 57q0 -29 -20.5 -50t-49.5 -21q-30 0 -50.5 20.5t-20.5 50.5q0 29 21 49.5t51 20.5q28 0 48.5 -21t20.5 -49z" />
    <glyph glyph-name="semicolon" unicode=";" horiz-adv-x="296" 
d="M234 403q0 -29 -21 -49.5t-50 -20.5t-49.5 20.5t-20.5 50.5q0 29 21 49.5t51 20.5q28 0 48.5 -21t20.5 -50zM233 107q0 -3 -4 -10l-115 -212q-5 -9 -10 -9q-1 0 -5 1l-3 1l-22 8q-11 4 -11 9q0 1 2 8l58 200q3 11 15 11h81q14 0 14 -7z" />
    <glyph glyph-name="less" unicode="&#x3c;" horiz-adv-x="514" 
d="M501 97l-446 211v70l446 211v-81l-359 -165l359 -165v-81z" />
    <glyph glyph-name="equal" unicode="=" 
d="M478 299q0 -14 -14 -14h-428q-14 0 -14 14v47q0 14 14 14h428q14 0 14 -14v-47zM478 161q0 -14 -14 -14h-428q-14 0 -14 14v47q0 14 14 14h428q14 0 14 -14v-47z" />
    <glyph glyph-name="greater" unicode="&#x3e;" horiz-adv-x="514" 
d="M500 308l-445 -211v81l358 165l-358 165v81l445 -211v-70z" />
    <glyph glyph-name="question" unicode="?" horiz-adv-x="426" 
d="M376 539q0 -129 -153 -170v-90q0 -14 -14 -14h-40q-14 0 -14 14v123q0 15 17 20q59 17 83 32q42 26 42 83q0 89 -104 89q-52 0 -109 -25q-6 -2 -9 -2q-6 0 -9 8l-14 38q-2 5 -2 7q0 14 51 28.5t100 14.5q82 0 128.5 -41t46.5 -115zM262 57q0 -29 -21 -50t-50 -21
t-49.5 21t-20.5 50t21 49.5t51 20.5q28 0 48.5 -21t20.5 -49z" />
    <glyph glyph-name="at" unicode="@" horiz-adv-x="944" 
d="M876 365q0 -91 -38 -166t-106 -118q-50 -32 -103 -32q-82 0 -85 90q-61 -89 -138 -89q-40 0 -63 30.5t-23 82.5q0 108 57 194q48 73 122 73q46 0 81 -40l10 24q3 6 10 6h45q6 0 6 -4v-3l-1 -3l-49 -230q-2 -9 -2 -28q0 -48 40 -48q69 0 120.5 77.5t51.5 181.5
q0 101 -57 160q-75 78 -212 78q-171 0 -288 -120.5t-117 -296.5q0 -141 78.5 -221.5t232.5 -80.5q164 0 297 72q11 6 16 6q7 0 10 -8l12 -29q2 -5 2 -8q0 -10 -17 -18q-146 -73 -329 -73q-178 0 -274.5 97.5t-96.5 258.5q0 94 38 187t103 158q134 134 332 134q165 0 260 -92
q75 -72 75 -202zM566 338q-36 33 -71 33q-44 0 -73.5 -69t-29.5 -135q0 -55 35 -55q39 0 73 41t48 103z" />
    <glyph glyph-name="A" unicode="A" horiz-adv-x="574" 
d="M580 12q0 -12 -12 -12h-203q-12 0 -12 12v41q0 12 12 12h62l-40 141h-203l-40 -141h65q12 0 12 -12v-41q0 -12 -12 -12h-201q-12 0 -12 12v41q0 12 12 12h48l187 610q3 11 15 11h59q12 0 15 -11l187 -610h49q12 0 12 -12v-41zM368 275l-60 220q-13 47 -23 96
q-8 -39 -23 -95l-59 -221h165z" />
    <glyph glyph-name="B" unicode="B" horiz-adv-x="574" 
d="M506 190q0 -70 -37.5 -121t-104.5 -63q-30 -6 -99 -6h-214q-12 0 -12 12v41q0 12 12 12h63v556h-63q-12 0 -12 12v41q0 12 12 12h231q96 0 136 -26q64 -41 64 -138q0 -115 -100 -163q48 -13 71 -35q53 -50 53 -134zM393 513q0 58 -25.5 82t-87.5 24h-84v-236h64
q58 0 84 18q49 34 49 112zM417 192q0 124 -136 124h-85v-249h90q59 0 89 24q42 33 42 101z" />
    <glyph glyph-name="C" unicode="C" horiz-adv-x="482" 
d="M441 56q0 -13 -9 -20q-64 -50 -151 -50q-230 0 -230 364q0 350 222 350q92 0 155 -51q8 -7 8 -18v-111q0 -12 -12 -12h-45q-12 0 -12 12v85q-49 28 -92 28q-72 0 -103.5 -64t-31.5 -209q0 -307 142 -307q42 0 90 28v86q0 12 12 12h45q12 0 12 -12v-111z" />
    <glyph glyph-name="D" unicode="D" horiz-adv-x="574" 
d="M521 349q0 -184 -66 -266.5t-214 -82.5h-190q-12 0 -12 12v41q0 12 12 12h63v556h-63q-12 0 -12 12v41q0 12 12 12h202q115 0 167 -38q101 -74 101 -299zM433 353q0 196 -79 242q-35 20 -103 20h-55v-544h62q92 0 135 66q40 61 40 216z" />
    <glyph glyph-name="E" unicode="E" horiz-adv-x="482" 
d="M449 14q0 -14 -14 -14h-384q-12 0 -12 12v41q0 12 12 12h63v556h-63q-12 0 -12 12v41q0 12 12 12h377q14 0 14 -15v-135q0 -12 -12 -12h-45q-12 0 -12 12v79h-177v-225h196q14 0 14 -14v-39q0 -14 -14 -14h-196v-252h184v88q0 12 12 12h45q12 0 12 -12v-145z" />
    <glyph glyph-name="F" unicode="F" horiz-adv-x="463" 
d="M443 536q0 -12 -12 -12h-45q-12 0 -12 12v79h-178v-232h196q14 0 14 -14v-39q0 -14 -14 -14h-196v-251h75q12 0 12 -12v-41q0 -12 -12 -12h-220q-12 0 -12 12v41q0 12 12 12h63v556h-63q-12 0 -12 12v41q0 12 12 12h378q14 0 14 -15v-135z" />
    <glyph glyph-name="G" unicode="G" horiz-adv-x="537" 
d="M536 294q0 -12 -12 -12h-56v-241q0 -9 -9 -15q-64 -40 -166 -40q-118 0 -179.5 90.5t-61.5 263.5t62 266.5t177 93.5q37 0 82 -14q49 -15 73 -37q7 -6 7 -17v-114q0 -12 -12 -12h-45q-12 0 -12 12v88q-47 27 -92 27q-62 0 -98 -45q-53 -66 -53 -236q0 -158 39.5 -228.5
t127.5 -70.5q34 0 78 19v210h-78q-14 0 -14 14v37q0 14 14 14h216q12 0 12 -12v-41z" />
    <glyph glyph-name="H" unicode="H" horiz-adv-x="648" 
d="M609 12q0 -12 -12 -12h-209q-12 0 -12 12v41q0 12 12 12h64v257h-256v-257h64q12 0 12 -12v-41q0 -12 -12 -12h-209q-12 0 -12 12v41q0 12 12 12h63v556h-63q-12 0 -12 12v41q0 12 12 12h209q12 0 12 -12v-41q0 -12 -12 -12h-64v-230h256v230h-64q-12 0 -12 12v41
q0 12 12 12h209q12 0 12 -12v-41q0 -12 -12 -12h-63v-556h63q12 0 12 -12v-41z" />
    <glyph glyph-name="I" unicode="I" horiz-adv-x="352" 
d="M320 14q0 -14 -14 -14h-259q-14 0 -14 14v37q0 14 14 14h88v556h-88q-14 0 -14 14v37q0 14 14 14h259q14 0 14 -14v-37q0 -14 -14 -14h-89v-556h89q14 0 14 -14v-37z" />
    <glyph glyph-name="J" unicode="J" horiz-adv-x="444" 
d="M366 212q0 -75 -5 -101.5t-23 -53.5q-49 -71 -155 -71q-86 0 -132 49.5t-46 141.5q0 20 9 20h59q8 0 8 -10v-12q0 -122 102 -122q69 0 92 54q9 21 9 100v410h-173q-14 0 -14 14v41q0 14 14 14h241q14 0 14 -14v-460z" />
    <glyph glyph-name="K" unicode="K" horiz-adv-x="556" 
d="M561 12q0 -12 -13 -12h-191q-12 0 -12 12v41q0 12 12 12h48l-209 265v-265h61q12 0 12 -12v-41q0 -12 -12 -12h-206q-12 0 -12 12v41q0 12 12 12h63v556h-63q-12 0 -12 12v41q0 12 12 12h206q12 0 12 -12v-41q0 -12 -12 -12h-61v-279l212 279h-49q-12 0 -12 12v41
q0 12 12 12h183q12 0 12 -12v-41q0 -12 -12 -12h-45l-218 -280l220 -276h49q13 0 13 -12v-41z" />
    <glyph glyph-name="L" unicode="L" horiz-adv-x="463" 
d="M482 148q0 -3 -1 -5l-48 -132q-4 -11 -15 -11h-367q-12 0 -12 12v41q0 12 12 12h63v556h-63q-12 0 -12 12v41q0 12 12 12h209q12 0 12 -12v-41q0 -12 -12 -12h-64v-550h181l35 97q3 8 9 8q4 0 6 -1l47 -17q8 -3 8 -10z" />
    <glyph glyph-name="M" unicode="M" horiz-adv-x="704" 
d="M681 12q0 -12 -12 -12h-206q-12 0 -12 12v41q0 12 12 12h69l-14 479q0 3 1 47q-4 -42 -14 -71l-120 -349q-4 -11 -16 -11h-29q-11 0 -15 11l-116 349q-9 28 -14 71q1 -25 1 -47v-23l-14 -456h70q12 0 12 -12v-41q0 -12 -12 -12h-205q-12 0 -12 12v41q0 12 12 12h55
l32 556h-70q-12 0 -12 12v41q0 12 12 12h146q11 0 15 -11l118 -345q9 -27 14 -62q6 43 13 62l120 345q4 11 15 11h147q12 0 12 -12v-41q0 -12 -12 -12h-68l32 -556h53q12 0 12 -12v-41z" />
    <glyph glyph-name="N" unicode="N" horiz-adv-x="574" 
d="M568 633q0 -12 -12 -12h-63v-607q0 -14 -14 -14h-54q-10 0 -15 10l-231 495q-17 37 -29 87q10 -51 10 -91v-436h64q12 0 12 -12v-41q0 -12 -12 -12h-200q-12 0 -12 12v41q0 12 12 12h63v556h-63q-12 0 -12 12v41q0 12 12 12h140q11 0 16 -10l221 -466q14 -30 26 -77
q-7 42 -7 80v408h-63q-12 0 -12 12v41q0 12 12 12h199q12 0 12 -12v-41z" />
    <glyph glyph-name="O" unicode="O" horiz-adv-x="556" 
d="M503 344q0 -358 -231 -358q-220 0 -220 353q0 361 234 361q217 0 217 -356zM414 337q0 164 -38 238q-30 58 -98 58q-73 0 -103 -63q-34 -72 -34 -225q0 -155 39 -234q29 -58 97 -58q74 0 103 63q34 73 34 221z" />
    <glyph glyph-name="P" unicode="P" 
d="M486 502q0 -138 -101 -190q-43 -22 -116 -22h-73v-225h75q12 0 12 -12v-41q0 -12 -12 -12h-220q-12 0 -12 12v41q0 12 12 12h63v556h-63q-12 0 -12 12v41q0 12 12 12h232q91 0 128 -22q75 -44 75 -162zM402 501q0 87 -57 108q-22 8 -70 8h-79v-255h67q67 0 95 23
q44 36 44 116z" />
    <glyph glyph-name="Q" unicode="Q" horiz-adv-x="556" 
d="M547 -23q0 -5 -4 -8l-53 -36q-3 -3 -9 -3q-28 0 -104 82q-49 -26 -105 -26q-220 0 -220 355q0 359 231 359q220 0 220 -357q0 -182 -68 -279q27 -29 107 -79q5 -3 5 -8zM414 337q0 164 -38 238q-30 58 -98 58q-73 0 -103 -63q-34 -72 -34 -225q0 -155 38 -234
q28 -58 97 -58q75 0 104 63q34 73 34 221z" />
    <glyph glyph-name="R" unicode="R" horiz-adv-x="556" 
d="M556 12q0 -12 -12 -12h-98q-12 0 -18 11l-159 300h-73v-246h64q12 0 12 -12v-41q0 -12 -12 -12h-209q-12 0 -12 12v41q0 12 12 12h63v556h-63q-12 0 -12 12v41q0 12 12 12h231q85 0 126 -21q76 -39 76 -150q0 -151 -131 -197l142 -253h49q12 0 12 -12v-41zM400 509
q0 76 -49 101q-22 11 -75 11h-80v-247h78q53 0 82 23q44 35 44 112z" />
    <glyph glyph-name="S" unicode="S" horiz-adv-x="482" 
d="M440 181q0 -87 -58.5 -141t-153.5 -54q-44 0 -102.5 15t-76.5 32q-7 6 -7 20v116q0 12 12 12h45q12 0 12 -12v-82q69 -27 121 -27q54 0 86.5 30.5t32.5 80.5q0 47 -24 75.5t-101 71.5q-97 54 -127 89q-41 47 -41 113q0 79 55.5 129.5t143.5 50.5q91 0 155 -41q9 -6 9 -19
v-115q0 -12 -12 -12h-45q-12 0 -12 12v82q-49 20 -98 20q-108 0 -108 -98q0 -39 20 -63.5t77 -56.5q121 -68 149 -100q48 -55 48 -128z" />
    <glyph glyph-name="T" unicode="T" horiz-adv-x="445" 
d="M439 503q0 -12 -12 -12h-45q-12 0 -12 12v116h-105v-554h71q12 0 12 -12v-41q0 -12 -12 -12h-223q-12 0 -12 12v41q0 12 12 12h70v554h-105v-116q0 -12 -12 -12h-45q-12 0 -12 12v169q0 14 14 14h402q14 0 14 -15v-168z" />
    <glyph glyph-name="U" unicode="U" horiz-adv-x="611" 
d="M594 633q0 -12 -12 -12h-64v-437q0 -92 -50 -141q-59 -57 -168 -57q-206 0 -206 198v437h-63q-12 0 -12 12v41q0 12 12 12h209q12 0 12 -12v-41q0 -12 -12 -12h-64v-434q0 -73 29.5 -103.5t98.5 -30.5q135 0 135 134v434h-63q-12 0 -12 12v41q0 12 12 12h206q12 0 12 -12
v-41z" />
    <glyph glyph-name="V" unicode="V" 
d="M513 633q0 -12 -12 -12h-37l-165 -610q-3 -11 -15 -11h-70q-12 0 -15 11l-163 610h-41q-12 0 -12 12v41q0 12 12 12h187q12 0 12 -12v-41q0 -12 -12 -12h-60l112 -467q2 -12 7 -36l4 -20l4 -23q7 43 15 77l116 469h-54q-12 0 -12 12v41q0 12 12 12h175q12 0 12 -12v-41z
" />
    <glyph glyph-name="W" unicode="W" horiz-adv-x="704" 
d="M717 633q0 -12 -12 -12h-42l-130 -609q-3 -12 -14 -12h-66q-13 0 -15 12l-85 546l-104 -546q-2 -12 -14 -12h-62q-13 0 -15 12l-116 609h-43q-12 0 -12 12v41q0 12 12 12h188q12 0 12 -12v-41q0 -12 -12 -12h-64l76 -434q5 -28 9 -118q2 41 11 115l97 490q2 12 15 12h53
q13 0 15 -12l82 -494q6 -34 11 -115q1 36 9 115l81 441h-63q-12 0 -12 12v41q0 12 12 12h186q12 0 12 -12v-41z" />
    <glyph glyph-name="X" unicode="X" horiz-adv-x="519" 
d="M524 12q0 -12 -12 -12h-192q-12 0 -12 12v41q0 12 12 12h54l-95 179q-12 23 -21 48l-5 -12q-4 -9 -16 -35l-94 -180h53q12 0 12 -12v-41q0 -12 -12 -12h-191q-11 0 -11 12v41q0 12 11 12h48l158 293l-144 263h-46q-12 0 -12 12v41q0 12 12 12h192q12 0 12 -12v-41
q0 -12 -12 -12h-56l78 -144q10 -19 24 -52q11 28 27 57l74 139h-47q-12 0 -12 12v41q0 12 12 12h182q12 0 12 -12v-41q0 -12 -12 -12h-46l-146 -261l163 -295h46q12 0 12 -12v-41z" />
    <glyph glyph-name="Y" unicode="Y" horiz-adv-x="481" 
d="M509 633q0 -12 -12 -12h-42l-170 -330v-226h70q12 0 12 -12v-41q0 -12 -12 -12h-223q-12 0 -12 12v41q0 12 12 12h71v224l-176 332h-38q-12 0 -12 12v41q0 12 12 12h192q12 0 12 -12v-41q0 -12 -12 -12h-58l96 -197q15 -31 27 -62q10 27 27 63l92 196h-60q-12 0 -12 12
v41q0 12 12 12h192q12 0 12 -12v-41z" />
    <glyph glyph-name="Z" unicode="Z" horiz-adv-x="482" 
d="M475 132q0 -1 -1 -5l-42 -115q-4 -12 -17 -12h-359q-14 0 -14 14v52l294 550h-200v-75q0 -12 -12 -12h-45q-12 0 -12 12v130q0 15 15 15h336q14 0 14 -14v-48l-295 -553h239l29 81q3 8 9 8q4 0 6 -1l47 -17q8 -3 8 -10z" />
    <glyph glyph-name="bracketleft" unicode="[" horiz-adv-x="370" 
d="M316 -191q0 -14 -14 -14h-172q-14 0 -14 14v892q0 14 14 14h172q14 0 14 -14v-34q0 -14 -14 -14h-109v-796h109q14 0 14 -14v-34z" />
    <glyph glyph-name="backslash" unicode="\" 
d="M522 -222q0 -7 -14 -7h-38q-13 0 -17 10l-387 930q-3 7 -3 10q0 7 13 7h40q12 0 16 -10l387 -930q3 -7 3 -10z" />
    <glyph glyph-name="bracketright" unicode="]" horiz-adv-x="370" 
d="M254 -191q0 -14 -14 -14h-172q-14 0 -14 14v34q0 14 14 14h109v796h-110q-13 0 -13 14v34q0 14 13 14h173q14 0 14 -14v-892z" />
    <glyph glyph-name="asciicircum" unicode="^" horiz-adv-x="514" 
d="M503 385h-77l-149 247l-147 -247h-77l179 303h93z" />
    <glyph glyph-name="underscore" unicode="_" horiz-adv-x="514" 
d="M514 -127h-514v54h514v-54z" />
    <glyph glyph-name="grave" unicode="`" 
d="M305 580q0 -2 -5 -9l-12 -17q-2 -5 -7 -5q-4 0 -10 3l-163 85q-9 5 -9 10q0 3 4 9l29 42q6 8 10 8q3 0 10 -5l145 -111q8 -6 8 -10z" />
    <glyph glyph-name="a" unicode="a" horiz-adv-x="463" 
d="M449 12q0 -12 -12 -12h-85q-23 0 -38 53q-64 -63 -144 -63q-60 0 -95 37t-35 100q0 170 263 174v33q0 48 -20.5 68.5t-69.5 20.5q-51 0 -115 -29q-6 -2 -7 -2q-5 0 -7 5l-15 40l-1 8q0 14 54 30t103 16q153 0 153 -140v-189q0 -64 12 -100h47q12 0 12 -12v-38zM303 110
v129q-186 -1 -186 -106q0 -35 20 -57.5t51 -22.5q49 0 115 57z" />
    <glyph glyph-name="b" unicode="b" 
d="M449 272q0 -286 -184 -286q-71 0 -127 49q-19 -45 -33 -45q-4 1 -8 3l-42 27q-3 2 -3 5t3 7q28 38 28 105v518h-60q-12 0 -12 12v38q0 12 12 12h127q9 0 9 -9v-263q71 49 131 49q159 0 159 -222zM368 261q0 88 -22 127.5t-71 39.5q-43 0 -117 -50v-285q48 -39 102 -39
q108 0 108 207z" />
    <glyph glyph-name="c" unicode="c" horiz-adv-x="426" 
d="M396 38q0 -5 -18 -14q-73 -38 -140 -38q-88 0 -138 64.5t-50 179.5q0 122 54.5 193t148.5 71q70 0 129 -38q11 -7 11 -19v-86q0 -12 -12 -12h-42q-12 0 -12 12v57q-43 20 -73 20q-55 0 -85 -39q-35 -45 -35 -148q0 -187 114 -187q50 0 116 38q6 2 7 2q4 0 6 -6l17 -42
q2 -5 2 -8z" />
    <glyph glyph-name="d" unicode="d" horiz-adv-x="518" 
d="M497 12q0 -12 -11 -12h-89q-21 0 -30 51q-90 -65 -156 -65q-75 0 -117.5 69t-42.5 190q0 116 48.5 182.5t132.5 66.5q54 0 115 -32v193h-68q-12 0 -12 12v38q0 12 12 12h132q11 -1 11 -11v-548q0 -63 13 -96h51q11 0 11 -12v-38zM347 112v283q-59 32 -106 32
q-58 0 -83.5 -42t-25.5 -136q0 -104 22.5 -149.5t73.5 -45.5q55 0 119 58z" />
    <glyph glyph-name="e" unicode="e" horiz-adv-x="463" 
d="M431 241q0 -18 -11 -18h-287q8 -169 132 -169q53 0 116 36q5 3 10 3q4 0 7 -5l18 -39q2 -4 2 -7q0 -11 -36 -28q-60 -28 -123 -28q-95 0 -151.5 68.5t-56.5 184.5t54 185.5t144 69.5q126 0 167 -120q15 -44 15 -133zM350 285q-3 148 -106 148q-102 0 -111 -148h217z" />
    <glyph glyph-name="f" unicode="f" horiz-adv-x="296" 
d="M351 689l-1 -6l-17 -41q-2 -6 -8 -6q-3 0 -9 3q-43 21 -78 21q-37 0 -51 -29q-9 -18 -9 -74v-77h145q11 0 11 -7q0 -2 -2 -6l-13 -40q-3 -9 -12 -9h-129v-356h71q12 0 12 -12v-38q0 -12 -12 -12h-202q-12 0 -12 12v38q0 12 12 12h56v356h-66q-12 0 -12 11v39q0 12 12 12
h66v78q0 81 26 116q38 50 112 50q35 0 72.5 -12t37.5 -23z" />
    <glyph glyph-name="g" unicode="g" 
d="M444 462q0 -3 -6 -13q-25 -40 -25 -101v-154q0 -79 5 -171q2 -37 2 -58q0 -176 -176 -176q-81 0 -150 37q-18 10 -18 17q0 3 2 7l18 40q3 6 7 6t8 -3q69 -37 130 -37q64 0 89 36q15 22 15 73q0 23 -1 50.5t-1 52.5q-65 -55 -138 -55q-71 0 -112.5 60t-41.5 163
q0 124 49 191t139 67q59 0 120 -42q16 46 28 46q4 0 8 -2l45 -28q4 -2 4 -6zM338 130v270q-55 28 -94 28q-115 0 -115 -174q0 -173 90 -173q51 0 119 49z" />
    <glyph glyph-name="h" unicode="h" horiz-adv-x="537" 
d="M517 12q0 -12 -11 -12h-121q-12 0 -12 12v333q0 48 -14.5 66t-53.5 18q-57 0 -133 -63v-304h57q12 0 12 -12v-38q0 -12 -12 -12h-189q-12 0 -12 12v38q0 12 12 12h57v593h-61q-12 0 -12 12v38q0 12 12 12h126q10 0 10 -11v-278q73 66 154 66q82 0 110 -58q13 -27 13 -93
v-281h57q11 0 11 -12v-38z" />
    <glyph glyph-name="i" unicode="i" horiz-adv-x="278" 
d="M205 655q0 -25 -17.5 -42.5t-42.5 -17.5t-43 18t-18 43t18 42.5t44 17.5q24 0 41.5 -18t17.5 -43zM272 12q0 -12 -12 -12h-220q-12 0 -12 12v38q0 12 12 12h72v356h-80q-11 0 -11 11v39q0 12 11 12h144q11 0 11 -12v-406h73q12 0 12 -12v-38z" />
    <glyph glyph-name="j" unicode="j" horiz-adv-x="259" 
d="M197 655q0 -25 -17.5 -42.5t-42.5 -17.5t-43 18t-18 43t18 42.5t44 17.5q24 0 41.5 -18t17.5 -43zM181 -53q0 -79 -33 -115q-40 -44 -111 -44q-36 0 -79.5 14t-43.5 25q0 4 2 8l19 40q2 6 8 6q1 0 7 -2q48 -25 90 -25q46 0 58 33q8 22 8 78v453h-80q-11 0 -11 11v39
q0 12 11 12h144q11 0 11 -12v-521z" />
    <glyph glyph-name="k" unicode="k" 
d="M496 12q0 -12 -12 -12h-93q-10 0 -17 8l-202 238v-184h57q12 0 12 -12v-38q0 -12 -12 -12h-188q-12 0 -12 12v38q0 12 12 12h56v593h-61q-12 0 -12 12v38q0 12 12 12h125q11 -1 11 -11v-446l159 162h-49q-12 0 -12 12v34q0 12 12 12h189q12 0 12 -12v-38q0 -12 -12 -12
h-51l-162 -158l174 -198h52q12 0 12 -12v-38z" />
    <glyph glyph-name="l" unicode="l" horiz-adv-x="259" 
d="M265 15q0 -8 -28.5 -16.5t-56.5 -8.5q-86 0 -102 70q-5 22 -5 123v472h-61q-12 0 -12 12v38q0 12 12 12h126q10 0 10 -11v-525q0 -69 3 -91q5 -38 40 -38q21 0 45 12q6 2 8 2q5 0 7 -7l12 -37q2 -6 2 -7z" />
    <glyph glyph-name="m" unicode="m" horiz-adv-x="741" 
d="M721 12q0 -12 -12 -12h-119q-11 0 -11 12v344q0 73 -64 73q-43 0 -101 -40v-327h56q12 0 12 -12v-38q0 -12 -12 -12h-120q-11 0 -11 12v343q0 74 -64 74q-43 0 -101 -43v-324h58q12 0 12 -12v-38q0 -12 -12 -12h-188q-12 0 -12 12v38q0 12 12 12h56v309q0 26 -8 47h-55
q-12 0 -12 12v38q0 12 12 12h97q15 0 29 -46q74 60 141 60q72 0 96 -59q82 59 146 59q65 0 90 -44q17 -30 17 -97v-291h56q12 0 12 -12v-38z" />
    <glyph glyph-name="n" unicode="n" horiz-adv-x="537" 
d="M517 12q0 -12 -12 -12h-120q-11 0 -11 12v334q0 83 -67 83q-61 0 -131 -63v-304h56q12 0 12 -12v-38q0 -12 -12 -12h-188q-12 0 -12 12v38q0 12 12 12h56v293q0 38 -6 63h-57q-12 0 -12 12v38q0 12 12 12h101q19 0 31 -54q84 68 161 68q75 0 102 -48q17 -30 17 -101v-283
h56q12 0 12 -12v-38z" />
    <glyph glyph-name="o" unicode="o" 
d="M449 243q0 -121 -54 -189t-151 -68q-91 0 -142 66.5t-51 185.5q0 121 54 188.5t151 67.5q91 0 142 -66.5t51 -184.5zM368 244q0 187 -119 187q-117 0 -117 -183q0 -103 31 -155q26 -44 88 -44q59 0 85 42q32 52 32 153z" />
    <glyph glyph-name="p" unicode="p" 
d="M449 250q0 -123 -44.5 -193.5t-121.5 -70.5q-56 0 -118 44v-170h63q12 0 12 -12v-38q0 -12 -12 -12h-196q-12 0 -12 12v38q0 12 12 12h58v481q0 52 -10 77h-55q-11 0 -11 12v38q0 12 11 12h88q15 0 21 -7t17 -38q75 59 144 59q87 0 120.5 -68.5t33.5 -175.5zM368 247
q0 87 -15 128q-19 52 -72 52q-44 0 -116 -49v-282q64 -42 109 -42q51 0 72.5 44.5t21.5 148.5z" />
    <glyph glyph-name="q" unicode="q" 
d="M489 -190q0 -12 -12 -12h-197q-12 0 -12 12v38q0 12 12 12h63v185q-63 -59 -133 -59q-73 0 -116 66.5t-43 180.5q0 122 48 191.5t132 69.5q66 0 133 -48q20 50 30 50q3 0 6 -2l42 -25q5 -3 5 -8q0 -2 -2 -7l-4 -8q-22 -47 -22 -99v-487h58q12 0 12 -12v-38zM343 111v278
q-59 38 -106 38q-105 0 -105 -185q0 -103 29 -150q24 -38 69 -38q49 0 113 57z" />
    <glyph glyph-name="r" unicode="r" horiz-adv-x="333" 
d="M335 478q0 -3 -2 -8l-24 -55q-3 -4 -5 -4q-1 0 -4 1q-24 7 -30 7q-30 0 -95 -76v-281h64q12 0 12 -12v-38q0 -12 -12 -12h-196q-11 0 -11 12v38q0 12 11 12h57v250q0 72 -11 106h-53q-12 0 -12 12v38q0 12 12 12h90q26 0 39 -70q21 24 40 44q39 40 80 40q16 0 33 -5.5
t17 -10.5z" />
    <glyph glyph-name="s" unicode="s" horiz-adv-x="389" 
d="M355 129q0 -65 -43.5 -104t-116.5 -39q-47 0 -100 17t-53 33v93q0 12 12 12h42q12 0 12 -12v-58q51 -20 90 -20q36 0 58 20t22 53q0 45 -64 74q-79 36 -112 63q-46 37 -46 94q0 61 42.5 100t109.5 39q61 0 118 -29q11 -6 11 -17v-87q0 -12 -12 -12h-42q-12 0 -12 12v55
q-34 14 -64 14q-76 0 -76 -67q0 -30 20 -49q11 -10 24.5 -17.5t79.5 -39.5q56 -27 78 -55.5t22 -72.5z" />
    <glyph glyph-name="t" unicode="t" horiz-adv-x="333" 
d="M335 30q0 -12 -46 -26t-84 -14q-94 0 -116 73q-6 20 -6 73v282h-71q-12 0 -12 11v39q0 12 12 12h71v137q0 10 10 13l52 14q5 2 6 2q7 0 7 -12v-154h150q9 0 9 -7q0 -2 -1 -6l-11 -39q-3 -10 -14 -10h-133v-282q0 -48 10 -61q15 -20 50 -20q31 0 90 25q5 2 7 2q5 0 7 -6
l11 -41q2 -4 2 -5z" />
    <glyph glyph-name="u" unicode="u" horiz-adv-x="537" 
d="M512 12q0 -12 -12 -12h-87q-21 0 -36 47q-75 -61 -148 -61q-138 0 -138 134v298h-56q-12 0 -12 12v38q0 12 12 12h119q12 0 12 -12v-298q0 -66 15.5 -91t56.5 -25q68 0 126 52v312h-61q-12 0 -12 12v38q0 12 12 12h124q12 0 12 -12v-335q0 -41 9 -71h52q12 0 12 -12v-38z
" />
    <glyph glyph-name="v" unicode="v" horiz-adv-x="444" 
d="M454 430q0 -12 -12 -12h-29l-165 -416q-4 -9 -13 -9h-39q-9 0 -12 9l-153 416h-33q-12 0 -12 12v38q0 12 12 12h169q12 0 12 -12v-34q0 -12 -12 -12h-55l106 -331q7 26 20 62l97 269h-59q-12 0 -12 12v34q0 12 12 12h166q12 0 12 -12v-38z" />
    <glyph glyph-name="w" unicode="w" horiz-adv-x="630" 
d="M647 430q0 -12 -12 -12h-39l-120 -415q-3 -10 -13 -10h-38q-10 0 -13 10l-78 303q-4 15 -10 58l-3 21q-3 -36 -16 -78l-94 -305q-3 -9 -12 -9h-37q-11 0 -13 10l-103 415h-37q-12 0 -12 12v38q0 12 12 12h174q12 0 12 -12v-34q0 -12 -12 -12h-65l61 -289q1 -5 7 -39
q1 10 12 55l95 324q3 9 12 9h40q11 0 13 -9l89 -376q1 6 8 39l71 286h-54q-12 0 -12 12v34q0 12 12 12h163q12 0 12 -12v-38z" />
    <glyph glyph-name="x" unicode="x" horiz-adv-x="482" 
d="M467 12q0 -12 -11 -12h-161q-12 0 -12 12v34q0 12 12 12h36l-61 93q-3 4 -10 15l-10 16l-6 11q-5 -7 -14 -22q-4 -6 -13 -18l-66 -95h46q12 0 12 -12v-34q0 -12 -12 -12h-169q-12 0 -12 12v38q0 12 12 12h37l140 183l-122 173h-45q-12 0 -12 12v38q0 12 12 12h167
q12 0 12 -12v-34q0 -12 -12 -12h-38l47 -72q9 -13 30 -48q6 9 18 28q2 3 14 20l50 72h-38q-12 0 -12 12v34q0 12 12 12h156q12 0 12 -12v-38q0 -12 -12 -12h-35l-124 -164l133 -192h38q11 0 11 -12v-38z" />
    <glyph glyph-name="y" unicode="y" horiz-adv-x="444" 
d="M467 430q0 -12 -12 -12h-37l-102 -356q-36 -125 -67 -191q-39 -82 -120 -82q-37 0 -82 18t-45 32q0 3 2 6l20 40q2 5 7 5q3 0 7 -3q52 -35 89 -35q50 0 77 85l20 63h-36q-9 0 -12 9l-145 409h-40q-12 0 -12 12v38q0 12 12 12h183q12 0 12 -12v-34q0 -12 -12 -12h-64
l110 -321q8 -24 20 -72q9 41 16 70l84 323h-59q-12 0 -12 12v34q0 12 12 12h174q12 0 12 -12v-38z" />
    <glyph glyph-name="z" unicode="z" horiz-adv-x="426" 
d="M419 123l-1 -7l-43 -107q-4 -9 -14 -9h-312q-12 0 -12 12v40l254 366h-167v-71q0 -12 -12 -12h-42q-12 0 -12 12v121q0 12 11 12h304q11 0 11 -12v-41l-249 -362h187l31 77q3 8 9 8q3 0 6 -1l43 -17q8 -3 8 -9z" />
    <glyph glyph-name="braceleft" unicode="{" horiz-adv-x="426" 
d="M374 -191q0 -14 -14 -14h-19q-87 0 -127 36.5t-40 115.5v198q0 48 -20.5 68.5t-67.5 20.5h-20q-14 0 -14 14v34q0 14 14 14h19q48 0 68.5 20.5t20.5 68.5v178q0 79 40 115.5t127 36.5h19q14 0 14 -14v-34q0 -14 -14 -14h-17q-51 0 -72 -20t-21 -69v-178q0 -48 -15 -75
t-54 -46q39 -20 54 -46.5t15 -74.5v-198q0 -47 20.5 -68t66.5 -21h23q14 0 14 -14v-34z" />
    <glyph glyph-name="bar" unicode="|" horiz-adv-x="514" 
d="M319 -171h-82v857h82v-857z" />
    <glyph glyph-name="braceright" unicode="}" horiz-adv-x="426" 
d="M374 228q0 -14 -14 -14h-20q-47 0 -67.5 -20.5t-20.5 -68.5v-178q0 -79 -40 -115.5t-127 -36.5h-19q-14 0 -14 14v34q0 14 14 14h17q51 0 72 20t21 69v178q0 48 15 74.5t54 46.5q-40 21 -54.5 47t-14.5 74v198q0 47 -20.5 68t-66.5 21h-23q-14 0 -14 14v34q0 14 14 14h19
q87 0 127 -36.5t40 -115.5v-198q0 -48 20.5 -68.5t67.5 -20.5h20q14 0 14 -14v-34z" />
    <glyph glyph-name="asciitilde" unicode="~" horiz-adv-x="686" 
d="M611 715q-56 -117 -139 -117q-36 0 -118 41q-68 34 -100 34q-48 0 -92 -76l-44 34q56 116 139 116q39 0 118 -40q69 -35 98 -35q51 0 94 77z" />
    <glyph glyph-name="Adieresis" unicode="&#xc4;" horiz-adv-x="574" 
d="M444 811q0 -22 -16 -38.5t-39 -16.5t-39 16t-16 39t16.5 39t39.5 16q22 0 38 -16.5t16 -38.5zM242 812q0 -23 -16 -39.5t-39 -16.5t-39.5 16.5t-16.5 39.5t16.5 39t39.5 16t39 -16t16 -39zM580 12q0 -12 -12 -12h-203q-12 0 -12 12v41q0 12 12 12h62l-40 141h-203
l-40 -141h65q12 0 12 -12v-41q0 -12 -12 -12h-201q-12 0 -12 12v41q0 12 12 12h48l187 610q3 11 15 11h59q12 0 15 -11l187 -610h49q12 0 12 -12v-41zM368 275l-60 220q-13 47 -23 96q-8 -39 -23 -95l-59 -221h165z" />
    <glyph glyph-name="Aring" unicode="&#xc5;" horiz-adv-x="574" 
d="M379 824q0 -38 -27 -65t-65 -27t-64.5 27t-26.5 65t27 64.5t66 26.5q37 0 63.5 -27t26.5 -64zM580 12q0 -12 -12 -12h-203q-12 0 -12 12v41q0 12 12 12h62l-40 141h-203l-40 -141h65q12 0 12 -12v-41q0 -12 -12 -12h-201q-12 0 -12 12v41q0 12 12 12h48l187 610
q3 11 15 11h59q12 0 15 -11l187 -610h49q12 0 12 -12v-41zM329 824q0 18 -12.5 31t-29.5 13t-29 -13t-12 -31q0 -19 12.5 -32t29.5 -13t29 13t12 32zM368 275l-60 220q-13 47 -23 96q-8 -39 -23 -95l-59 -221h165z" />
    <glyph glyph-name="Ccedilla" unicode="&#xc7;" horiz-adv-x="482" 
d="M441 56q0 -16 -26 -31q-49 -29 -99 -36l-2 -45q39 -5 55 -17q23 -15 23 -50q0 -36 -29 -58.5t-76 -22.5q-62 0 -62 19q0 4 1 8l4 31q0 6 6 6q7 0 25 -4.5t28 -4.5q41 0 41 24t-53 24q-28 0 -27 13l1 13l6 62q-79 10 -123 58q-83 90 -83 305q0 350 222 350q92 0 155 -51
q8 -7 8 -18v-111q0 -12 -12 -12h-45q-12 0 -12 12v85q-49 28 -92 28q-72 0 -103.5 -64t-31.5 -209q0 -307 142 -307q42 0 90 28v86q0 12 12 12h45q12 0 12 -12v-111z" />
    <glyph glyph-name="Eacute" unicode="&#xc9;" horiz-adv-x="482" 
d="M396 829q0 -5 -10 -9l-176 -70q-5 -2 -9 -2q-5 0 -9 8l-9 16q-4 5 -4 10q0 4 9 9l159 97q5 4 9 4q5 0 10 -8l26 -45q4 -5 4 -10zM449 14q0 -14 -14 -14h-384q-12 0 -12 12v41q0 12 12 12h63v556h-63q-12 0 -12 12v41q0 12 12 12h377q14 0 14 -15v-135q0 -12 -12 -12h-45
q-12 0 -12 12v79h-177v-225h196q14 0 14 -14v-39q0 -14 -14 -14h-196v-252h184v88q0 12 12 12h45q12 0 12 -12v-145z" />
    <glyph glyph-name="Ntilde" unicode="&#xd1;" horiz-adv-x="574" 
d="M450 843q0 -18 -27.5 -48.5t-67.5 -30.5q-23 0 -62 21q-35 19 -53 19q-27 0 -44 -30q-4 -8 -10 -8q-3 0 -6 2l-28 11q-8 3 -8 9q0 15 29 48q26 30 65 30q28 0 86 -32q15 -8 28 -8q31 0 47 30q4 8 9 8l7 -1l27 -12q8 -4 8 -8zM568 633q0 -12 -12 -12h-63v-607
q0 -14 -14 -14h-54q-10 0 -15 10l-231 495q-17 37 -29 87q10 -51 10 -91v-436h64q12 0 12 -12v-41q0 -12 -12 -12h-200q-12 0 -12 12v41q0 12 12 12h63v556h-63q-12 0 -12 12v41q0 12 12 12h140q11 0 16 -10l221 -466q14 -30 26 -77q-7 42 -7 80v408h-63q-12 0 -12 12v41
q0 12 12 12h199q12 0 12 -12v-41z" />
    <glyph glyph-name="Odieresis" unicode="&#xd6;" horiz-adv-x="556" 
d="M434 811q0 -22 -16 -38.5t-39 -16.5t-39 16t-16 39t16.5 39t39.5 16q22 0 38 -16.5t16 -38.5zM232 812q0 -23 -16 -39.5t-39 -16.5t-39.5 16.5t-16.5 39.5t16.5 39t39.5 16t39 -16t16 -39zM503 344q0 -358 -231 -358q-220 0 -220 353q0 361 234 361q217 0 217 -356z
M414 337q0 164 -38 238q-30 58 -98 58q-73 0 -103 -63q-34 -72 -34 -225q0 -155 39 -234q29 -58 97 -58q74 0 103 63q34 73 34 221z" />
    <glyph glyph-name="Udieresis" unicode="&#xdc;" horiz-adv-x="611" 
d="M468 811q0 -22 -16 -38.5t-39 -16.5t-39 16t-16 39t16.5 39t39.5 16q22 0 38 -16.5t16 -38.5zM266 812q0 -23 -16 -39.5t-39 -16.5t-39.5 16.5t-16.5 39.5t16.5 39t39.5 16t39 -16t16 -39zM594 633q0 -12 -12 -12h-64v-437q0 -92 -50 -141q-59 -57 -168 -57
q-206 0 -206 198v437h-63q-12 0 -12 12v41q0 12 12 12h209q12 0 12 -12v-41q0 -12 -12 -12h-64v-434q0 -73 29.5 -103.5t98.5 -30.5q135 0 135 134v434h-63q-12 0 -12 12v41q0 12 12 12h206q12 0 12 -12v-41z" />
    <glyph glyph-name="aacute" unicode="&#xe1;" horiz-adv-x="463" 
d="M376 645q0 -3 -9 -8l-164 -85q-8 -4 -10 -4q-4 0 -9 8l-10 15q-4 6 -4 10q0 3 8 9l145 111q7 5 10 5q4 0 10 -8l29 -42q4 -6 4 -11zM449 12q0 -12 -12 -12h-85q-23 0 -38 53q-64 -63 -144 -63q-60 0 -95 37t-35 100q0 170 263 174v33q0 48 -20.5 68.5t-69.5 20.5
q-51 0 -115 -29q-6 -2 -7 -2q-5 0 -7 5l-15 40l-1 8q0 14 54 30t103 16q153 0 153 -140v-189q0 -64 12 -100h47q12 0 12 -12v-38zM303 110v129q-186 -1 -186 -106q0 -35 20 -57.5t51 -22.5q49 0 115 57z" />
    <glyph glyph-name="agrave" unicode="&#xe0;" horiz-adv-x="463" 
d="M280 580q0 -2 -5 -9l-12 -17q-2 -5 -7 -5q-4 0 -10 3l-163 85q-9 5 -9 10q0 3 4 9l29 42q6 8 10 8q3 0 10 -5l145 -111q8 -6 8 -10zM449 12q0 -12 -12 -12h-85q-23 0 -38 53q-64 -63 -144 -63q-60 0 -95 37t-35 100q0 170 263 174v33q0 48 -20.5 68.5t-69.5 20.5
q-51 0 -115 -29q-6 -2 -7 -2q-5 0 -7 5l-15 40l-1 8q0 14 54 30t103 16q153 0 153 -140v-189q0 -64 12 -100h47q12 0 12 -12v-38zM303 110v129q-186 -1 -186 -106q0 -35 20 -57.5t51 -22.5q49 0 115 57z" />
    <glyph glyph-name="acircumflex" unicode="&#xe2;" horiz-adv-x="463" 
d="M348 595q0 -3 -5 -10l-13 -18q-4 -5 -8 -5q-3 0 -9 4l-92 59l-92 -59q-6 -4 -9 -4t-10 7l-11 16q-5 7 -5 10q0 5 7 10l111 87q5 5 9 5t9 -5l111 -87q7 -7 7 -10zM449 12q0 -12 -12 -12h-85q-23 0 -38 53q-64 -63 -144 -63q-60 0 -95 37t-35 100q0 170 263 174v33
q0 48 -20.5 68.5t-69.5 20.5q-51 0 -115 -29q-6 -2 -7 -2q-5 0 -7 5l-15 40l-1 8q0 14 54 30t103 16q153 0 153 -140v-189q0 -64 12 -100h47q12 0 12 -12v-38zM303 110v129q-186 -1 -186 -106q0 -35 20 -57.5t51 -22.5q49 0 115 57z" />
    <glyph glyph-name="adieresis" unicode="&#xe4;" horiz-adv-x="463" 
d="M369 630q0 -22 -16 -37.5t-38 -15.5t-37.5 16t-15.5 38t16 37.5t38 15.5t37.5 -16t15.5 -38zM172 630q0 -22 -15.5 -37.5t-37.5 -15.5t-38 16t-16 38t16 37.5t38 15.5t37.5 -16t15.5 -38zM449 12q0 -12 -12 -12h-85q-23 0 -38 53q-64 -63 -144 -63q-60 0 -95 37t-35 100
q0 170 263 174v33q0 48 -20.5 68.5t-69.5 20.5q-51 0 -115 -29q-6 -2 -7 -2q-5 0 -7 5l-15 40l-1 8q0 14 54 30t103 16q153 0 153 -140v-189q0 -64 12 -100h47q12 0 12 -12v-38zM303 110v129q-186 -1 -186 -106q0 -35 20 -57.5t51 -22.5q49 0 115 57z" />
    <glyph glyph-name="atilde" unicode="&#xe3;" horiz-adv-x="463" 
d="M370 658q0 -14 -25.5 -46.5t-67.5 -32.5q-23 0 -60 21q-33 19 -51 19q-26 0 -43 -30q-4 -8 -9 -8l-6 1l-27 12q-8 4 -8 9q0 14 28 48q25 30 63 30q25 0 60.5 -20t50.5 -20q31 0 45 30q4 8 9 8l7 -1l27 -12q7 -3 7 -8zM449 12q0 -12 -12 -12h-85q-23 0 -38 53
q-64 -63 -144 -63q-60 0 -95 37t-35 100q0 170 263 174v33q0 48 -20.5 68.5t-69.5 20.5q-51 0 -115 -29q-6 -2 -7 -2q-5 0 -7 5l-15 40l-1 8q0 14 54 30t103 16q153 0 153 -140v-189q0 -64 12 -100h47q12 0 12 -12v-38zM303 110v129q-186 -1 -186 -106q0 -35 20 -57.5
t51 -22.5q49 0 115 57z" />
    <glyph glyph-name="aring" unicode="&#xe5;" horiz-adv-x="463" 
d="M314 626q0 -37 -26 -63t-63 -26t-63 26.5t-26 63.5t26.5 62.5t64.5 25.5q35 0 61 -26t26 -63zM449 12q0 -12 -12 -12h-85q-23 0 -38 53q-64 -63 -144 -63q-60 0 -95 37t-35 100q0 170 263 174v33q0 48 -20.5 68.5t-69.5 20.5q-51 0 -115 -29q-6 -2 -7 -2q-5 0 -7 5
l-15 40l-1 8q0 14 54 30t103 16q153 0 153 -140v-189q0 -64 12 -100h47q12 0 12 -12v-38zM266 626q0 18 -12.5 30.5t-29.5 12.5q-16 0 -28 -13t-12 -30q0 -18 12 -30.5t29 -12.5t29 12.5t12 30.5zM303 110v129q-186 -1 -186 -106q0 -35 20 -57.5t51 -22.5q49 0 115 57z" />
    <glyph glyph-name="ccedilla" unicode="&#xe7;" horiz-adv-x="426" 
d="M396 38q0 -9 -40.5 -25.5t-78.5 -23.5l-4 -43q42 -5 59.5 -19.5t17.5 -45.5q0 -35 -28.5 -57t-74.5 -22q-60 0 -60 19q0 1 1 5v2l4 31q0 5 6 5q7 0 24.5 -4t27.5 -4q40 0 40 23t-51 23q-28 0 -27 15q0 7 1 10l6 60q-169 23 -169 243q0 122 54.5 193t148.5 71
q70 0 129 -38q11 -7 11 -19v-86q0 -12 -12 -12h-42q-12 0 -12 12v57q-43 20 -73 20q-55 0 -85 -39q-35 -45 -35 -148q0 -187 114 -187q50 0 116 38q6 2 7 2q5 0 6 -6l17 -42q2 -5 2 -8z" />
    <glyph glyph-name="eacute" unicode="&#xe9;" horiz-adv-x="463" 
d="M396 645q0 -3 -9 -8l-164 -85q-8 -4 -10 -4q-4 0 -9 8l-10 15q-4 6 -4 10q0 3 8 9l145 111q7 5 10 5q4 0 10 -8l29 -42q4 -6 4 -11zM431 241q0 -18 -11 -18h-287q8 -169 132 -169q53 0 116 36q5 3 10 3q4 0 7 -5l18 -39q2 -4 2 -7q0 -11 -36 -28q-60 -28 -123 -28
q-95 0 -151.5 68.5t-56.5 184.5t54 185.5t144 69.5q126 0 167 -120q15 -44 15 -133zM350 285q-3 148 -106 148q-102 0 -111 -148h217z" />
    <glyph glyph-name="egrave" unicode="&#xe8;" horiz-adv-x="463" 
d="M314 580q0 -2 -5 -9l-12 -17q-2 -5 -7 -5q-4 0 -10 3l-163 85q-9 5 -9 10q0 3 4 9l29 42q6 8 10 8q3 0 10 -5l145 -111q8 -6 8 -10zM431 241q0 -18 -11 -18h-287q8 -169 132 -169q53 0 116 36q5 3 10 3q4 0 7 -5l18 -39q2 -4 2 -7q0 -11 -36 -28q-60 -28 -123 -28
q-95 0 -151.5 68.5t-56.5 184.5t54 185.5t144 69.5q126 0 167 -120q15 -44 15 -133zM350 285q-3 148 -106 148q-102 0 -111 -148h217z" />
    <glyph glyph-name="ecircumflex" unicode="&#xea;" horiz-adv-x="463" 
d="M372 595q0 -3 -5 -10l-13 -18q-4 -5 -8 -5q-3 0 -9 4l-92 59l-92 -59q-6 -4 -9 -4t-10 7l-11 16q-5 7 -5 10q0 5 7 10l111 87q5 5 9 5t9 -5l111 -87q7 -7 7 -10zM431 241q0 -18 -11 -18h-287q8 -169 132 -169q53 0 116 36q5 3 10 3q4 0 7 -5l18 -39q2 -4 2 -7
q0 -11 -36 -28q-60 -28 -123 -28q-95 0 -151.5 68.5t-56.5 184.5t54 185.5t144 69.5q126 0 167 -120q15 -44 15 -133zM350 285q-3 148 -106 148q-102 0 -111 -148h217z" />
    <glyph glyph-name="edieresis" unicode="&#xeb;" horiz-adv-x="463" 
d="M397 630q0 -22 -16 -37.5t-38 -15.5t-37.5 16t-15.5 38t16 37.5t38 15.5t37.5 -16t15.5 -38zM200 630q0 -22 -15.5 -37.5t-37.5 -15.5t-38 16t-16 38t16 37.5t38 15.5t37.5 -16t15.5 -38zM431 241q0 -18 -11 -18h-287q8 -169 132 -169q53 0 116 36q5 3 10 3q4 0 7 -5
l18 -39q2 -4 2 -7q0 -11 -36 -28q-60 -28 -123 -28q-95 0 -151.5 68.5t-56.5 184.5t54 185.5t144 69.5q126 0 167 -120q15 -44 15 -133zM350 285q-3 148 -106 148q-102 0 -111 -148h217z" />
    <glyph glyph-name="iacute" unicode="&#xed;" horiz-adv-x="278" 
d="M294 645q0 -3 -9 -8l-164 -85q-8 -4 -10 -4q-4 0 -9 8l-10 15q-4 6 -4 10q0 3 8 9l145 111q7 5 10 5q4 0 10 -8l29 -42q4 -6 4 -11zM272 12q0 -12 -12 -12h-220q-12 0 -12 12v38q0 12 12 12h72v356h-80q-11 0 -11 11v39q0 12 11 12h144q11 0 11 -12v-406h73q12 0 12 -12
v-38z" />
    <glyph glyph-name="igrave" unicode="&#xec;" horiz-adv-x="278" 
d="M194 580q0 -2 -5 -9l-12 -17q-2 -5 -7 -5q-4 0 -10 3l-163 85q-9 5 -9 10q0 3 4 9l29 42q6 8 10 8q3 0 10 -5l145 -111q8 -6 8 -10zM272 12q0 -12 -12 -12h-220q-12 0 -12 12v38q0 12 12 12h72v356h-80q-11 0 -11 11v39q0 12 11 12h144q11 0 11 -12v-406h73q12 0 12 -12
v-38z" />
    <glyph glyph-name="icircumflex" unicode="&#xee;" horiz-adv-x="278" 
d="M266 595q0 -3 -5 -10l-13 -18q-4 -5 -8 -5q-3 0 -9 4l-92 59l-92 -59q-6 -4 -9 -4t-10 7l-11 16q-5 7 -5 10q0 5 7 10l111 87q5 5 9 5t9 -5l111 -87q7 -7 7 -10zM272 12q0 -12 -12 -12h-220q-12 0 -12 12v38q0 12 12 12h72v356h-80q-11 0 -11 11v39q0 12 11 12h144
q11 0 11 -12v-406h73q12 0 12 -12v-38z" />
    <glyph glyph-name="idieresis" unicode="&#xef;" horiz-adv-x="278" 
d="M267 630q0 -22 -16 -37.5t-38 -15.5t-37.5 16t-15.5 38t16 37.5t38 15.5t37.5 -16t15.5 -38zM125 630q0 -22 -15.5 -37.5t-37.5 -15.5t-38 16t-16 38t16 37.5t38 15.5t37.5 -16t15.5 -38zM272 12q0 -12 -12 -12h-220q-12 0 -12 12v38q0 12 12 12h72v356h-80q-11 0 -11 11
v39q0 12 11 12h144q11 0 11 -12v-406h73q12 0 12 -12v-38z" />
    <glyph glyph-name="ntilde" unicode="&#xf1;" horiz-adv-x="537" 
d="M422 658q0 -14 -25.5 -46.5t-67.5 -32.5q-23 0 -60 21q-33 19 -51 19q-26 0 -43 -30q-4 -8 -9 -8l-6 1l-27 12q-8 4 -8 9q0 14 28 48q25 30 63 30q25 0 60.5 -20t50.5 -20q31 0 45 30q4 8 9 8l7 -1l27 -12q7 -3 7 -8zM517 12q0 -12 -12 -12h-120q-11 0 -11 12v334
q0 83 -67 83q-61 0 -131 -63v-304h56q12 0 12 -12v-38q0 -12 -12 -12h-188q-12 0 -12 12v38q0 12 12 12h56v293q0 38 -6 63h-57q-12 0 -12 12v38q0 12 12 12h101q19 0 31 -54q84 68 161 68q75 0 102 -48q17 -30 17 -101v-283h56q12 0 12 -12v-38z" />
    <glyph glyph-name="oacute" unicode="&#xf3;" 
d="M401 645q0 -3 -9 -8l-164 -85q-8 -4 -10 -4q-4 0 -9 8l-10 15q-4 6 -4 10q0 3 8 9l145 111q7 5 10 5q4 0 10 -8l29 -42q4 -6 4 -11zM449 243q0 -121 -54 -189t-151 -68q-91 0 -142 66.5t-51 185.5q0 121 54 188.5t151 67.5q91 0 142 -66.5t51 -184.5zM368 244
q0 187 -119 187q-117 0 -117 -183q0 -103 31 -155q26 -44 88 -44q59 0 85 42q32 52 32 153z" />
    <glyph glyph-name="ograve" unicode="&#xf2;" 
d="M305 580q0 -2 -5 -9l-12 -17q-2 -5 -7 -5q-4 0 -10 3l-163 85q-9 5 -9 10q0 3 4 9l29 42q6 8 10 8q3 0 10 -5l145 -111q8 -6 8 -10zM449 243q0 -121 -54 -189t-151 -68q-91 0 -142 66.5t-51 185.5q0 121 54 188.5t151 67.5q91 0 142 -66.5t51 -184.5zM368 244
q0 187 -119 187q-117 0 -117 -183q0 -103 31 -155q26 -44 88 -44q59 0 85 42q32 52 32 153z" />
    <glyph glyph-name="ocircumflex" unicode="&#xf4;" 
d="M377 595q0 -3 -5 -10l-13 -18q-4 -5 -8 -5q-3 0 -9 4l-92 59l-92 -59q-6 -4 -9 -4t-10 7l-11 16q-5 7 -5 10q0 5 7 10l111 87q5 5 9 5t9 -5l111 -87q7 -7 7 -10zM449 243q0 -121 -54 -189t-151 -68q-91 0 -142 66.5t-51 185.5q0 121 54 188.5t151 67.5q91 0 142 -66.5
t51 -184.5zM368 244q0 187 -119 187q-117 0 -117 -183q0 -103 31 -155q26 -44 88 -44q59 0 85 42q32 52 32 153z" />
    <glyph glyph-name="odieresis" unicode="&#xf6;" 
d="M402 630q0 -22 -16 -37.5t-38 -15.5t-37.5 16t-15.5 38t16 37.5t38 15.5t37.5 -16t15.5 -38zM205 630q0 -22 -15.5 -37.5t-37.5 -15.5t-38 16t-16 38t16 37.5t38 15.5t37.5 -16t15.5 -38zM449 243q0 -121 -54 -189t-151 -68q-91 0 -142 66.5t-51 185.5q0 121 54 188.5
t151 67.5q91 0 142 -66.5t51 -184.5zM368 244q0 187 -119 187q-117 0 -117 -183q0 -103 31 -155q26 -44 88 -44q59 0 85 42q32 52 32 153z" />
    <glyph glyph-name="otilde" unicode="&#xf5;" 
d="M399 658q0 -14 -25.5 -46.5t-67.5 -32.5q-23 0 -60 21q-33 19 -51 19q-26 0 -43 -30q-4 -8 -9 -8l-6 1l-27 12q-8 4 -8 9q0 14 28 48q25 30 63 30q25 0 60.5 -20t50.5 -20q31 0 45 30q4 8 9 8l7 -1l27 -12q7 -3 7 -8zM449 243q0 -121 -54 -189t-151 -68q-91 0 -142 66.5
t-51 185.5q0 121 54 188.5t151 67.5q91 0 142 -66.5t51 -184.5zM368 244q0 187 -119 187q-117 0 -117 -183q0 -103 31 -155q26 -44 88 -44q59 0 85 42q32 52 32 153z" />
    <glyph glyph-name="uacute" unicode="&#xfa;" horiz-adv-x="537" 
d="M412 645q0 -3 -9 -8l-164 -85q-8 -4 -10 -4q-4 0 -9 8l-10 15q-4 6 -4 10q0 3 8 9l145 111q7 5 10 5q4 0 10 -8l29 -42q4 -6 4 -11zM512 12q0 -12 -12 -12h-87q-21 0 -36 47q-75 -61 -148 -61q-138 0 -138 134v298h-56q-12 0 -12 12v38q0 12 12 12h119q12 0 12 -12v-298
q0 -66 15.5 -91t56.5 -25q68 0 126 52v312h-61q-12 0 -12 12v38q0 12 12 12h124q12 0 12 -12v-335q0 -41 9 -71h52q12 0 12 -12v-38z" />
    <glyph glyph-name="ugrave" unicode="&#xf9;" horiz-adv-x="537" 
d="M323 580q0 -2 -5 -9l-12 -17q-2 -5 -7 -5q-4 0 -10 3l-163 85q-9 5 -9 10q0 3 4 9l29 42q6 8 10 8q3 0 10 -5l145 -111q8 -6 8 -10zM512 12q0 -12 -12 -12h-87q-21 0 -36 47q-75 -61 -148 -61q-138 0 -138 134v298h-56q-12 0 -12 12v38q0 12 12 12h119q12 0 12 -12v-298
q0 -66 15.5 -91t56.5 -25q68 0 126 52v312h-61q-12 0 -12 12v38q0 12 12 12h124q12 0 12 -12v-335q0 -41 9 -71h52q12 0 12 -12v-38z" />
    <glyph glyph-name="ucircumflex" unicode="&#xfb;" horiz-adv-x="537" 
d="M395 595q0 -3 -5 -10l-13 -18q-4 -5 -8 -5q-3 0 -9 4l-92 59l-92 -59q-6 -4 -9 -4t-10 7l-11 16q-5 7 -5 10q0 5 7 10l111 87q5 5 9 5t9 -5l111 -87q7 -7 7 -10zM512 12q0 -12 -12 -12h-87q-21 0 -36 47q-75 -61 -148 -61q-138 0 -138 134v298h-56q-12 0 -12 12v38
q0 12 12 12h119q12 0 12 -12v-298q0 -66 15.5 -91t56.5 -25q68 0 126 52v312h-61q-12 0 -12 12v38q0 12 12 12h124q12 0 12 -12v-335q0 -41 9 -71h52q12 0 12 -12v-38z" />
    <glyph glyph-name="udieresis" unicode="&#xfc;" horiz-adv-x="537" 
d="M406 630q0 -22 -16 -37.5t-38 -15.5t-37.5 16t-15.5 38t16 37.5t38 15.5t37.5 -16t15.5 -38zM209 630q0 -22 -15.5 -37.5t-37.5 -15.5t-38 16t-16 38t16 37.5t38 15.5t37.5 -16t15.5 -38zM512 12q0 -12 -12 -12h-87q-21 0 -36 47q-75 -61 -148 -61q-138 0 -138 134v298
h-56q-12 0 -12 12v38q0 12 12 12h119q12 0 12 -12v-298q0 -66 15.5 -91t56.5 -25q68 0 126 52v312h-61q-12 0 -12 12v38q0 12 12 12h124q12 0 12 -12v-335q0 -41 9 -71h52q12 0 12 -12v-38z" />
    <glyph glyph-name="dagger" unicode="&#x2020;" 
d="M419 402q0 -14 -14 -14h-118v-586q0 -14 -14 -14h-47q-14 0 -14 14v586h-117q-14 0 -14 14v44q0 14 14 14h117v212q0 14 14 14h47q14 0 14 -14v-212h118q14 0 14 -14v-44z" />
    <glyph glyph-name="degree" unicode="&#xb0;" 
d="M405 545q0 -64 -45.5 -109t-109.5 -45t-109 45t-45 109q0 65 45.5 110t110.5 45q63 0 108 -45.5t45 -109.5zM341 545q0 38 -26.5 64.5t-65.5 26.5q-37 0 -63 -26.5t-26 -64.5t26 -64.5t64 -26.5t64.5 26.5t26.5 64.5z" />
    <glyph glyph-name="cent" unicode="&#xa2;" 
d="M441 520q0 -4 -3 -8l-21 -38q-3 -6 -8 -6q-4 0 -9 3q-41 25 -77 30v-366q34 6 83 32q5 3 8 3q5 0 6 -6l17 -42q2 -4 2 -7q0 -10 -38 -25.5t-78 -22.5v-59q0 -13 -14 -13h-25q-14 0 -14 13v55q-85 7 -130.5 70t-45.5 173q0 113 47 183t129 79v53q0 14 14 14h25
q14 0 14 -14v-52q56 -7 96 -29q22 -12 22 -20zM270 133v366q-99 -23 -99 -181q0 -168 99 -185z" />
    <glyph glyph-name="sterling" unicode="&#xa3;" 
d="M511 58q0 -2 -3 -8l-15 -40q-5 -10 -16 -10h-411q-14 0 -14 14v38q0 14 14 14h85q15 68 15 119q0 54 -17 123h-90q-14 0 -14 14v37q0 14 14 14h76q-16 63 -16 103q0 81 57.5 130.5t151.5 49.5q47 0 96.5 -15t49.5 -29q0 -4 -2 -8l-19 -38q-4 -6 -8 -6q-5 0 -11 3
q-55 28 -111 28q-58 0 -93.5 -31t-35.5 -81q0 -33 15 -106h134q14 0 14 -14v-37q0 -14 -14 -14h-119q18 -77 18 -125q0 -51 -15 -116h270q14 0 14 -9z" />
    <glyph glyph-name="section" unicode="&#xa7;" 
d="M422 213q0 -87 -119 -154q56 -31 77.5 -58.5t21.5 -68.5q0 -61 -48 -102.5t-118 -41.5q-43 0 -100.5 22t-57.5 39q0 3 4 11l18 36q4 8 9 8t9 -4q69 -46 124 -46q35 0 57 20t22 51q0 32 -20.5 52.5t-89.5 54.5q-78 39 -105.5 70.5t-27.5 81.5q0 93 117 154q-93 44 -93 118
q0 58 45.5 96t114.5 38q40 0 84.5 -17t44.5 -32q0 -2 -4 -10l-18 -38q-4 -8 -8 -8t-26 14q-36 23 -79 23q-35 0 -56.5 -17t-21.5 -45q0 -29 28 -49q19 -13 82 -46q76 -39 105 -72t29 -80zM346 203q0 32 -22 55t-80 51q-89 -48 -89 -116q0 -46 42 -72q10 -6 53 -29
q96 52 96 111z" />
    <glyph glyph-name="bullet" unicode="&#x2022;" horiz-adv-x="686" 
d="M507 348q0 -58 -41.5 -100t-100.5 -42t-101 41.5t-42 100.5q0 60 41.5 101.5t102.5 41.5q58 0 99.5 -42t41.5 -101z" />
    <glyph glyph-name="paragraph" unicode="&#xb6;" horiz-adv-x="611" 
d="M558 635q0 -14 -14 -14h-66v-793q0 -14 -14 -14h-41q-14 0 -14 14v793h-65v-793q0 -14 -14 -14h-41q-14 0 -14 14v347q-45 -7 -76 -7q-184 0 -184 263q0 177 109 233q43 22 151 22h269q14 0 14 -14v-37zM275 238v383q-91 0 -116 -15q-57 -35 -57 -176q0 -104 30 -150.5
t97 -46.5q21 0 46 5z" />
    <glyph glyph-name="germandbls" unicode="&#xdf;" horiz-adv-x="611" 
d="M548 150q0 -80 -47 -124q-39 -37 -115 -37q-42 0 -80 10.5t-38 21.5q0 4 1 7l12 42q2 7 7 7q3 0 9 -2q46 -22 95 -22q83 0 83 84q0 36 -18 58t-93 75q-49 35 -63 50q-27 29 -27 72q0 57 54 103t54 89q0 37 -25.5 58.5t-68.5 21.5q-50 0 -79.5 -25.5t-29.5 -97.5v-529
q0 -12 -11 -12h-121q-12 0 -12 12v38q0 12 12 12h57v480q0 88 41 132q47 51 150 51q76 0 120.5 -34.5t44.5 -93.5q0 -48 -26 -85q-7 -10 -51 -52q-34 -32 -34 -56q0 -20 13 -33t92 -71q94 -70 94 -150z" />
    <glyph glyph-name="registered" unicode="&#xae;" horiz-adv-x="707" 
d="M673 343q0 -147 -93.5 -251.5t-225.5 -104.5t-226 104.5t-94 250.5q0 150 94 253.5t230 103.5q129 0 222 -105t93 -251zM620 342q0 129 -78 218t-191 89q-109 0 -186.5 -90t-77.5 -216q0 -127 78.5 -216.5t188.5 -89.5t188 89.5t78 215.5zM520 160q0 -13 -14 -13h-60
q-11 0 -17 10l-94 166h-34v-126h32q14 0 14 -13v-24q0 -13 -14 -13h-128q-14 0 -14 13v24q0 13 14 13h32v299h-32q-14 0 -14 13v24q0 13 14 13h141q56 0 80 -12q50 -25 50 -91q0 -84 -76 -113l80 -133h26q14 0 14 -13v-24zM411 440q0 32 -15 44t-53 12h-42v-125h40
q70 0 70 69z" />
    <glyph glyph-name="copyright" unicode="&#xa9;" horiz-adv-x="707" 
d="M673 343q0 -147 -93.5 -251.5t-225.5 -104.5t-226 104.5t-94 250.5q0 150 94 253.5t230 103.5q129 0 222 -105t93 -251zM620 342q0 129 -78 218t-191 89q-109 0 -186.5 -90t-77.5 -216q0 -127 78.5 -216.5t188.5 -89.5t188 89.5t78 215.5zM462 177q0 -11 -8 -17
q-43 -31 -99 -31q-152 0 -152 218q0 210 147 210q60 0 101 -31q8 -6 8 -16v-64q0 -14 -14 -14h-29q-14 0 -14 14v45q-27 13 -51 13q-42 0 -60 -35t-18 -116q0 -171 82 -171q25 0 50 13v46q0 14 14 14h29q14 0 14 -14v-64z" />
    <glyph glyph-name="trademark" unicode="&#x2122;" horiz-adv-x="741" 
d="M689 278q0 -12 -12 -12h-122q-12 0 -12 12v23q0 12 12 12h36l-8 240l-69 -189q-3 -9 -14 -9h-17q-11 0 -14 9l-67 189l-7 -240h36q12 0 12 -12v-23q0 -12 -12 -12h-121q-13 0 -13 12v23q0 12 13 12h28l18 298h-36q-12 0 -12 11v23q0 12 12 12h86q11 0 14 -9l69 -191
q1 -3 4 -11l1 4l2 7l70 191q5 9 14 9h87q12 0 12 -12v-23q0 -11 -12 -11h-35l18 -298h27q12 0 12 -12v-23zM277 550q0 -12 -12 -12h-27q-12 0 -12 12v58h-51v-295h36q12 0 12 -12v-23q0 -12 -12 -12h-132q-12 0 -12 12v23q0 12 12 12h37v295h-52v-58q0 -12 -12 -12h-27
q-12 0 -12 12v94q0 13 13 13h238q13 0 13 -13v-94z" />
    <glyph glyph-name="acute" unicode="&#xb4;" 
d="M401 645q0 -3 -9 -8l-164 -85q-8 -4 -10 -4q-4 0 -9 8l-10 15q-4 6 -4 10q0 3 8 9l145 111q7 5 10 5q4 0 10 -8l29 -42q4 -6 4 -11z" />
    <glyph glyph-name="dieresis" unicode="&#xa8;" 
d="M402 630q0 -22 -16 -37.5t-38 -15.5t-37.5 16t-15.5 38t16 37.5t38 15.5t37.5 -16t15.5 -38zM205 630q0 -22 -15.5 -37.5t-37.5 -15.5t-38 16t-16 38t16 37.5t38 15.5t37.5 -16t15.5 -38z" />
    <glyph glyph-name="AE" unicode="&#xc6;" horiz-adv-x="704" 
d="M672 14q0 -14 -14 -14h-385q-12 0 -12 12v41q0 12 12 12h64v143h-185l-64 -143h53q12 0 12 -12v-41q0 -12 -12 -12h-181q-12 0 -12 12v41q0 12 12 12h41l292 611q5 10 15 10h343q14 0 14 -15v-135q0 -12 -12 -12h-45q-12 0 -12 12v79h-177v-225h196q14 0 14 -14v-39
q0 -14 -14 -14h-196v-252h184v88q0 12 12 12h45q12 0 12 -12v-145zM338 632q-10 -30 -51 -122l-106 -236h156v304q0 31 1 54z" />
    <glyph glyph-name="Oslash" unicode="&#xd8;" horiz-adv-x="556" 
d="M503 344q0 -358 -230 -358q-77 0 -130 46l-33 -64q-5 -9 -9 -9t-9 3l-29 14q-10 5 -10 9q0 2 4 10l46 89q-51 95 -51 256q0 360 230 360q66 0 119 -37l34 66q5 9 9 9q3 0 9 -3l30 -15q9 -5 9 -8q0 -7 -3 -10l-45 -87q59 -92 59 -271zM364 600q-32 33 -84 33
q-77 0 -111 -68.5t-34 -224.5q0 -86 13 -175zM420 344q0 124 -18 196l-219 -442q32 -45 92 -45q77 0 111 67.5t34 223.5z" />
    <glyph glyph-name="plusminus" unicode="&#xb1;" 
d="M478 230q0 -14 -14 -14h-177v-155q0 -14 -14 -14h-47q-14 0 -14 14v155h-176q-14 0 -14 14v47q0 14 14 14h176v177q0 13 14 13h47q14 0 14 -13v-177h177q14 0 14 -14v-47zM483 -41q0 -14 -14 -14h-438q-14 0 -14 14v44q0 14 14 14h438q14 0 14 -14v-44z" />
    <glyph glyph-name="yen" unicode="&#xa5;" 
d="M502 633q0 -12 -11 -12h-43l-104 -220h128q11 0 11 -12v-21q0 -12 -11 -12h-149l-31 -64h180q11 0 11 -12v-21q0 -12 -11 -12h-180v-182h70q12 0 12 -12v-41q0 -12 -12 -12h-221q-12 0 -12 12v41q0 12 12 12h71v182h-184q-11 0 -11 12v21q0 12 11 12h182l-32 64h-150
q-11 0 -11 12v21q0 12 11 12h128l-107 220h-37q-12 0 -12 12v41q0 12 12 12h185q12 0 12 -12v-41q0 -12 -12 -12h-60l89 -197q10 -20 29 -64q5 14 27 65l85 196h-62q-12 0 -12 12v41q0 12 12 12h186q11 0 11 -12v-41z" />
    <glyph glyph-name="ordfeminine" unicode="&#xaa;" horiz-adv-x="315" 
d="M299 281q0 -13 -13 -13h-53q-18 0 -28 26q-39 -33 -92 -33q-43 0 -68 23t-25 63q0 101 173 107v13q0 47 -53 47q-27 0 -73 -18q-8 -2 -9 -2q-7 0 -10 8l-9 23q-2 4 -2 7q0 12 35 23t74 11q109 0 109 -89v-109q0 -36 6 -52h25q13 0 13 -13v-22zM193 341v65q-48 -2 -69 -9
q-42 -13 -42 -47q0 -41 42 -41q15 0 37 10.5t32 21.5z" />
    <glyph glyph-name="ordmasculine" unicode="&#xba;" horiz-adv-x="334" 
d="M299 415q0 -74 -36 -114.5t-100 -40.5q-61 0 -94.5 40t-33.5 112q0 73 36 113.5t100 40.5q60 0 94 -40t34 -111zM235 416q0 101 -68 101t-68 -100q0 -108 69 -108q67 0 67 107z" />
    <glyph glyph-name="ae" unicode="&#xe6;" horiz-adv-x="704" 
d="M671 248q0 -18 -13 -18h-286q1 -83 36.5 -130.5t94.5 -47.5q53 0 115 37q7 4 11 4q6 0 8 -5l18 -39q2 -6 2 -8q0 -9 -37 -27q-58 -28 -122 -28q-94 0 -156 79q-82 -75 -174 -75q-63 0 -99 36.5t-36 100.5q0 163 269 167v40q0 47 -22 68t-72 21q-43 0 -116 -29
q-5 -2 -8 -2q-5 0 -7 5l-14 39q-2 6 -2 9q0 14 54 30t101 16q87 0 135 -62q55 65 140 65q87 0 133.5 -63.5t46.5 -182.5zM589 292q-13 141 -106 141q-58 0 -87 -49q-16 -28 -22 -92h215zM302 110v122q-104 -3 -148 -26t-44 -74q0 -35 20.5 -57t54.5 -22q59 0 117 57z" />
    <glyph glyph-name="oslash" unicode="&#xf8;" 
d="M449 243q0 -121 -54 -189t-151 -68q-52 0 -93 22l-30 -56q-3 -7 -7 -7q-3 0 -8 3l-32 16q-7 5 -7 8q0 2 3 8l36 66q-55 68 -55 192q0 121 53.5 188.5t149.5 67.5q51 0 92 -21l28 51q3 7 7 7q2 0 8 -2l31 -17q8 -4 8 -8q0 -2 -3 -7l-33 -61q57 -66 57 -193zM375 250
q0 72 -21 129l-163 -313q27 -17 61 -17q62 0 90 42q33 49 33 159zM309 415q-26 16 -59 16q-124 0 -124 -188q0 -78 20 -141z" />
    <glyph glyph-name="questiondown" unicode="&#xbf;" horiz-adv-x="426" 
d="M305 423q0 -28 -20.5 -49t-49.5 -21q-30 0 -50.5 21t-20.5 50t21 49.5t51 20.5q28 0 48.5 -21t20.5 -50zM376 -172q0 -14 -51 -28.5t-101 -14.5q-82 0 -128 41t-46 115q0 129 153 170v90q0 14 14 14h40q14 0 14 -14v-123q0 -15 -17 -20q-54 -15 -83 -32q-42 -25 -42 -83
q0 -89 103 -89q51 0 110 24q5 2 9 2q7 0 9 -7l14 -38q2 -5 2 -7z" />
    <glyph glyph-name="exclamdown" unicode="&#xa1;" horiz-adv-x="333" 
d="M237 423q0 -29 -21 -49.5t-50 -20.5t-49.5 21t-20.5 50t21 49.5t51 20.5q28 0 48.5 -21t20.5 -50zM219 -197q0 -9 -14 -9h-75q-14 0 -13 14l22 394q1 13 14 13h28q13 0 14 -13z" />
    <glyph glyph-name="logicalnot" unicode="&#xac;" horiz-adv-x="514" 
d="M501 0h-79v214h-367v72h446v-286z" />
    <glyph glyph-name="florin" unicode="&#x192;" 
d="M534 690q0 -1 -1 -4l-1 -3l-18 -43q-2 -5 -7 -5q-1 0 -6 2q-47 19 -84 19q-36 0 -53.5 -19t-28.5 -69l-18 -84h131q14 0 14 -8l-3 -8l-13 -36q-4 -10 -15 -10h-128l-97 -450q-20 -92 -65 -134t-125 -42q-78 0 -78 19q0 2 2 6l15 48q2 4 5 4q4 0 6 -1q23 -9 58 -9
q82 0 107 113l97 446h-65q-13 0 -13 8q0 5 1 7l7 35q2 12 14 12h72l20 93q16 73 47 103q42 40 114 40q35 0 72 -10t37 -20z" />
    <glyph glyph-name="guillemotleft" unicode="&#xab;" horiz-adv-x="481" 
d="M436 39q0 -3 -10 -9l-27 -15q-7 -3 -9 -3q-4 0 -10 7l-168 211q-4 7 -4 10q0 2 4 9l168 211q6 7 10 7t8 -3l28 -15q9 -5 9 -9t-4 -10l-129 -190l129 -191q5 -7 5 -10zM250 39q0 -4 -9 -9l-28 -15q-6 -3 -9 -3t-9 7l-168 211q-4 5 -4 10q0 4 4 9l168 211q4 7 10 7
q4 0 8 -3l28 -15q9 -5 9 -10q0 -3 -4 -9l-129 -190l129 -191q4 -8 4 -10z" />
    <glyph glyph-name="guillemotright" unicode="&#xbb;" horiz-adv-x="481" 
d="M459 239q0 -3 -5 -9l-167 -211q-6 -7 -10 -7q-3 0 -9 3l-28 15q-9 5 -9 9q0 3 5 10l129 190l-129 191q-5 7 -5 10q0 4 9 9l28 15q6 3 9 3t10 -7l167 -211q5 -6 5 -10zM273 239q0 -5 -4 -9l-167 -211q-6 -7 -11 -7q-2 0 -8 3l-28 15q-9 5 -9 9t5 10l128 190l-128 191
q-5 7 -5 9q0 5 9 10l28 15q6 3 9 3t9 -7l168 -211q4 -4 4 -10z" />
    <glyph glyph-name="ellipsis" unicode="&#x2026;" horiz-adv-x="889" 
d="M812 57q0 -29 -20.5 -50t-49.5 -21q-30 0 -50.5 21t-20.5 50t21 49.5t51 20.5q28 0 48.5 -21t20.5 -49zM515 57q0 -29 -20.5 -50t-49.5 -21q-30 0 -50.5 21t-20.5 50t21 49.5t51 20.5q28 0 48.5 -21t20.5 -49zM219 57q0 -29 -20.5 -50t-49.5 -21q-30 0 -50.5 20.5
t-20.5 50.5q0 29 21 49.5t51 20.5q28 0 48.5 -21t20.5 -49z" />
    <glyph glyph-name="nonbreakingspace" unicode="&#xa0;" horiz-adv-x="206" 
 />
    <glyph glyph-name="Agrave" unicode="&#xc0;" horiz-adv-x="574" 
d="M370 781q0 -2 -4 -9l-11 -19q-3 -5 -8 -5q-2 0 -10 3l-174 69q-10 4 -10 10q0 4 3 9l26 45q5 8 10 8t10 -4l159 -97q9 -5 9 -10zM580 12q0 -12 -12 -12h-203q-12 0 -12 12v41q0 12 12 12h62l-40 141h-203l-40 -141h65q12 0 12 -12v-41q0 -12 -12 -12h-201q-12 0 -12 12
v41q0 12 12 12h48l187 610q3 11 15 11h59q12 0 15 -11l187 -610h49q12 0 12 -12v-41zM368 275l-60 220q-13 47 -23 96q-8 -39 -23 -95l-59 -221h165z" />
    <glyph glyph-name="Atilde" unicode="&#xc3;" horiz-adv-x="574" 
d="M440 843q0 -18 -27.5 -48.5t-67.5 -30.5q-23 0 -62 21q-35 19 -53 19q-27 0 -44 -30q-4 -8 -10 -8q-3 0 -6 2l-28 11q-8 3 -8 9q0 15 29 48q26 30 65 30q28 0 86 -32q15 -8 28 -8q31 0 47 30q4 8 9 8l7 -1l27 -12q8 -4 8 -8zM580 12q0 -12 -12 -12h-203q-12 0 -12 12v41
q0 12 12 12h62l-40 141h-203l-40 -141h65q12 0 12 -12v-41q0 -12 -12 -12h-201q-12 0 -12 12v41q0 12 12 12h48l187 610q3 11 15 11h59q12 0 15 -11l187 -610h49q12 0 12 -12v-41zM368 275l-60 220q-13 47 -23 96q-8 -39 -23 -95l-59 -221h165z" />
    <glyph glyph-name="Otilde" unicode="&#xd5;" horiz-adv-x="556" 
d="M430 843q0 -18 -27.5 -48.5t-67.5 -30.5q-23 0 -62 21q-35 19 -53 19q-27 0 -44 -30q-4 -8 -10 -8q-3 0 -6 2l-28 11q-8 3 -8 9q0 15 29 48q26 30 65 30q28 0 86 -32q15 -8 28 -8q31 0 47 30q4 8 9 8l7 -1l27 -12q8 -4 8 -8zM503 344q0 -358 -231 -358q-220 0 -220 353
q0 361 234 361q217 0 217 -356zM414 337q0 164 -38 238q-30 58 -98 58q-73 0 -103 -63q-34 -72 -34 -225q0 -155 39 -234q29 -58 97 -58q74 0 103 63q34 73 34 221z" />
    <glyph glyph-name="OE" unicode="&#x152;" horiz-adv-x="759" 
d="M727 14q0 -14 -14 -14h-306q-14 0 -14 14v28q-55 -56 -128 -56q-90 0 -144 73q-69 94 -69 281q0 206 75 294q56 66 146 66q73 0 120 -47v19q0 14 14 14h297q16 0 16 -14v-136q0 -12 -12 -12h-45q-12 0 -12 12v79h-176v-225h195q14 0 14 -14v-39q0 -14 -14 -14h-195v-252
h183v88q0 12 12 12h45q12 0 12 -12v-145zM393 113v457q-54 63 -117 63q-60 0 -89 -49q-46 -78 -46 -241q0 -290 131 -290q64 0 121 60z" />
    <glyph glyph-name="oe" unicode="&#x153;" horiz-adv-x="778" 
d="M746 243q0 -20 -11 -20h-289q7 -77 30 -113q38 -58 102 -58q45 0 119 39q6 2 8 2q5 0 8 -5l17 -38q3 -5 3 -9q0 -19 -72 -38q-61 -17 -89 -17q-118 0 -163 91q-50 -91 -163 -91q-93 0 -144 66t-51 186q0 119 54 187.5t148 68.5q97 0 157 -89q58 89 155 89q106 0 152 -91
q29 -57 29 -160zM665 285q-10 148 -107 148q-101 0 -110 -148h217zM370 243q0 188 -122 188q-116 0 -116 -183q0 -103 32 -156q26 -44 88 -44q60 0 86 42q32 52 32 153z" />
    <glyph glyph-name="endash" unicode="&#x2013;" 
d="M462 236q0 -14 -14 -14h-395q-14 0 -14 14v39q0 14 14 14h395q14 0 14 -14v-39z" />
    <glyph glyph-name="emdash" unicode="&#x2014;" horiz-adv-x="778" 
d="M741 237q0 -14 -14 -14h-676q-14 0 -14 14v37q0 14 14 14h676q14 0 14 -14v-37z" />
    <glyph glyph-name="quotedblleft" unicode="&#x201c;" horiz-adv-x="389" 
d="M362 689q0 -1 -2 -9l-58 -200q-3 -11 -15 -11h-81q-13 0 -13 8q0 2 3 9l116 212q4 9 9 9q3 0 8 -2l22 -8q11 -3 11 -8zM196 688q0 -1 -1 -4l-1 -4l-59 -200q-3 -11 -15 -11h-80q-14 0 -14 7q0 3 4 10l115 212q5 9 9 9q3 0 9 -2l22 -8q11 -4 11 -9z" />
    <glyph glyph-name="quotedblright" unicode="&#x201d;" horiz-adv-x="389" 
d="M362 690q0 -1 -3 -10l-116 -212q-4 -9 -9 -9q-2 0 -8 2l-23 8q-10 3 -10 9q0 2 2 8l58 200q3 11 15 11h81q13 0 13 -7zM196 689q0 -2 -4 -9l-115 -212q-5 -9 -10 -9q-3 0 -8 2l-22 8q-11 3 -11 9q0 2 2 8l58 200q3 11 15 11h81q14 0 14 -8z" />
    <glyph glyph-name="quoteleft" unicode="&#x2018;" horiz-adv-x="241" 
d="M209 688q0 -1 -1 -4l-1 -4l-59 -200q-3 -11 -15 -11h-80q-14 0 -14 7q0 3 4 10l115 212q5 9 9 9q3 0 9 -2l22 -8q11 -4 11 -9z" />
    <glyph glyph-name="quoteright" unicode="&#x2019;" horiz-adv-x="241" 
d="M203 689q0 -2 -4 -9l-115 -212q-5 -9 -10 -9q-3 0 -8 2l-22 8q-11 3 -11 9q0 2 2 8l58 200q3 11 15 11h81q14 0 14 -8z" />
    <glyph glyph-name="divide" unicode="&#xf7;" 
d="M306 428q0 -24 -16.5 -40.5t-39.5 -16.5q-24 0 -40.5 16.5t-16.5 40.5q0 23 16.5 39.5t40.5 16.5q23 0 39.5 -16.5t16.5 -39.5zM478 230q0 -14 -14 -14h-428q-14 0 -14 14v47q0 14 14 14h428q14 0 14 -14v-47zM306 79q0 -23 -16.5 -39.5t-39.5 -16.5q-24 0 -40.5 16.5
t-16.5 39.5q0 24 16.5 40.5t40.5 16.5q23 0 39.5 -16.5t16.5 -40.5z" />
    <glyph glyph-name="ydieresis" unicode="&#xff;" horiz-adv-x="444" 
d="M381 630q0 -22 -16 -37.5t-38 -15.5t-37.5 16t-15.5 38t16 37.5t38 15.5t37.5 -16t15.5 -38zM184 630q0 -22 -15.5 -37.5t-37.5 -15.5t-38 16t-16 38t16 37.5t38 15.5t37.5 -16t15.5 -38zM467 430q0 -12 -12 -12h-37l-102 -356q-36 -125 -67 -191q-39 -82 -120 -82
q-37 0 -82 18t-45 32q0 3 2 6l20 40q2 5 7 5q3 0 7 -3q52 -35 89 -35q50 0 77 85l20 63h-36q-9 0 -12 9l-145 409h-40q-12 0 -12 12v38q0 12 12 12h183q12 0 12 -12v-34q0 -12 -12 -12h-64l110 -321q8 -24 20 -72q9 41 16 70l84 323h-59q-12 0 -12 12v34q0 12 12 12h174
q12 0 12 -12v-38z" />
    <glyph glyph-name="Ydieresis" unicode="&#x178;" horiz-adv-x="481" 
d="M397 811q0 -22 -16 -38.5t-39 -16.5t-39 16t-16 39t16.5 39t39.5 16q22 0 38 -16.5t16 -38.5zM195 812q0 -23 -16 -39.5t-39 -16.5t-39.5 16.5t-16.5 39.5t16.5 39t39.5 16t39 -16t16 -39zM509 633q0 -12 -12 -12h-42l-170 -330v-226h70q12 0 12 -12v-41q0 -12 -12 -12
h-223q-12 0 -12 12v41q0 12 12 12h71v224l-176 332h-38q-12 0 -12 12v41q0 12 12 12h192q12 0 12 -12v-41q0 -12 -12 -12h-58l96 -197q15 -31 27 -62q10 27 27 63l92 196h-60q-12 0 -12 12v41q0 12 12 12h192q12 0 12 -12v-41z" />
    <glyph glyph-name="currency" unicode="&#xa4;" horiz-adv-x="529" 
d="M509 141q0 -3 -6 -9l-27 -27q-6 -6 -10 -6q-3 0 -9 6l-50 50q-60 -41 -149 -41q-82 0 -138 38l-47 -47q-6 -6 -10 -6q-3 0 -9 6l-27 27q-6 6 -6 10t6 9l47 48q-38 61 -38 142q0 82 40 144l-49 50q-6 5 -6 10q0 3 6 9l27 27q6 6 10 6q3 0 9 -6l50 -50q59 40 147 40
q82 0 140 -37l47 47q5 6 10 6q3 0 9 -6l27 -27q6 -6 6 -10q0 -3 -6 -9l-48 -48q39 -61 39 -141q0 -84 -41 -145l50 -50q6 -6 6 -10zM413 346q0 159 -149 159q-147 0 -147 -156q0 -90 39 -131q36 -38 110 -38q72 0 107 36q40 41 40 130z" />
    <glyph glyph-name="guilsinglleft" unicode="&#x2039;" horiz-adv-x="296" 
d="M250 39q0 -4 -9 -9l-28 -15q-6 -3 -9 -3t-9 7l-168 211q-4 5 -4 10q0 4 4 9l168 211q4 7 10 7q4 0 8 -3l28 -15q9 -5 9 -10q0 -3 -4 -9l-129 -190l129 -191q4 -8 4 -10z" />
    <glyph glyph-name="guilsinglright" unicode="&#x203a;" horiz-adv-x="296" 
d="M273 239q0 -5 -4 -9l-167 -211q-6 -7 -11 -7q-2 0 -8 3l-28 15q-9 5 -9 9t5 10l128 190l-128 191q-5 7 -5 9q0 5 9 10l28 15q6 3 9 3t9 -7l168 -211q4 -4 4 -10z" />
    <glyph glyph-name="daggerdbl" unicode="&#x2021;" 
d="M419 35q0 -14 -14 -14h-118v-219q0 -14 -14 -14h-46q-14 0 -14 14v219h-118q-14 0 -14 14v40q0 14 14 14h118v302h-118q-14 0 -14 14v41q0 14 14 14h118v212q0 14 14 14h46q14 0 14 -14v-212h118q10 0 12 -2.5t2 -14.5v-38q0 -14 -14 -14h-118v-302h118q14 0 14 -14v-40z
" />
    <glyph glyph-name="periodcentered" unicode="&#x2219;" horiz-adv-x="257" 
d="M196 244q0 -28 -19.5 -47.5t-47.5 -19.5t-47.5 20t-19.5 48t19.5 47t48.5 19q27 0 46.5 -20t19.5 -47z" />
    <glyph glyph-name="quotesinglbase" unicode="&#x201a;" horiz-adv-x="222" 
d="M196 107q0 -3 -4 -10l-115 -212q-5 -9 -10 -9q-3 0 -8 2l-22 8q-11 4 -11 9q0 1 2 8l58 200q3 11 15 11h81q14 0 14 -7z" />
    <glyph glyph-name="quotedblbase" unicode="&#x201e;" horiz-adv-x="389" 
d="M362 107q0 -1 -3 -10l-116 -212q-5 -9 -9 -9q-2 0 -8 2l-23 8q-10 3 -10 9q1 5 2 8l58 200q3 11 15 11h81q13 0 13 -7zM196 107q0 -3 -4 -10l-115 -212q-5 -9 -10 -9q-3 0 -8 2l-22 8q-11 4 -11 9q0 1 2 8l58 200q3 11 15 11h81q14 0 14 -7z" />
    <glyph glyph-name="perthousand" unicode="&#x2030;" horiz-adv-x="1074" 
d="M1040 168q0 -84 -36 -131t-100 -47q-62 0 -95.5 42.5t-33.5 120.5q0 85 36 131.5t102 46.5q60 0 93.5 -43t33.5 -120zM716 168q0 -84 -36 -131t-100 -47q-62 0 -95.5 42.5t-33.5 120.5q0 85 36 131.5t102 46.5q60 0 93.5 -43t33.5 -120zM547 652q0 -3 -2 -8l-273 -653
q-4 -10 -18 -10h-38q-13 0 -13 7q0 4 2 9l272 653q4 10 15 10h42q13 0 13 -8zM299 490q0 -84 -36 -131t-100 -47q-62 0 -95.5 42.5t-33.5 121.5q0 84 36 130.5t102 46.5q60 0 93.5 -43t33.5 -120zM974 163q0 113 -64 113q-69 0 -69 -118q0 -113 63 -113q70 0 70 118z
M650 163q0 113 -64 113q-69 0 -69 -118q0 -113 63 -113q70 0 70 118zM233 485q0 113 -64 113q-69 0 -69 -119q0 -112 64 -112q69 0 69 118z" />
    <glyph glyph-name="Acircumflex" unicode="&#xc2;" horiz-adv-x="574" 
d="M422 779q0 -2 -4 -9l-12 -15q-6 -7 -10 -7t-10 3l-98 53l-98 -53q-6 -3 -10 -3t-10 7l-12 15q-4 5 -4 10t7 10l108 74q12 8 19 8q6 0 18 -8l109 -74q7 -5 7 -11zM580 12q0 -12 -12 -12h-203q-12 0 -12 12v41q0 12 12 12h62l-40 141h-203l-40 -141h65q12 0 12 -12v-41
q0 -12 -12 -12h-201q-12 0 -12 12v41q0 12 12 12h48l187 610q3 11 15 11h59q12 0 15 -11l187 -610h49q12 0 12 -12v-41zM368 275l-60 220q-13 47 -23 96q-8 -39 -23 -95l-59 -221h165z" />
    <glyph glyph-name="Ecircumflex" unicode="&#xca;" horiz-adv-x="482" 
d="M375 779q0 -2 -4 -9l-12 -15q-6 -7 -10 -7t-10 3l-98 53l-98 -53q-6 -3 -10 -3t-10 7l-12 15q-4 5 -4 10t7 10l108 74q12 8 19 8q6 0 18 -8l109 -74q7 -5 7 -11zM449 14q0 -14 -14 -14h-384q-12 0 -12 12v41q0 12 12 12h63v556h-63q-12 0 -12 12v41q0 12 12 12h377
q14 0 14 -15v-135q0 -12 -12 -12h-45q-12 0 -12 12v79h-177v-225h196q14 0 14 -14v-39q0 -14 -14 -14h-196v-252h184v88q0 12 12 12h45q12 0 12 -12v-145z" />
    <glyph glyph-name="Aacute" unicode="&#xc1;" horiz-adv-x="574" 
d="M422 829q0 -5 -10 -9l-176 -70q-5 -2 -9 -2q-5 0 -9 8l-9 16q-4 5 -4 10q0 4 9 9l159 97q5 4 9 4q5 0 10 -8l26 -45q4 -5 4 -10zM580 12q0 -12 -12 -12h-203q-12 0 -12 12v41q0 12 12 12h62l-40 141h-203l-40 -141h65q12 0 12 -12v-41q0 -12 -12 -12h-201q-12 0 -12 12
v41q0 12 12 12h48l187 610q3 11 15 11h59q12 0 15 -11l187 -610h49q12 0 12 -12v-41zM368 275l-60 220q-13 47 -23 96q-8 -39 -23 -95l-59 -221h165z" />
    <glyph glyph-name="Edieresis" unicode="&#xcb;" horiz-adv-x="482" 
d="M397 811q0 -22 -16 -38.5t-39 -16.5t-39 16t-16 39t16.5 39t39.5 16q22 0 38 -16.5t16 -38.5zM195 812q0 -23 -16 -39.5t-39 -16.5t-39.5 16.5t-16.5 39.5t16.5 39t39.5 16t39 -16t16 -39zM449 14q0 -14 -14 -14h-384q-12 0 -12 12v41q0 12 12 12h63v556h-63
q-12 0 -12 12v41q0 12 12 12h377q14 0 14 -15v-135q0 -12 -12 -12h-45q-12 0 -12 12v79h-177v-225h196q14 0 14 -14v-39q0 -14 -14 -14h-196v-252h184v88q0 12 12 12h45q12 0 12 -12v-145z" />
    <glyph glyph-name="Egrave" unicode="&#xc8;" horiz-adv-x="482" 
d="M323 781q0 -2 -4 -9l-11 -19q-3 -5 -8 -5q-2 0 -10 3l-174 69q-10 4 -10 10q0 4 3 9l26 45q5 8 10 8t10 -4l159 -97q9 -5 9 -10zM449 14q0 -14 -14 -14h-384q-12 0 -12 12v41q0 12 12 12h63v556h-63q-12 0 -12 12v41q0 12 12 12h377q14 0 14 -15v-135q0 -12 -12 -12h-45
q-12 0 -12 12v79h-177v-225h196q14 0 14 -14v-39q0 -14 -14 -14h-196v-252h184v88q0 12 12 12h45q12 0 12 -12v-145z" />
    <glyph glyph-name="Iacute" unicode="&#xcd;" horiz-adv-x="352" 
d="M325 829q0 -5 -10 -9l-176 -70q-5 -2 -9 -2q-5 0 -9 8l-9 16q-4 5 -4 10q0 4 9 9l159 97q5 4 9 4q5 0 10 -8l26 -45q4 -5 4 -10zM320 14q0 -14 -14 -14h-259q-14 0 -14 14v37q0 14 14 14h88v556h-88q-14 0 -14 14v37q0 14 14 14h259q14 0 14 -14v-37q0 -14 -14 -14h-89
v-556h89q14 0 14 -14v-37z" />
    <glyph glyph-name="Icircumflex" unicode="&#xce;" horiz-adv-x="352" 
d="M311 779q0 -2 -4 -9l-12 -15q-6 -7 -10 -7t-10 3l-98 53l-98 -53q-6 -3 -10 -3t-10 7l-12 15q-4 5 -4 10t7 10l108 74q12 8 19 8q6 0 18 -8l109 -74q7 -5 7 -11zM320 14q0 -14 -14 -14h-259q-14 0 -14 14v37q0 14 14 14h88v556h-88q-14 0 -14 14v37q0 14 14 14h259
q14 0 14 -14v-37q0 -14 -14 -14h-89v-556h89q14 0 14 -14v-37z" />
    <glyph glyph-name="Idieresis" unicode="&#xcf;" horiz-adv-x="352" 
d="M319 811q0 -22 -16 -38.5t-39 -16.5t-39 16t-16 39t16.5 39t39.5 16q22 0 38 -16.5t16 -38.5zM144 812q0 -23 -16 -39.5t-39 -16.5t-39.5 16.5t-16.5 39.5t16.5 39t39.5 16t39 -16t16 -39zM320 14q0 -14 -14 -14h-259q-14 0 -14 14v37q0 14 14 14h88v556h-88
q-14 0 -14 14v37q0 14 14 14h259q14 0 14 -14v-37q0 -14 -14 -14h-89v-556h89q14 0 14 -14v-37z" />
    <glyph glyph-name="Igrave" unicode="&#xcc;" horiz-adv-x="352" 
d="M245 781q0 -2 -4 -9l-11 -19q-3 -5 -8 -5q-2 0 -10 3l-174 69q-10 4 -10 10q0 4 3 9l26 45q5 8 10 8t10 -4l159 -97q9 -5 9 -10zM320 14q0 -14 -14 -14h-259q-14 0 -14 14v37q0 14 14 14h88v556h-88q-14 0 -14 14v37q0 14 14 14h259q14 0 14 -14v-37q0 -14 -14 -14h-89
v-556h89q14 0 14 -14v-37z" />
    <glyph glyph-name="Oacute" unicode="&#xd3;" horiz-adv-x="556" 
d="M433 829q0 -5 -10 -9l-176 -70q-5 -2 -9 -2q-5 0 -9 8l-9 16q-4 5 -4 10q0 4 9 9l159 97q5 4 9 4q5 0 10 -8l26 -45q4 -5 4 -10zM503 344q0 -358 -231 -358q-220 0 -220 353q0 361 234 361q217 0 217 -356zM414 337q0 164 -38 238q-30 58 -98 58q-73 0 -103 -63
q-34 -72 -34 -225q0 -155 39 -234q29 -58 97 -58q74 0 103 63q34 73 34 221z" />
    <glyph glyph-name="Ocircumflex" unicode="&#xd4;" horiz-adv-x="556" 
d="M412 779q0 -2 -4 -9l-12 -15q-6 -7 -10 -7t-10 3l-98 53l-98 -53q-6 -3 -10 -3t-10 7l-12 15q-4 5 -4 10t7 10l108 74q12 8 19 8q6 0 18 -8l109 -74q7 -5 7 -11zM503 344q0 -358 -231 -358q-220 0 -220 353q0 361 234 361q217 0 217 -356zM414 337q0 164 -38 238
q-30 58 -98 58q-73 0 -103 -63q-34 -72 -34 -225q0 -155 39 -234q29 -58 97 -58q74 0 103 63q34 73 34 221z" />
    <glyph glyph-name="Ograve" unicode="&#xd2;" horiz-adv-x="556" 
d="M339 781q0 -2 -4 -9l-11 -19q-3 -5 -8 -5q-2 0 -10 3l-174 69q-10 4 -10 10q0 4 3 9l26 45q5 8 10 8t10 -4l159 -97q9 -5 9 -10zM503 344q0 -358 -231 -358q-220 0 -220 353q0 361 234 361q217 0 217 -356zM414 337q0 164 -38 238q-30 58 -98 58q-73 0 -103 -63
q-34 -72 -34 -225q0 -155 39 -234q29 -58 97 -58q74 0 103 63q34 73 34 221z" />
    <glyph glyph-name="Uacute" unicode="&#xda;" horiz-adv-x="611" 
d="M475 829q0 -5 -10 -9l-176 -70q-5 -2 -9 -2q-5 0 -9 8l-9 16q-4 5 -4 10q0 4 9 9l159 97q5 4 9 4q5 0 10 -8l26 -45q4 -5 4 -10zM594 633q0 -12 -12 -12h-64v-437q0 -92 -50 -141q-59 -57 -168 -57q-206 0 -206 198v437h-63q-12 0 -12 12v41q0 12 12 12h209q12 0 12 -12
v-41q0 -12 -12 -12h-64v-434q0 -73 29.5 -103.5t98.5 -30.5q135 0 135 134v434h-63q-12 0 -12 12v41q0 12 12 12h206q12 0 12 -12v-41z" />
    <glyph glyph-name="Ucircumflex" unicode="&#xdb;" horiz-adv-x="611" 
d="M440 779q0 -2 -4 -9l-12 -15q-6 -7 -10 -7t-10 3l-98 53l-98 -53q-6 -3 -10 -3t-10 7l-12 15q-4 5 -4 10t7 10l108 74q12 8 19 8q6 0 18 -8l109 -74q7 -5 7 -11zM594 633q0 -12 -12 -12h-64v-437q0 -92 -50 -141q-59 -57 -168 -57q-206 0 -206 198v437h-63q-12 0 -12 12
v41q0 12 12 12h209q12 0 12 -12v-41q0 -12 -12 -12h-64v-434q0 -73 29.5 -103.5t98.5 -30.5q135 0 135 134v434h-63q-12 0 -12 12v41q0 12 12 12h206q12 0 12 -12v-41z" />
    <glyph glyph-name="Ugrave" unicode="&#xd9;" horiz-adv-x="611" 
d="M354 781q0 -2 -4 -9l-11 -19q-3 -5 -8 -5q-2 0 -10 3l-174 69q-10 4 -10 10q0 4 3 9l26 45q5 8 10 8t10 -4l159 -97q9 -5 9 -10zM594 633q0 -12 -12 -12h-64v-437q0 -92 -50 -141q-59 -57 -168 -57q-206 0 -206 198v437h-63q-12 0 -12 12v41q0 12 12 12h209q12 0 12 -12
v-41q0 -12 -12 -12h-64v-434q0 -73 29.5 -103.5t98.5 -30.5q135 0 135 134v434h-63q-12 0 -12 12v41q0 12 12 12h206q12 0 12 -12v-41z" />
    <glyph glyph-name="circumflex" unicode="&#x2c6;" 
d="M377 595q0 -3 -5 -10l-13 -18q-4 -5 -8 -5q-3 0 -9 4l-92 59l-92 -59q-6 -4 -9 -4t-10 7l-11 16q-5 7 -5 10q0 5 7 10l111 87q5 5 9 5t9 -5l111 -87q7 -7 7 -10z" />
    <glyph glyph-name="tilde" unicode="&#x2dc;" 
d="M398 658q0 -14 -25.5 -46.5t-67.5 -32.5q-23 0 -60 21q-33 19 -51 19q-26 0 -43 -30q-4 -8 -9 -8l-6 1l-27 12q-8 4 -8 9q0 14 28 48q25 30 63 30q25 0 60.5 -20t50.5 -20q31 0 45 30q4 8 9 8l7 -1l27 -12q7 -3 7 -8z" />
    <glyph glyph-name="macron" unicode="&#xaf;" 
d="M372 599q0 -14 -14 -14h-217q-14 0 -14 14v35q0 14 14 14h217q14 0 14 -14v-35z" />
    <glyph glyph-name="macron" unicode="&#x2c9;" 
d="M372 599q0 -14 -14 -14h-217q-14 0 -14 14v35q0 14 14 14h217q14 0 14 -14v-35z" />
    <glyph glyph-name="cedilla" unicode="&#xb8;" 
d="M379 -119q0 -35 -28.5 -57t-73.5 -22q-60 0 -60 19q0 -1 1 7l4 31q0 5 5 5q4 0 6 -1q19 -7 46 -7q40 0 40 23t-49 23q-31 0 -29 13q1 7 1 12l8 73h58l-5 -54q42 -5 59 -19.5t17 -45.5z" />
    <glyph glyph-name="Scaron" unicode="&#x160;" horiz-adv-x="482" 
d="M396 839q0 -5 -7 -10l-109 -74q-12 -8 -18 -8q-7 0 -19 8l-108 74q-7 5 -7 11q0 4 4 9l12 16q6 6 9 6q7 0 11 -3l98 -52l98 52q5 3 10 3q4 0 10 -6l12 -16q4 -7 4 -10zM440 181q0 -87 -58.5 -141t-153.5 -54q-44 0 -102.5 15t-76.5 32q-7 6 -7 20v116q0 12 12 12h45
q12 0 12 -12v-82q69 -27 121 -27q54 0 86.5 30.5t32.5 80.5q0 47 -24 75.5t-101 71.5q-97 54 -127 89q-41 47 -41 113q0 79 55.5 129.5t143.5 50.5q91 0 155 -41q9 -6 9 -19v-115q0 -12 -12 -12h-45q-12 0 -12 12v82q-49 20 -98 20q-108 0 -108 -98q0 -39 20 -63.5t77 -56.5
q121 -68 149 -100q48 -55 48 -128z" />
    <glyph glyph-name="scaron" unicode="&#x161;" horiz-adv-x="389" 
d="M339 664q0 -3 -7 -9l-111 -88q-5 -5 -9 -5q-3 0 -9 5l-111 88q-7 6 -7 9t5 10l13 18q4 5 8 5q3 0 9 -4l92 -59l92 59q6 4 9 4q5 0 10 -7l11 -16q5 -7 5 -10zM355 129q0 -65 -43.5 -104t-116.5 -39q-47 0 -100 17t-53 33v93q0 12 12 12h42q12 0 12 -12v-58q51 -20 90 -20
q36 0 58 20t22 53q0 45 -64 74q-79 36 -112 63q-46 37 -46 94q0 61 42.5 100t109.5 39q61 0 118 -29q11 -6 11 -17v-87q0 -12 -12 -12h-42q-12 0 -12 12v55q-34 14 -64 14q-76 0 -76 -67q0 -30 20 -49q11 -10 24.5 -17.5t79.5 -39.5q56 -27 78 -55.5t22 -72.5z" />
    <glyph glyph-name="brokenbar" unicode="&#xa6;" horiz-adv-x="514" 
d="M319 342h-82v344h82v-344zM319 -171h-82v329h82v-329z" />
    <glyph glyph-name="Eth" unicode="&#xd0;" horiz-adv-x="574" 
d="M522 350q0 -185 -66 -267.5t-214 -82.5h-192q-11 0 -11 12v41q0 12 11 12h65v260h-62q-14 0 -14 14v37q0 14 14 14h62v231h-65q-11 0 -11 12v41q0 12 11 12h203q116 0 168 -38q101 -74 101 -298zM434 353q0 196 -79 242q-35 20 -103 20h-55v-225h120q14 0 14 -14v-37
q0 -14 -14 -14h-120v-254h62q92 0 135 66q40 61 40 216z" />
    <glyph glyph-name="eth" unicode="&#xf0;" 
d="M449 268q0 -133 -54.5 -207.5t-151.5 -74.5q-91 0 -141.5 66.5t-50.5 185.5q0 117 53 186.5t142 69.5q54 0 97 -37q-34 87 -68 144l-85 -43l-8 -2q-4 0 -8 7l-11 23q-3 5 -3 8q0 4 8 8l84 41q-11 20 -30 51q-9 12 -9 16q0 5 12 7l39 7q2 1 5 1q12 0 43 -50l79 39q3 2 8 2
q3 0 7 -7l11 -22q2 -4 2 -8q0 -5 -7 -8l-75 -38q112 -186 112 -365zM368 244q0 187 -119 187q-117 0 -117 -183q0 -103 31 -155q26 -44 88 -44q59 0 85 42q32 52 32 153z" />
    <glyph glyph-name="Yacute" unicode="&#xdd;" horiz-adv-x="481" 
d="M438 829q0 -5 -10 -9l-176 -70q-5 -2 -9 -2q-5 0 -9 8l-9 16q-4 5 -4 10q0 4 9 9l159 97q5 4 9 4q5 0 10 -8l26 -45q4 -5 4 -10zM509 633q0 -12 -12 -12h-42l-170 -330v-226h70q12 0 12 -12v-41q0 -12 -12 -12h-223q-12 0 -12 12v41q0 12 12 12h71v224l-176 332h-38
q-12 0 -12 12v41q0 12 12 12h192q12 0 12 -12v-41q0 -12 -12 -12h-58l96 -197q15 -31 27 -62q10 27 27 63l92 196h-60q-12 0 -12 12v41q0 12 12 12h192q12 0 12 -12v-41z" />
    <glyph glyph-name="yacute" unicode="&#xfd;" horiz-adv-x="444" 
d="M407 645q0 -3 -9 -8l-164 -85q-8 -4 -10 -4q-4 0 -9 8l-10 15q-4 6 -4 10q0 3 8 9l145 111q7 5 10 5q4 0 10 -8l29 -42q4 -6 4 -11zM467 430q0 -12 -12 -12h-37l-102 -356q-36 -125 -67 -191q-39 -82 -120 -82q-37 0 -82 18t-45 32q0 3 2 6l20 40q2 5 7 5q3 0 7 -3
q52 -35 89 -35q50 0 77 85l20 63h-36q-9 0 -12 9l-145 409h-40q-12 0 -12 12v38q0 12 12 12h183q12 0 12 -12v-34q0 -12 -12 -12h-64l110 -321q8 -24 20 -72q9 41 16 70l84 323h-59q-12 0 -12 12v34q0 12 12 12h174q12 0 12 -12v-38z" />
    <glyph glyph-name="Thorn" unicode="&#xde;" 
d="M486 387q0 -134 -101 -185q-44 -22 -116 -22h-73v-115h75q12 0 12 -12v-41q0 -12 -12 -12h-220q-12 0 -12 12v41q0 12 12 12h63v556h-63q-12 0 -12 12v41q0 12 12 12h209q12 0 12 -12v-39q0 -12 -12 -12h-64v-54h87q90 0 128 -23q75 -46 75 -159zM402 385q0 83 -57 107
q-19 8 -71 8h-78v-248h66q66 0 96 23q44 34 44 110z" />
    <glyph glyph-name="thorn" unicode="&#xfe;" 
d="M449 250q0 -123 -44.5 -193.5t-121.5 -70.5q-57 0 -118 44v-170h63q12 0 12 -12v-38q0 -12 -12 -12h-196q-12 0 -12 12v38q0 12 12 12h58v795h-61q-12 0 -12 12v38q0 12 12 12h126q10 0 10 -11v-260q66 48 130 48q87 0 120.5 -68t33.5 -176zM368 248q0 87 -15 128
q-19 52 -72 52q-45 0 -116 -50v-282q63 -42 109 -42q51 0 72.5 44.5t21.5 149.5z" />
    <glyph glyph-name="minus" unicode="&#x2212;" 
d="M483 233q0 -14 -14 -14h-438q-14 0 -14 14v44q0 14 14 14h438q14 0 14 -14v-44z" />
    <glyph glyph-name="multiply" unicode="&#xd7;" 
d="M434 119q0 -3 -6 -9l-34 -34q-6 -6 -9 -6q-5 0 -10 6l-125 126l-125 -126q-5 -6 -9 -6q-5 0 -10 6l-34 34q-6 5 -6 9t6 10l126 125l-126 124q-6 6 -6 11q0 3 6 9l34 34q6 6 10 6q3 0 9 -6l125 -126l125 126q6 6 9 6q4 0 10 -6l34 -34q6 -6 6 -10q0 -2 -6 -10l-126 -124
l126 -125q6 -6 6 -10z" />
    <glyph glyph-name="onesuperior" unicode="&#xb9;" horiz-adv-x="352" 
d="M297 282q0 -15 -15 -15h-175q-15 0 -15 15v22q0 15 15 15h61v266l-82 -42q-4 -3 -11 -3q-4 0 -10 9l-8 12l-3 9q0 6 8 11l118 73h35q15 0 15 -15v-320h52q15 0 15 -15v-22z" />
    <glyph glyph-name="twosuperior" unicode="&#xb2;" horiz-adv-x="352" 
d="M298 285q0 -18 -19 -18h-206q-19 0 -19 18q0 59 22 102q25 48 91 91q38 24 50 39t12 37q0 51 -51 51q-40 0 -61 -54q-5 -13 -12 -12l-10 1l-27 7q-12 5 -12 14q0 26 27 58q35 42 98 42q53 0 85 -28.5t32 -76.5q0 -39 -20.5 -66.5t-76.5 -63.5q-67 -43 -76 -97h154
q19 0 19 -18v-26z" />
    <glyph glyph-name="threesuperior" unicode="&#xb3;" horiz-adv-x="352" 
d="M301 379q0 -54 -40 -86.5t-107 -32.5q-39 0 -76 10t-37 21q0 5 2 9l13 26q4 8 10 8q2 0 17 -6q32 -13 73 -13q79 0 79 66q0 64 -89 64h-23q-15 0 -15 15v23q0 15 15 15h23q78 0 78 63q0 50 -58 50q-33 0 -70 -33q-6 -5 -9 -5q-4 0 -9 3l-23 19q-5 3 -5 7q0 15 36.5 38
t81.5 23q53 0 86 -28t33 -73q0 -52 -53 -85q67 -29 67 -98z" />
    <glyph glyph-name="onehalf" unicode="&#xbd;" horiz-adv-x="833" 
d="M760 18q0 -18 -19 -18h-206q-19 0 -19 18q0 59 22 102q25 49 91 91q38 24 50 39t12 37q0 51 -51 51q-40 0 -61 -54q-5 -13 -12 -12t-10 1l-27 8q-12 4 -12 13q0 25 27 57q36 43 98 43q53 0 85 -28.5t32 -76.5q0 -39 -20.5 -66.5t-76.5 -63.5q-68 -44 -76 -97h154
q19 0 19 -18v-26zM580 652q0 -3 -3 -8l-272 -653q-4 -10 -19 -10h-37q-14 0 -14 7q0 2 3 9l272 653q4 10 15 10h42q13 0 13 -8zM302 282q0 -15 -15 -15h-175q-15 0 -15 15v22q0 15 15 15h61v266l-82 -42q-4 -3 -11 -3q-4 0 -10 9l-8 12l-3 9q0 6 8 11l118 73h35q15 0 15 -15
v-320h52q15 0 15 -15v-22z" />
    <glyph glyph-name="onequarter" unicode="&#xbc;" horiz-adv-x="834" 
d="M785 97q0 -15 -15 -15h-47v-75q0 -15 -15 -15h-32q-15 0 -15 15v75h-163q-15 0 -15 15v35l172 251q5 8 12 8q1 0 5 -1l33 -4q14 -2 14 -10q0 -5 -4 -11l-161 -231h107l7 87q1 14 16 14h24q15 0 15 -15v-86h47q15 0 15 -15v-22zM573 652q0 -3 -3 -8l-272 -653
q-4 -10 -19 -10h-38q-13 0 -13 7q0 4 2 9l272 653q4 10 16 10h41q14 0 14 -8zM291 282q0 -15 -15 -15h-175q-15 0 -15 15v22q0 15 15 15h61v266l-82 -42q-4 -3 -11 -3q-4 0 -10 9l-8 12l-3 9q0 6 8 11l118 73h35q15 0 15 -15v-320h52q15 0 15 -15v-22z" />
    <glyph glyph-name="threequarters" unicode="&#xbe;" horiz-adv-x="834" 
d="M786 97q0 -15 -15 -15h-46v-75q0 -15 -15 -15h-32q-15 0 -15 15v75h-163q-15 0 -15 15v35l172 251q5 8 12 8q1 0 5 -1l33 -4q14 -2 14 -10q0 -5 -4 -11l-161 -231h108l6 87q1 14 16 14h24q15 0 15 -15v-86h46q15 0 15 -15v-22zM601 652q0 -3 -2 -8l-273 -653
q-4 -10 -18 -10h-38q-13 0 -13 7q0 4 2 9l272 653q4 10 16 10h41q13 0 13 -8zM313 379q0 -54 -40 -86.5t-107 -32.5q-39 0 -76 10t-37 21q0 5 2 9l13 26q4 8 10 8q2 0 17 -6q32 -13 73 -13q79 0 79 66q0 64 -89 64h-23q-15 0 -15 15v23q0 15 15 15h23q78 0 78 63
q0 50 -58 50q-33 0 -70 -33q-6 -5 -9 -5q-4 0 -9 3l-23 19q-5 3 -5 7q0 15 36.5 38t81.5 23q53 0 86 -28t33 -73q0 -52 -53 -85q67 -29 67 -98z" />
    <glyph glyph-name="Lslash" unicode="&#x141;" horiz-adv-x="463" 
d="M482 149q0 -4 -1 -6l-48 -132q-4 -11 -15 -11h-367q-12 0 -12 12v41q0 12 12 12h63v215l-64 -43q-4 -3 -7 -3q-4 0 -4 7v48q0 10 9 16l66 44v272h-63q-12 0 -12 12v41q0 12 12 12h209q12 0 12 -12v-41q0 -12 -12 -12h-64v-231l143 94q5 3 6 3q4 0 4 -8v-47q0 -10 -9 -16
l-144 -96v-249h181l35 97q3 8 9 8q4 0 6 -1l47 -17q8 -3 8 -9z" />
    <glyph glyph-name="lslash" unicode="&#x142;" horiz-adv-x="278" 
d="M276 466q0 -10 -9 -16l-115 -78v-191q0 -77 2 -91q5 -38 41 -38q20 0 45 12q6 2 7 2q6 0 7 -7l12 -37q1 -3 2 -7q0 -8 -28.5 -16.5t-55.5 -8.5q-88 0 -103 70q-5 23 -5 123v153l-87 -59l-6 -2q-4 0 -4 6v42q0 11 9 17l88 58v257h-61q-12 0 -12 12v38q0 12 12 12h127
q10 0 10 -11v-271l114 77l6 2q4 0 4 -6v-42z" />
    <glyph glyph-name="HT" horiz-adv-x="206" 
 />
    <glyph glyph-name="nonmarkingreturn" horiz-adv-x="206" 
 />
    <glyph glyph-name="Zcaron" unicode="&#x17d;" horiz-adv-x="482" 
d="M389 839q0 -5 -7 -10l-109 -74q-12 -8 -18 -8q-7 0 -19 8l-108 74q-7 5 -7 11q0 4 4 9l12 16q6 6 9 6q7 0 11 -3l98 -52l98 52q5 3 10 3q4 0 10 -6l12 -16q4 -7 4 -10zM475 132q0 -1 -1 -5l-42 -115q-4 -12 -17 -12h-359q-14 0 -14 14v52l294 550h-200v-75q0 -12 -12 -12
h-45q-12 0 -12 12v130q0 15 15 15h336q14 0 14 -14v-48l-295 -553h239l29 81q3 8 9 8q4 0 6 -1l47 -17q8 -3 8 -10z" />
    <glyph glyph-name="zcaron" unicode="&#x17e;" horiz-adv-x="426" 
d="M353 664q0 -3 -7 -9l-111 -88q-5 -5 -9 -5q-3 0 -9 5l-111 88q-7 6 -7 9t5 10l13 18q4 5 8 5q3 0 9 -4l92 -59l92 59q6 4 9 4q5 0 10 -7l11 -16q5 -7 5 -10zM419 123l-1 -7l-43 -107q-4 -9 -14 -9h-312q-12 0 -12 12v40l254 366h-167v-71q0 -12 -12 -12h-42q-12 0 -12 12
v121q0 12 11 12h304q11 0 11 -12v-41l-249 -362h187l31 77q3 8 9 8q3 0 6 -1l43 -17q8 -3 8 -9z" />
    <glyph glyph-name="notequal" unicode="&#x2260;" horiz-adv-x="549" 
d="M501 139h-279l-117 -117l-39 40l77 77h-95v58h148l79 78h-227v58h279l117 117l40 -40l-78 -77h95v-58h-147l-79 -78h226v-58z" />
    <glyph glyph-name="infinity" unicode="&#x221e;" horiz-adv-x="713" 
d="M659 300q0 -75 -34 -127q-40 -59 -111 -59q-93 0 -148 124q-65 -124 -157 -124q-71 0 -115 58q-41 53 -41 126q0 75 35 127q39 59 111 59q91 0 148 -124q63 124 157 124q71 0 115 -58q40 -53 40 -126zM635 303q0 54 -29 88.5t-81 34.5q-77 0 -149 -162q46 -86 142 -86
q53 0 85 36t32 89zM336 334q-47 86 -141 86q-53 0 -85 -36t-32 -89q0 -51 28 -87t78 -36q51 0 95 59q23 32 57 103z" />
    <glyph glyph-name="lessequal" unicode="&#x2264;" horiz-adv-x="549" 
d="M503 127l-456 143v61l456 143v-64l-351 -110l351 -109v-64zM503 0h-457v62h457v-62z" />
    <glyph glyph-name="greaterequal" unicode="&#x2265;" horiz-adv-x="549" 
d="M503 270l-457 -143v64l351 109l-351 110v64l457 -143v-61zM503 0h-457v62h457v-62z" />
    <glyph glyph-name="mu" unicode="&#xb5;" horiz-adv-x="537" 
d="M513 12q0 -12 -12 -12h-87q-21 0 -36 47q-76 -61 -148 -61q-32 0 -63 10v-187q0 -11 -11 -11h-53q-11 0 -11 11v660q0 11 11 11h53q11 0 11 -11v-299q0 -66 15.5 -91t56.5 -25q66 0 126 52v363q0 11 11 11h53q11 0 11 -11v-336q0 -43 9 -71h52q12 0 12 -12v-38z" />
    <glyph glyph-name="mu" unicode="&#x3bc;" horiz-adv-x="537" 
d="M513 12q0 -12 -12 -12h-87q-21 0 -36 47q-76 -61 -148 -61q-32 0 -63 10v-187q0 -11 -11 -11h-53q-11 0 -11 11v660q0 11 11 11h53q11 0 11 -11v-299q0 -66 15.5 -91t56.5 -25q66 0 126 52v363q0 11 11 11h53q11 0 11 -11v-336q0 -43 9 -71h52q12 0 12 -12v-38z" />
    <glyph glyph-name="partialdiff" unicode="&#x2202;" horiz-adv-x="494" 
d="M436 367q0 -130 -47 -238q-61 -142 -175 -142q-74 0 -116 59q-36 51 -36 129q0 79 49 140q52 65 129 65q87 0 118 -93q12 45 12 148q0 167 -63 167q-17 0 -50 -35t-56 -35q-37 0 -37 32q0 34 36 54q30 17 66 17q93 0 137 -93q33 -71 33 -175zM341 224q0 125 -85 125
q-65 0 -97 -84q-23 -60 -23 -137q0 -119 84 -119q63 0 96 81q25 61 25 134z" />
    <glyph glyph-name="summation" unicode="&#x2211;" horiz-adv-x="713" 
d="M661 20q-10 -43 -53 -236h-572l398 436l-384 524h550l33 -230h-34q-33 108 -92.5 153t-171.5 45h-142l325 -446l-359 -394h212q109 0 158 25q61 30 97 123h35z" />
    <glyph glyph-name="product" unicode="&#x220f;" horiz-adv-x="823" 
d="M797 -216h-264v32h84v896h-407v-896h84v-32h-264v32h88v896h-88v32h767v-32h-88v-896h88v-32z" />
    <glyph glyph-name="pi" unicode="&#x3c0;" horiz-adv-x="549" 
d="M526 469q0 -51 -23 -70.5t-75 -20.5h-24q-4 -132 -4 -196v-86q6 -63 39 -63q39 0 51 43q7 24 7 75h25q0 -161 -106 -161q-66 0 -87 53q-16 40 -16 151q0 -6 4 184h-137q0 -227 -13 -294q-18 -94 -80 -94q-46 0 -61 48q-9 28 -9 86h24q1 -52 37 -52q45 0 62 75
q14 62 16 231h-22q-77 0 -87 -52h-23q4 74 46 101q34 22 113 22h254q66 0 66 22v1h23v-3z" />
    <glyph glyph-name="integral" unicode="&#x222b;" horiz-adv-x="274" 
d="M364 690q0 -48 -49 -48q-26 0 -43.5 37t-29.5 37q-38 0 -48 -109q-3 -31 -12 -309q-9 -272 -47 -362q-50 -117 -144 -117q-33 0 -57 17.5t-24 49.5q0 47 49 47q26 0 44 -36.5t30 -36.5q36 0 47 109q6 58 9 220q4 169 11 250q11 135 39 201q49 117 144 117q33 0 57 -17.5
t24 -49.5z" />
    <glyph glyph-name="Omega" unicode="&#x3a9;" horiz-adv-x="768" 
d="M718 408q0 -108 -72 -177q-65 -61 -176 -82v-59h123q50 0 67 17.5t21 68.5h23l-10 -176h-252v170q80 16 122 88q36 63 36 150q0 103 -56 170q-59 71 -160 71q-102 0 -161 -71q-55 -66 -55 -170q0 -88 36 -150q41 -72 122 -88v-170h-252l-10 176h23q3 -50 21 -68t67 -18
h123v59q-112 21 -176 82q-72 69 -72 177q0 131 105 204q91 63 229 63t229 -63q105 -73 105 -204z" />
    <glyph glyph-name="Omega" unicode="&#x2126;" horiz-adv-x="768" 
d="M718 408q0 -108 -72 -177q-65 -61 -176 -82v-59h123q50 0 67 17.5t21 68.5h23l-10 -176h-252v170q80 16 122 88q36 63 36 150q0 103 -56 170q-59 71 -160 71q-102 0 -161 -71q-55 -66 -55 -170q0 -88 36 -150q41 -72 122 -88v-170h-252l-10 176h23q3 -50 21 -68t67 -18
h123v59q-112 21 -176 82q-72 69 -72 177q0 131 105 204q91 63 229 63t229 -63q105 -73 105 -204z" />
    <glyph glyph-name="radical" unicode="&#x221a;" horiz-adv-x="549" 
d="M594 764h-57l-290 -784h-32l-156 431l-61 -22l-12 39l138 48l125 -346l252 681h93v-47z" />
    <glyph glyph-name="approxequal" unicode="&#x2248;" horiz-adv-x="549" 
d="M531 297q-81 -54 -146 -54q-34 0 -105.5 23.5t-109.5 23.5q-60 0 -152 -65v69q86 56 157 56q38 0 84 -14q29 -10 88 -28q21 -5 43 -5q54 0 141 63v-69zM531 178q-79 -54 -146 -54q-32 0 -105.5 23.5t-114.5 23.5q-55 0 -147 -65v69q89 57 158 57q35 0 84 -15l81 -25
q26 -8 49 -8q53 0 141 64v-70z" />
    <glyph glyph-name="approxequal" unicode="&#x22f2;" horiz-adv-x="549" 
d="M531 297q-81 -54 -146 -54q-34 0 -105.5 23.5t-109.5 23.5q-60 0 -152 -65v69q86 56 157 56q38 0 84 -14q29 -10 88 -28q21 -5 43 -5q54 0 141 63v-69zM531 178q-79 -54 -146 -54q-32 0 -105.5 23.5t-114.5 23.5q-55 0 -147 -65v69q89 57 158 57q35 0 84 -15l81 -25
q26 -8 49 -8q53 0 141 64v-70z" />
    <glyph glyph-name="Delta" unicode="&#x394;" horiz-adv-x="612" 
d="M595 0h-574l276 672h22zM471 32l-198 491l-201 -491h399z" />
    <glyph glyph-name="Delta" unicode="&#x2206;" horiz-adv-x="612" 
d="M595 0h-574l276 672h22zM471 32l-198 491l-201 -491h399z" />
    <glyph glyph-name="lozenge" unicode="&#x25ca;" horiz-adv-x="494" 
d="M491 289l-244 -522l-244 522l244 518zM435 289l-188 399l-188 -399l188 -403z" />
    <glyph glyph-name="fraction" unicode="&#x2044;" horiz-adv-x="130" 
d="M237 652q0 -1 -3 -8l-272 -653q-4 -10 -19 -10h-37q-14 0 -14 8q0 1 3 8l272 653q4 10 15 10h41q14 0 14 -8z" />
    <glyph glyph-name="fi" unicode="&#xf001;" horiz-adv-x="556" 
d="M480 655q0 -24 -17 -41t-41 -17q-25 0 -42 17t-17 42q0 24 17.5 41t42.5 17q23 0 40 -17.5t17 -41.5zM549 12q0 -12 -12 -12h-216q-12 0 -12 12v38q0 12 12 12h69v356h-212v-356h68q12 0 12 -12v-38q0 -12 -12 -12h-199q-12 0 -12 12v38q0 12 12 12h56v356h-66
q-12 0 -12 11v39q0 12 12 12h66v78q0 81 24 116q35 50 100 50q28 0 66 -12.5t38 -21.5l-1 -7l-17 -41q-4 -6 -8 -6q-3 0 -24 9q-33 15 -54 15q-24 0 -36.5 -19.5t-12.5 -83.5v-77h276q11 0 11 -12v-406h72q12 0 12 -12v-38z" />
    <glyph glyph-name="fl" unicode="&#xf002;" horiz-adv-x="556" 
d="M562 14q0 -8 -29 -16t-56 -8q-86 0 -102 70q-5 22 -5 123v452q-55 25 -121 25q-44 0 -57.5 -19.5t-13.5 -83.5v-77h131q11 0 11 -7q0 -5 -1 -6l-13 -40q-3 -9 -13 -9h-115v-356h71q12 0 12 -12v-38q0 -12 -12 -12h-202q-12 0 -12 12v38q0 12 12 12h56v356h-66
q-12 0 -12 11v39q0 12 12 12h66v78q0 81 29 116q41 50 127 50q68 0 111 -24l62 23q1 1 7 1t6 -11v-531q0 -69 3 -91q5 -38 40 -38q22 0 45 11q6 2 8 2q4 0 7 -6l12 -38q2 -4 2 -8z" />
    <glyph glyph-name="apple" unicode="&#xf000;" horiz-adv-x="790" 
d="M566 808q0 -52 -2 -62q-8 -42 -34 -68q-30 -30 -68 -53q-7 -4 -56 -9q-3 30 6 52.5t34 67.5q28 35 54 48q38 19 66 24zM733 213q-61 -131 -109 -174q-14 -12 -27 -24q-17 -11 -47 -16q-8 -1 -17 -1q-29 0 -55 12q-43 20 -69 20q-25 0 -69 -20q-27 -13 -53 -13q-9 0 -18 2
q-37 7 -63 30q-60 54 -109 160q-41 89 -41 190q0 23 3 41q20 108 86 160q51 40 132 40q27 0 69 -16t63 -16q22 0 47 11q36 14 42 16q18 5 44 5q81 0 132 -40q14 -11 38 -38q-47 -34 -67 -68q-27 -46 -26 -100q1 -56 33 -98q23 -31 43 -44q19 -9 38 -19z" />
    <glyph glyph-name="dotlessi" unicode="&#x131;" horiz-adv-x="278" 
d="M272 12q0 -12 -12 -12h-220q-12 0 -12 12v38q0 12 12 12h72v356h-80q-11 0 -11 11v39q0 12 11 12h144q11 0 11 -12v-406h73q12 0 12 -12v-38z" />
    <glyph glyph-name="breve" unicode="&#x2d8;" 
d="M379 665q0 -28 -29 -67q-34 -46 -100 -46q-77 0 -111 59q-18 31 -18 54q0 10 11 12l39 7h4q8 0 10 -10q14 -69 64 -69t65 69q2 10 11 10h4l39 -7q11 -2 11 -12z" />
    <glyph glyph-name="dotaccent" unicode="&#x2d9;" 
d="M309 628q0 -25 -17 -42t-42 -17t-42 17t-17 42t17.5 42t42.5 17q24 0 41 -17.5t17 -41.5z" />
    <glyph glyph-name="ring" unicode="&#x2da;" 
d="M339 626q0 -37 -26 -63t-63 -26t-63 26.5t-26 63.5t26.5 62.5t64.5 25.5q35 0 61 -26t26 -63zM291 626q0 18 -12.5 30.5t-29.5 12.5q-16 0 -28 -13t-12 -30q0 -18 12 -30.5t29 -12.5t29 12.5t12 30.5z" />
    <glyph glyph-name="hungarumlaut" unicode="&#x2dd;" 
d="M403 673q0 -4 -7 -10l-127 -112q-6 -5 -9 -5q-4 0 -10 6l-11 9q-6 8 -6 11t5 8l105 132q6 7 10 7t9 -5l34 -31q7 -6 7 -10zM267 673q0 -4 -7 -10l-127 -112q-6 -5 -9 -5t-10 6l-10 9q-7 6 -7 10t5 9l105 132q6 7 10 7t9 -5l34 -31q7 -6 7 -10z" />
    <glyph glyph-name="ogonek" unicode="&#x2db;" 
d="M456 -147q0 -10 -28 -21t-54 -11q-41 0 -65 21.5t-24 59.5q0 41 56 113l85 21q-82 -93 -82 -129q0 -34 34 -34q24 0 56 20q4 2 6 2q3 0 4 -6l10 -28q2 -6 2 -8z" />
    <glyph glyph-name="caron" unicode="&#x2c7;" 
d="M377 664q0 -3 -7 -9l-111 -88q-5 -5 -9 -5q-3 0 -9 5l-111 88q-7 6 -7 9t5 10l13 18q4 5 8 5q3 0 9 -4l92 -59l92 59q6 4 9 4q5 0 10 -7l11 -16q5 -7 5 -10z" />
    <glyph glyph-name="glyph249" horiz-adv-x="206" 
 />
    <glyph glyph-name="middot" unicode="&#xb7;" horiz-adv-x="257" 
d="M196 244q0 -28 -19.5 -47.5t-47.5 -19.5t-47.5 20t-19.5 48t19.5 47t48.5 19q27 0 46.5 -20t19.5 -47z" />
    <glyph glyph-name="sfthyphen" unicode="&#xad;" horiz-adv-x="352" 
d="M315 232q0 -14 -14 -14h-250q-14 0 -14 14v47q0 14 14 14h250q14 0 14 -14v-47z" />
    </font>
</defs>
</svg>
