<?xml version="1.0" encoding="UTF-8"?>
<svg width="120px" height="120px" viewBox="0 0 120 120" version="1.1" xmlns="http://www.w3.org/2000/svg" xmlns:xlink="http://www.w3.org/1999/xlink">
    <!-- Generator: Sketch 50.2 (55047) - http://www.bohemiancoding.com/sketch -->
    <title>chart</title>
    <desc>Created with Sketch.</desc>
    <defs></defs>
    <g id="Page-1" stroke="none" stroke-width="1" fill="none" fill-rule="evenodd">
        <g id="Custom-Preset">
            <g id="chart">
                <rect id="Rectangle-3" stroke="#FFFFFF" x="0.5" y="0.5" width="119" height="119"></rect>
                <g id="Group-4" transform="translate(15.000000, 16.000000)" stroke="#124191">
                    <polyline id="Stroke-9" stroke-width="2.4" points="91.6464844 87.9654665 0.232377199 87.9654665 0.232377199 0.696289062"></polyline>
                    <path d="M30,61.6018116 C30,61.6018116 40.0820312,56.5263672 40.0820312,56.5263672" id="Stroke-9" stroke-width="2.4"></path>
                    <path d="M53.1220703,56.7243652 L64.5849609,61.6289062" id="Stroke-9" stroke-width="2.4"></path>
                    <path d="M30,38.0754444 C30,38.0754444 33.141276,34.4256218 39.4238281,27.1259766" id="Stroke-9-Copy-2" stroke-width="2.4"></path>
                    <path d="M52,19.9494679 C52,19.9494679 56.1083984,18.1245566 64.3251953,14.4747339" id="Stroke-9-Copy-2" stroke-width="2.4"></path>
                    <circle id="Oval-10" stroke-width="2" cx="44.5" cy="21.5" r="7.5"></circle>
                    <circle id="Oval-10" stroke-width="2" cx="70.5" cy="10.5" r="7.5"></circle>
                    <circle id="Oval-10" stroke-width="2" cx="24.5" cy="42.5" r="7.5"></circle>
                    <circle id="Oval-10" stroke-width="2" cx="24.5" cy="66.5" r="7.5"></circle>
                    <circle id="Oval-10" stroke-width="2" cx="46.5" cy="54.5" r="7.5"></circle>
                    <circle id="Oval-10" stroke-width="2" cx="71.5" cy="63.5" r="7.5"></circle>
                </g>
            </g>
        </g>
    </g>
</svg>