<svg xmlns="http://www.w3.org/2000/svg" xmlns:xlink="http://www.w3.org/1999/xlink" width="40" height="40" viewBox="0 0 40 40">
  <defs>
    <path id="circlar-shape-copy-14-a" d="M11.2396154,2.07692308 C11.5667308,2.07692308 11.8211538,2.34951923 11.8211538,2.7 L11.8211538,2.7 L11.8211538,7.06153846 C11.8211538,8.07403846 12.4026923,8.69711538 13.3476923,8.69711538 L13.3476923,8.69711538 L17.4184615,8.69711538 C17.7455769,8.69711538 18,8.96971154 18,9.32019231 L18,9.32019231 L17.9995385,17.4799231 L16.2075385,19.5889231 L14.0707408,17.4642675 C13.3316924,16.7294699 12.1618906,16.690798 11.3775017,17.3482506 L11.2504788,17.4642717 L10.1818015,18.5268085 C10.1790759,18.5295184 10.1763581,18.5322362 10.1736482,18.5349618 C9.57138182,19.1407123 9.43705231,20.0353341 9.76936505,20.769956 L5.20615385,20.7692308 C4.26115385,20.7692308 3.46153846,19.9125 3.46153846,18.9 L3.46153846,18.9 L3.46153846,3.94615385 C3.46153846,2.93365385 4.26115385,2.07692308 5.20615385,2.07692308 L5.20615385,2.07692308 Z M13.9384615,13.8461538 L6.13846154,13.8461538 C5.80846154,13.8461538 5.53846154,14.0538462 5.53846154,14.3076923 L5.53846154,14.3076923 L5.53846154,14.7692308 C5.53846154,15.0230769 5.80846154,15.2307692 6.13846154,15.2307692 L6.13846154,15.2307692 L13.9384615,15.2307692 C14.2684615,15.2307692 14.5384615,15.0230769 14.5384615,14.7692308 L14.5384615,14.7692308 L14.5384615,14.3076923 C14.5384615,14.0538462 14.2684615,13.8461538 13.9384615,13.8461538 L13.9384615,13.8461538 Z M14.6606335,10.3846154 L6.10859729,10.3846154 C5.79502262,10.3846154 5.53846154,10.5923077 5.53846154,10.8461538 L5.53846154,10.8461538 L5.53846154,11.3076923 C5.53846154,11.5615385 5.79502262,11.7692308 6.10859729,11.7692308 L6.10859729,11.7692308 L14.6606335,11.7692308 C14.9742081,11.7692308 15.2307692,11.5615385 15.2307692,11.3076923 L15.2307692,11.3076923 L15.2307692,10.8461538 C15.2307692,10.5923077 14.9742081,10.3846154 14.6606335,10.3846154 L14.6606335,10.3846154 Z M7.39909914,3.52148906 C7.33990736,3.44155493 7.2215238,3.44155493 7.16233202,3.52148906 L7.16233202,3.52148906 L6.51122245,4.72050111 C6.51122245,4.74714583 6.45203067,4.77379054 6.42243478,4.77379054 L6.42243478,4.77379054 L4.97223617,4.96030352 C4.8834485,4.98694824 4.82425672,5.09352708 4.85385261,5.14681651 L4.85385261,5.14681651 L5.91930465,6.07938144 C5.94890054,6.10602615 5.94890054,6.15931557 5.94890054,6.18596029 L5.94890054,6.18596029 L5.71213342,7.49155118 C5.68253753,7.57148532 5.80092109,7.65141946 5.88970876,7.59813003 L5.88970876,7.59813003 L7.19192791,6.98530165 C7.2215238,6.95865694 7.28071558,6.95865694 7.31031147,6.98530165 L7.31031147,6.98530165 L8.61253063,7.59813003 C8.7013183,7.65141946 8.81970186,7.57148532 8.79010597,7.49155118 L8.79010597,7.49155118 L8.55333885,6.18596029 C8.55333885,6.13267086 8.55333885,6.10602615 8.58293474,6.07938144 L8.58293474,6.07938144 L9.64838678,5.14681651 C9.73717445,5.09352708 9.67798267,4.98694824 9.589195,4.96030352 L9.589195,4.96030352 L8.13899639,4.77379054 C8.1094005,4.77379054 8.07980461,4.74714583 8.05020872,4.72050111 L8.05020872,4.72050111 Z M23.7680725,14.0272742 C23.9590539,13.8319342 24.245526,13.8319342 24.4365075,14.0272742 L24.4365075,14.0272742 L25.7733775,15.3946537 C25.9643589,15.5899936 25.9643589,15.8830035 25.7733775,16.0783434 L25.7733775,16.0783434 L16.7017595,25.3569901 C16.3197966,25.74767 15.7468523,25.74767 15.3648894,25.3569901 L15.3648894,25.3569901 L10.8290804,20.7176668 C10.638099,20.5223268 10.638099,20.2293169 10.8290804,20.033977 L10.8290804,20.033977 L12.1659505,18.6665975 C12.3569319,18.4712576 12.643404,18.4712576 12.8343855,18.6665975 L12.8343855,18.6665975 L16.0333245,21.9385413 Z M14.6262645,2.07692308 C14.7256538,2.07692308 14.8581728,2.11557445 14.9244323,2.19287721 L14.9244323,2.19287721 L18.4361859,6.28992307 C18.5024454,6.36722582 18.5355751,6.52183132 18.5355751,6.63778545 C18.5355751,6.86969371 18.3699264,7.10160196 18.1711479,7.10160196 L18.1711479,7.10160196 L15.355119,7.10160196 C14.7587835,7.10160196 14.2287075,6.48317995 14.2287075,5.78745518 L14.2287075,5.78745518 L14.2287075,2.50208821 C14.2287075,2.27017996 14.427486,2.07692308 14.6262645,2.07692308 Z"/>
  </defs>
  <g fill="none" fill-rule="evenodd">
    <path fill="#005FB2" d="M20,40 C31.045695,40 40,31.045695 40,20 C40,17.2837039 39.4584981,14.6938823 38.4775554,12.3325966 C35.4695393,5.09182079 28.3293989,0 20,0 C8.954305,0 0,8.954305 0,20 C0,31.045695 8.954305,40 20,40 Z"/>
    <g transform="translate(6.154 6.154)">
      <mask id="circlar-shape-copy-14-b" fill="#fff">
        <use xlink:href="#circlar-shape-copy-14-a"/>
      </mask>
      <use fill="#FFF" xlink:href="#circlar-shape-copy-14-a"/>
      <g fill="#FFF" mask="url(#circlar-shape-copy-14-b)">
        <rect width="27.692" height="27.692"/>
      </g>
    </g>
  </g>
</svg>
