<svg xmlns="http://www.w3.org/2000/svg" xmlns:xlink="http://www.w3.org/1999/xlink" width="40" height="40" viewBox="0 0 40 40">
  <defs>
    <path id="circlar-shape-copy-10-a" d="M14.0024814,5.90769231 L17.9013047,5.90769231 C18.1865845,5.90769231 18.4243176,5.66754221 18.4243176,5.3793621 C18.4243176,5.23527205 18.376771,5.13921201 18.2816777,4.99512195 L13.4319219,0.144090056 C13.289282,0.0480300188 13.1941887,0 13.0515489,0 C12.7662691,0 12.528536,0.240150094 12.528536,0.528330206 L12.528536,4.41876173 C12.528536,5.23527205 13.1941887,5.90769231 14.0024814,5.90769231 Z M22.5976474,10.9795696 L22.1716365,10.5521642 C21.8876291,10.2672273 21.4616181,10.2672273 21.1302763,10.5521642 L15.4974644,16.2034133 C15.4501298,16.2509028 15.4974644,16.2983923 15.4974644,16.3458818 L15.4974644,17.533119 C15.4974644,17.6280979 15.4974644,17.7230769 15.5921335,17.7230769 L16.8228319,17.7230769 C16.8701664,17.7230769 16.917501,17.6755874 16.9648355,17.6755874 L22.5976474,12.0718279 C22.9289893,11.6919119 22.9289893,11.2645066 22.5976474,10.9795696 L22.5976474,10.9795696 Z M17.9969494,19.9384615 L14.6254892,19.9384615 C13.8657236,19.9384615 13.248414,19.3123746 13.248414,18.541806 L13.248414,15.9411371 C13.248414,15.5558528 13.3433847,15.1705686 13.6757821,14.9297659 L18.1868908,10.3545151 C18.3293469,10.2100334 18.4243176,10.0173913 18.4243176,9.82474916 L18.4243176,8.86153846 C18.4243176,8.47625418 18.0919201,8.13913043 17.7120373,8.13913043 L12.4886483,8.13913043 C11.2540291,8.13913043 10.304322,7.1277592 10.304322,5.92374582 L10.304322,0.722408027 C10.304322,0.337123746 9.97192448,0 9.54455629,0 L2.18432632,0 C0.997192448,0 0,1.01137124 0,2.21538462 L0,19.9384615 C0,21.1424749 0.997192448,22.1538462 2.18432632,22.1538462 L16.1450206,22.1538462 C17.1896984,22.1538462 18.1394055,21.3832776 18.3293469,20.3719064 C18.3768323,20.1792642 18.1868908,19.9384615 17.9969494,19.9384615 L17.9969494,19.9384615 Z M2.76923077,17.3076923 L11.7692308,17.3076923 L11.7692308,19.3846154 L2.76923077,19.3846154 L2.76923077,17.3076923 Z M2.76923077,13.8461538 L11.7692308,13.8461538 L11.7692308,15.9230769 L2.76923077,15.9230769 L2.76923077,13.8461538 Z"/>
  </defs>
  <g fill="none" fill-rule="evenodd">
    <path fill="#005FB2" d="M20,40 C31.045695,40 40,31.045695 40,20 C40,17.2837039 39.4584981,14.6938823 38.4775554,12.3325966 C35.4695393,5.09182079 28.3293989,0 20,0 C8.954305,0 0,8.954305 0,20 C0,31.045695 8.954305,40 20,40 Z"/>
    <g transform="translate(8.923 8.923)">
      <mask id="circlar-shape-copy-10-b" fill="#fff">
        <use xlink:href="#circlar-shape-copy-10-a"/>
      </mask>
      <use fill="#0079CC" xlink:href="#circlar-shape-copy-10-a"/>
      <g mask="url(#circlar-shape-copy-10-b)">
        <rect width="28.385" height="27.692" fill="#FFF" transform="translate(-2.77 -2.77)"/>
      </g>
    </g>
  </g>
</svg>
