<svg xmlns="http://www.w3.org/2000/svg" xmlns:xlink="http://www.w3.org/1999/xlink" width="40" height="40" viewBox="0 0 40 40">
  <defs>
    <path id="check_docusign_status-a" d="M14.1580645,5.97333333 L18.1002081,5.97333333 C18.3886576,5.97333333 18.6290323,5.73051491 18.6290323,5.43913279 C18.6290323,5.29344173 18.5809573,5.19631436 18.4848075,5.05062331 L13.5811655,0.145691057 C13.4369407,0.0485636856 13.3407908,0 13.1965661,0 C12.9081165,0 12.6677419,0.242818428 12.6677419,0.534200542 L12.6677419,4.46785908 C12.6677419,5.29344173 13.3407908,5.97333333 14.1580645,5.97333333 Z M9.65060692,0 C10.0827236,0 10.4188144,0.340869565 10.4188144,0.730434783 L10.4188144,0.730434783 L10.4188144,5.98956522 C10.4188144,7.20695652 11.3790738,8.22956522 12.627411,8.22956522 L12.627411,8.22956522 L17.9088377,8.22956522 C18.2929415,8.22956522 18.6290323,8.57043478 18.6290323,8.96 L18.6290323,8.96 L18.6290323,9.93391304 C18.6290323,9.9378882 18.6290123,9.9460616 18.6289727,9.9582619 L18.6280985,10.1721641 C18.6211934,11.7390392 18.5770999,20.4193789 18.5330063,20.5982609 C18.3409544,21.6208696 17.380695,22.4 16.3244097,22.4 L16.3244097,22.4 L2.20859661,22.4 C1.00827236,22.4 0,21.3773913 0,20.16 L0,20.16 L0,2.24 C0,1.0226087 1.00827236,0 2.20859661,0 L2.20859661,0 Z M16.6964286,12.699 C16.5678571,12.567 16.3535714,12.567 16.225,12.699 L16.225,12.699 L11.0178571,18.089 C10.9321429,18.177 10.7821429,18.177 10.6964286,18.089 L10.6964286,18.089 L8.03928571,15.339 C7.91071429,15.207 7.69642857,15.207 7.56785714,15.339 L7.56785714,15.339 L7.09642857,15.823 C6.96785714,15.955 6.96785714,16.175 7.09642857,16.307 L7.09642857,16.307 L10.6321429,19.959 C10.7607143,20.113 10.975,20.113 11.1035714,19.959 L11.1035714,19.959 L17.1678571,13.667 C17.2964286,13.535 17.2964286,13.315 17.1678571,13.183 L17.1678571,13.183 Z M2.84094043,1.88603516 L5.24479785,1.88603516 C5.78689041,1.88603516 6.2001187,1.9275061 6.48449512,2.01044922 C6.86662593,2.12301489 7.19395013,2.32296406 7.46647754,2.61030273 C7.73900494,2.89764141 7.94635964,3.24940384 8.08854785,3.66560059 C8.23073606,4.08179733 8.3018291,4.5950002 8.3018291,5.20522461 C8.3018291,5.74139265 8.23517938,6.20349741 8.10187793,6.59155273 C7.93895394,7.06551344 7.70642046,7.44911963 7.40427051,7.74238281 C7.17617692,7.96455189 6.86810708,8.13784117 6.48005176,8.26225586 C6.18975083,8.35408575 5.80170132,8.4 5.3158916,8.4 L2.84094043,8.4 L2.84094043,1.88603516 Z M4.1561748,7.30249023 L4.1561748,2.98798828 L4.7471416,2.98798828 C5.28330965,2.98798828 5.64321816,3.00872375 5.82687793,3.05019531 C6.07274504,3.10351589 6.27565643,3.20571214 6.43561816,3.35678711 C6.5955799,3.50786208 6.71999272,3.71817899 6.80886035,3.98774414 C6.89772798,4.25730929 6.94216113,4.64387769 6.94216113,5.14746094 C6.94216113,5.65104418 6.89772798,6.04872087 6.80886035,6.34050293 C6.71999272,6.63228499 6.60520708,6.84186134 6.4645,6.96923828 C6.32379292,7.09661522 6.14680087,7.18696262 5.93351855,7.2402832 C5.77059456,7.28175476 5.50547677,7.30249023 5.13815723,7.30249023 L4.1561748,7.30249023 Z"/>
  </defs>
  <g fill="none" fill-rule="evenodd">
    <path fill="#005FB2" d="M20,40 C31.045695,40 40,31.045695 40,20 C40,17.2837039 39.4584981,14.6938823 38.4775554,12.3325966 C35.4695393,5.09182079 28.3293989,0 20,0 C8.954305,0 0,8.954305 0,20 C0,31.045695 8.954305,40 20,40 Z"/>
    <use fill="#FFF" transform="translate(10.8 7.8)" xlink:href="#check_docusign_status-a"/>
  </g>
</svg>
