<svg xmlns="http://www.w3.org/2000/svg" xmlns:xlink="http://www.w3.org/1999/xlink" width="40" height="40" viewBox="0 0 40 40">
  <defs>
    <path id="expire-a" d="M16.64125,6.98374999 L0.90874997,6.98374999 C0.559999968,6.98374999 0.288749967,7.25499999 0.288749967,7.60374999 L0.288749967,16.71 C0.288749967,17.7175 1.10249997,18.53125 2.10999997,18.53125 L15.44,18.53125 C16.4475,18.53125 17.26125,17.7175 17.26125,16.71 L17.26125,7.60374999 C17.26125,7.25499999 16.99,6.98374999 16.64125,6.98374999 Z M5.69125001,15.47 C5.69125001,15.81875 5.42000001,16.09 5.07125001,16.09 L3.87,16.09 C3.52125,16.09 3.25,15.81875 3.25,15.47 L3.25,14.26875 C3.25,13.92 3.52125,13.64875 3.87,13.64875 L5.07125001,13.64875 C5.42000001,13.64875 5.69125001,13.92 5.69125001,14.26875 L5.69125001,15.47 Z M5.69125001,11.24625 C5.69125001,11.595 5.42000001,11.86625 5.07125001,11.86625 L3.87,11.86625 C3.52125,11.86625 3.25,11.595 3.25,11.24625 L3.25,10.045 C3.25,9.69625 3.52125,9.425 3.87,9.425 L5.07125001,9.425 C5.42000001,9.425 5.69125001,9.69625 5.69125001,10.045 L5.69125001,11.24625 Z M14.0625872,9.36334211 C14.2731125,9.50670107 14.4543171,9.68895308 14.5964604,9.90030111 L17.2624512,13.8642731 L17.2624512,17.4546661 L15.9739644,18.53125 L5.39995117,18.53125 L10.0664905,11.682525 C9.9547795,11.7966062 9.79796387,11.86625 9.62125001,11.86625 L8.42,11.86625 C8.07125,11.86625 7.8,11.595 7.8,11.24625 L7.8,10.045 C7.8,9.69625 8.07125,9.425 8.42,9.425 L9.62125001,9.425 C9.97000001,9.425 10.24125,9.69625 10.24125,10.045 L10.24125,11.24625 C10.24125,11.3383078 10.22235,11.4249656 10.1881135,11.5026598 L11.2837681,9.89075503 C11.9054767,8.97776427 13.1495964,8.74163346 14.0625872,9.36334211 Z M13.92875,2.13999997 L13.92875,1.51999997 C13.92875,0.861249967 13.38625,0.318749965 12.7275,0.318749965 C12.06875,0.318749965 11.52625,0.861249967 11.52625,1.51999997 L11.52625,2.13999997 L6.06249999,2.13999997 L6.06249999,1.51999997 C6.06249999,0.861249967 5.51999999,0.318749965 4.86124998,0.318749965 C4.20249998,0.318749965 3.65999998,0.861249967 3.65999998,1.51999997 L3.65999998,2.13999997 L2.10999997,2.13999997 C1.10249997,2.13999997 0.288749967,2.95374998 0.288749967,3.96124998 L0.288749967,4.58124998 C0.288749967,4.92999998 0.559999968,5.20124998 0.90874997,5.20124998 L16.68,5.20124998 C17.02875,5.20124998 17.3,4.92999998 17.3,4.58124998 L17.3,3.96124998 C17.26125,2.95374998 16.4475,2.13999997 15.44,2.13999997 L13.92875,2.13999997 Z"/>
    <path id="expire-b" d="M20.6202989,21.20625 L13.7441654,10.8210227 C13.383844,10.2596591 12.6031476,10.2596591 12.2428262,10.8210227 L5.36669271,21.20625 C4.94631773,21.8518182 5.36669271,22.75 6.11736231,22.75 L19.8696293,22.75 C20.6202989,22.75 21.0707007,21.8518182 20.6202989,21.20625 Z M12.675,20.8 C12.1225,20.8 11.7,20.3775 11.7,19.825 C11.7,19.2725 12.1225,18.85 12.675,18.85 C13.2275,18.85 13.65,19.2725 13.65,19.825 C13.65,20.3775 13.2275,20.8 12.675,20.8 Z M13.65,17.94 C13.65,18.096 13.52,18.2 13.325,18.2 L12.025,18.2 C11.83,18.2 11.7,18.096 11.7,17.94 L11.7,14.56 C11.7,14.404 11.83,14.3 12.025,14.3 L13.325,14.3 C13.52,14.3 13.65,14.404 13.65,14.56 L13.65,17.94 Z"/>
  </defs>
  <g fill="none" fill-rule="evenodd">
    <path fill="#005FB2" d="M20,40 C31.045695,40 40,31.045695 40,20 C40,17.2837039 39.4584981,14.6938823 38.4775554,12.3325966 C35.4695393,5.09182079 28.3293989,0 20,0 C8.954305,0 0,8.954305 0,20 C0,31.045695 8.954305,40 20,40 Z"/>
    <g transform="translate(9.404 7.454)">
      <use fill="#FFF" xlink:href="#expire-a"/>
      <use fill="#FFF" xlink:href="#expire-b"/>
    </g>
  </g>
</svg>
