<svg xmlns="http://www.w3.org/2000/svg" xmlns:xlink="http://www.w3.org/1999/xlink" width="40" height="40" viewBox="0 0 40 40">
  <defs>
    <path id="circlar-shape-copy-10-a" d="M9.3075,1.96153846 C9.61644231,1.96153846 9.85673077,2.20945513 9.85673077,2.52820513 L9.85673077,2.52820513 L9.85673077,6.49487179 C9.85673077,7.41570513 10.4059615,7.98237179 11.2984615,7.98237179 L11.2984615,7.98237179 L15.1430769,7.98237179 C15.4520192,7.98237179 15.6923077,8.23028846 15.6923077,8.54903846 L15.6923077,8.54903846 L15.691696,10.4619125 C14.6051601,10.4827324 13.7307692,11.370023 13.7307692,12.4615385 L13.7307692,12.4615385 L13.7305385,13.7305385 L12.4615385,13.7307692 C11.4071767,13.7307692 10.5433733,14.546647 10.4670242,15.5815069 L10.4615385,15.7307692 L10.4615385,18.9615385 L3.60923077,18.9615385 C2.76370445,18.9615385 2.04141274,18.262231 1.96772421,17.405663 L1.96153846,17.2615385 L1.96153846,3.66153846 C1.96153846,2.74070513 2.71673077,1.96153846 3.60923077,1.96153846 L3.60923077,1.96153846 Z M18.6153846,11.7692308 C19.1676694,11.7692308 19.6153846,12.216946 19.6153846,12.7692308 L19.6145385,16.3455385 L23.1923077,16.3461538 C23.7445924,16.3461538 24.1923077,16.7938691 24.1923077,17.3461538 L24.1923077,17.9615385 C24.1923077,18.5138232 23.7445924,18.9615385 23.1923077,18.9615385 L19.6145385,18.9615385 L19.6153846,23.1923077 C19.6153846,23.7445924 19.1676694,24.1923077 18.6153846,24.1923077 L18,24.1923077 C17.4477153,24.1923077 17,23.7445924 17,23.1923077 L16.9995385,18.9615385 L12.7692308,18.9615385 C12.216946,18.9615385 11.7692308,18.5138232 11.7692308,17.9615385 L11.7692308,17.3461538 C11.7692308,16.7938691 12.216946,16.3461538 12.7692308,16.3461538 L16.9995385,16.3455385 L17,12.7692308 C17,12.216946 17.4477153,11.7692308 18,11.7692308 L18.6153846,11.7692308 Z M12.1313609,1.96153846 C12.2218935,1.96153846 12.3426036,1.99674556 12.4029586,2.06715976 L12.4029586,2.06715976 L15.6017751,5.79911243 C15.6621302,5.86952663 15.6923077,6.01035503 15.6923077,6.11597633 C15.6923077,6.32721893 15.5414201,6.53846154 15.360355,6.53846154 L15.360355,6.53846154 L12.7952663,6.53846154 C12.252071,6.53846154 11.7692308,5.97514793 11.7692308,5.34142012 L11.7692308,5.34142012 L11.7692308,2.34881657 C11.7692308,2.13757396 11.9502959,1.96153846 12.1313609,1.96153846 Z"/>
  </defs>
  <g fill="none" fill-rule="evenodd">
    <circle cx="20" cy="20" r="20" fill="#005FB2"/>
    <g transform="translate(6.923 6.923)">
      <mask id="circlar-shape-copy-10-b" fill="#fff">
        <use xlink:href="#circlar-shape-copy-10-a"/>
      </mask>
      <use fill="#FFF" xlink:href="#circlar-shape-copy-10-a"/>
      <g fill="#FFF" mask="url(#circlar-shape-copy-10-b)">
        <rect width="26.154" height="26.154"/>
      </g>
    </g>
  </g>
</svg>
