<svg xmlns="http://www.w3.org/2000/svg" xmlns:xlink="http://www.w3.org/1999/xlink" width="40" height="40" viewBox="0 0 40 40">
  <defs>
    <path id="in_effect_40-a" d="M24.9230769,13.8252268 C24.934358,19.9282656 19.9572059,24.9187862 13.8541839,24.9230769 C11.2182805,24.92495 8.79708162,24.0060996 6.89439841,22.4704689 C6.3996445,22.071163 6.3626619,21.3296777 6.81225952,20.8800788 L7.31549978,20.3768372 C7.70002054,19.9923154 8.31389594,19.9502409 8.73991046,20.2882216 C10.1417207,21.4006059 11.9157687,22.0645525 13.8461442,22.0645525 C18.3887954,22.0645525 22.0644994,18.3881238 22.0644994,13.8461747 C22.0644994,9.30351109 18.3880808,5.62779696 13.8461442,5.62779696 C11.6658682,5.62779696 9.68564661,6.47504918 8.21532034,7.85801456 L10.4822464,10.1249469 C10.9324694,10.5751711 10.6136061,11.3449293 9.97695157,11.3449293 L3.48387035,11.3449293 C3.08916598,11.3449293 2.76923077,11.0249932 2.76923077,10.6302878 L2.76923077,4.13718869 C2.76923077,3.5005324 3.53898693,3.18166827 3.98920986,3.63184778 L6.19440894,5.83705293 C8.18302757,3.93659774 10.8782461,2.76923077 13.8461442,2.76923077 C19.9567593,2.76923077 24.9117575,7.71723018 24.9230769,13.8252268 Z M17.3672784,17.5833928 L17.7849732,17.0155616 C18.1310183,16.5451563 18.0508641,15.8672207 17.6059551,15.5013899 L15.8752621,14.0781253 L15.8752621,9.38670649 C15.8752621,8.79077595 15.4183619,8.30769231 14.8547311,8.30769231 L14.1743771,8.30769231 C13.6107464,8.30769231 13.1538462,8.79077595 13.1538462,9.38670649 L13.1538462,15.4854295 L15.9351758,17.7726698 C16.3800848,18.1385006 17.0212333,18.053798 17.3672784,17.5833928 L17.3672784,17.5833928 Z"/>
  </defs>
  <g fill="none" fill-rule="evenodd">
    <path fill="#706E6B" d="M20,40 C31.045695,40 40,31.045695 40,20 C40,17.2837039 39.4584981,14.6938823 38.4775554,12.3325966 C35.4695393,5.09182079 28.3293989,0 20,0 C8.954305,0 0,8.954305 0,20 C0,31.045695 8.954305,40 20,40 Z"/>
    <g transform="translate(6.154 6.154)">
      <mask id="in_effect_40-b" fill="#fff">
        <use xlink:href="#in_effect_40-a"/>
      </mask>
      <use fill="#0070D2" fill-rule="nonzero" xlink:href="#in_effect_40-a"/>
      <g fill="#FFF" mask="url(#in_effect_40-b)">
        <rect width="27.692" height="27.692"/>
      </g>
    </g>
  </g>
</svg>
