<svg xmlns="http://www.w3.org/2000/svg" xmlns:xlink="http://www.w3.org/1999/xlink" width="40" height="40" viewBox="0 0 40 40">
  <defs>
    <path id="markassigned-a" d="M13.1467742,5.54666667 L16.8073361,5.54666667 C17.0751821,5.54666667 17.2983871,5.32119241 17.2983871,5.05062331 C17.2983871,4.91533875 17.2537461,4.82514905 17.1644641,4.6898645 L12.6110822,0.135284553 C12.4771592,0.0450948509 12.3878772,0 12.2539542,0 C11.9861082,0 11.7629032,0.225474255 11.7629032,0.49604336 L11.7629032,4.14872629 C11.7629032,4.91533875 12.3878772,5.54666667 13.1467742,5.54666667 Z M8.96127785,0 C9.3625291,0 9.6746134,0.316521739 9.6746134,0.67826087 L9.6746134,0.67826087 L9.6746134,5.56173913 C9.6746134,6.69217391 10.5662828,7.64173913 11.7254531,7.64173913 L11.7254531,7.64173913 L16.629635,7.64173913 C16.9863028,7.64173913 17.2983871,7.95826087 17.2983871,8.32 L17.2983871,8.32 L17.2981483,9.29684164 C17.2965681,9.69835978 17.2872583,11.650517 17.2736543,13.7108583 L17.2672543,14.640446 C17.2531801,16.5977703 17.2356955,18.4574584 17.2177458,18.9827855 L17.2120655,19.1028803 L17.2120655,19.1028803 L17.2092202,19.1269565 C17.0308863,20.0765217 16.1392168,20.8 15.1583804,20.8 L15.1583804,20.8 L2.05083971,20.8 C0.93625291,20.8 0,19.8504348 0,18.72 L0,18.72 L0,2.08 C0,0.949565217 0.93625291,0 2.05083971,0 L2.05083971,0 Z M8.28677399,13.6683823 C7.77044617,13.7582237 7.52281872,13.9975409 6.8031408,14.9269517 L6.48417056,15.3375049 L6.31811174,15.5395675 L6.26633675,15.5993455 C5.77092344,16.1635377 5.66885439,16.1803409 5.52311517,15.9356105 C5.38079517,15.6966217 5.0628804,15.6132418 4.81303265,15.7493762 C4.5631849,15.8855107 4.47601644,16.1896081 4.61833643,16.4285968 C5.20745331,17.4178626 6.16823655,17.259693 7.06367173,16.2399433 L7.18210443,16.1014672 L7.30714426,15.9478123 L7.72156329,15.4156962 L7.954322,15.1268758 C8.2076296,14.8221186 8.35211291,14.6879451 8.44810698,14.6548802 L8.4731303,14.6483171 C8.46621207,14.6495209 8.47689416,14.6549712 8.56100683,14.76961 C8.71162058,14.9748844 8.87149587,15.3422446 9.03183276,15.8813828 L9.07993888,16.0482873 C9.81050024,18.6617343 11.2685272,18.9357441 12.6023461,16.6438288 C13.0907474,15.9270641 13.9266959,16.0503264 15.3814483,17.3002539 C15.5953615,17.4840487 15.9245374,17.4671698 16.1166833,17.2625539 C16.3088292,17.057938 16.2911834,16.7430689 16.0772703,16.5592741 C14.2143237,14.9586249 12.6623288,14.7297801 11.7108902,16.1302391 L11.5288841,16.4341276 L11.4078861,16.6236976 C10.8058553,17.5343822 10.5517757,17.3768981 10.1574117,16.0404976 L10.085871,15.7910015 C9.6534828,14.2442134 9.12408679,13.5226893 8.28677399,13.6683823 Z"/>
  </defs>
  <g fill="none" fill-rule="evenodd">
    <path fill="#005FB2" d="M20,40 C31.045695,40 40,31.045695 40,20 C40,17.2837039 39.4584981,14.6938823 38.4775554,12.3325966 C35.4695393,5.09182079 28.3293989,0 20,0 C8.954305,0 0,8.954305 0,20 C0,31.045695 8.954305,40 20,40 Z"/>
    <g transform="translate(10.704 8.754)">
      <mask id="markassigned-b" fill="#fff">
        <use xlink:href="#markassigned-a"/>
      </mask>
      <use fill="#FFF" fill-rule="nonzero" xlink:href="#markassigned-a"/>
      <g mask="url(#markassigned-b)">
        <rect width="26.65" height="26" fill="#FFF" transform="translate(-2.6 -2.6)"/>
      </g>
    </g>
  </g>
</svg>
