<svg xmlns="http://www.w3.org/2000/svg" xmlns:xlink="http://www.w3.org/1999/xlink" width="40" height="40" viewBox="0 0 40 40">
  <defs>
    <path id="circlar-shape-copy-10-a" d="M20.9996639,21.1127219 C18.3156402,19.8186391 16.3984804,17.5180473 15.4399005,14.8819527 C15.0564686,13.9233728 14.8168236,12.8210059 14.7209656,11.862426 L14.7209656,10.1849112 L19.897297,10.1849112 C20.2807289,10.1849112 20.5683029,9.7535503 20.2807289,9.32218935 L13.4748118,1.17426036 C13.2351668,0.886686391 12.7079479,0.886686391 12.5162319,1.17426036 L5.90203072,9.32218935 C5.66238574,9.60976331 5.90203072,10.1849112 6.28546267,10.1849112 L11.509723,10.1849112 L11.509723,11.862426 C11.365936,12.8689349 11.1262911,13.9713018 10.7907881,14.8819527 C9.83220823,17.5180473 7.91504847,19.8186391 5.2310248,21.1127219 C4.84759285,21.2565089 4.70380586,21.7357988 4.84759285,22.0713018 L5.47066977,23.5571006 C5.66238574,23.9405325 6.09374669,24.0843195 6.47717864,23.8446746 C9.35291829,22.4547337 11.65351,20.25 13.0434508,17.6139053 C14.4813207,20.25 16.7339834,22.4547337 19.657652,23.8446746 C20.041084,24.0363905 20.5203739,23.9884615 20.6641609,23.5571006 L21.2872378,22.0713018 C21.5748118,21.7357988 21.3830958,21.3044379 20.9996639,21.1127219 Z"/>
  </defs>
  <g fill="none" fill-rule="evenodd">
    <path fill="#005FB2" d="M20,40 C31.045695,40 40,31.045695 40,20 C40,17.2837039 39.4584981,14.6938823 38.4775554,12.3325966 C35.4695393,5.09182079 28.3293989,0 20,0 C8.954305,0 0,8.954305 0,20 C0,31.045695 8.954305,40 20,40 Z"/>
    <g transform="rotate(90 12.462 20)">
      <mask id="circlar-shape-copy-10-b" fill="#fff">
        <use xlink:href="#circlar-shape-copy-10-a"/>
      </mask>
      <use fill="#706E6B" xlink:href="#circlar-shape-copy-10-a"/>
      <g mask="url(#circlar-shape-copy-10-b)">
        <rect width="26.84" height="26.84" fill="#FFF" transform="translate(-.959 -.959)"/>
      </g>
    </g>
  </g>
</svg>
