<svg xmlns="http://www.w3.org/2000/svg" xmlns:xlink="http://www.w3.org/1999/xlink" width="40" height="40" viewBox="0 0 40 40">
  <defs>
    <path id="circlar-shape-copy-13-a" d="M23.06034,7.04600225 C21.0034325,2.88842328 16.7145615,0 11.7692308,0 C6.8239,0 2.53502907,2.88842328 0.478121581,7.04600225 C0.346829614,7.30858618 0.346829614,7.6149341 0.478121581,7.83375405 C2.53502907,11.991333 6.8239,14.8797563 11.7692308,14.8797563 C16.7145615,14.8797563 21.0034325,11.991333 23.06034,7.83375405 C23.1916319,7.57117011 23.1916319,7.30858618 23.06034,7.04600225 Z M11.7692308,12.2539169 C9.09962743,12.2539169 6.95519197,10.1094815 6.95519197,7.43987815 C6.95519197,4.77027481 9.09962743,2.62583935 11.7692308,2.62583935 C14.4388341,2.62583935 16.5832696,4.77027481 16.5832696,7.43987815 C16.5832696,10.1094815 14.4388341,12.2539169 11.7692308,12.2539169 Z M11.7692308,4.37639891 C10.0624352,4.37639891 8.70575153,5.73308257 8.70575153,7.43987815 C8.70575153,9.14667372 10.0624352,10.5033574 11.7692308,10.5033574 C13.4760263,10.5033574 14.83271,9.14667372 14.83271,7.43987815 C14.83271,5.73308257 13.4760263,4.37639891 11.7692308,4.37639891 L11.7692308,4.37639891 Z"/>
  </defs>
  <g fill="none" fill-rule="evenodd">
    <path fill="#005FB2" d="M20,40 C31.045695,40 40,31.045695 40,20 C40,17.2837039 39.4584981,14.6938823 38.4775554,12.3325966 C35.4695393,5.09182079 28.3293989,0 20,0 C8.954305,0 0,8.954305 0,20 C0,31.045695 8.954305,40 20,40 Z"/>
    <use fill="#FFF" transform="translate(8.23 13.077)" xlink:href="#circlar-shape-copy-13-a"/>
  </g>
</svg>
