<svg xmlns="http://www.w3.org/2000/svg" xmlns:xlink="http://www.w3.org/1999/xlink" width="40" height="40" viewBox="0 0 40 40">
  <defs>
    <path id="circlar-shape-copy-10-a" d="M5.44615385,13.8461538 C5.11615385,13.8461538 4.84615385,14.0538462 4.84615385,14.3076923 L4.84615385,14.3076923 L4.84615385,14.7692308 C4.84615385,15.0230769 5.11615385,15.2307692 5.44615385,15.2307692 L5.44615385,15.2307692 L10.1348185,15.2310925 C10.072258,15.4248645 10.0384615,15.6315624 10.0384615,15.8461538 L10.0384615,15.8461538 L10.0382308,19.3846154 L4.51384615,19.3846154 C3.61609615,19.3846154 2.84955577,18.6400529 2.77514611,17.729656 L2.76923077,17.5846154 L2.76923077,3.18461538 C2.76923077,2.20961538 3.56884615,1.38461538 4.51384615,1.38461538 L4.51384615,1.38461538 L10.5473077,1.38461538 C10.8744231,1.38461538 11.1288462,1.64711538 11.1288462,1.98461538 L11.1288462,1.98461538 L11.1288462,6.18461538 C11.1288462,7.15961538 11.7103846,7.75961538 12.6553846,7.75961538 L12.6553846,7.75961538 L16.7261538,7.75961538 C17.0532692,7.75961538 17.3076923,8.02211538 17.3076923,8.35961538 L17.3076923,8.35961538 L17.3079926,14.0921983 C17.0226027,13.9353623 16.6947961,13.8461538 16.3461538,13.8461538 L16.3461538,13.8461538 Z M13.9683258,10.3846154 L5.41628959,10.3846154 C5.10271493,10.3846154 4.84615385,10.5923077 4.84615385,10.8461538 L4.84615385,10.8461538 L4.84615385,11.3076923 C4.84615385,11.5615385 5.10271493,11.7692308 5.41628959,11.7692308 L5.41628959,11.7692308 L13.9683258,11.7692308 C14.2819005,11.7692308 14.5384615,11.5615385 14.5384615,11.3076923 L14.5384615,11.3076923 L14.5384615,10.8461538 C14.5384615,10.5923077 14.2819005,10.3846154 13.9683258,10.3846154 L13.9683258,10.3846154 Z M6.70679145,3.52148906 C6.64759967,3.44155493 6.52921611,3.44155493 6.47002433,3.52148906 L6.47002433,3.52148906 L5.81891475,4.72050111 C5.81891475,4.74714583 5.75972297,4.77379054 5.73012708,4.77379054 L5.73012708,4.77379054 L4.27992848,4.96030352 C4.19114081,4.98694824 4.13194903,5.09352708 4.16154492,5.14681651 L4.16154492,5.14681651 L5.22699696,6.07938144 C5.25659285,6.10602615 5.25659285,6.15931557 5.25659285,6.18596029 L5.25659285,6.18596029 L5.01982573,7.49155118 C4.99022984,7.57148532 5.1086134,7.65141946 5.19740107,7.59813003 L5.19740107,7.59813003 L6.49962022,6.98530165 C6.52921611,6.95865694 6.58840789,6.95865694 6.61800378,6.98530165 L6.61800378,6.98530165 L7.92022294,7.59813003 C8.00901061,7.65141946 8.12739417,7.57148532 8.09779828,7.49155118 L8.09779828,7.49155118 L7.86103116,6.18596029 C7.86103116,6.13267086 7.86103116,6.10602615 7.89062705,6.07938144 L7.89062705,6.07938144 L8.95607908,5.14681651 C9.04486675,5.09352708 8.98567497,4.98694824 8.8968873,4.96030352 L8.8968873,4.96030352 L7.4466887,4.77379054 C7.41709281,4.77379054 7.38749692,4.74714583 7.35790103,4.72050111 L7.35790103,4.72050111 Z M13.827154,16.0603185 C14.0124027,15.8773297 14.2902758,15.8773297 14.4755245,16.0603185 L14.4755245,16.0603185 L17.6865022,19.293121 C17.8717509,19.4761098 17.8717509,19.750593 17.6865022,19.9335818 L17.6865022,19.9335818 L17.0381317,20.5740427 C16.8837578,20.7570315 16.5750099,20.7570315 16.3897612,20.5740427 L16.3897612,20.5740427 L15.5870168,19.7810912 C15.3708933,19.5981023 15.0312706,19.7200949 15.0312706,19.9945781 L15.0312706,19.9945781 L15.0312706,24.0203321 C15.0312706,24.2643172 15.2473941,24.4778041 15.4943924,24.4778041 L15.4943924,24.4778041 L18.8906188,24.4778041 C19.1376171,24.4778041 19.3537406,24.6912911 19.3846154,24.9352762 L19.3846154,24.9352762 L19.3846154,25.8502203 C19.3846154,26.0942054 19.1684919,26.3076923 18.9214936,26.3076923 L18.9214936,26.3076923 L14.4446497,26.3076923 C13.7654044,26.3076923 13.1787835,25.7587259 13.1787835,25.0877669 L13.1787835,25.0877669 L13.1787835,19.96408 C13.1787835,19.6895967 12.8391608,19.5676042 12.6539121,19.750593 L12.6539121,19.750593 L11.8202929,20.5740427 C11.6350442,20.7570315 11.3571711,20.7570315 11.1719224,20.5740427 L11.1719224,20.5740427 L10.5235519,19.9335818 C10.3383032,19.750593 10.3383032,19.4761098 10.5235519,19.293121 L10.5235519,19.293121 Z M22.2774939,15.2307692 C22.9608416,15.2307692 23.5199442,15.7797357 23.5199442,16.4506947 L23.5199442,16.4506947 L23.5199442,21.5438834 C23.5199442,21.8183667 23.8305568,21.9708573 24.0479857,21.7573704 L24.0479857,21.7573704 L24.8866397,20.9339207 C25.0730072,20.7509319 25.3525586,20.7509319 25.5389261,20.9339207 L25.5389261,20.9339207 L26.1912126,21.5743816 C26.3465189,21.7573704 26.3465189,22.0623517 26.1912126,22.2453406 L26.1912126,22.2453406 L22.8987191,25.478143 C22.7123515,25.6611318 22.4328002,25.6611318 22.2464326,25.478143 L22.2464326,25.478143 L18.9850003,22.2758387 C18.7986328,22.0928499 18.7986328,21.8183667 18.9850003,21.6353778 L18.9850003,21.6353778 L19.6372868,20.9644188 C19.7925931,20.78143 20.1032057,20.78143 20.2895732,20.9644188 L20.2895732,20.9644188 L21.097166,21.7573704 C21.3145948,21.9403592 21.6562687,21.8183667 21.6562687,21.5438834 L21.6562687,21.5438834 L21.6562687,17.5181294 C21.6562687,17.2741444 21.4388398,17.0606574 21.1903498,17.0606574 L21.1903498,17.0606574 L17.7736112,17.0606574 C17.5251211,17.0606574 17.3076923,16.8471705 17.3076923,16.6031854 L17.3076923,16.6031854 L17.3076923,15.6882413 C17.3076923,15.4442562 17.5251211,15.2307692 17.7736112,15.2307692 L17.7736112,15.2307692 Z M13.5372781,1.38461538 C13.6331361,1.38461538 13.7609467,1.42189349 13.8248521,1.4964497 L13.8248521,1.4964497 L17.2118343,5.44792899 C17.2757396,5.52248521 17.3076923,5.67159763 17.3076923,5.78343195 C17.3076923,6.00710059 17.147929,6.23076923 16.956213,6.23076923 L16.956213,6.23076923 L14.2402367,6.23076923 C13.6650888,6.23076923 13.1538462,5.63431953 13.1538462,4.96331361 L13.1538462,4.96331361 L13.1538462,1.79467456 C13.1538462,1.57100592 13.3455621,1.38461538 13.5372781,1.38461538 Z"/>
  </defs>
  <g fill="none" fill-rule="evenodd">
    <path fill="#005FB2" d="M20,40 C31.045695,40 40,31.045695 40,20 C40,17.2837039 39.4584981,14.6938823 38.4775554,12.3325966 C35.4695393,5.09182079 28.3293989,0 20,0 C8.954305,0 0,8.954305 0,20 C0,31.045695 8.954305,40 20,40 Z"/>
    <g transform="translate(6.154 6.154)">
      <mask id="circlar-shape-copy-10-b" fill="#fff">
        <use xlink:href="#circlar-shape-copy-10-a"/>
      </mask>
      <use fill="#FFF" xlink:href="#circlar-shape-copy-10-a"/>
      <g fill="#FFF" mask="url(#circlar-shape-copy-10-b)">
        <rect width="27.692" height="27.692"/>
      </g>
    </g>
  </g>
</svg>
