<svg xmlns="http://www.w3.org/2000/svg" xmlns:xlink="http://www.w3.org/1999/xlink" width="40" height="40" viewBox="0 0 40 40">
  <defs>
    <path id="circlar-shape-copy-14-a" d="M9.70858788,17.8481306 C9.3448329,14.2473975 12.3761244,11.2215714 15.9530484,11.5846706 C18.590272,11.8267366 20.712176,13.8842984 21.075931,16.4865088 C21.2881214,18.0296802 20.8637406,19.4820767 20.0452919,20.6318906 L20.0452919,20.6318906 L24.1072225,24.6562393 C24.2587871,24.8377889 24.2587871,25.1403715 24.0769096,25.3219211 L24.0769096,25.3219211 L23.4403384,25.9573446 C23.2584609,26.1388941 22.9856447,26.1388941 22.8037672,25.9573446 L22.8037672,25.9573446 L18.7721495,21.9329958 C17.6202587,22.7499689 16.1652388,23.1735845 14.6192801,22.9617767 C12.0123694,22.5986776 9.9510912,20.450341 9.70858788,17.8481306 Z M15.5635194,13.6319683 C13.4678128,13.6319683 11.7558271,15.343954 11.7558271,17.4396606 C11.7558271,19.5648842 13.4678128,21.2473529 15.5635194,21.2473529 C17.659226,21.2473529 19.3712117,19.5353672 19.3712117,17.4396606 C19.3712117,15.343954 17.659226,13.6319683 15.5635194,13.6319683 Z M9.855,2.07692308 C10.1821154,2.07692308 10.4365385,2.33942308 10.4365385,2.67692308 L10.4365385,2.67692308 L10.4365385,6.87692308 C10.4365385,7.85192308 11.0180769,8.45192308 11.9630769,8.45192308 L11.9630769,8.45192308 L16.0338462,8.45192308 C16.3609615,8.45192308 16.6153846,8.71442308 16.6153846,9.05192308 L16.6153846,9.05192308 L16.6156129,10.2467532 C16.2719546,10.1964722 15.9206555,10.1704298 15.5635194,10.1704298 C11.5626249,10.1704298 8.29428863,13.4387661 8.29428863,17.4396606 C8.29428863,18.3733984 8.46739544,19.2623672 8.78269953,20.0777181 L3.82153846,20.0769231 C2.87653846,20.0769231 2.07692308,19.2519231 2.07692308,18.2769231 L2.07692308,18.2769231 L2.07692308,3.87692308 C2.07692308,2.90192308 2.87653846,2.07692308 3.82153846,2.07692308 L3.82153846,2.07692308 Z M16.5195266,6.14023669 L13.1325444,2.1887574 C13.0686391,2.11420118 12.9408284,2.07692308 12.8449704,2.07692308 C12.6532544,2.07692308 12.4615385,2.26331361 12.4615385,2.48698225 L12.4615385,5.6556213 C12.4615385,6.32662722 12.9727811,6.92307692 13.547929,6.92307692 L16.2639053,6.92307692 C16.4556213,6.92307692 16.6153846,6.69940828 16.6153846,6.47573964 C16.6153846,6.36390533 16.583432,6.2147929 16.5195266,6.14023669 L16.5195266,6.14023669 Z"/>
  </defs>
  <g fill="none" fill-rule="evenodd">
    <path fill="#005FB2" d="M20,40 C31.045695,40 40,31.045695 40,20 C40,17.2837039 39.4584981,14.6938823 38.4775554,12.3325966 C35.4695393,5.09182079 28.3293989,0 20,0 C8.954305,0 0,8.954305 0,20 C0,31.045695 8.954305,40 20,40 Z"/>
    <g transform="translate(6.154 6.154)">
      <mask id="circlar-shape-copy-14-b" fill="#fff">
        <use xlink:href="#circlar-shape-copy-14-a"/>
      </mask>
      <use fill="#FFF" xlink:href="#circlar-shape-copy-14-a"/>
      <g fill="#FFF" mask="url(#circlar-shape-copy-14-b)">
        <rect width="27.692" height="27.692"/>
      </g>
    </g>
  </g>
</svg>
