<svg xmlns="http://www.w3.org/2000/svg" xmlns:xlink="http://www.w3.org/1999/xlink" width="40" height="40" viewBox="0 0 40 40">
  <defs>
    <path id="circlar-shape-copy-11-a" d="M11.0497145,9.69230769 C11.0497145,10.0566802 10.8048371,10.3846154 10.5327511,10.3846154 L5.36311723,10.3846154 C5.09103124,10.3846154 4.84615385,10.0566802 4.84615385,9.69230769 L4.84615385,9 C4.84615385,8.63562753 5.09103124,8.30769231 5.36311723,8.30769231 L10.5599597,8.30769231 C10.8320457,8.30769231 11.0769231,8.63562753 11.0769231,9 L11.0769231,9.69230769 L11.0497145,9.69230769 Z M4.84615385,5.53846154 C4.84615385,5.17408907 5.19986564,4.84615385 5.59287874,4.84615385 L13.099429,4.84615385 C13.4924421,4.84615385 13.8461538,5.17408907 13.8461538,5.53846154 L13.8461538,6.23076923 C13.8461538,6.5951417 13.4924421,6.92307692 13.099429,6.92307692 L5.59287874,6.92307692 C5.19986564,6.92307692 4.84615385,6.5951417 4.84615385,6.23076923 L4.84615385,5.53846154 L4.84615385,5.53846154 Z M16.4310247,2.07692308 C17.6998955,2.07692308 18.7308531,3.06322445 18.6912009,4.23919916 L18.6912009,4.23919916 L18.6909231,14.9869231 L11.0354293,12.2678578 C10.9083513,12.222724 10.7739095,12.2039138 10.6402115,12.2120216 L10.5070616,12.2291242 C9.9652349,12.3360927 9.61271269,12.8620451 9.7196812,13.4038718 L9.7196812,13.4038718 L10.7629231,18.6919231 L4.3370993,18.6923077 C3.16132494,18.6923077 2.16694635,17.7899072 2.08270128,16.6822785 L2.07692308,16.5300316 L2.07692308,4.23919916 C2.07692308,3.06322445 3.10788065,2.07692308 4.37675151,2.07692308 L4.37675151,2.07692308 Z M11.1072115,25.0328876 L12.4399038,20.2855365 L18.0735577,20.2855365 C18.225,20.2855365 18.3764423,20.1399123 18.3764423,19.994288 L18.3764423,19.4117909 C18.3764423,19.2661667 18.225,19.1205424 18.0735577,19.1205424 L12.4399038,19.1205424 L11.1375,14.4605659 C11.1072115,14.4023162 11.0769231,14.3149417 11.0769231,14.2275671 C11.0769231,14.0236931 11.2889423,13.8198192 11.53125,13.848944 C11.5918269,13.848944 11.6221154,13.8780689 11.6826923,13.8780689 L25.3125,19.2661667 C25.4942308,19.3244164 25.6153846,19.4991655 25.6153846,19.6739146 C25.6153846,19.8486637 25.4942308,19.994288 25.3427885,20.0525377 L11.6826923,25.5862598 C11.6221154,25.6153846 11.5615385,25.6153846 11.5009615,25.6153846 C11.2586538,25.5862598 11.0769231,25.4115106 11.0769231,25.1785118 C11.0769231,25.1202621 11.0769231,25.0911373 11.1072115,25.0328876 Z"/>
  </defs>
  <g fill="none" fill-rule="evenodd">
    <path fill="#005FB2" d="M20,40 C31.045695,40 40,31.045695 40,20 C40,17.2837039 39.4584981,14.6938823 38.4775554,12.3325966 C35.4695393,5.09182079 28.3293989,0 20,0 C8.954305,0 0,8.954305 0,20 C0,31.045695 8.954305,40 20,40 Z"/>
    <g transform="translate(6.154 6.154)">
      <mask id="circlar-shape-copy-11-b" fill="#fff">
        <use xlink:href="#circlar-shape-copy-11-a"/>
      </mask>
      <use fill="#FFF" xlink:href="#circlar-shape-copy-11-a"/>
      <g fill="#FFF" mask="url(#circlar-shape-copy-11-b)">
        <rect width="27.692" height="27.692"/>
      </g>
    </g>
  </g>
</svg>
