<svg xmlns="http://www.w3.org/2000/svg" xmlns:xlink="http://www.w3.org/1999/xlink" width="40" height="40" viewBox="0 0 40 40">
  <defs>
    <path id="circlar-shape-copy-10-a" d="M15.685903,13.0354534 L19.3839231,16.7339231 L23.0833278,13.0354534 C23.4738521,12.6449292 24.107017,12.6449292 24.4975413,13.0354534 L25.0414696,13.5793817 C25.4319939,13.969906 25.4319939,14.603071 25.0414696,14.9935953 L21.3419231,18.6919231 L25.0414696,22.3910201 C25.4319939,22.7815444 25.4319939,23.4147094 25.0414696,23.8052336 L24.4975413,24.3491619 C24.107017,24.7396862 23.4738521,24.7396862 23.0833278,24.3491619 L19.3839231,20.6499231 L15.685903,24.3491619 C15.2953787,24.7396862 14.6622137,24.7396862 14.2716894,24.3491619 L13.7277611,23.8052336 C13.3372368,23.4147094 13.3372368,22.7815444 13.7277611,22.3910201 L17.4259231,18.6919231 L13.7277611,14.9935953 C13.3372368,14.603071 13.3372368,13.969906 13.7277611,13.5793817 L14.2716894,13.0354534 C14.6622137,12.6449292 15.2953787,12.6449292 15.685903,13.0354534 Z M9.855,2.07692308 C10.1821154,2.07692308 10.4365385,2.33942308 10.4365385,2.67692308 L10.4365385,2.67692308 L10.4365385,6.87692308 C10.4365385,7.85192308 11.0180769,8.45192308 11.9630769,8.45192308 L11.9630769,8.45192308 L16.0338462,8.45192308 C16.3609615,8.45192308 16.6153846,8.71442308 16.6153846,9.05192308 L16.6153846,9.05192308 L16.6149231,12.3519231 L15.6091173,11.3466797 C15.2486333,10.9861958 14.6814023,10.9584662 14.289111,11.2634911 L14.1949037,11.3466797 L13.8459231,11.6939231 L13.8461538,11.5384615 C13.8461538,11.3128205 13.6434389,11.1236467 13.3781576,11.0843938 L13.2760181,11.0769231 L4.7239819,11.0769231 C4.41040724,11.0769231 4.15384615,11.2846154 4.15384615,11.5384615 L4.15384615,11.5384615 L4.15384615,12 C4.15384615,12.2538462 4.41040724,12.4615385 4.7239819,12.4615385 L4.7239819,12.4615385 L13.0789231,12.4609231 L11.6928336,13.8487499 C11.5018993,14.0396842 11.4043161,14.2886195 11.4000842,14.5388403 L4.75384615,14.5384615 C4.42384615,14.5384615 4.15384615,14.7461538 4.15384615,15 L4.15384615,15 L4.15384615,15.4615385 C4.15384615,15.7153846 4.42384615,15.9230769 4.75384615,15.9230769 L4.75384615,15.9230769 L12.3519231,15.9229231 L14.0829231,17.6539231 L12.8894758,18.8480866 C12.5460595,19.1915029 12.3536387,19.6287357 12.3122132,20.0772853 L3.82153846,20.0769231 C2.87653846,20.0769231 2.07692308,19.2519231 2.07692308,18.2769231 L2.07692308,18.2769231 L2.07692308,3.87692308 C2.07692308,2.90192308 2.87653846,2.07692308 3.82153846,2.07692308 L3.82153846,2.07692308 Z M6.01448376,4.21379676 C5.95529198,4.13386262 5.83690842,4.13386262 5.77771664,4.21379676 L5.77771664,4.21379676 L5.12660706,5.41280881 C5.12660706,5.43945352 5.06741528,5.46609823 5.03781939,5.46609823 L5.03781939,5.46609823 L3.58762079,5.65261122 C3.49883312,5.67925593 3.43964134,5.78583478 3.46923723,5.8391242 L3.46923723,5.8391242 L4.53468926,6.77168913 C4.56428515,6.79833384 4.56428515,6.85162327 4.56428515,6.87826798 L4.56428515,6.87826798 L4.32751804,8.18385888 C4.29792215,8.26379301 4.4163057,8.34372715 4.50509337,8.29043772 L4.50509337,8.29043772 L5.80731253,7.67760934 C5.83690842,7.65096463 5.8961002,7.65096463 5.92569609,7.67760934 L5.92569609,7.67760934 L7.22791524,8.29043772 C7.31670291,8.34372715 7.43508647,8.26379301 7.40549058,8.18385888 L7.40549058,8.18385888 L7.16872346,6.87826798 C7.16872346,6.82497855 7.16872346,6.79833384 7.19831935,6.77168913 L7.19831935,6.77168913 L8.26377139,5.8391242 C8.35255906,5.78583478 8.29336728,5.67925593 8.20457961,5.65261122 L8.20457961,5.65261122 L6.75438101,5.46609823 C6.72478512,5.46609823 6.69518923,5.43945352 6.66559334,5.41280881 L6.66559334,5.41280881 Z M16.5195266,6.14023669 L13.1325444,2.1887574 C13.0686391,2.11420118 12.9408284,2.07692308 12.8449704,2.07692308 C12.6532544,2.07692308 12.4615385,2.26331361 12.4615385,2.48698225 L12.4615385,5.6556213 C12.4615385,6.32662722 12.9727811,6.92307692 13.547929,6.92307692 L16.2639053,6.92307692 C16.4556213,6.92307692 16.6153846,6.69940828 16.6153846,6.47573964 C16.6153846,6.36390533 16.583432,6.2147929 16.5195266,6.14023669 L16.5195266,6.14023669 Z"/>
  </defs>
  <g fill="none" fill-rule="evenodd">
    <path fill="#005FB2" d="M20,40 C31.045695,40 40,31.045695 40,20 C40,17.2837039 39.4584981,14.6938823 38.4775554,12.3325966 C35.4695393,5.09182079 28.3293989,0 20,0 C8.954305,0 0,8.954305 0,20 C0,31.045695 8.954305,40 20,40 Z"/>
    <g transform="translate(6.154 6.154)">
      <mask id="circlar-shape-copy-10-b" fill="#fff">
        <use xlink:href="#circlar-shape-copy-10-a"/>
      </mask>
      <use fill="#FFF" xlink:href="#circlar-shape-copy-10-a"/>
      <g fill="#FFF" mask="url(#circlar-shape-copy-10-b)">
        <rect width="27.692" height="27.692"/>
      </g>
    </g>
  </g>
</svg>
