<svg xmlns="http://www.w3.org/2000/svg" xmlns:xlink="http://www.w3.org/1999/xlink" width="40" height="40" viewBox="0 0 40 40">
  <defs>
    <path id="hierachy_40-a" d="M12.5653846,12.5653846 L6.71538462,12.5653846 C6.36923077,12.5653846 6.05769231,12.8423077 6.05769231,13.1884615 L6.05769231,18.1730769 L4.11923077,18.1730769 C3.77307692,18.1730769 3.46153846,18.4846154 3.46153846,18.8307692 L3.46153846,23.5730769 C3.46153846,23.9192308 3.77307692,24.2307692 4.11923077,24.2307692 L10.5923077,24.2307692 C10.9384615,24.2307692 11.25,23.9192308 11.25,23.5730769 L11.25,18.8307692 C11.25,18.4846154 10.9384615,18.1730769 10.5923077,18.1730769 L8.65384615,18.1730769 L8.65384615,15.1615385 L19.0384615,15.1615385 L19.0384615,18.1730769 L17.1,18.1730769 C16.7538462,18.1730769 16.4423077,18.4846154 16.4423077,18.8307692 L16.4423077,23.5730769 C16.4423077,23.9192308 16.7538462,24.2307692 17.1,24.2307692 L23.6076923,24.2307692 C23.9538462,24.2307692 24.2307692,23.9192308 24.2307692,23.5730769 L24.2307692,18.8307692 C24.2307692,18.4846154 23.9538462,18.1730769 23.6076923,18.1730769 L21.6346154,18.1730769 L21.6346154,13.1884615 C21.6346154,12.8423077 21.3230769,12.5653846 20.9769231,12.5653846 L15.1615385,12.5653846 L15.1615385,9.51923077 L17.1,9.51923077 C17.4461538,9.51923077 17.7230769,9.20769231 17.7230769,8.86153846 L17.7230769,4.11923077 C17.7230769,3.77307692 17.4461538,3.46153846 17.1,3.46153846 L10.5923077,3.46153846 C10.2461538,3.46153846 9.93461538,3.77307692 9.93461538,4.11923077 L9.93461538,8.86153846 C9.93461538,9.20769231 10.2461538,9.51923077 10.5923077,9.51923077 L12.5653846,9.51923077 L12.5653846,12.5653846 L12.5653846,12.5653846 Z"/>
  </defs>
  <g fill="none" fill-rule="evenodd">
    <path fill="#706E6B" d="M20,40 C31.045695,40 40,31.045695 40,20 C40,17.2837039 39.4584981,14.6938823 38.4775554,12.3325966 C35.4695393,5.09182079 28.3293989,0 20,0 C8.954305,0 0,8.954305 0,20 C0,31.045695 8.954305,40 20,40 Z"/>
    <use fill="#FFF" transform="translate(6.154 6.154)" xlink:href="#hierachy_40-a"/>
  </g>
</svg>
