<?xml version="1.0" standalone="no"?>
<!DOCTYPE svg PUBLIC "-//W3C//DTD SVG 1.1//EN" "http://www.w3.org/Graphics/SVG/1.1/DTD/svg11.dtd" >
<svg xmlns="http://www.w3.org/2000/svg">
<metadata></metadata>
<defs>
<font id="icomoonregular" horiz-adv-x="2048" >
<font-face units-per-em="2048" ascent="1920" descent="-128" />
<missing-glyph horiz-adv-x="1024" />
<glyph unicode=" " horiz-adv-x="1024" d="M0 0z" />
<glyph unicode="&#xa0;" horiz-adv-x="1024" d="M0 0z" />
<glyph unicode="&#x2000;" horiz-adv-x="962" />
<glyph unicode="&#x2001;" horiz-adv-x="1924" />
<glyph unicode="&#x2002;" horiz-adv-x="962" />
<glyph unicode="&#x2003;" horiz-adv-x="1924" />
<glyph unicode="&#x2004;" horiz-adv-x="641" />
<glyph unicode="&#x2005;" horiz-adv-x="481" />
<glyph unicode="&#x2006;" horiz-adv-x="320" />
<glyph unicode="&#x2007;" horiz-adv-x="320" />
<glyph unicode="&#x2008;" horiz-adv-x="240" />
<glyph unicode="&#x2009;" horiz-adv-x="384" />
<glyph unicode="&#x200a;" horiz-adv-x="106" />
<glyph unicode="&#x202f;" horiz-adv-x="384" />
<glyph unicode="&#x205f;" horiz-adv-x="481" />
<glyph unicode="&#x25fc;" horiz-adv-x="1000" d="M0 0z" />
<glyph unicode="&#xe000;" d="M1884 1756l-6 4q81 -78 122.5 -179.5t41.5 -210.5q0 -228 -164 -392l-92 -92q-3 68 -28 140q-24 70 -68 128l8 8q88 88 88 212q0 122 -88 210t-210 88q-124 0 -212 -88l-938 -938q-88 -88 -88 -210q0 -124 88 -212t212 -88q122 0 210 88l576 574q24 24 24 60t-24 60 t-60 24t-60 -24l-362 -360q-37 -40 -88 -40t-88 40q-40 37 -40 88t40 88l360 362q100 100 242 100t242 -100t100 -242t-100 -242l-576 -576q-78 -78 -180 -119t-210 -41q-226 0 -392 160q-160 166 -160 392q0 108 41 210t119 180l938 938q164 164 392 164q109 0 210.5 -41.5 t179.5 -122.5z" />
<glyph unicode="&#xe001;" d="M1440 1920l4 -2q51 0 90 -36q36 -39 36 -90v-1878q0 -13 -6 -22q-6 -13 -20 -16h-4h-4h-4h-4q-4 0 -16 4q-3 1 -8 4t-8 4l-438 438l-438 -438q-2 -2 -10 -6q-12 -6 -24 -6q-10 0 -14 2q-11 3 -18 16q-8 12 -8 22v1878q0 52 38 90q36 36 88 36h768z" />
<glyph unicode="&#xe002;" d="M1942 444l2 -4q14 -8 28 -26q10 -17 10 -38q-9 -90 -42 -170q-37 -83 -92 -138q-62 -62 -154 -96q-87 -32 -196 -32q-220 0 -470 122q-262 128 -484 350q-166 166 -280.5 356t-163.5 374q-50 176 -27 332t121 254q54 54 144 86q70 25 176 36q19 0 36 -10q14 -11 24 -28 l260 -474q1 -1 2 -4t2 -4t2 -4t2 -4q0 -8 2 -10v-12q0 -18 -6 -30q-4 -10 -20 -26l-202 -200q-18 -18 -18 -40q-3 -25 8 -44q46 -73 98 -140q58 -74 116 -132q68 -68 132 -118q67 -52 140 -98q19 -11 44 -8q22 0 40 18l202 184q8 10 24 20q11 8 30 8q6 0 10 -2q2 -1 6 -2 t6 -2t5.5 -2t4.5 -2l4 -2z" />
<glyph unicode="&#xe003;" d="M1952 1464h2q17 -105 22 -184q6 -96 6 -188q0 -91 -6 -184q-6 -87 -22 -182q-14 -112 -124 -208q-107 -94 -226 -106q-80 -8 -232 -16q-156 -8 -232 -8l-408 -394q-11 -11 -22 -14q-16 -4 -24 -4h-8q-4 0 -6 2q-2 0 -6.5 1t-7.5 1q-19 8 -30 26q-12 15 -12 38v350 q-26 2 -82 6q-6 0 -84 6q-117 12 -226 108t-130 212q-12 87 -18 180q-8 124 -8 184q0 62 8 190q6 89 18 184q21 116 130 212t226 108q144 15 288 24q128 8 288 8t288 -8q144 -9 288 -24q117 -12 226 -108q110 -99 124 -212z" />
<glyph unicode="&#xe004;" d="M1024 1920l-2 -2q153 0 290.5 -60.5t241.5 -169.5q104 -110 162 -253.5t58 -302.5q0 -219 -100 -434q-94 -201 -211 -372t-229 -288l-100 -106q-69 -63 -116 -60q-47 0 -112 62q-32 36 -98 106q-111 118 -218 274q-318 449 -318 820q0 159 58 302.5t162 253.5 q104 109 241.5 169.5t290.5 60.5zM1022 812q148 0 252 104t104 252t-104 252t-252 104t-252 -104t-104 -252t104 -252t252 -104z" />
<glyph unicode="&#xe005;" d="M952 928l-2 4l668 -706q15 -15 18 -34q4 -22 -4 -40q-8 -19 -26 -30q-15 -12 -38 -12h-530q-12 0 -28 8q-17 7 -24 14l-698 750q-16 22 -16 46t16 46l698 750q9 12 24 18q12 6 28 6h530q21 0 38 -10q18 -14 26 -28q1 -1 2 -4t2 -4q0 -6 2 -8v-8v-8q0 -8 -4 -24 q-3 -11 -14 -22z" />
<glyph unicode="&#xe006;" d="M1756 972l2 -4q20 -20 20 -46t-20 -46l-696 -750q-6 -6 -22 -14q-20 -8 -30 -8h-530q-23 0 -38 12q-18 11 -26 30q-2 2 -2 8q-2 2 -2 8q-2 2 -2 8v8q0 8 4 24q3 11 12 20l668 706l-668 704q-13 17 -16 36q-3 23 4 40q8 14 26 28q17 10 38 10h530q15 0 30 -6q14 -7 22 -18 z" />
<glyph unicode="&#xe007;" d="M1744 1332l-404 -404l404 -406q29 -26 32 -60q3 -36 -16 -58q-56 -70 -98 -112t-112 -98q-22 -19 -58 -16q-31 3 -62 30l-404 406l-406 -406q-25 -25 -60 -28q-38 -3 -60 16q-63 53 -108 98t-98 108q-19 22 -16 60q3 33 30 60l406 406l-404 404q-29 29 -32 62 q-3 36 16 58q56 70 98 112q45 45 108 98q22 19 60 16q34 -3 60 -32l406 -386l404 386q29 29 62 32q36 3 58 -16q70 -56 112 -98t98 -112q19 -22 16 -58q-3 -33 -32 -62z" />
<glyph unicode="&#xe008;" d="M1762 1366h-2q12 -24 12 -48t-12 -48q-94 -164 -210 -320q-216 -290 -384 -458q-46 -48 -76 -78q-27 -24 -68 -24t-68 24q-30 30 -76 78q-71 71 -170 188q-259 302 -424 590q-12 24 -12 48t12 48q11 23 36 38q25 14 46 14h6q7 1 21 2t31 2q60 3 148 6q203 10 452 10 q164 0 242 -2q186 -5 358 -14q17 -1 31 -2t21 -2h6q22 0 46 -14q23 -17 34 -38z" />
<glyph unicode="&#xe009;" d="M974 672l-2 -2q-3 2 -64 56q-79 70 -140 134q-219 219 -354 420q-12 15 -12 40q-3 21 6 42q11 19 30 32q18 12 40 12h278q18 110 52 250q29 118 52 158q22 34 60 52q39 18 100 18t100 -18q38 -18 60 -52q21 -45 50 -154q23 -84 54 -252h278q24 0 42 -12q19 -13 30 -32 q8 -19 8 -42q-3 -27 -14 -40q-85 -122 -174 -226q-182 -208 -320 -328q-61 -54 -64 -56q-12 -9 -24 -12q-16 -4 -24 -4t-24 4q-12 3 -24 12zM1712 858h332q0 -205 -12 -358q-22 -279 -52 -412q-12 -54 -12 -58q-15 -55 -62 -90q-45 -36 -104 -36h-1564q-24 0 -54 10 q-55 20 -86 64q-6 8 -9.5 14t-6 10.5t-5 14t-4 15.5t-5 24t-6.5 30q-9 40 -26 156q-38 287 -38 616h332q0 -194 14 -372q9 -121 26 -242h1302q16 119 26 244q14 178 14 370z" />
<glyph unicode="&#xe00a;" d="M2040 -4l-4 2q11 -26 8 -50q-3 -23 -24 -44q-15 -15 -30 -24q-13 -8 -34 -8h-8q-6 0 -8 2q-6 0 -8 2q-6 0 -8 2q-206 74 -358 124l-366 120q-8 4 -10 6q-8 4 -10 6q-12 6 -20 14l-1128 1134q-27 27 -30 60q-3 36 16 66q39 61 104 144q54 69 116 128q59 59 136 120 q70 55 152 104q37 17 68 14q35 -3 60 -28l1128 -1134l8 -8q10 -13 12 -22q1 -2 2 -6t2 -6q20 -62 60 -182q18 -60 58 -180q66 -210 116 -356zM1556 214l8 10l152 152l-24 72q-32 92 -48 140q-8 22 -24 70l-1054 1066q-34 -26 -56 -46q-9 -8 -28 -24t-28 -24l1020 -1020 q28 -34 28 -70q-3 -39 -34 -70q-15 -15 -30 -24q-13 -8 -34 -8q-20 0 -38 6q-24 8 -36 20l-1024 1026q-28 -28 -52 -58q-16 -20 -44 -64l1054 -1058q33 -12 72 -24q48 -16 148 -48z" />
<glyph unicode="&#xe00b;" d="M1056 554q79 0 148 20q76 22 132 64l676 518v-952q0 -20 -18 -42q-17 -21 -42 -24q-217 -33 -446 -48q-240 -16 -450 -16t-450 16q-223 15 -450 48q-22 3 -40 24q-16 19 -16 42v952l676 -518q56 -42 132 -64q69 -20 148 -20zM1952 1650h12q26 -3 42 -22q18 -22 18 -44 v-98q-5 -23 -20 -46q-25 -37 -56 -66l-728 -550q-33 -24 -72 -36t-84 -12t-84 12t-72 36l-728 550q-26 24 -54 66q-18 27 -22 46v98q0 25 16 44t40 22q227 33 448 48q240 16 450 16t450 -16q225 -15 444 -48z" />
<glyph unicode="&#xe00c;" d="M886 964h274v-274h-274v274zM1296 554h274v-274h-274v274zM1296 964h274v-274h-274v274zM886 554h274v-274h-274v274zM1898 1640l-8 -10q35 -9 60 -34q22 -28 22 -64v-1492q0 -37 -22 -62q-24 -27 -60 -36q-7 0 -70 -12q-46 -8 -180 -26q-321 -38 -624 -38 q-191 0 -350 12q-290 22 -452 52q-66 12 -72 12q-37 9 -58 36q-24 24 -24 62v1492q0 37 24 64q22 25 58 34q1 0 2.5 0.5t5.5 1.5l8 2q17 4 40 6q25 5 136 20v-92q0 -73 56 -122q49 -46 126 -46q-21 21 -32 46q-12 24 -12 56v274q0 56 42 98q40 40 96 40q55 0 98 -40 q40 -43 40 -98v-74q11 1 33 2t33 2q22 0 67 1t69 1h70h36h34h34h32v-134q0 -73 56 -122q49 -46 126 -46q-21 21 -32 46q-12 24 -12 56v274q0 56 42 98q40 40 96 40q55 0 98 -40q40 -43 40 -98v-96q84 -9 234 -30q42 -9 66 -12q7 -1 13.5 -2t10 -1.5t4.5 -0.5zM1766 116h-2 v974h-1502v-974q138 -22 292 -36q235 -22 460 -22t460 22q154 14 292 36zM466 544h274v-274h-274v274z" />
<glyph unicode="&#xe00d;" d="M2042 1142h-2q8 -19 8 -42q-3 -25 -14 -44q-49 -95 -168 -220q-138 -145 -278 -264q44 -175 72 -328q27 -148 36 -264q0 -28 -12 -52q-13 -25 -36 -40q-11 -8 -26 -12q-20 -4 -30 -4q-8 0 -12 2q-8 0 -12 2q-8 0 -12 2q-2 1 -6 2t-6 2q-5 3 -14 8t-14 8q-18 10 -58 30 q-26 10 -32 14q-56 26 -184 90q-102 51 -222 126q-128 -80 -220 -126q-102 -51 -186 -90q-10 -6 -30 -14q-10 -6 -30 -14q-4 -2 -58 -32q-26 -13 -50 -10q-26 0 -52 16q-23 15 -36 40q-12 24 -12 52q9 116 36 264q28 153 72 328q-140 119 -278 264q-119 125 -168 220 q-12 21 -12 44q-3 21 6 42q11 25 22 36q11 14 34 24q72 32 252 48q102 9 352 22q82 229 136 354q85 197 152 264q12 12 36 24q16 8 38 8t38 -8t32 -24q67 -67 152 -264q54 -125 136 -354q250 -13 352 -22q180 -16 252 -48q21 -9 36 -24q10 -12 20 -36z" />
<glyph unicode="&#xe00e;" d="M1500 346l4 2q77 -55 100 -106q10 -22 36 -138q2 -4 2 -12v-12q-4 -16 -10 -22l-8 -8q-1 -1 -4 -3t-4 -3q-16 -8 -24 -8q-1 0 -4 -0.5t-9.5 -1.5t-14.5 -2q-57 -6 -92 -8q-172 -12 -444 -12q-274 0 -446 12q-31 2 -90 8q-8 1 -15 2l-10.5 1.5t-4.5 0.5q-8 0 -12 2 q-11 3 -20 12l-8 8q-2 2 -6 10q-4 12 -4 22q0 8 2 12q2 12 8 39t8 39q6 33 18 60q23 51 102 106q22 17 47.5 33t62.5 37t48 28q95 57 114 76q31 35 38 66q11 42 -30 88q-106 123 -128 242q-22 106 28 216q42 91 130 136q73 38 166 38t166 -38q88 -45 130 -136 q50 -109 30 -216q-25 -120 -130 -242q-23 -29 -28 -48q-11 -42 14 -76q24 -38 68 -64q58 -38 146 -88q26 -16 78 -52zM614 572l8 4q-5 -3 -16 -10t-16 -10t-16 -10t-16 -10q-38 -22 -68 -44q-214 3 -336 14q-24 1 -70 8q-14 2 -24 2q-8 0 -12 2q-11 3 -20 12l-8 8 q-2 2 -6 10q-4 12 -4 22q0 8 2 12q2 12 8 39t8 39q6 33 18 60q23 51 102 106q22 17 47.5 33t62.5 37t48 28q95 57 114 76q31 35 38 66q11 42 -30 88q-106 123 -128 242q-22 106 28 216q42 91 130 136q73 38 166 38t166 -38q88 -45 130 -136q14 -33 24 -74q8 -35 8 -80 q-111 -16 -204 -74q-105 -69 -158 -184q-56 -124 -46 -252q11 -175 136 -338q-3 -1 -8 -4t-8 -4q-4 -3 -32 -20q-14 -9 -16 -10h-2zM2058 586l8 -4q2 -4 2 -12v-12q-3 -13 -10 -20l-8 -8q-1 -1 -4 -3t-4 -3q-16 -8 -24 -8t-22 -2q-45 -6 -70 -8q-126 -11 -336 -14 q-22 16 -66 44q-4 2 -34 20q-5 3 -16 10t-16 10q-2 1 -16 10q-6 2 -18 10q-6 2 -18 10q-3 1 -8 4t-8 4q124 161 138 338q8 132 -50 252q-54 116 -154 184q-93 58 -204 74q0 45 8 80q10 41 24 74q42 91 130 136q73 38 166 38t166 -38q88 -45 130 -136q50 -109 30 -216 q-25 -120 -130 -242q-23 -29 -28 -48q-11 -42 14 -76q24 -38 68 -64q58 -38 146 -88q26 -16 78 -52q77 -55 100 -106q10 -22 36 -138z" />
<glyph unicode="&#xe00f;" d="M128 1696h1792q51 0 90 -36q36 -39 36 -90v-1280q0 -52 -36 -88q-38 -38 -90 -38h-1792q-53 0 -88 38q-38 35 -38 88v1280q0 52 38 90q36 36 88 36zM448 1440q-80 0 -136 -56t-56 -136t56 -136t136 -56t136 56t56 136t-56 136t-136 56zM512 800l-256 -384h1536l-512 768 l-470 -598z" />
<glyph unicode="&#xe010;" d="M1482 1618v2v-6q1 -7 2 -21t2 -31q3 -60 6 -148q10 -203 10 -452q0 -164 -2 -242q-5 -186 -14 -358q-1 -17 -2 -31t-2 -21v-6q0 -22 -14 -46q-15 -25 -38 -36q-24 -12 -48 -12t-48 12q-163 91 -322 210q-290 216 -458 384q-48 46 -78 76q-24 27 -24 68t24 68q30 30 78 76 q71 71 188 170q303 260 592 424q24 12 48 12t48 -12q21 -11 38 -34q14 -25 14 -46z" />
<glyph unicode="&#xe011;" d="M1992 1108l-2 -2q29 -32 46 -86q11 -48 8 -112l-10 -148q-12 -158 -19.5 -231t-22 -170t-35.5 -155t-53 -102q-66 -90 -198 -126t-376 -36q-186 0 -312 42q-25 8 -51.5 20t-39.5 19t-42 24t-33 19q-72 45 -112 60q-69 22 -186 22h-76v1002q268 62 380 220q30 42 51 95 t28.5 86.5t18.5 92.5q21 100 46 142q37 68 116 68q28 0 60 -14q24 -15 46 -40q60 -65 70 -240q7 -121 -18 -388h534q48 0 90 -10q60 -15 92 -52zM340 -60h-342v1228h342v-1228z" />
<glyph unicode="&#xe012;" d="M1084 1138l-2 -2q36 36 92 36q54 0 90 -36q160 -166 160 -392q0 -108 -41 -210t-119 -180l-320 -320q-78 -78 -180 -119t-210 -41q-226 0 -392 160q-160 166 -160 392q0 108 41 210t119 180l292 292q-9 -77 4 -162q8 -73 38 -156l-152 -152q-88 -88 -88 -210 q0 -124 88 -212t212 -88q122 0 210 88l318 318q88 88 88 212q0 122 -88 210q-36 36 -36 92q0 54 36 90zM1884 1754l-2 -4q81 -78 122.5 -179.5t41.5 -210.5q0 -228 -164 -392l-290 -290q8 71 -2 160q-11 76 -40 156l152 154q88 88 88 212q0 122 -88 210t-210 88 q-124 0 -212 -88l-320 -318q-88 -88 -88 -210q0 -124 88 -212q40 -37 40 -88t-40 -88q-36 -36 -88 -36t-88 36q-160 166 -160 392q0 108 41 210t119 180l318 318q164 164 392 164q109 0 210.5 -41.5t179.5 -122.5z" />
<glyph unicode="&#xe013;" d="M1918 1374h-1206q-24 0 -44 20q-22 22 -22 50v200q0 27 20 50q19 22 46 22h1206q34 0 58 -18q27 -20 30 -52q8 -61 8 -100q0 -41 -8 -102q-3 -30 -30 -50t-58 -20zM202 1100q71 0 122 -48q48 -51 48 -122q0 -72 -48 -120q-50 -50 -122 -50q-73 0 -120 50q-50 47 -50 120 q0 72 50 122q48 48 120 48zM202 486q71 0 122 -48q48 -51 48 -122q0 -72 -48 -120q-50 -50 -122 -50q-73 0 -120 50q-50 47 -50 120q0 72 50 122q48 48 120 48zM712 1100h1206q34 0 58 -18q27 -20 30 -52q8 -61 8 -100q0 -41 -8 -102q-3 -30 -30 -50t-58 -20h-1206 q-24 0 -44 20q-22 22 -22 50v200q0 27 20 50q19 22 46 22zM712 486h1206q34 0 58 -18q27 -20 30 -52q8 -61 8 -100q0 -41 -8 -102q-3 -30 -30 -50t-58 -20h-1206q-24 0 -44 20q-22 22 -22 50v200q0 27 20 50q19 22 46 22zM202 1714q71 0 122 -48q48 -51 48 -122 q0 -72 -48 -120q-50 -50 -122 -50q-73 0 -120 50q-50 47 -50 120q0 72 50 122q48 48 120 48z" />
<glyph unicode="&#xe014;" d="M1986 1562v2q28 -12 44 -38q18 -29 18 -56v-1422q0 -25 -12 -46q-11 -23 -36 -38q-24 -14 -46 -14q-26 -3 -50 6l-612 262l-484 -260l-12 -6q-2 -1 -6 -2t-6 -2q-16 -4 -24 -4h-10q-8 0 -20 4q-2 1 -6 2t-6 2l-658 284q-28 12 -44 38t-16 56v1422q0 24 12 48q12 21 36 36 q21 15 46 18q29 0 50 -8l612 -264l484 260q1 1 4 2t4 2t4 2t4 2q6 0 8 2h8l2 2h14h14q16 -4 24 -10zM1150 554l-2 -4q43 34 58 68q14 31 14 68q0 45 -22 86q-25 47 -46 60t-56 22q-8 2 -108 14q-4 2 -10 6l-28 14q-44 20 -62 20q-16 0 -26 -2q-5 -1 -14 -3t-14 -3 q-41 -8 -64 -2q-20 4 -22 4q-10 0 -14 -2q-3 -1 -9 -2t-9 -2q-16 -4 -36 -4q-35 0 -48 16q-9 11 -12 52q-3 18 -12 30q-17 20 -46 34q-8 4 -20 12q-10 10 -16 12q-15 6 -32 -4q-24 -19 -26 -26q-3 -6 -6 -6q-4 -2 -16 2q-5 1 -38 16q-49 23 -30 58q18 34 88 58q57 19 118 16 q77 -4 98 -54q6 -16 23.5 -14t32.5 20q39 46 14 134q-8 31 -42 72q-2 3 -13.5 16t-16.5 19.5t-13.5 20t-14.5 26.5l-444 192v-672q60 -19 108 -26q57 -12 114 -12q47 0 86 -12q71 -21 132 -64q6 -4 14 -9.5t11.5 -8t7 -6.5t4 -9.5t-0.5 -13.5t-4 -21q-11 -46 -8 -86 q0 -126 102 -144q24 -3 40 -16q26 -21 34 -48l2 -10q0 -6 2 -16q3 -33 16 -82q7 -35 18 -60q14 -32 42 -24q6 2 13.5 7.5t17.5 15.5t17 17.5t18.5 20t15.5 17.5q31 36 46 70q6 12 20.5 39t19.5 37q3 5 8 15t8 15q14 25 38 46zM1842 620l4 -4v776l-338 146q-11 -5 -48.5 -21 t-57.5 -25q-57 -28 -92 -54q-92 -79 -92 -152q0 -78 98 -194q25 -30 76 -44q17 -5 88 -22q96 -15 126 -48q33 -35 24 -148q-3 -36 10 -112q14 -81 26 -108q4 -11 28 -32q26 -26 54 -26q13 0 40 18q34 25 54 50z" />
<glyph unicode="&#xe015;" d="M364 904v2q0 -185 18 -372q9 -115 32 -250q110 -23 266 -46q173 -25 376 -34v-328q-174 10 -306 26q-253 31 -446 72q-12 3 -28 6t-22 4.5t-16.5 3.5t-13.5 3t-9.5 3t-8 2.5t-6.5 3l-8 4t-8 4.5q-43 22 -68 62q-4 7 -6.5 12t-4.5 9.5t-4 13t-3 15t-4 23.5t-6 31 q-13 85 -22 158q-32 272 -32 574q0 167 10 324q20 266 48 394q2 11 4.5 23.5t3.5 19t2.5 14t2.5 11t2.5 8t3.5 8t4 7.5t5 9q24 40 64 64q20 10 35 14.5t85 19.5q3 1 184 34q322 51 568 60v-326q-203 -9 -376 -34q-156 -23 -266 -46q-23 -132 -32 -240q-18 -187 -18 -366z M1994 944l-4 4q16 -22 16 -46q0 -26 -16 -52q-2 -3 -56 -64q-76 -80 -138 -140q-223 -219 -424 -354q-7 -7 -20 -10q-16 -4 -24 -4q-6 0 -8 2q-8 0 -10 2q-8 0 -10 2q-1 1 -4 2t-4 2q-17 10 -28 32q-8 16 -8 38v268q-39 4 -184 26q-201 34 -332 66q-69 16 -78 22 q-42 26 -64 62q-24 36 -24 96q0 59 24 98q24 38 64 60q14 8 80 24q44 11 148 32q206 40 368 54v268q0 26 8 42q10 20 28 30q19 8 44 8q23 0 38 -12q117 -81 228 -174q202 -178 334 -320q54 -61 56 -64z" />
<glyph unicode="&#xe016;" d="M1252 492q99 -62 162 -146q67 -93 90 -192q2 -6 2 -14v-14q-3 -12 -12 -24q-9 -11 -20 -20q-11 -8 -26 -8q-1 0 -5 -0.5t-14 -1.5t-21 -2q-87 -7 -122 -8q-196 -14 -536 -14t-532 14q-34 1 -122 8q-11 1 -21 2t-14 1.5t-5 0.5q-10 0 -14 2q-12 3 -22 16q-13 10 -16 22 q-4 16 -4 26q0 8 2 14q24 103 88 192q63 84 162 146q22 14 54 28q27 12 60 24q76 32 108 50q53 26 64 60q7 24 -8 72q-12 30 -38 70q-103 156 -122 300q-19 143 48 250q50 85 142 136q88 50 192 50q103 0 194 -50q91 -52 140 -136q68 -110 50 -250t-124 -300 q-27 -42 -36 -70q-17 -45 -10 -72q11 -34 64 -60q32 -18 108 -50q33 -12 60 -24q32 -14 54 -28zM2046 428v-2q2 -6 2 -14v-14q-4 -16 -10 -24q-9 -11 -20 -20q-11 -8 -24 -8q-10 0 -24 -2q-47 -7 -66 -8q-110 -11 -278 -14q-45 96 -116 176q-70 79 -168 140q-22 14 -66 34 q-48 20 -72 28q-1 1 -4 2t-4 2q-3 1 -8 4t-8 4q-2 1 -5.5 2t-4.5 2q144 229 158 436q8 162 -68 292q-49 82 -96 126q-51 48 -130 86q64 81 114 112q63 38 152 38q103 0 194 -50q91 -52 140 -136q70 -113 52 -250q-19 -144 -122 -300q-30 -41 -42 -70q-17 -45 -10 -72 q11 -34 64 -60q32 -18 108 -50q33 -12 60 -24q25 -11 52 -28q99 -62 162 -146q64 -89 88 -192z" />
<glyph unicode="&#xe017;" d="M1024 1202q140 0 240 -100t100 -240t-100 -240t-240 -100t-240 100t-100 240t100 240t240 100zM1924 1390h-6q56 -283 56 -578q0 -296 -56 -582q-10 -30 -30 -50q-26 -23 -52 -26q-170 -20 -408 -34q-204 -12 -408 -12q-201 0 -402 12q-235 14 -404 34q-29 3 -52 26 q-27 24 -30 50q-66 352 -66 576q0 254 66 584q3 26 30 50q23 23 52 26q13 1 40 4t40 4t40 4t40 4q156 12 160 12q4 12 24 82q10 36 28 82q10 29 38 54q27 24 56 24q56 4 86 6q14 1 42.5 2t43.5 2q112 4 172 4t176 -4q15 -1 44 -2t44 -2t44 -3t44 -3q27 0 58 -24 q27 -27 36 -54q18 -46 28 -82q20 -70 24 -82q4 0 160 -12q13 -1 40 -4t40 -4t40 -4t40 -4q26 -3 52 -26q20 -20 30 -50zM1018 308q112 0 213.5 43.5t178.5 120.5q76 77 119 177.5t43 212.5t-43 214t-119 178t-178 119t-214 43t-212.5 -43t-177.5 -119q-77 -77 -120.5 -178.5 t-43.5 -213.5q0 -111 43.5 -212t120.5 -178t178 -120.5t212 -43.5z" />
<glyph unicode="&#xe018;" d="M956 1304l4 -2q442 -24 704 -170q322 -181 322 -520q0 -148 -61 -273t-161 -217q-90 -83 -191.5 -130.5t-176.5 -47.5q-65 0 -106.5 28t-47.5 72q-8 43 22.5 85t97.5 69q68 25 112 60q92 68 92 166q0 48 -26 94q-44 80 -220 130q-151 43 -362 46v-366q0 -31 -8 -50 q-13 -25 -34 -36q-2 -1 -6 -2t-6 -2q-4 -2 -12 -2q-4 -2 -12 -2q-4 -2 -12 -2q-12 0 -28 4q-16 3 -28 12q-147 99 -276 216q-231 212 -382 398q-61 77 -62 80q-20 23 -20 58q0 36 20 62q1 2 7.5 10t23 28.5t31.5 39.5q52 66 156 176q250 269 502 440q24 15 52 18 q28 0 50 -14q20 -10 34 -34q8 -21 8 -52v-370z" />
<glyph unicode="&#xe019;" d="M1568 1028v-2q28 -28 28 -68t-28 -68l-76 -76q-97 -93 -188 -170q-299 -257 -594 -424q-24 -12 -48 -12t-48 12t-36 36q-16 22 -16 46q0 20 -2 58q-1 12 -2.5 39t-3 54.5t-2.5 54.5q-10 203 -10 452q0 86 4 242q5 186 14 358q2 38 2 58q0 24 16 46q13 22 36 34 q24 12 48 12t48 -12q171 -96 324 -210q275 -205 458 -384z" />
<glyph unicode="&#xe01a;" d="M1870 1330h-1696q-57 0 -102 48q-42 45 -42 106q0 62 42 104q44 44 102 44h1696q58 0 102 -44q42 -42 42 -104q0 -61 -42 -106q-45 -48 -102 -48zM174 1054h1696q58 0 102 -44q42 -42 42 -104t-42 -104t-102 -42h-1696q-60 0 -102 42t-42 104t42 104q44 44 102 44z M170 454h1700q61 0 102 -44q42 -45 42 -106t-42 -100q-42 -42 -102 -42h-1700q-60 0 -102 42q-42 39 -42 100t42 106q41 44 102 44z" />
<glyph unicode="&#xe01b;" d="M0 1152h-4q0 157 59 297.5t165 246.5t246.5 165t297.5 59t297.5 -59t246.5 -165t165 -246.5t59 -297.5q0 -113 -30 -218q-29 -102 -88 -192l580 -578q48 -48 48 -120q0 -74 -48 -122q-24 -24 -54 -36t-64 -12q-31 0 -64 12q-31 11 -56 36l-578 580q-84 -55 -192 -86 q-112 -32 -218 -32q-157 0 -297.5 59t-246.5 165t-165 246.5t-59 297.5zM252 1152q0 -212 150 -362t362 -150t362 150t150 362t-150 362t-362 150t-362 -150t-150 -362z" />
<glyph unicode="&#xe01c;" d="M2044 994l-12 -18q4 -64 4 -96q0 -36 -4 -100q-3 -35 -30 -62t-60 -30q-19 -3 -52 -6q-52 -8 -102 -12l-20 -2q-41 -10 -64 -38q-26 -32 -26 -72q0 -10 2 -16q0 -19 8 -30q7 -12 20 -28q16 -20 64 -84q27 -36 32 -42q22 -25 22 -62t-24 -64q-44 -52 -64 -72 q-22 -22 -74 -66q-8 -6 -32 -16q-15 -6 -32 -6t-32 6q-20 8 -28 16l-138 106q-15 11 -30 14q-20 4 -34 4q-38 0 -70 -26q-31 -28 -40 -68l-22 -170q-3 -33 -30 -60t-62 -30q-8 0 -24 -1t-24 -1q-8 -2 -24 -2h-24h-24q-16 0 -24 2q-8 0 -24 1t-24 1q-35 3 -62 30t-30 60 q0 8 -2 26q-1 7 -4 26.5t-4 31.5q-3 33 -6 60l-4 26q-10 43 -38 68q-32 26 -74 26q-18 0 -36 -6q-16 -6 -34 -16l-134 -104q-8 -8 -28 -16q-15 -6 -32 -6q-12 0 -32 8q-24 10 -32 16q-51 43 -72 66q-23 21 -66 72q-24 27 -24 64t22 62l102 134q11 14 18 34q6 18 6 36 q0 41 -28 76q-30 33 -70 36l-166 22q-33 3 -60 30t-30 62q-4 64 -4 98t4 98q3 35 30 62t62 30l166 22q43 10 70 40q28 35 28 74q0 19 -6 34q-8 19 -18 32q-4 6 -10 16q-32 40 -62 80q-7 8 -18 22.5t-12 15.5q-24 27 -24 64q0 35 24 62q44 52 66 74q20 20 72 64q27 24 64 24 t62 -22l134 -104q10 -6 34 -14t36 -8q43 0 74 28q28 22 38 66l22 170q3 33 30 60t62 30q64 4 98 4t98 -4q35 -3 62 -30t30 -60l22 -170q10 -42 40 -66q31 -28 70 -28q10 0 16 2q18 4 32 12q28 17 32 20q50 40 82 64q36 27 42 32q25 22 64 22q35 0 62 -24q54 -46 74 -64 q18 -20 64 -74q24 -27 24 -62q0 -39 -22 -64q-6 -8 -16 -22q-7 -8 -38 -48q-21 -27 -36 -48l-18 -22q-11 -15 -14 -28q-4 -20 -4 -32q0 -38 26 -70q25 -31 64 -40q6 0 20 -2q50 -4 102 -12q33 -3 52 -6q33 -3 60 -30t30 -62zM1012 530q144 0 246 102q100 100 100 244 q0 143 -100 246q-103 100 -246 100q-144 0 -244 -100q-102 -102 -102 -246q0 -145 102 -244q99 -102 244 -102z" />
<glyph unicode="&#xe01d;" d="M2030 1152l-2 2q9 -12 12 -24q4 -16 4 -24t-4 -24q-3 -12 -12 -24q-3 -3 -54 -66q-63 -78 -132 -152q-224 -240 -420 -370q-15 -12 -38 -12q-23 -3 -44 6q-19 11 -32 30q-12 18 -12 40v338q-104 0 -176 -12q-128 -21 -232 -78q-30 -18 -98 -54q-20 -12 -40 -22 q-53 -30 -114 -30q-29 0 -64 16q-53 23 -76 74q-20 45 -4 120q13 54 77.5 132.5t162.5 147.5q256 178 564 178v330q0 24 12 42q13 19 32 30q19 8 44 8q21 -3 40 -14q128 -87 228 -178q203 -186 324 -340q50 -61 54 -70zM270 252h1228v64q9 6 142 106q88 66 132 110v-274 q0 -96 -64 -166q-65 -71 -160 -80q-165 -15 -330 -24q-149 -8 -332 -8t-330 8q-166 9 -332 24q-95 9 -160 80q-64 70 -64 166v1216q0 98 64 168q63 69 160 78q166 15 332 24q147 8 330 8h66q23 0 70.5 -1t71.5 -1q22 -2 64 -2v-268h-888v-1228z" />
<glyph unicode="&#xe01e;" d="M1794 618h2q12 -24 12 -48t-12 -48q-12 -23 -34 -36q-22 -16 -46 -16q-20 0 -58 -2q-12 -1 -39 -2.5t-54.5 -3t-54.5 -2.5q-203 -10 -452 -10q-86 0 -242 4q-186 5 -358 14q-38 2 -58 2q-24 0 -46 16q-24 12 -36 36t-12 48t12 48q98 172 210 322q205 275 384 458l76 76 q27 24 68 24t68 -24l76 -76q93 -97 170 -188q256 -298 424 -592z" />
<glyph unicode="&#xe01f;" d="M484 1132l4 -2q-22 0 -40 12q-22 15 -32 32q-9 21 -6 44q0 21 12 42q88 127 176 226q187 214 318 328q56 50 64 54q12 9 24 12q16 4 24 4t24 -4q12 -3 24 -12q8 -4 64 -54q57 -51 142 -136q226 -230 352 -418q11 -19 14 -42q0 -25 -8 -44q-11 -19 -30 -32 q-18 -12 -42 -12h-278q-31 -168 -54 -252q-29 -109 -50 -154q-20 -32 -60 -50q-43 -20 -100 -20t-100 20q-40 18 -60 50q-23 40 -52 158q-34 140 -52 250h-278zM1718 856h332q0 -205 -12 -358q-22 -279 -52 -412q-12 -54 -12 -58q-15 -55 -62 -90q-45 -36 -104 -36h-1564 q-24 0 -54 10q-55 20 -86 64q-6 8 -9.5 14t-6 10.5t-5 14t-4 15.5t-5 24t-6.5 30q-9 40 -26 156q-38 287 -38 616h332q0 -194 14 -372q9 -121 26 -242h1302q16 119 26 244q14 178 14 370z" />
<glyph unicode="&#xe020;" d="M1978 56l-8 -2q4 -19 2 -26q-3 -29 -24 -44q-11 -8 -36 -14q-1 0 -14.5 -3.5t-23.5 -4.5q-52 -12 -158 -24q-126 -14 -278 -22q-171 -12 -418 -12q-414 0 -698 36q-108 12 -156 24q-14 3 -28 5.5t-19.5 3.5t-6.5 1q-27 10 -38 32q-14 25 -6 50q31 142 112 242 q64 79 192 162q33 21 70 38q28 14 82 32q127 56 152 70q74 42 94 98q12 38 -4 92q-15 51 -60 120q-136 218 -160 400q-24 183 64 332q70 119 178 182q110 66 232 66q123 0 236 -66q106 -64 176 -182q88 -149 64 -332q-24 -184 -156 -400q-45 -69 -60 -120q-16 -54 -4 -92 q20 -56 94 -98q46 -26 154 -70q7 -3 20 -8t20 -8t20 -8t20 -8q48 -24 70 -38q132 -86 194 -162q79 -97 110 -242z" />
<glyph unicode="&#xe021;" d="M546 1786q0 55 -40 98q-43 40 -98 40h-274q-56 0 -96 -40q-42 -42 -42 -98q0 -57 42 -96q40 -40 96 -40v-1774h274v1774q54 3 96 42q42 42 42 94zM1994 208v-4q19 3 36 20q15 15 18 38v1046q0 28 -20 48q-18 18 -48 18q-12 0 -32 -4q-5 -1 -16 -4t-16 -4q-3 -1 -8 -2 t-8 -2t-9 -2t-9 -2q-24 -4 -36 -4q-7 -1 -20 -3t-20 -3q-56 -8 -86 -8h-44q-18 0 -50 4q-5 1 -13.5 2t-12.5 2q-5 1 -13.5 2t-12.5 2q-52 10 -99.5 32t-77.5 43t-73 55q-50 39 -74.5 56.5t-73.5 43.5t-98 40q-47 12 -78 14q-56 4 -84 4q-75 0 -134 -8q-97 -11 -202 -36 l-32 -8v-1138q18 4 54 14q56 12 134 24q208 31 342 -2q49 -14 99 -44.5t72.5 -50t74.5 -67.5q44 -41 73 -65t77 -49.5t100 -35.5q10 -2 34 -6q44 -4 68 -4h32q76 0 166 18q60 10 120 30z" />
<glyph unicode="&#xe022;" d="M1876 1400h-1392q-71 0 -124 56q-52 55 -52 128q0 72 52 124t124 52h1392q72 0 124 -52t52 -124q0 -73 -52 -128q-53 -56 -124 -56zM1222 1070h654q72 0 124 -52t52 -124q0 -73 -52 -122q-50 -50 -124 -50h-654q-74 0 -124 50q-52 49 -52 122q0 72 52 124t124 52z M1378 354h498q70 0 124 -54q52 -55 52 -128q0 -71 -52 -120q-50 -50 -124 -50h-498q-74 0 -124 50q-52 49 -52 120q0 73 52 128q54 54 124 54zM1044 524h2h8q8 -4 10 -8q4 -8 4 -14v-6q-2 -2 -2 -6q-1 -1 -2 -3t-2 -3l-498 -488q-2 -2 -4 -2q-2 -2 -4 -2q-2 -2 -4 -2h-4h-4 q-2 0 -4 2q-2 0 -4 2q-2 0 -4 2l-498 488q-2 2 -2 6q-2 2 -2 6q-2 2 -2 6v6q3 8 10 12q8 4 12 4h294v510q0 8 8 16q6 6 14 6h362q10 0 16 -6t6 -16v-510h294z" />
<glyph unicode="&#xe023;" d="M1024 1920q208 0 395 -78.5t329 -219.5q141 -143 220.5 -330t79.5 -394q0 -208 -79 -396t-219 -328q-142 -142 -330 -221t-396 -79t-396 79t-328 221q-142 140 -221 328t-79 396t79 395t221 329q140 140 328 219t396 79zM1024 126q62 0 110 48q46 46 46 108q0 64 -46 110 t-110 46q-62 0 -108 -46q-48 -48 -48 -110q0 -60 48 -108t108 -48zM1458 1040v-6q23 35 36 76q12 39 12 84q0 78 -32 148q-34 71 -92 126q-61 58 -140 84q-84 28 -180 28q-171 0 -292 -104q-107 -90 -148 -216v-2q-4 -4 -4 -8l-2 -2v-4v-4v-4v-4q0 -29 20 -46q22 -18 46 -18 h142q27 0 44 14q19 13 22 36q13 52 62 92q54 44 118 44q40 0 76 -12q31 -11 56 -36q26 -26 36 -46q12 -24 12 -54q0 -32 -4 -46q-4 -17 -22 -42q-42 -52 -94 -90q-64 -50 -108 -92q-128 -120 -130 -248q0 -27 22 -46q23 -20 50 -20h138q29 0 48 22q18 21 18 50q7 36 40 80 q26 34 62 64q72 63 120 114q45 45 68 88z" />
<glyph unicode="&#xe024;" d="M1024 1920q208 0 395 -78.5t329 -219.5q141 -143 220.5 -330t79.5 -394q0 -208 -79 -396t-219 -328q-142 -142 -330 -221t-396 -79t-396 79t-328 221q-142 140 -221 328t-79 396t79 395t221 329q140 140 328 219t396 79zM1714 762q8 61 8 136t-8 136q0 33 -22 52 q-21 18 -50 18h-1234q-29 0 -50 -18t-24 -52q-4 -92 -4 -136t4 -136q3 -32 24 -50q23 -20 50 -20h1234q27 0 50 20q22 19 22 50z" />
<glyph unicode="&#xe025;" d="M2022 156h2q15 -19 20 -36q6 -21 6 -44q0 -56 -40 -96q-43 -40 -98 -40h-1774q-33 0 -66 20q-35 21 -52 48q-20 31 -20 68q0 31 16 66l888 1640q14 30 50 52q30 18 70 18q37 0 70 -18q35 -19 50 -52zM1026 126q64 0 110 46q44 44 44 108q0 66 -44 110t-110 44 q-64 0 -108 -44q-46 -46 -46 -110q0 -62 46 -108t108 -46zM1114 692h2q25 143 40 274q22 198 28 258q0 28 -16 54q-16 25 -48 34q-45 8 -90 8q-47 0 -92 -8q-27 -9 -46 -34q-20 -27 -20 -54q6 -60 28 -258q15 -131 40 -274q3 -32 30 -56q23 -26 52 -26h6q30 0 56 26 q27 24 30 56z" />
<glyph unicode="&#xe026;" d="M1162 942l2 -4q-52 -44 -82 -74t-74 -82q-70 -82 -104 -186q-34 -96 -34 -216q0 -99 32 -198q30 -97 86 -176h-74q-400 0 -664 20q-101 6 -142 12q-45 6 -48 6q-6 0 -14 4q-17 7 -24 16q-9 7 -16 24q-6 12 -6 28q0 8 2 12q27 136 94 238q67 103 188 178q35 22 68 36 q5 2 33 14t43 18q9 4 34 15t40 17q34 13 70 36q72 41 86 88q12 37 -6 88q-21 57 -62 114q-132 207 -156 388q-24 178 60 322q70 112 182 176q112 62 244 62q131 0 246 -62q117 -68 178 -176q14 -22 28 -54q5 -12 20 -56q18 -63 20 -110q6 -112 -32 -226q-35 -101 -82 -158 q-30 -39 -88 -90q-8 -7 -24 -22t-24 -22zM1538 892q211 0 362 -148q71 -70 110.5 -163.5t39.5 -198.5q0 -213 -150 -360q-153 -150 -362 -150q-210 0 -360 150t-150 360q0 104 39.5 197.5t110.5 164.5q148 148 360 148zM1846 312v136q0 13 -10 26q-13 10 -26 10h-170v170 q0 13 -10 26q-13 10 -26 10h-136q-14 0 -24 -10q-12 -12 -12 -26v-170h-170q-14 0 -24 -10q-12 -12 -12 -26v-136q0 -15 12 -24q9 -12 24 -12h170v-170q0 -15 12 -24q9 -12 24 -12h136q14 0 26 12q10 10 10 24v170h170q14 0 26 12q10 10 10 24z" />
<glyph unicode="&#xe027;" d="M1866 1050q8 -72 8 -156q0 -86 -8 -158q-3 -34 -30 -58q-24 -24 -62 -24h-516v-516q0 -37 -22 -62q-27 -27 -58 -30q-72 -8 -160 -8t-160 8q-32 3 -56 30q-24 24 -24 62v516h-514q-38 0 -62 24q-27 24 -30 58q-8 72 -8 158q0 84 8 156q3 33 30 60q25 22 62 22h514v514 q0 38 24 62q24 27 56 30q72 8 160 8t160 -8q31 -3 58 -30q22 -25 22 -62v-514h516q37 0 62 -22q27 -27 30 -60z" />
<glyph unicode="&#xe028;" d="M4 902h4l762 -736q30 -30 68 -46t80 -16t80 16t68 46q29 24 46 64q16 38 16 78q0 12 -4 36q-2 13 -12 36q-10 24 -20 36q-16 20 -28 32q-10 14 -36 40l-40 40l-184 176h1044q42 0 80 16q28 9 68 42q29 24 46 64q16 38 16 76q0 40 -16 78q-17 40 -46 64q-39 32 -68 44 q-42 14 -80 14h-1044l184 176l40 40q26 26 36 40q29 24 46 64q16 35 16 76q0 14 -4 38q-2 13 -12 36q-10 22 -20 38q-8 12 -28 32q-34 28 -68 42q-36 12 -80 12t-80 -12q-34 -14 -68 -42z" />
<glyph unicode="&#xe029;" d="M1776 854l4 -2v-738q0 -48 -32 -86q-30 -36 -82 -46q-159 -36 -318 -54t-320 -18q-160 0 -322 18q-164 18 -322 54q-51 9 -78 46q-30 40 -30 86v732q0 58 38 106t94 48h72v342q0 248 150 398t396 150t396 -150t150 -398v-342h66q54 0 98 -44q40 -43 40 -102zM824 1000h-2 h410v342q0 88 -32 134q-49 70 -172 70q-121 0 -170 -70q-34 -49 -34 -134v-342z" />
<glyph unicode="&#xe02a;" d="M2034 1334h6l-1236 -1236q-3 -1 -8 -4t-8 -4q-12 -4 -16 -4t-16 4q-3 1 -8 4t-8 4l-724 724q-12 12 -12 30t12 30l298 298q12 12 30 12t30 -12l396 -398l906 910q12 12 30 12t30 -12l298 -298q12 -12 12 -30t-12 -30z" />
<glyph unicode="&#xe02b;" d="M1024 1370l2 -2l312 260l-312 260v-156q-170 0 -321.5 -63.5t-266.5 -178.5q-116 -116 -180 -268t-64 -322t64 -322t180 -266q114 -116 266 -180t322 -64t322 64t268 180q115 115 179.5 267t64.5 321q0 164 -62 316q-62 149 -168 258l-152 -144q80 -82 126 -194 q46 -113 46 -236q0 -128 -48 -242t-134 -200q-87 -87 -201.5 -135.5t-242.5 -48.5t-242 48.5t-200 135.5q-87 86 -135.5 200t-48.5 242t48.5 242.5t135.5 201.5q86 86 200 134t242 48v-156z" />
<glyph unicode="&#xe02c;" d="M1932 468h-2q16 -13 24 -26q21 -27 24 -64q3 -39 -8 -70q-14 -32 -40 -54q-16 -15 -76 -38q-46 -16 -116 -36q-208 -58 -420 -80q-26 -94 -108 -156q-80 -64 -184 -64t-184 64q-82 62 -108 156q-134 15 -238 36q-207 44 -296 80q-44 16 -46 18q-31 14 -54 44 q-25 28 -28 66q-3 35 12 68q11 30 40 56q20 20 52 50q49 49 100 134q144 236 144 528q0 422 200 602q151 136 408 136t408 -136q200 -180 200 -602q0 -175 46 -310q82 -242 200 -352z" />
<glyph unicode="&#xe02d;" d="M1024 1920q208 0 396 -78.5t330 -219.5q141 -142 219.5 -330t78.5 -396t-79 -396t-219 -328q-142 -142 -330 -221t-396 -79t-396 79t-328 221q-142 140 -221 328t-79 396t79 396t221 330q140 140 328 219t396 79zM1024 1554q-66 0 -114 -48t-48 -114t48 -114t114 -48 t114 48t48 114t-48 114t-114 48zM1142 306l-2 2q44 0 74 30t30 74q0 29 -18 58q-15 24 -46 38l2 466q0 44 -30 74t-74 30h-176q-44 0 -74 -30t-30 -74q0 -31 20 -58q19 -28 46 -40v-368q-26 -12 -46 -38q-20 -30 -20 -60q0 -44 30 -74t74 -30h240z" />
<glyph unicode="&#xe02e;" d="M2022 896q0 42 -30 72t-72 30h-286l224 228q32 32 32 78q0 44 -32 76t-76 32q-46 0 -78 -32l-374 -382h-192v192l382 374q32 32 32 78q0 44 -32 76t-76 32q-46 0 -78 -32l-228 -224v286q0 42 -30 72t-72 30q-44 0 -74 -30t-30 -72v-288l-228 226q-32 32 -76 32 q-46 0 -78 -32t-32 -76q0 -46 32 -78l382 -374v-192h-194l-372 382q-32 32 -76 32q-46 0 -78 -32t-32 -76q0 -46 32 -78l224 -228h-286q-44 0 -74 -30t-30 -72q0 -44 30 -74t74 -30h286l-224 -228q-32 -32 -32 -76q0 -46 32 -78q15 -15 36 -24q19 -8 40 -8t40 8q21 9 36 24 l376 382h192v-192l-382 -376q-32 -32 -32 -76q0 -46 32 -78t78 -32q44 0 76 32l228 224v-286q0 -44 30 -74t74 -30q42 0 72 30t30 74v286l228 -224q15 -15 36 -24q19 -8 40 -8q23 0 42 8q21 9 36 24q32 32 32 78q0 44 -32 76l-382 374v194h192l374 -382q15 -15 36 -24 q19 -8 42 -8q21 0 40 8q21 9 36 24q32 32 32 78q0 44 -32 76l-226 228h288q42 0 72 30t30 74z" />
<glyph unicode="&#xe02f;" d="M1952 1740l4 4q1 -1 3.5 -3l7.5 -6t9 -7q55 -45 64 -52l12 -12v-1518q0 -40 -28 -68q-30 -30 -70 -30h-1848q-41 0 -68 30q-30 27 -30 68v1434q0 36 52 60q43 20 92 20v-214v-472v-480v-236q0 -28 26 -54q28 -28 58 -28q27 0 42 18q20 23 20 64v1402l76 84l90 -84l78 84 l88 -84l72 78l84 -78l88 82l94 -82l100 84l88 -84l86 88l82 -88l82 84l90 -84l78 84l100 -84l98 84l94 -84zM490 288h590v144h-590v-144zM490 534h590v146h-590v-146zM490 776h590v150h-590v-150zM1226 288h634v144h-634v-144zM1226 534h634v146h-634v-146zM1226 780h636 v146h-636v-146zM490 1072h1372v294h-1372v-294z" />
<glyph unicode="&#xe030;" d="M2042 1030q8 -61 8 -136t-8 -136q0 -31 -22 -50q-23 -20 -50 -20h-1890q-27 0 -50 20q-21 18 -24 50q-4 92 -4 136t4 136q3 34 24 52t50 18h1890q29 0 50 -18q22 -19 22 -52z" />
<glyph unicode="&#xe031;" d="M974 310q88 0 154 -66t66 -154t-66 -154t-154 -66t-154 66t-66 154t66 154t154 66zM1474 1766l-2 -2q83 -80 130 -180q46 -101 46 -206q0 -59 -18 -116q-17 -54 -52 -108q-28 -53 -94 -122q-58 -64 -168 -160q-56 -48 -88 -88q-46 -60 -56 -112q0 -41 -26 -70 q-30 -30 -70 -30h-194q-43 0 -68 28q-30 27 -30 66q3 110 58 196q49 75 117 140t163 140q80 62 130 126q18 20 30 60q8 27 8 62q0 38 -16 76q-13 29 -48 64t-78 52q-48 18 -106 18q-92 0 -164 -62q-74 -64 -88 -130q-8 -31 -34 -50q-27 -20 -58 -20h-200q-42 0 -66 24 q-28 25 -28 66v8q0 4 2 6v6v6l2 2q0 4 2 6q0 2 1 5.5t1 4.5q55 178 204 304q173 146 410 146q135 0 252 -38q116 -41 196 -118z" />
<glyph unicode="&#xe032;" d="M218 898q0 84 60 144q58 58 142 58q86 0 144 -58t58 -144q0 -84 -58 -142q-60 -60 -144 -60q-82 0 -142 60t-60 142zM824 898q0 84 60 144q58 58 142 58q86 0 144 -58t58 -144q0 -84 -58 -142q-60 -60 -144 -60q-82 0 -142 60t-60 142zM1630 1098q-84 0 -142 -58 q-60 -60 -60 -144q0 -82 60 -142t142 -60q84 0 144 60q58 58 58 142q0 86 -58 144t-144 58z" />
<glyph unicode="&#xe033;" d="M1946 786l-16 -6q3 10 18 92q10 52 28 210q32 342 0 600q0 8 -4 20q-10 19 -26 30q-21 14 -40 14q-14 0 -20 -2q-17 -5 -36 -24l-202 -236q-46 58 -110 112q-75 60 -128 90q-93 58 -208 90q-111 30 -228 30h-34q-24 0 -68 -4q-6 -1 -18 -2t-18 -2q-148 -21 -290 -86 q-145 -66 -242 -166q-51 -51 -90 -104q-51 -69 -80 -120q-33 -63 -54 -132q-20 -59 -34 -140q-12 -72 -12 -144q0 -71 12 -140q24 -138 88 -260q63 -120 164 -218q93 -96 218 -168q116 -69 244 -102q123 -35 254 -32q120 3 248 54q120 45 220 120l2 2q34 26 48 74 q10 47 -10 84q-25 50 -72 66q-53 17 -98 -6q-84 -40 -162 -52q-88 -13 -168 -4q-78 8 -160 38q-78 28 -138 76q-120 93 -168 244q-50 146 -12 272q14 58 54 118q34 51 92 100q51 45 108 72q65 27 116 30q50 8 118 -6q60 -16 110 -48q5 -3 14 -9t14 -9q48 -42 50 -44l24 -24 l-268 -178q-18 -15 -26 -30t-4 -40q3 -19 20 -36q14 -17 34 -20q206 -60 492 -86q150 -14 346 -14h18h14h8h2q25 0 44 16t22 40z" />
<glyph unicode="&#xe034;" d="M1672 -126l2 -2q154 0 266 112q110 110 110 264q0 156 -110 266t-266 110q-71 0 -148 -30q-62 -24 -120 -82l-654 346v8l706 372q42 -31 100 -50q60 -20 114 -20q154 0 266 112q110 110 110 264q0 156 -110 266t-266 110q-154 0 -264 -110q-112 -112 -112 -266v-4 l-706 -372q-48 35 -98 52q-54 18 -116 18q-154 0 -264 -110q-112 -112 -112 -266q0 -152 112 -264t264 -112q56 0 116 20q55 18 98 50l712 -374q25 -135 128 -220q101 -88 242 -88z" />
<glyph unicode="&#xe600;" d="M1024 1920q208 0 396 -78.5t330 -219.5q141 -142 219.5 -330t78.5 -396t-79 -396t-219 -328q-142 -142 -330 -221t-396 -79t-396 79t-328 221q-142 140 -221 328t-79 396t79 396t221 330q140 140 328 219t396 79zM1660 1172h2q8 8 8 20q0 10 -8 18l-188 188q-8 8 -18 8 q-12 0 -20 -8l-572 -572l-248 250q-8 8 -18 8q-12 0 -20 -8l-188 -188q-8 -8 -8 -18q0 -12 8 -20l456 -456q4 -4 8 -4q4 -4 10 -4t10 4q4 0 8 4z" />
<glyph unicode="&#xe601;" d="M1952 1466h2q17 -105 22 -184q6 -96 6 -188q0 -91 -6 -184q-6 -87 -22 -182q-14 -112 -124 -208q-107 -94 -226 -106q-80 -8 -232 -16q-156 -8 -232 -8l-408 -394q-11 -11 -22 -14q-16 -4 -24 -4h-8q-4 0 -6 2q-2 0 -6.5 1t-7.5 1q-19 8 -30 26q-12 15 -12 38v350 q-26 2 -82 6q-6 0 -84 6q-117 12 -226 108t-130 212q-12 87 -18 180q-8 124 -8 184q0 62 8 190q6 89 18 184q21 116 130 212t226 108q144 15 288 24q128 8 288 8t288 -8q144 -9 288 -24q117 -12 226 -108q110 -99 124 -212zM566 888l2 4q86 0 130 38q40 34 40 98 q0 60 -38 86q-49 34 -168 62q-38 9 -38 34q0 19 16 32q15 12 44 12q32 0 48 -4t48 -20q2 -2 6 -2q8 -4 12 -4h4q18 0 30 12q14 10 14 30v6v6q-4 8 -6 10q-14 22 -62 36q-42 12 -84 12q-74 0 -118 -38t-44 -92t33 -82t89 -42q10 -3 35.5 -8.5t35.5 -9t25 -9.5t20.5 -14 t5.5 -19q0 -22 -18 -34q-19 -16 -56 -16t-58 8q-27 9 -48 24l-4 4q-2 0 -6 1t-6 1h-8q-18 0 -30 -12q-14 -14 -14 -32v-4q0 -4 2 -6q0 -8 4 -12q15 -26 66 -40q48 -16 96 -16zM1264 942v-2v334q0 31 -26 44q-22 11 -58 8q-21 0 -38 -10q-16 -13 -24 -32l-88 -216l-88 216 q-11 26 -36 38q-20 7 -56 4q-20 0 -34 -14q-16 -16 -16 -36v-334q0 -18 14 -32t32 -14t32 14t14 32v258l116 -286q3 -8 10 -12q8 -4 14 -4q8 0 16 4q5 2 8 12l116 286v-258q0 -18 14 -32t32 -14t32 14t14 32zM1500 890l2 4q86 0 130 38q40 34 40 98q0 60 -38 86 q-49 34 -168 62q-38 9 -38 34q0 19 16 32q15 12 44 12q32 0 48 -4t48 -20q2 -2 6 -2q8 -4 12 -4h4q18 0 30 12q14 10 14 30v6v6q-4 8 -6 10q-14 22 -62 36q-42 12 -84 12q-74 0 -118 -38t-44 -92t33 -82t89 -42q10 -3 35.5 -8.5t35.5 -9t25 -9.5t20.5 -14t5.5 -19 q0 -22 -18 -34q-19 -16 -56 -16t-58 8q-27 9 -48 24l-4 4q-2 0 -6 1t-6 1h-8q-18 0 -30 -12q-14 -14 -14 -32v-4q0 -4 2 -6q0 -8 4 -12q15 -26 66 -40q48 -16 96 -16z" />
<glyph unicode="&#xe602;" d="M1664 -2v1792q0 51 -36 90q-39 36 -90 36h-1024q-52 0 -88 -36q-38 -38 -38 -90v-1792q0 -53 38 -88q35 -38 88 -38h1024q52 0 90 38q36 36 36 88zM596 1576h854v-1194h-854v1194zM1152 126q0 -52 -36 -88q-38 -38 -90 -38q-53 0 -88 38q-38 35 -38 88q0 52 38 90 q36 36 88 36q51 0 90 -36q36 -39 36 -90z" />
</font>
</defs>
</svg>
