<svg xmlns="http://www.w3.org/2000/svg" xmlns:xlink="http://www.w3.org/1999/xlink" width="40" height="40" viewBox="0 0 40 40">
  <defs>
    <path id="circlar-shape-copy-10-a" d="M14.1580645,5.97333333 L18.1002081,5.97333333 C18.3886576,5.97333333 18.6290323,5.73051491 18.6290323,5.43913279 C18.6290323,5.29344173 18.5809573,5.19631436 18.4848075,5.05062331 L13.5811655,0.145691057 C13.4369407,0.0485636856 13.3407908,0 13.1965661,0 C12.9081165,0 12.6677419,0.242818428 12.6677419,0.534200542 L12.6677419,4.46785908 C12.6677419,5.29344173 13.3407908,5.97333333 14.1580645,5.97333333 Z M22.8487324,11.1015648 L22.417988,10.6694105 C22.130825,10.3813076 21.7000806,10.3813076 21.3650571,10.6694105 L15.6696584,16.3834512 C15.6217979,16.4314684 15.6696584,16.4794855 15.6696584,16.5275027 L15.6696584,17.7279314 C15.6696584,17.8239657 15.6696584,17.92 15.7653794,17.92 L17.0097522,17.92 C17.0576127,17.92 17.1054732,17.8719829 17.1533337,17.8719829 L22.8487324,12.2059593 C23.1837559,11.8218221 23.1837559,11.3896677 22.8487324,11.1015648 L22.8487324,11.1015648 Z M18.1969155,20.16 L14.7879947,20.16 C14.0197872,20.16 13.3956186,19.5269565 13.3956186,18.7478261 L13.3956186,16.1182609 C13.3956186,15.7286957 13.4916445,15.3391304 13.8277353,15.0956522 L18.3889674,10.4695652 C18.5330063,10.3234783 18.6290323,10.1286957 18.6290323,9.93391304 L18.6290323,8.96 C18.6290323,8.57043478 18.2929415,8.22956522 17.9088377,8.22956522 L12.627411,8.22956522 C11.3790738,8.22956522 10.4188144,7.20695652 10.4188144,5.98956522 L10.4188144,0.730434783 C10.4188144,0.340869565 10.0827236,0 9.65060692,0 L2.20859661,0 C1.00827236,0 0,1.0226087 0,2.24 L0,20.16 C0,21.3773913 1.00827236,22.4 2.20859661,22.4 L16.3244097,22.4 C17.380695,22.4 18.3409544,21.6208696 18.5330063,20.5982609 C18.5810193,20.4034783 18.3889674,20.16 18.1969155,20.16 L18.1969155,20.16 Z M2.8,17.5 L11.9,17.5 L11.9,19.6 L2.8,19.6 L2.8,17.5 Z M2.8,14 L11.9,14 L11.9,16.1 L2.8,16.1 L2.8,14 Z"/>
  </defs>
  <g fill="none" fill-rule="evenodd">
    <circle cx="20" cy="20" r="20" fill="#54698D"/>
    <g transform="translate(8.954 8.954)">
      <mask id="circlar-shape-copy-10-b" fill="#fff">
        <use xlink:href="#circlar-shape-copy-10-a"/>
      </mask>
      <use fill="#0079CC" xlink:href="#circlar-shape-copy-10-a"/>
      <g fill="#FFF" mask="url(#circlar-shape-copy-10-b)">
        <rect width="29" height="28" transform="translate(-2.8 -2.8)"/>
      </g>
    </g>
  </g>
</svg>
