<svg xmlns="http://www.w3.org/2000/svg" xmlns:xlink="http://www.w3.org/1999/xlink" width="40" height="40" viewBox="0 0 40 40">
  <defs>
    <path id="cancel-a" d="M15.8523341,13.1724351 L19.6,16.92 L23.3476659,13.1724351 C23.7381902,12.7819108 24.3713552,12.7819108 24.7618795,13.1724351 L25.3275649,13.7381205 C25.7180892,14.1286448 25.7180892,14.7618098 25.3275649,15.1523341 L21.58,18.9 L25.3275649,22.6476659 C25.7180892,23.0381902 25.7180892,23.6713552 25.3275649,24.0618795 L24.7618795,24.6275649 C24.3713552,25.0180892 23.7381902,25.0180892 23.3476659,24.6275649 L19.6,20.88 L15.8523341,24.6275649 C15.4618098,25.0180892 14.8286448,25.0180892 14.4381205,24.6275649 L13.8724351,24.0618795 C13.4819108,23.6713552 13.4819108,23.0381902 13.8724351,22.6476659 L17.62,18.9 L13.8724351,15.1523341 C13.4819108,14.7618098 13.4819108,14.1286448 13.8724351,13.7381205 L14.4381205,13.1724351 C14.8286448,12.7819108 15.4618098,12.7819108 15.8523341,13.1724351 Z M9.9645,2.1 C10.262175,2.1 10.500315,2.3149875 10.5449662,2.60675625 L10.5525,2.70666667 L10.5525,6.95333333 C10.5525,7.88439815 11.0769815,8.47725566 11.9401906,8.54025506 L12.096,8.54583333 L16.212,8.54583333 C16.509675,8.54583333 16.747815,8.76082083 16.7924662,9.05258958 L16.8,9.1525 L16.798,12.488 L15.7746952,11.4648972 C15.4142112,11.1044132 14.8469801,11.0766837 14.4546889,11.3817086 L14.3604816,11.4648972 L11.8148972,14.0104816 C11.4544132,14.3709656 11.4266837,14.9381966 11.7317086,15.3304878 L11.8148972,15.4246952 L14.24,17.85 L13.0169787,19.0732233 C12.6740731,19.4161289 12.4817142,19.8525722 12.4399019,20.3004211 L3.864,20.3 C2.956275,20.3 2.1812175,19.5471646 2.10598106,18.6266522 L2.1,18.48 L2.1,3.92 C2.1,2.98345833 2.82967125,2.18379583 3.72186019,2.10617094 L3.864,2.1 L9.9645,2.1 Z M16.7030769,6.20846154 L13.2784615,2.21307692 C13.2138462,2.13769231 13.0846154,2.1 12.9876923,2.1 C12.7938462,2.1 12.6,2.28846154 12.6,2.51461538 L12.6,5.71846154 C12.6,6.39692308 13.1169231,7 13.6984615,7 L16.4446154,7 C16.6384615,7 16.8,6.77384615 16.8,6.54769231 C16.8,6.43461538 16.7676923,6.28384615 16.7030769,6.20846154 L16.7030769,6.20846154 Z"/>
  </defs>
  <g fill="none" fill-rule="evenodd">
    <circle cx="20" cy="20" r="20" fill="#C23934"/>
    <g transform="translate(6.154 6.154)">
      <mask id="cancel-b" fill="#fff">
        <use xlink:href="#cancel-a"/>
      </mask>
      <use fill="#FFF" xlink:href="#cancel-a"/>
      <g fill="#FFF" mask="url(#cancel-b)">
        <rect width="28" height="28"/>
      </g>
    </g>
  </g>
</svg>
