<svg xmlns="http://www.w3.org/2000/svg" xmlns:xlink="http://www.w3.org/1999/xlink" width="40" height="40" viewBox="0 0 40 40">
  <defs>
    <path id="circlar-shape-copy-10-a" d="M3.588,1.95 L9.25275,1.95 C9.5291625,1.95 9.7502925,2.14963125 9.79175438,2.42055938 L9.79875,2.51333333 L9.79875,6.45666667 C9.79875,7.31823529 10.282404,7.86792388 11.0790105,7.92961191 L11.232,7.93541667 L15.054,7.93541667 C15.3304125,7.93541667 15.5515425,8.13504792 15.5930044,8.40597604 L15.6,8.49875 L15.5999387,10.4006143 C14.5699988,10.4259171 13.7331973,11.2298287 13.6558374,12.2460459 L13.65,12.4 L13.65,13.65 L12.4,13.65 C11.3456382,13.65 10.4818349,14.4658778 10.4054857,15.5007377 L10.4,15.65 L10.4,18.85 L3.588,18.85 C2.74744737,18.85 2.02940443,18.1548061 1.95614937,17.3032767 L1.95,17.16 L1.95,3.64 C1.95,2.77276316 2.62380332,2.03192521 3.4491318,1.95634458 L3.588,1.95 L9.25275,1.95 Z M18.5,11.7 C19.0522847,11.7 19.5,12.1477153 19.5,12.7 L19.499,16.25 L23.05,16.25 C23.6022847,16.25 24.05,16.6977153 24.05,17.25 L24.05,17.85 C24.05,18.4022847 23.6022847,18.85 23.05,18.85 L19.499,18.85 L19.5,23.05 C19.5,23.6022847 19.0522847,24.05 18.5,24.05 L17.9,24.05 C17.3477153,24.05 16.9,23.6022847 16.9,23.05 L16.9,18.85 L12.7,18.85 C12.1477153,18.85 11.7,18.4022847 11.7,17.85 L11.7,17.25 C11.7,16.6977153 12.1477153,16.25 12.7,16.25 L16.9,16.25 L16.9,12.7 C16.9,12.1477153 17.3477153,11.7 17.9,11.7 L18.5,11.7 Z M12.06,1.95 C12.1275,1.95 12.211875,1.9696875 12.2751562,2.0090625 L12.33,2.055 L15.51,5.765 C15.57,5.835 15.6,5.975 15.6,6.08 C15.6,6.26375 15.4851563,6.4475 15.3358594,6.49056641 L15.27,6.5 L12.72,6.5 C12.216,6.5 11.7642667,6.01217778 11.7062756,5.43492148 L11.7,5.31 L11.7,2.335 C11.7,2.125 11.88,1.95 12.06,1.95 Z"/>
  </defs>
  <g fill="none" fill-rule="evenodd">
    <circle cx="20" cy="20" r="20" fill="#54698D"/>
    <g transform="translate(6.923 6.923)">
      <mask id="circlar-shape-copy-10-b" fill="#fff">
        <use xlink:href="#circlar-shape-copy-10-a"/>
      </mask>
      <use fill="#FFF" xlink:href="#circlar-shape-copy-10-a"/>
      <g fill="#FFF" mask="url(#circlar-shape-copy-10-b)">
        <rect width="26" height="26"/>
      </g>
    </g>
  </g>
</svg>
