<svg xmlns="http://www.w3.org/2000/svg" xmlns:xlink="http://www.w3.org/1999/xlink" width="40" height="40" viewBox="0 0 40 40">
  <defs>
    <path id="import-signed-a" d="M9.9645,2.1 C10.262175,2.1 10.500315,2.32325625 10.5449663,2.62624687 L10.5525,2.73 L10.5525,7.14 C10.5525,8.106875 11.0769815,8.72253472 11.9401906,8.78795718 L12.096,8.79375 L16.212,8.79375 C16.509675,8.79375 16.747815,9.01700625 16.7924662,9.31999687 L16.8,9.42375 L16.8,13.415 L11.8954401,18.2348966 C11.1462859,18.9710301 10.854976,20.0207596 11.0638115,21.000834 L3.864,21 C2.956275,21 2.1812175,20.2182094 2.10598106,19.2622927 L2.1,19.11 L2.1,3.99 C2.1,3.0174375 2.82967125,2.18701875 3.72186019,2.10640828 L3.864,2.1 L9.9645,2.1 Z M12.6933333,14 L4.80666667,14 C4.50636667,14 4.25520667,14.1701 4.20797767,14.39123 L4.2,14.4666667 L4.2,14.9333333 C4.2,15.1643333 4.42113,15.3575333 4.708599,15.3938633 L4.80666667,15.4 L12.6933333,15.4 C12.9936333,15.4 13.2447933,15.2299 13.2920223,15.00877 L13.3,14.9333333 L13.3,14.4666667 C13.3,14.21 13.027,14 12.6933333,14 Z M13.4235294,10.5 L4.77647059,10.5 C4.49464052,10.5 4.25835875,10.6659259 4.20933107,10.8830636 L4.2,10.9666667 L4.2,11.4333333 C4.2,11.6614815 4.40496732,11.8527572 4.67319616,11.8924463 L4.77647059,11.9 L13.4235294,11.9 C13.7053595,11.9 13.9416412,11.7340741 13.9906689,11.5169364 L14,11.4333333 L14,10.9666667 C14,10.71 13.7405882,10.5 13.4235294,10.5 Z M5.88404752,3.52182202 L5.84191349,3.56061672 L5.18356936,4.77295113 C5.18356936,4.7931567 5.14990404,4.81336227 5.12044688,4.82220221 L5.09379516,4.82683266 L3.62748324,5.01541801 C3.55566388,5.03697062 3.50299635,5.1102495 3.50012358,5.16628629 L3.50778431,5.20400336 L4.5850747,6.14693012 C4.60502452,6.16489063 4.61167446,6.19482481 4.61389111,6.22076777 L4.61499943,6.25469318 L4.37560157,7.57479064 C4.3499518,7.64406689 4.43422962,7.71334314 4.51536665,7.69779133 L4.55514997,7.6825537 L5.87183822,7.06291611 C5.89178805,7.0449556 5.92503775,7.03896877 5.95385416,7.0449556 L5.99153716,7.06291611 L7.30822541,7.6825537 C7.38517473,7.72873787 7.48410956,7.67595596 7.49196153,7.60903604 L7.48777381,7.57479064 L7.24837595,6.25469318 C7.24837595,6.21877216 7.24837595,6.19482481 7.25724254,6.17486869 L7.27830068,6.14693012 L8.35559107,5.20400336 C8.43254039,5.15781919 8.39956211,5.07204859 8.33203516,5.03151963 L8.29574161,5.01541801 L6.82942968,4.82683266 C6.80947986,4.82683266 6.78953004,4.81485898 6.76958022,4.79889408 L6.73965548,4.77295113 L6.08131136,3.56061672 C6.03343178,3.49595889 5.94724855,3.48302732 5.88404752,3.52182202 Z M17.5189922,14.843131 C17.7251938,14.6522897 18.0860465,14.6522897 18.3437984,14.843131 L18.3437984,14.843131 L19.1686047,15.6542066 C19.3748062,15.8450479 19.3748062,16.1790202 19.1686047,16.4175719 L19.1686047,16.4175719 L16.9003876,18.5168264 C16.7972868,18.6599574 16.8488372,18.9462194 17.0034884,19.04164 C17.0550388,19.0893504 17.1065891,19.1370607 17.2096899,19.1370607 L17.2096899,19.1370607 L24.5813953,19.1370607 C24.8906977,19.2324814 25.1484496,19.471033 25.2,19.757295 L25.2,19.757295 L25.2,20.9023429 C25.1484496,21.1886049 24.8906977,21.4271565 24.5813953,21.4271565 L24.5813953,21.4271565 L17.2096899,21.4271565 C16.951938,21.4271565 16.7972868,21.5702875 16.7972868,21.8088392 C16.7972868,21.9519702 16.7972868,21.9996805 16.9003876,22.0951012 L16.9003876,22.0951012 L19.1686047,24.1943557 C19.3748062,24.385197 19.3748062,24.7191693 19.1686047,24.957721 L19.1686047,24.957721 L18.2922481,25.7210863 C18.0860465,25.9596379 17.7251938,25.9596379 17.4158915,25.7210863 L17.4158915,25.7210863 L12.0546512,20.6637913 C11.8484496,20.4729499 11.8484496,20.1389776 12.0546512,19.900426 L12.0546512,19.900426 Z M12.9876923,2.1 C13.0846154,2.1 13.2138462,2.13769231 13.2784615,2.21307692 L13.2784615,2.21307692 L16.7030769,6.20846154 C16.7676923,6.28384615 16.8,6.43461538 16.8,6.54769231 C16.8,6.77384615 16.6384615,7 16.4446154,7 L16.4446154,7 L13.6984615,7 C13.1169231,7 12.6,6.39692308 12.6,5.71846154 L12.6,5.71846154 L12.6,2.51461538 C12.6,2.28846154 12.7938462,2.1 12.9876923,2.1 Z"/>
  </defs>
  <g fill="none" fill-rule="evenodd">
    <circle cx="20" cy="20" r="20" fill="#54698D"/>
    <g transform="translate(6.154 6.154)">
      <mask id="import-signed-b" fill="#fff">
        <use xlink:href="#import-signed-a"/>
      </mask>
      <use fill="#FFF" xlink:href="#import-signed-a"/>
      <g fill="#FFF" mask="url(#import-signed-b)">
        <rect width="28" height="28"/>
      </g>
    </g>
  </g>
</svg>
