<svg xmlns="http://www.w3.org/2000/svg" xmlns:xlink="http://www.w3.org/1999/xlink" width="40" height="40" viewBox="0 0 40 40">
  <defs>
    <path id="circlar-shape-copy-10-a" d="M21.0644776,21.1778846 C18.3721699,19.8798077 16.449093,17.5721154 15.4875546,14.9278846 C15.1029392,13.9663462 14.8625546,12.8605769 14.7664007,11.8990385 L14.7664007,10.2163462 L19.9587084,10.2163462 C20.3433238,10.2163462 20.6317853,9.78365385 20.3433238,9.35096154 L13.5164007,1.17788462 C13.2760161,0.889423077 12.7471699,0.889423077 12.5548622,1.17788462 L5.92024686,9.35096154 C5.67986224,9.63942308 5.92024686,10.2163462 6.30486224,10.2163462 L11.5452469,10.2163462 L11.5452469,11.8990385 C11.4010161,12.9086538 11.1606315,14.0144231 10.824093,14.9278846 C9.86255455,17.5721154 7.93947763,19.8798077 5.24716994,21.1778846 C4.86255455,21.3221154 4.71832378,21.8028846 4.86255455,22.1394231 L5.48755455,23.6298077 C5.67986224,24.0144231 6.11255455,24.1586538 6.49716994,23.9182692 C9.38178532,22.5240385 11.6894776,20.3125 13.0837084,17.6682692 C14.5260161,20.3125 16.7856315,22.5240385 19.7183238,23.9182692 C20.1029392,24.1105769 20.5837084,24.0625 20.7279392,23.6298077 L21.3529392,22.1394231 C21.6414007,21.8028846 21.449093,21.3701923 21.0644776,21.1778846 Z"/>
  </defs>
  <g fill="none" fill-rule="evenodd">
    <circle cx="20" cy="20" r="20" fill="#54698D"/>
    <g transform="rotate(90 12.6 20.154)">
      <mask id="circlar-shape-copy-10-b" fill="#fff">
        <use xlink:href="#circlar-shape-copy-10-a"/>
      </mask>
      <use fill="#706E6B" xlink:href="#circlar-shape-copy-10-a"/>
      <g fill="#FFF" mask="url(#circlar-shape-copy-10-b)">
        <rect width="27" height="27" transform="translate(-.962 -.962)"/>
      </g>
    </g>
  </g>
</svg>
