<svg xmlns="http://www.w3.org/2000/svg" xmlns:xlink="http://www.w3.org/1999/xlink" width="40" height="40" viewBox="0 0 40 40">
  <defs>
    <path id="circlar-shape-copy-10-a" d="M5.50666667,14 C5.20636667,14 4.95520667,14.1701 4.90797767,14.39123 L4.9,14.4666667 L4.9,14.9333333 C4.9,15.1643333 5.12113,15.3575333 5.408599,15.3938633 L5.50666667,15.4 L10.2415363,15.400077 C10.1820621,15.5894629 10.15,15.7909872 10.15,16 L10.15,16 L10.15,19.6 L4.564,19.6 C3.656275,19.6 2.8812175,18.8471646 2.80598106,17.9266522 L2.8,17.78 L2.8,3.22 C2.8,2.28345833 3.52967125,1.48379583 4.42186019,1.40617094 L4.564,1.4 L10.6645,1.4 C10.962175,1.4 11.200315,1.6149875 11.2449663,1.90675625 L11.2525,2.00666667 L11.2525,6.25333333 C11.2525,7.18439815 11.7769815,7.77725566 12.6401906,7.84025506 L12.796,7.84583333 L16.912,7.84583333 C17.209675,7.84583333 17.447815,8.06082083 17.4924662,8.35258958 L17.5,8.4525 L17.5009683,14.2401144 C17.218137,14.0869617 16.894224,14 16.55,14 L16.55,14 L13.3933333,14 L13.3933333,14 L5.50666667,14 Z M14.1235294,10.5 L5.47647059,10.5 C5.19464052,10.5 4.95835875,10.6659259 4.90933107,10.8830636 L4.9,10.9666667 L4.9,11.4333333 C4.9,11.6614815 5.10496732,11.8527572 5.37319616,11.8924463 L5.47647059,11.9 L14.1235294,11.9 C14.4053595,11.9 14.6416412,11.7340741 14.6906689,11.5169364 L14.7,11.4333333 L14.7,10.9666667 C14.7,10.71 14.4405882,10.5 14.1235294,10.5 Z M6.58404752,3.52182202 L6.54191349,3.56061672 L5.88356936,4.77295113 C5.88356936,4.7931567 5.84990404,4.81336227 5.82044688,4.82220221 L5.79379516,4.82683266 L4.32748324,5.01541801 C4.25566388,5.03697062 4.20299635,5.1102495 4.20012358,5.16628629 L4.20778431,5.20400336 L5.2850747,6.14693012 C5.30502452,6.16489063 5.31167446,6.19482481 5.31389111,6.22076777 L5.31499943,6.25469318 L5.07560157,7.57479064 C5.0499518,7.64406689 5.13422962,7.71334314 5.21536665,7.69779133 L5.25514997,7.6825537 L6.57183822,7.06291611 C6.59178805,7.0449556 6.62503775,7.03896877 6.65385416,7.0449556 L6.69153716,7.06291611 L8.00822541,7.6825537 C8.08517473,7.72873787 8.18410956,7.67595596 8.19196153,7.60903604 L8.18777381,7.57479064 L7.94837595,6.25469318 C7.94837595,6.21877216 7.94837595,6.19482481 7.95724254,6.17486869 L7.97830068,6.14693012 L9.05559107,5.20400336 C9.13254039,5.15781919 9.09956211,5.07204859 9.03203516,5.03151963 L8.99574161,5.01541801 L7.52942968,4.82683266 C7.50947986,4.82683266 7.48953004,4.81485898 7.46958022,4.79889408 L7.43965548,4.77295113 L6.78131136,3.56061672 C6.73343178,3.49595889 6.64724855,3.48302732 6.58404752,3.52182202 Z M13.980789,16.2387665 C14.1680961,16.0537445 14.4490566,16.0537445 14.6363636,16.2387665 L14.6363636,16.2387665 L17.8830189,19.507489 C18.0703259,19.692511 18.0703259,19.9700441 17.8830189,20.1550661 L17.8830189,20.1550661 L17.2274443,20.8026432 C17.0713551,20.9876652 16.7591767,20.9876652 16.5718696,20.8026432 L16.5718696,20.8026432 L15.7602058,20.0008811 C15.541681,19.815859 15.1982847,19.939207 15.1982847,20.2167401 L15.1982847,20.2167401 L15.1982847,24.2872247 C15.1982847,24.5339207 15.4168096,24.7497797 15.6665523,24.7497797 L15.6665523,24.7497797 L19.1005146,24.7497797 C19.3502573,24.7497797 19.5687822,24.9656388 19.6,25.2123348 L19.6,25.2123348 L19.6,26.1374449 C19.6,26.384141 19.3814751,26.6 19.1317324,26.6 L19.1317324,26.6 L14.6051458,26.6 C13.9183533,26.6 13.3252144,26.0449339 13.3252144,25.3665198 L13.3252144,25.3665198 L13.3252144,20.1859031 C13.3252144,19.90837 12.9818182,19.785022 12.7945111,19.9700441 L12.7945111,19.9700441 L11.9516295,20.8026432 C11.7643225,20.9876652 11.4833619,20.9876652 11.2960549,20.8026432 L11.2960549,20.8026432 L10.6404803,20.1550661 C10.4531732,19.9700441 10.4531732,19.692511 10.6404803,19.507489 L10.6404803,19.507489 Z M22.5250216,15.4 C23.215962,15.4 23.781277,15.9550661 23.781277,16.6334802 L23.781277,16.6334802 L23.781277,21.7832599 C23.781277,22.060793 24.0953408,22.214978 24.3151855,21.9991189 L24.3151855,21.9991189 L25.1631579,21.1665198 C25.3515962,20.9814978 25.6342537,20.9814978 25.822692,21.1665198 L25.822692,21.1665198 L26.4822261,21.8140969 C26.639258,21.9991189 26.639258,22.307489 26.4822261,22.492511 L26.4822261,22.492511 L23.1531493,25.7612335 C22.964711,25.9462555 22.6820535,25.9462555 22.4936152,25.7612335 L22.4936152,25.7612335 L19.1959448,22.523348 C19.0075065,22.338326 19.0075065,22.060793 19.1959448,21.8757709 L19.1959448,21.8757709 L19.8554789,21.1973568 C20.0125108,21.0123348 20.3265746,21.0123348 20.5150129,21.1973568 L20.5150129,21.1973568 L21.3315789,21.9991189 C21.5514236,22.184141 21.8968939,22.060793 21.8968939,21.7832599 L21.8968939,21.7832599 L21.8968939,17.7127753 C21.8968939,17.4660793 21.6770492,17.2502203 21.4257981,17.2502203 L21.4257981,17.2502203 L17.9710958,17.2502203 C17.7198447,17.2502203 17.5,17.0343612 17.5,16.7876652 L17.5,16.7876652 L17.5,15.8625551 C17.5,15.615859 17.7198447,15.4 17.9710958,15.4 L17.9710958,15.4 Z M13.6876923,1.4 C13.7846154,1.4 13.9138462,1.43769231 13.9784615,1.51307692 L13.9784615,1.51307692 L17.4030769,5.50846154 C17.4676923,5.58384615 17.5,5.73461538 17.5,5.84769231 C17.5,6.07384615 17.3384615,6.3 17.1446154,6.3 L17.1446154,6.3 L14.3984615,6.3 C13.8169231,6.3 13.3,5.69692308 13.3,5.01846154 L13.3,5.01846154 L13.3,1.81461538 C13.3,1.58846154 13.4938462,1.4 13.6876923,1.4 Z"/>
  </defs>
  <g fill="none" fill-rule="evenodd">
    <circle cx="20" cy="20" r="20" fill="#54698D"/>
    <g transform="translate(6.154 6.154)">
      <mask id="circlar-shape-copy-10-b" fill="#fff">
        <use xlink:href="#circlar-shape-copy-10-a"/>
      </mask>
      <use fill="#FFF" xlink:href="#circlar-shape-copy-10-a"/>
      <g fill="#FFF" mask="url(#circlar-shape-copy-10-b)">
        <rect width="28" height="28"/>
      </g>
    </g>
  </g>
</svg>
