<svg xmlns="http://www.w3.org/2000/svg" xmlns:xlink="http://www.w3.org/1999/xlink" width="40" height="40" viewBox="0 0 40 40">
  <defs>
    <path id="circlar-shape-copy-a" d="M25.8797161,12.6777778 L25.9,25.9 L11.2,24.6185409 L11.3991821,14.1302352 L25.8797161,12.6777778 Z M21.8166667,14.3277778 L14.8188626,14.963671 L14.8166667,16.5668891 L17.3256376,16.3353924 L17.3823175,24.3277778 L19.1690259,24.2296382 L19.1434472,16.1962032 L21.7988592,16.0003775 L21.8166667,14.3277778 Z M9.9645,2.1 C10.262175,2.1 10.500315,2.3149875 10.5449663,2.60675625 L10.5525,2.70666667 L10.5525,6.95333333 C10.5525,7.88439815 11.0769815,8.47725566 11.9401906,8.54025506 L12.096,8.54583333 L16.212,8.54583333 C16.509675,8.54583333 16.747815,8.76082083 16.7924662,9.05258958 L16.8,9.1525 L16.8,12.108 L9.35041368,12.8315062 L9.227,20.3 L3.864,20.3 C2.956275,20.3 2.1812175,19.5471646 2.10598106,18.6266522 L2.1,18.48 L2.1,3.92 C2.1,2.98345833 2.82967125,2.18379583 3.72186019,2.10617094 L3.864,2.1 L9.9645,2.1 Z M16.7030769,6.20846154 L13.2784615,2.21307692 C13.2138462,2.13769231 13.0846154,2.1 12.9876923,2.1 C12.7938462,2.1 12.6,2.28846154 12.6,2.51461538 L12.6,5.71846154 C12.6,6.39692308 13.1169231,7 13.6984615,7 L16.4446154,7 C16.6384615,7 16.8,6.77384615 16.8,6.54769231 C16.8,6.43461538 16.7676923,6.28384615 16.7030769,6.20846154 L16.7030769,6.20846154 Z"/>
  </defs>
  <g fill="none" fill-rule="evenodd">
    <circle cx="20" cy="20" r="20" fill="#005FB2"/>
    <g transform="translate(6.154 6.154)">
      <mask id="circlar-shape-copy-b" fill="#fff">
        <use xlink:href="#circlar-shape-copy-a"/>
      </mask>
      <use fill="#FFF" xlink:href="#circlar-shape-copy-a"/>
      <g fill="#FFF" mask="url(#circlar-shape-copy-b)">
        <rect width="28" height="28"/>
      </g>
    </g>
  </g>
</svg>
