<svg xmlns="http://www.w3.org/2000/svg" xmlns:xlink="http://www.w3.org/1999/xlink" width="40" height="40" viewBox="0 0 40 40">
  <defs>
    <path id="send-review-a" d="M9.9645,2.1 C10.29525,2.1 10.5525,2.36541667 10.5525,2.70666667 L10.5525,2.70666667 L10.5525,6.95333333 C10.5525,7.93916667 11.1405,8.54583333 12.096,8.54583333 L12.096,8.54583333 L16.212,8.54583333 C16.54275,8.54583333 16.8,8.81125 16.8,9.1525 L16.8,9.1525 L16.8,12.6 L9.35,12.6 C8.2956382,12.6 7.43183488,13.4158778 7.35548574,14.4507377 L7.35,14.6 L7.35,20.3 L3.864,20.3 C2.956275,20.3 2.1812175,19.5471646 2.10598106,18.6266522 L2.1,18.48 L2.1,3.92 C2.1,2.93416667 2.9085,2.1 3.864,2.1 L3.864,2.1 Z M9.135,16.5292481 C9.135,16.1431872 9.555,15.9677049 9.835,16.2133801 L9.835,16.2133801 L15.995,21.9691977 C16.415,22.3201622 16.94,22.5307409 17.5,22.5307409 C18.06,22.5307409 18.585,22.3201622 19.005,21.9341013 L19.005,21.9341013 L25.2,16.2133801 C25.48,15.9677049 25.9,16.1782836 25.9,16.5292481 L25.9,16.5292481 L25.9,24.496142 C25.9,25.2682639 25.27,25.9 24.5,25.9 L24.5,25.9 L10.5,25.9 C9.73,25.9 9.1,25.2682639 9.1,24.496142 C9.1,24.496142 9.1,16.4239588 9.135,16.5292481 Z M25.388883,14 C25.8476089,14 25.9887553,14.4250531 25.8476089,14.6866242 L25.8476089,14.6866242 L17.8728356,21.5528662 C17.661116,21.7490446 17.3435365,21.7490446 17.1318168,21.5528662 L17.1318168,21.5528662 L9.15704354,14.7193206 C8.99351905,14.2922865 9.19233015,14.0326964 9.61576944,14.0326964 L9.61576944,14.0326964 Z M12.9876923,2.1 C13.0846154,2.1 13.2138462,2.13769231 13.2784615,2.21307692 L13.2784615,2.21307692 L16.7030769,6.20846154 C16.7676923,6.28384615 16.8,6.43461538 16.8,6.54769231 C16.8,6.77384615 16.6384615,7 16.4446154,7 L16.4446154,7 L13.6984615,7 C13.1169231,7 12.6,6.39692308 12.6,5.71846154 L12.6,5.71846154 L12.6,2.51461538 C12.6,2.28846154 12.7938462,2.1 12.9876923,2.1 Z"/>
  </defs>
  <g fill="none" fill-rule="evenodd">
    <circle cx="20" cy="20" r="20" fill="#005FB2"/>
    <g transform="translate(6.154 6.154)">
      <mask id="send-review-b" fill="#fff">
        <use xlink:href="#send-review-a"/>
      </mask>
      <use fill="#FFF" xlink:href="#send-review-a"/>
      <g fill="#FFF" mask="url(#send-review-b)">
        <rect width="28" height="28"/>
      </g>
    </g>
  </g>
</svg>
