<svg xmlns="http://www.w3.org/2000/svg" xmlns:xlink="http://www.w3.org/1999/xlink" width="40" height="40" viewBox="0 0 40 40">
  <defs>
    <path id="sign_echo-a" d="M14.1580645,5.97333333 L18.1002081,5.97333333 C18.3886576,5.97333333 18.6290323,5.73051491 18.6290323,5.43913279 C18.6290323,5.29344173 18.5809573,5.19631436 18.4848075,5.05062331 L13.5811655,0.145691057 C13.4369407,0.0485636856 13.3407908,0 13.1965661,0 C12.9081165,0 12.6677419,0.242818428 12.6677419,0.534200542 L12.6677419,4.46785908 C12.6677419,5.29344173 13.3407908,5.97333333 14.1580645,5.97333333 Z M22.8487324,11.1015648 L22.417988,10.6694105 C22.130825,10.3813076 21.7000806,10.3813076 21.3650571,10.6694105 L15.6696584,16.3834512 C15.6217979,16.4314684 15.6696584,16.4794855 15.6696584,16.5275027 L15.6696584,17.7279314 C15.6696584,17.8239657 15.6696584,17.92 15.7653794,17.92 L17.0097522,17.92 C17.0576127,17.92 17.1054732,17.8719829 17.1533337,17.8719829 L22.8487324,12.2059593 C23.1837559,11.8218221 23.1837559,11.3896677 22.8487324,11.1015648 L22.8487324,11.1015648 Z M9.65060692,0 C10.0827236,0 10.4188144,0.340869565 10.4188144,0.730434783 L10.4188144,0.730434783 L10.4188144,5.98956522 C10.4188144,7.20695652 11.3790738,8.22956522 12.627411,8.22956522 L12.627411,8.22956522 L17.9088377,8.22956522 C18.2929415,8.22956522 18.6290323,8.57043478 18.6290323,8.96 L18.6290323,8.96 L18.6290323,9.93391304 C18.6290323,10.1286957 18.5330063,10.3234783 18.3889674,10.4695652 L18.3889674,10.4695652 L13.8277353,15.0956522 C13.4916445,15.3391304 13.3956186,15.7286957 13.3956186,16.1182609 L13.3956186,16.1182609 L13.3959023,17.7044551 C11.8888134,16.7793909 10.6393106,16.852876 9.81172786,18.0710267 L9.61572136,18.3982913 L9.48541577,18.6024436 C8.83707498,19.5831808 8.56345072,19.4135825 8.13875109,17.974382 L8.06170724,17.705694 C7.5960584,16.0399221 7.02593962,15.2628962 6.12421814,15.4197964 C5.5681728,15.5165486 5.30149708,15.7742748 4.52645932,16.7751788 L4.18295291,17.217313 L4.00412034,17.4349188 L3.94836265,17.4992952 C3.41484063,18.1068868 3.30492011,18.1249825 3.14797018,17.8614267 C2.99470249,17.6040542 2.65233273,17.5142604 2.38326593,17.6608667 C2.11419912,17.807473 2.02032539,18.1349626 2.17359308,18.3923351 C2.80802664,19.4576982 3.84271629,19.2873617 4.8070311,18.1891697 L4.93457401,18.0400416 L5.06923228,17.8745671 L5.51552969,17.301519 L5.76619292,16.9904817 C6.03898572,16.6622816 6.19458313,16.5177871 6.29796136,16.4821786 L6.32490956,16.4751107 C6.31745915,16.4764071 6.32896294,16.4822767 6.41954581,16.6057339 C6.58174523,16.8267986 6.75391863,17.2224172 6.92658913,17.8030276 L6.97839571,17.9827709 C7.7651541,20.7972523 9.33533703,21.0923398 10.7717573,18.6241233 C11.2590329,17.9090107 12.0675449,17.9703315 13.4295694,19.053533 C13.5669112,19.6864618 14.1235799,20.16 14.7879947,20.16 L14.7879947,20.16 L18.1969155,20.16 C18.3889674,20.16 18.5810193,20.4034783 18.5330063,20.5982609 C18.3409544,21.6208696 17.380695,22.4 16.3244097,22.4 L16.3244097,22.4 L2.20859661,22.4 C1.00827236,22.4 0,21.3773913 0,20.16 L0,20.16 L0,2.24 C0,1.0226087 1.00827236,0 2.20859661,0 L2.20859661,0 Z M3.09643359,8.4 L3.09643359,1.88603516 L7.92636523,1.88603516 L7.92636523,2.98798828 L4.41166797,2.98798828 L4.41166797,4.43208008 L7.68198047,4.43208008 L7.68198047,5.52958984 L4.41166797,5.52958984 L4.41166797,7.30249023 L8.0507793,7.30249023 L8.0507793,8.4 L3.09643359,8.4 Z"/>
  </defs>
  <g fill="none" fill-rule="evenodd">
    <circle cx="20" cy="20" r="20" fill="#005FB2"/>
    <g transform="translate(8.954 8.954)">
      <mask id="sign_echo-b" fill="#fff">
        <use xlink:href="#sign_echo-a"/>
      </mask>
      <use fill="#0079CC" xlink:href="#sign_echo-a"/>
      <g fill="#FFF" mask="url(#sign_echo-b)">
        <rect width="29" height="28" transform="translate(-2.8 -2.8)"/>
      </g>
    </g>
  </g>
</svg>
