<svg xmlns="http://www.w3.org/2000/svg" xmlns:xlink="http://www.w3.org/1999/xlink" width="40" height="40" viewBox="0 0 40 40">
  <defs>
    <path id="circlar-shape-copy-11-a" d="M11.1724891,9.8 C11.1724891,10.1684211 10.9248908,10.5 10.6497817,10.5 L5.42270742,10.5 C5.14759825,10.5 4.9,10.1684211 4.9,9.8 L4.9,9.1 C4.9,8.73157895 5.14759825,8.4 5.42270742,8.4 L10.6772926,8.4 C10.9524017,8.4 11.2,8.73157895 11.2,9.1 L11.2,9.8 L11.1724891,9.8 Z M4.9,5.6 C4.9,5.23157895 5.25764192,4.9 5.65502183,4.9 L13.2449782,4.9 C13.6423581,4.9 14,5.23157895 14,5.6 L14,6.3 C14,6.66842105 13.6423581,7 13.2449782,7 L5.65502183,7 C5.25764192,7 4.9,6.66842105 4.9,6.3 L4.9,5.6 L4.9,5.6 Z M16.6135916,2.1 C17.896561,2.1 18.9389737,3.09726027 18.8988809,4.28630137 L18.898,15.153 L11.1396435,12.3976317 C11.0125655,12.3524979 10.8781238,12.3336877 10.7444257,12.3417955 L10.6112759,12.3588981 C10.0694491,12.4658666 9.71692693,12.991819 9.82389545,13.5336457 L9.82389545,13.5336457 L10.882,18.899 L4.38528929,18.9 C3.19645077,18.9 2.19102353,17.9875728 2.1058424,16.8676371 L2.1,16.7136986 L2.1,4.28630137 C2.1,3.09726027 3.14241266,2.1 4.42538208,2.1 L4.42538208,2.1 Z M11.230625,25.3110308 L12.578125,20.5109314 L18.274375,20.5109314 C18.4275,20.5109314 18.580625,20.3636891 18.580625,20.2164468 L18.580625,19.6274775 C18.580625,19.4802352 18.4275,19.3329929 18.274375,19.3329929 L12.578125,19.3329929 L11.26125,14.6212389 C11.230625,14.562342 11.2,14.4739966 11.2,14.3856512 C11.2,14.179512 11.414375,13.9733727 11.659375,14.0028212 C11.720625,14.0028212 11.75125,14.0322697 11.8125,14.0322697 L25.59375,19.4802352 C25.7775,19.5391321 25.9,19.7158229 25.9,19.8925137 C25.9,20.0692044 25.7775,20.2164468 25.624375,20.2753437 L11.8125,25.8705515 C11.75125,25.9 11.69,25.9 11.62875,25.9 C11.38375,25.8705515 11.2,25.6938608 11.2,25.4582731 C11.2,25.3993761 11.2,25.3699277 11.230625,25.3110308 Z"/>
  </defs>
  <g fill="none" fill-rule="evenodd">
    <circle cx="20" cy="20" r="20" fill="#54698D"/>
    <g transform="translate(6.154 6.154)">
      <mask id="circlar-shape-copy-11-b" fill="#fff">
        <use xlink:href="#circlar-shape-copy-11-a"/>
      </mask>
      <use fill="#FFF" xlink:href="#circlar-shape-copy-11-a"/>
      <g fill="#FFF" mask="url(#circlar-shape-copy-11-b)">
        <rect width="28" height="28"/>
      </g>
    </g>
  </g>
</svg>
