<svg xmlns="http://www.w3.org/2000/svg" xmlns:xlink="http://www.w3.org/1999/xlink" width="40" height="40" viewBox="0 0 40 40">
  <defs>
    <path id="terminate-a" d="M15.8523341,13.1724351 L19.6,16.92 L23.3476659,13.1724351 C23.7381902,12.7819108 24.3713552,12.7819108 24.7618795,13.1724351 L25.3275649,13.7381205 C25.7180892,14.1286448 25.7180892,14.7618098 25.3275649,15.1523341 L21.58,18.9 L25.3275649,22.6476659 C25.7180892,23.0381902 25.7180892,23.6713552 25.3275649,24.0618795 L24.7618795,24.6275649 C24.3713552,25.0180892 23.7381902,25.0180892 23.3476659,24.6275649 L19.6,20.88 L15.8523341,24.6275649 C15.4618098,25.0180892 14.8286448,25.0180892 14.4381205,24.6275649 L13.8724351,24.0618795 C13.4819108,23.6713552 13.4819108,23.0381902 13.8724351,22.6476659 L17.62,18.9 L13.8724351,15.1523341 C13.4819108,14.7618098 13.4819108,14.1286448 13.8724351,13.7381205 L14.4381205,13.1724351 C14.8286448,12.7819108 15.4618098,12.7819108 15.8523341,13.1724351 Z M9.9645,2.1 C10.262175,2.1 10.500315,2.3149875 10.5449662,2.60675625 L10.5525,2.70666667 L10.5525,6.95333333 C10.5525,7.88439815 11.0769815,8.47725566 11.9401906,8.54025506 L12.096,8.54583333 L16.212,8.54583333 C16.509675,8.54583333 16.747815,8.76082083 16.7924662,9.05258958 L16.8,9.1525 L16.798,12.488 L15.7746952,11.4648972 C15.4142112,11.1044132 14.8469801,11.0766837 14.4546889,11.3817086 L14.3604816,11.4648972 L13.999,11.825 L14,11.6666667 C14,11.41 13.7405882,11.2 13.4235294,11.2 L4.77647059,11.2 C4.49464052,11.2 4.25835875,11.3659259 4.20933107,11.5830636 L4.2,11.6666667 L4.2,12.1333333 C4.2,12.3614815 4.40496732,12.5527572 4.67319616,12.5924463 L4.77647059,12.6 L13.224,12.6 L11.8148972,14.0104816 C11.6239629,14.2014159 11.5263798,14.4503512 11.5221479,14.700572 L4.80666667,14.7 C4.50636667,14.7 4.25520667,14.8701 4.20797767,15.09123 L4.2,15.1666667 L4.2,15.6333333 C4.2,15.8643333 4.42113,16.0575333 4.708599,16.0938633 L4.80666667,16.1 L12.49,16.1 L14.24,17.85 L13.0169787,19.0732233 C12.6740731,19.4161289 12.4817142,19.8525722 12.4399019,20.3004211 L3.864,20.3 C2.956275,20.3 2.1812175,19.5471646 2.10598106,18.6266522 L2.1,18.48 L2.1,3.92 C2.1,2.98345833 2.82967125,2.18379583 3.72186019,2.10617094 L3.864,2.1 L9.9645,2.1 Z M5.88404752,4.22182202 L5.84191349,4.26061672 L5.18356936,5.47295113 C5.18356936,5.4931567 5.14990404,5.51336227 5.12044688,5.52220221 L5.09379516,5.52683266 L3.62748324,5.71541801 C3.55566388,5.73697062 3.50299635,5.8102495 3.50012358,5.86628629 L3.50778431,5.90400336 L4.5850747,6.84693012 C4.60502452,6.86489063 4.61167446,6.89482481 4.61389111,6.92076777 L4.61499943,6.95469318 L4.37560157,8.27479064 C4.3499518,8.34406689 4.43422962,8.41334314 4.51536665,8.39779133 L4.55514997,8.3825537 L5.87183822,7.76291611 C5.89178805,7.7449556 5.92503775,7.73896877 5.95385416,7.7449556 L5.99153716,7.76291611 L7.30822541,8.3825537 C7.38517473,8.42873787 7.48410956,8.37595596 7.49196153,8.30903604 L7.48777381,8.27479064 L7.24837595,6.95469318 C7.24837595,6.91877216 7.24837595,6.89482481 7.25724254,6.87486869 L7.27830068,6.84693012 L8.35559107,5.90400336 C8.43254039,5.85781919 8.39956211,5.77204859 8.33203516,5.73151963 L8.29574161,5.71541801 L6.82942968,5.52683266 C6.80947986,5.52683266 6.78953004,5.51485898 6.76958022,5.49889408 L6.73965548,5.47295113 L6.08131136,4.26061672 C6.03343178,4.19595889 5.94724855,4.18302732 5.88404752,4.22182202 Z M16.7030769,6.20846154 L13.2784615,2.21307692 C13.2138462,2.13769231 13.0846154,2.1 12.9876923,2.1 C12.7938462,2.1 12.6,2.28846154 12.6,2.51461538 L12.6,5.71846154 C12.6,6.39692308 13.1169231,7 13.6984615,7 L16.4446154,7 C16.6384615,7 16.8,6.77384615 16.8,6.54769231 C16.8,6.43461538 16.7676923,6.28384615 16.7030769,6.20846154 L16.7030769,6.20846154 Z"/>
  </defs>
  <g fill="none" fill-rule="evenodd">
    <circle cx="20" cy="20" r="20" fill="#C23934"/>
    <g transform="translate(6.154 6.154)">
      <mask id="terminate-b" fill="#fff">
        <use xlink:href="#terminate-a"/>
      </mask>
      <use fill="#FFF" xlink:href="#terminate-a"/>
      <g fill="#FFF" mask="url(#terminate-b)">
        <rect width="28" height="28"/>
      </g>
    </g>
  </g>
</svg>
