<?xml version="1.0" encoding="UTF-8"?>
<svg width="120px" height="120px" viewBox="0 0 120 120" version="1.1" xmlns="http://www.w3.org/2000/svg" xmlns:xlink="http://www.w3.org/1999/xlink">
    <!-- Generator: Sketch 50.2 (55047) - http://www.bohemiancoding.com/sketch -->
    <title>air interface down</title>
    <desc>Created with Sketch.</desc>
    <defs></defs>
    <g id="Page-1" stroke="none" stroke-width="1" fill="none" fill-rule="evenodd">
        <g id="Custom-Preset">
            <g id="air-interface-down">
                <rect id="Rectangle-3" stroke="#FFFFFF" x="0.5" y="0.5" width="119" height="119"></rect>
                <polygon id="Rectangle" fill="#A0A3A5" transform="translate(51.254272, 51.244629) scale(-1, -1) translate(-51.254272, -51.244629) " points="39 54.3725586 51.501709 44.7521973 48.8085938 41 63.5085449 41 59.6188965 55.230957 56.6889648 51.7021484 44.4645996 61.4892578"></polygon>
                <g id="Group" transform="translate(9.000000, 45.000000)">
                    <path d="M10.541982,16.8234674 C17.733881,16.8234674 17.733881,16.8234674 17.733881,16.8234674 M27.9224147,25.9159329 C27.9224147,53.7994953 27.9224147,53.7994953 27.9224147,53.7994953 C27.9224147,56.2241531 25.5251113,58.6488109 23.1278135,58.6488109 C4.54872582,58.6488109 4.54872582,58.6488109 4.54872582,58.6488109 C2.15142413,58.6488109 0.353448276,56.2241531 0.353448276,53.7994953 C0.353448276,18.6419599 0.353448276,18.6419599 0.353448276,18.6419599 C0.353448276,16.2173026 2.15142413,14.3988095 4.54872582,14.3988095 C15.935909,14.3988095 15.935909,14.3988095 15.935909,14.3988095" id="Stroke-1" stroke="#001135" stroke-width="0.7"></path>
                    <path d="M13.481525,53.3204049 C14.6933517,53.3204049 15.2992623,52.7149027 15.2992623,51.5039039 C15.2992623,50.8984017 14.6933517,50.2928995 13.481525,50.2928995 C12.8756145,50.2928995 12.2697039,50.8984017 12.2697039,51.5039039 C12.2697039,52.7149027 12.8756145,53.3204049 13.481525,53.3204049 Z M17.7229045,20.0178571 C3.18103448,20.0178571 3.18103448,20.0178571 3.18103448,20.0178571 C3.18103448,55.1369059 3.18103448,55.1369059 3.18103448,55.1369059 C24.3879317,55.1369059 24.3879317,55.1369059 24.3879317,55.1369059 C24.3879317,26.0728678 24.3879317,26.0728678 24.3879317,26.0728678 L17.7229045,20.0178571 Z" id="Stroke-2" stroke="#68717A" stroke-width="0.7"></path>
                    <path d="M27.9224147,25.9159329 C27.9224147,53.7994953 27.9224147,53.7994953 27.9224147,53.7994953 C27.9224147,56.2241531 25.5251113,58.6488109 23.1278135,58.6488109 C4.54872582,58.6488109 4.54872582,58.6488109 4.54872582,58.6488109 C2.15142413,58.6488109 0.353448276,56.2241531 0.353448276,53.7994953 C0.353448276,18.6419599 0.353448276,18.6419599 0.353448276,18.6419599 C0.353448276,16.2173026 2.15142413,14.3988095 4.54872582,14.3988095 C15.935909,14.3988095 15.935909,14.3988095 15.935909,14.3988095" id="Stroke-3" stroke="#68717A" stroke-width="0.7"></path>
                    <path d="M19.7931034,20.3690476 C19.7931034,19.5932187 20.4260798,18.9642857 21.2068966,18.9642857 C21.9877133,18.9642857 22.6206897,19.5932187 22.6206897,20.3690476 C22.6206897,21.1448765 21.9877133,21.7738095 21.2068966,21.7738095 C20.4260798,21.7738095 19.7931034,21.1448765 19.7931034,20.3690476 Z" id="Fill-4" fill="#A0A3A5"></path>
                    <path d="M8.12931034,51.3908732 L10.5357666,53.029762 L10.5357666,50.2202381 L8.12931034,51.3908732 Z M17.0332015,52.5615078 L19.4396555,52.5615078 L19.4396555,50.8055554 L17.0332015,50.8055554 L17.0332015,52.5615078 Z" id="Stroke-5" stroke="#A0A3A5" stroke-width="0.7" stroke-linejoin="round"></path>
                    <path d="M40.6465529,19.6666673 C40.6465529,9.40531816 32.3208809,0.351190476 21.6164463,0.351190476 C11.5067065,0.351190476 3.18103448,9.40531816 3.18103448,19.6666673 C3.18103448,30.5316216 11.5067065,38.9821441 21.6164463,38.9821441 C32.3208809,38.9821441 40.6465529,30.5316216 40.6465529,19.6666673 Z M34.1049543,19.6666673 C34.1049543,13.0269714 28.7527398,6.99088632 21.6164463,6.99088632 C15.0748477,6.99088632 9.12794385,13.0269714 9.12794385,19.6666673 C9.12794385,26.9099739 15.0748477,32.3424482 21.6164463,32.3424482 C28.7527398,32.3424482 34.1049543,26.9099739 34.1049543,19.6666673 Z M28.1580449,19.6666673 C28.1580449,16.045014 25.184593,13.6305822 21.6164463,13.6305822 C18.0483051,13.6305822 15.6695425,16.045014 15.6695425,19.6666673 C15.6695425,23.2883206 18.0483051,26.3063631 21.6164463,26.3063631 C25.184593,26.3063631 28.1580449,23.2883206 28.1580449,19.6666673 Z" id="Stroke-6" stroke="#A0A3A5" stroke-width="0.7"></path>
                </g>
                <g id="antenna" transform="translate(65.000000, 11.000000)" stroke-linecap="round" stroke-linejoin="round" stroke-width="1.0368">
                    <path d="M28.3224802,27.2804962 C26.4385014,28.7830875 23.8009311,28.7830875 22.2937481,27.2804962 C20.4097693,25.4022571 20.4097693,22.7727223 22.2937481,20.8944832 C23.8009311,19.3918919 26.4385014,19.3918919 28.3224802,20.8944832 C29.8296632,22.7727223 29.8296632,25.4022571 28.3224802,27.2804962 Z" id="Stroke-37" stroke="#01C9FF"></path>
                    <polyline id="Stroke-38" stroke="#68717A" points="15.1764951 69.4782681 24.7829243 32.9569518 34.0162828 69.4782681"></polyline>
                    <path d="M39.0402267,43.3916146 C44.8177616,39.1897982 48.6694515,32.3141037 48.6694515,24.6744441 C48.6694515,11.3050296 37.8847197,0.609501254 24.788974,0.609501254 C11.3080592,0.609501254 0.523327419,11.3050296 0.523327419,24.6744441 C0.523327419,32.3141037 4.37501734,39.1897982 10.5377212,43.3916146" id="Stroke-39" stroke="#01C9FF"></path>
                    <path d="M33.8298877,35.0438849 C37.3139628,32.4593013 39.2495573,28.7670332 39.2495573,24.3363197 C39.2495573,16.9517868 33.0556516,11.0441627 25.3132735,11.0441627 C17.1837782,11.0441627 10.9898758,16.9517868 10.9898758,24.3363197 C10.9898758,28.7670332 12.9254703,32.4593013 16.4095404,35.0438849" id="Stroke-40" stroke="#68717A"></path>
                    <path d="M20.4097693,53.8262747 L27.7363534,45.4785453" id="Stroke-41" stroke="#68717A"></path>
                    <path d="M16.22315,69.4782669 L29.8296633,53.8262742" id="Stroke-42" stroke="#68717A"></path>
                    <path d="M29.8296629,53.8262747 L21.4564239,45.4785453" id="Stroke-43" stroke="#68717A"></path>
                    <path d="M34.0162822,69.4782669 L19.363114,53.8262742" id="Stroke-44" stroke="#68717A"></path>
                </g>
            </g>
        </g>
    </g>
</svg>