<?xml version="1.0" encoding="UTF-8"?>
<svg width="120px" height="120px" viewBox="0 0 120 120" version="1.1" xmlns="http://www.w3.org/2000/svg" xmlns:xlink="http://www.w3.org/1999/xlink">
    <!-- Generator: Sketch 50.2 (55047) - http://www.bohemiancoding.com/sketch -->
    <title>eNB User Capacity</title>
    <desc>Created with Sketch.</desc>
    <defs></defs>
    <g id="Page-1" stroke="none" stroke-width="1" fill="none" fill-rule="evenodd">
        <g id="Custom-Preset">
            <g id="eNB-User-Capacity">
                <rect id="Rectangle-3" stroke="#FFFFFF" x="0.5" y="0.5" width="119" height="119"></rect>
                <path d="M63.6767518,13.506757 C63.6767518,9.91317472 66.5600973,7 70.1168833,7 C73.6736694,7 76.5570148,9.91317472 76.5570148,13.506757 C76.5570148,17.1003392 73.6736694,20.0135139 70.1168833,20.0135139 C66.5600973,20.0135139 63.6767518,17.1003392 63.6767518,13.506757 Z" id="Stroke-1" stroke="#A0A3A5" stroke-width="1.44" stroke-linejoin="round"></path>
                <path d="M69.401313,20.0135135 L69.4014257,43.3846688" id="Stroke-2" stroke="#A0A3A5" stroke-width="1.44" stroke-linejoin="round"></path>
                <path d="M69.401313,24.3513514 L79.5653392,35.3501046" id="Stroke-3" stroke="#A0A3A5" stroke-width="1.44" stroke-linejoin="round"></path>
                <path d="M69.5473608,24.3513514 L59.3833346,35.3501046" id="Stroke-4" stroke="#A0A3A5" stroke-width="1.44" stroke-linejoin="round"></path>
                <path d="M69.401313,41.7027027 L79.5653392,52.701456" id="Stroke-5" stroke="#A0A3A5" stroke-width="1.44" stroke-linejoin="round"></path>
                <path d="M69.5473608,41.7027027 L59.3833346,52.701456" id="Stroke-6" stroke="#A0A3A5" stroke-width="1.44" stroke-linejoin="round"></path>
                <path d="M80.8504353,30.8581083 C80.8504353,27.2645261 83.7337808,24.3513514 87.2905668,24.3513514 C90.8473528,24.3513514 93.7306983,27.2645261 93.7306983,30.8581083 C93.7306983,34.4516906 90.8473528,37.3648653 87.2905668,37.3648653 C83.7337808,37.3648653 80.8504353,34.4516906 80.8504353,30.8581083 Z" id="Stroke-7" stroke="#A0A3A5" stroke-width="1.44" stroke-linejoin="round"></path>
                <path d="M86.5749964,37.3648649 L86.5751091,60.7360201" id="Stroke-8" stroke="#A0A3A5" stroke-width="1.44" stroke-linejoin="round"></path>
                <path d="M86.5749964,41.7027027 L96.7390227,52.701456" id="Stroke-9" stroke="#A0A3A5" stroke-width="1.44" stroke-linejoin="round"></path>
                <path d="M86.7210443,41.7027027 L76.557018,52.701456" id="Stroke-10" stroke="#A0A3A5" stroke-width="1.44" stroke-linejoin="round"></path>
                <path d="M86.5749964,59.0540541 L96.7390227,70.0528073" id="Stroke-11" stroke="#A0A3A5" stroke-width="1.44" stroke-linejoin="round"></path>
                <path d="M86.7210443,59.0540541 L76.557018,70.0528073" id="Stroke-12" stroke="#A0A3A5" stroke-width="1.44" stroke-linejoin="round"></path>
                <path d="M98.0241187,48.2094597 C98.0241187,44.6158774 100.907464,41.7027027 104.46425,41.7027027 C108.021036,41.7027027 110.904382,44.6158774 110.904382,48.2094597 C110.904382,51.8030419 108.021036,54.7162166 104.46425,54.7162166 C100.907464,54.7162166 98.0241187,51.8030419 98.0241187,48.2094597 Z" id="Stroke-13" stroke="#A0A3A5" stroke-width="1.44" stroke-linejoin="round"></path>
                <path d="M103.74868,54.7162162 L103.748793,78.0873715" id="Stroke-14" stroke="#A0A3A5" stroke-width="1.44" stroke-linejoin="round"></path>
                <path d="M103.74868,59.0540541 L113.912706,70.0528073" id="Stroke-15" stroke="#A0A3A5" stroke-width="1.44" stroke-linejoin="round"></path>
                <path d="M103.894728,59.0540541 L93.7307015,70.0528073" id="Stroke-16" stroke="#A0A3A5" stroke-width="1.44" stroke-linejoin="round"></path>
                <path d="M103.74868,76.4054054 L113.912706,87.4041587" id="Stroke-17" stroke="#A0A3A5" stroke-width="1.44" stroke-linejoin="round"></path>
                <path d="M103.894728,76.4054054 L93.7307015,87.4041587" id="Stroke-18" stroke="#A0A3A5" stroke-width="1.44" stroke-linejoin="round"></path>
                <path d="M53.6587698,46.7635137 C53.6587698,43.1699315 56.5421153,40.2567568 60.0989013,40.2567568 C63.6556873,40.2567568 66.5390328,43.1699315 66.5390328,46.7635137 C66.5390328,50.357096 63.6556873,53.2702707 60.0989013,53.2702707 C56.5421153,53.2702707 53.6587698,50.357096 53.6587698,46.7635137 Z" id="Stroke-19" stroke="#A0A3A5" stroke-width="1.44" stroke-linejoin="round"></path>
                <path d="M59.383331,53.2702703 L59.3834436,76.6414255" id="Stroke-20" stroke="#A0A3A5" stroke-width="1.44" stroke-linejoin="round"></path>
                <path d="M59.383331,57.6081081 L69.5473572,68.6068614" id="Stroke-21" stroke="#A0A3A5" stroke-width="1.44" stroke-linejoin="round"></path>
                <path d="M59.5293788,57.6081081 L49.3653526,68.6068614" id="Stroke-22" stroke="#A0A3A5" stroke-width="1.44" stroke-linejoin="round"></path>
                <path d="M59.383331,74.9594595 L69.5473572,85.9582127" id="Stroke-23" stroke="#A0A3A5" stroke-width="1.44" stroke-linejoin="round"></path>
                <path d="M59.5293788,74.9594595 L49.3653526,85.9582127" id="Stroke-24" stroke="#A0A3A5" stroke-width="1.44" stroke-linejoin="round"></path>
                <path d="M66.5390324,63.3918921 C66.5390324,60.1975959 69.4223779,57.6081081 72.9791639,57.6081081 C76.5359499,57.6081081 79.4192954,60.1975959 79.4192954,63.3918921 C79.4192954,66.5861872 76.5359499,69.175676 72.9791639,69.175676 C69.4223779,69.175676 66.5390324,66.5861872 66.5390324,63.3918921 Z" id="Stroke-25" stroke="#A0A3A5" stroke-width="1.44" stroke-linejoin="round"></path>
                <path d="M73.6947338,69.1756757 L73.6948465,92.5468309" id="Stroke-26" stroke="#A0A3A5" stroke-width="1.44" stroke-linejoin="round"></path>
                <path d="M73.6947338,74.9594595 L83.8587601,85.9582127" id="Stroke-27" stroke="#A0A3A5" stroke-width="1.44" stroke-linejoin="round"></path>
                <path d="M73.8407817,74.9594595 L63.6767554,85.9582127" id="Stroke-28" stroke="#A0A3A5" stroke-width="1.44" stroke-linejoin="round"></path>
                <path d="M73.6947338,92.3108108 L83.8587601,103.309564" id="Stroke-29" stroke="#A0A3A5" stroke-width="1.44" stroke-linejoin="round"></path>
                <path d="M73.8407817,92.3108108 L63.6767554,103.309564" id="Stroke-30" stroke="#A0A3A5" stroke-width="1.44" stroke-linejoin="round"></path>
                <path d="M37.9162266,19.2905407 C37.9162266,15.6969585 40.4791995,12.7837838 43.640788,12.7837838 C46.8023753,12.7837838 49.3653493,15.6969585 49.3653493,19.2905407 C49.3653493,22.884123 46.8023753,25.7972977 43.640788,25.7972977 C40.4791995,25.7972977 37.9162266,22.884123 37.9162266,19.2905407 Z" id="Stroke-31" stroke="#A0A3A5" stroke-width="1.44" stroke-linejoin="round"></path>
                <path d="M43.6407878,25.7972973 L43.6409005,49.1684525" id="Stroke-32" stroke="#A0A3A5" stroke-width="1.44" stroke-linejoin="round"></path>
                <path d="M43.6407878,30.1351351 L53.804814,41.1338884" id="Stroke-33" stroke="#A0A3A5" stroke-width="1.44" stroke-linejoin="round"></path>
                <path d="M43.7868357,30.1351351 L33.6228094,41.1338884" id="Stroke-34" stroke="#A0A3A5" stroke-width="1.44" stroke-linejoin="round"></path>
                <path d="M43.6407878,48.9324324 L53.804814,59.9311857" id="Stroke-35" stroke="#A0A3A5" stroke-width="1.44" stroke-linejoin="round"></path>
                <path d="M43.7868357,48.9324324 L33.6228094,59.9311857" id="Stroke-36" stroke="#A0A3A5" stroke-width="1.44" stroke-linejoin="round"></path>
                <path d="M43.7266565,54.8029733 C41.1506039,56.8851356 37.5441303,56.8851356 35.4832882,54.8029733 C32.9072356,52.2002705 32.9072356,48.5564866 35.4832882,45.9537839 C37.5441303,43.8716216 41.1506039,43.8716216 43.7266565,45.9537839 C45.7874986,48.5564866 45.7874986,52.2002705 43.7266565,54.8029733 Z" id="Stroke-37" stroke="#01C9FF" stroke-width="1.44" stroke-linecap="round" stroke-linejoin="round"></path>
                <polyline id="Stroke-38" stroke="#68717A" stroke-width="1.44" stroke-linecap="round" stroke-linejoin="round" points="25.7515342 113.277029 38.8868557 62.6689189 51.5120602 113.277029"></polyline>
                <path d="M58.3815344,77.1283803 C66.2814291,71.3058632 71.5480255,61.7781152 71.5480255,51.1917297 C71.5480255,32.665541 56.8015555,17.8445946 38.8951276,17.8445946 C20.4620401,17.8445946 5.71557014,32.665541 5.71557014,51.1917297 C5.71557014,61.7781152 10.9821666,71.3058632 19.4087209,77.1283803" id="Stroke-39" stroke="#01C9FF" stroke-width="1.44" stroke-linecap="round" stroke-linejoin="round"></path>
                <path d="M51.2571934,65.5608119 C56.0211328,61.9793175 58.667762,56.8628888 58.667762,50.7231858 C58.667762,40.4903331 50.198544,32.3040541 39.6120271,32.3040541 C28.4961866,32.3040541 20.026973,40.4903331 20.026973,50.7231858 C20.026973,56.8628888 22.6736023,61.9793175 27.4375349,65.5608119" id="Stroke-40" stroke="#68717A" stroke-width="1.44" stroke-linecap="round" stroke-linejoin="round"></path>
                <path d="M32.9072356,91.5878378 L42.925218,80.0202699" id="Stroke-41" stroke="#68717A" stroke-width="1.44" stroke-linecap="round" stroke-linejoin="round"></path>
                <path d="M27.1826745,113.277027 L45.7874988,91.5878371" id="Stroke-42" stroke="#68717A" stroke-width="1.44" stroke-linecap="round" stroke-linejoin="round"></path>
                <path d="M45.7874982,91.5878378 L34.3383755,80.0202699" id="Stroke-43" stroke="#68717A" stroke-width="1.44" stroke-linecap="round" stroke-linejoin="round"></path>
                <path d="M51.5120594,113.277027 L31.4760947,91.5878371" id="Stroke-44" stroke="#68717A" stroke-width="1.44" stroke-linecap="round" stroke-linejoin="round"></path>
            </g>
        </g>
    </g>
</svg>