<?xml version="1.0" encoding="UTF-8"?>
<svg width="120px" height="120px" viewBox="0 0 120 120" version="1.1" xmlns="http://www.w3.org/2000/svg" xmlns:xlink="http://www.w3.org/1999/xlink">
    <!-- Generator: Sketch 50.2 (55047) - http://www.bohemiancoding.com/sketch -->
    <title>energy efficiency</title>
    <desc>Created with Sketch.</desc>
    <defs></defs>
    <g id="Page-1" stroke="none" stroke-width="1" fill="none" fill-rule="evenodd">
        <g id="Custom-Preset">
            <g id="energy-efficiency">
                <rect id="Rectangle-3" stroke="#FFFFFF" x="0.5" y="0.5" width="119" height="119"></rect>
                <g id="Group-2" transform="translate(6.000000, 59.500000)">
                    <polygon id="Stroke-1" stroke="#68717A" stroke-width="1.44" points="0.384653465 8.17622951 53.4668334 8.17622951 53.4668334 47.110657 0.384653465 47.110657"></polygon>
                    <polygon id="Fill-2" fill="#001135" points="40.2473153 28.2180057 45.7737624 28.2180057 45.7737624 26.290191 40.2473153 26.290191 40.2473153 20.6352459 38.9912986 20.6352459 38.9912986 26.290191 33.4648515 26.290191 33.4648515 28.2180057 38.9912986 28.2180057 38.9912986 33.8729508 40.2473153 33.8729508"></polygon>
                    <polygon id="Stroke-3" stroke="#A0A3A5" stroke-width="0.77" fill="#A0A3A5" stroke-linejoin="round" points="40.24731 28.2180108 45.7737628 28.2180108 45.7737628 26.2901876 40.24731 26.2901876 40.24731 20.6352459 38.9913019 20.6352459 38.9913019 26.2901876 33.4648515 26.2901876 33.4648515 28.2180108 38.9913019 28.2180108 38.9913019 33.8729512 40.24731 33.8729512"></polygon>
                    <polygon id="Fill-4" fill="#001135" points="10.3856436 28.4221311 18.0787129 28.4221311 18.0787129 26.0860656 10.3856436 26.0860656"></polygon>
                    <polygon id="Stroke-5" stroke="#A0A3A5" stroke-width="0.77" fill="#A0A3A5" points="10.3856436 26.0860656 18.0787131 26.0860656 18.0787131 28.4221312 10.3856436 28.4221312"></polygon>
                    <polyline id="Stroke-6" stroke="#68717A" stroke-width="1.44" points="18.0787132 5.06147556 18.0787132 0.389344262 7.30841584 0.389344262 7.30841584 5.06147556"></polyline>
                    <polyline id="Stroke-7" stroke="#68717A" stroke-width="1.44" points="46.5430697 5.06147556 46.5430697 0.389344262 35.7727723 0.389344262 35.7727723 5.06147556"></polyline>
                </g>
                <g id="Group" transform="translate(77.435644, 69.546512)">
                    <path d="M0.274752475,16.569768 C0.274752475,7.5710575 7.53239343,0.276162791 16.485149,0.276162791 C25.4379003,0.276162791 32.6955456,7.5710575 32.6955456,16.569768 C32.6955456,25.5684741 25.4379003,32.8633731 16.485149,32.8633731 C7.53239343,32.8633731 0.274752475,25.5684741 0.274752475,16.569768 Z" id="Stroke-1" stroke="#A0A3A5" stroke-width="1.44"></path>
                    <path d="M15,21 C15,19.8954333 15.8954333,19 17,19 C18.1045667,19 19,19.8954333 19,21 C19,22.1045667 18.1045667,23 17,23 C15.8954333,23 15,22.1045667 15,21 Z" id="Fill-2" fill="#68717A"></path>
                    <path d="M17,22.4941864 L17.0000433,12" id="Stroke-3" stroke="#68717A" stroke-width="1.44" stroke-linecap="round"></path>
                    <path d="M16.210396,7.35174419 L16.2104393,2.93313939" id="Stroke-4" stroke="#01C9FF" stroke-width="1.44" stroke-linecap="round"></path>
                    <path d="M7.41831683,12.3226744 L4.12128702,10.113372" id="Stroke-5" stroke="#01C9FF" stroke-width="1.44" stroke-linecap="round"></path>
                    <path d="M25.5519802,12.3226744 L29.398515,10.113372" id="Stroke-6" stroke="#A0A3A5" stroke-width="1.44" stroke-linecap="round"></path>
                    <path d="M20.0569307,7.35174419 L21.1559406,3.48546499" id="Stroke-7" stroke="#A0A3A5" stroke-width="1.44" stroke-linecap="round"></path>
                    <path d="M12.9133663,7.90406977 L11.8143564,4.03779057" id="Stroke-8" stroke="#01C9FF" stroke-width="1.44" stroke-linecap="round"></path>
                    <path d="M9.61633663,9.56104651 L7.41831676,6.24709292" id="Stroke-9" stroke="#01C9FF" stroke-width="1.44" stroke-linecap="round"></path>
                    <path d="M23.3539604,9.56104651 L25.5519803,6.24709292" id="Stroke-10" stroke="#A0A3A5" stroke-width="1.44" stroke-linecap="round"></path>
                </g>
                <g id="Group" transform="translate(20.287129, 12.000000)">
                    <path d="M54.0712871,20.5511143 L54.0713564,40.6649716" id="Stroke-1" stroke="#68717A" stroke-width="1.44"></path>
                    <path d="M66.380198,40.6649709 L40.8831675,40.6650398" id="Stroke-2" stroke="#68717A" stroke-width="1.44"></path>
                    <polygon id="Fill-3" fill="#FFFFFF" points="0 0 30.6607497 27.9844961 94.9544554 27.9844961 61.9472229 0"></polygon>
                    <polygon id="Stroke-4" stroke="#A0A3A5" stroke-width="1.44" points="63.2660386 0.437257752 96.2732704 27.5472392 31.9795622 27.5472392 1.31881188 0.437257752"></polygon>
                    <path d="M24.1782178,0.437257752 L55.829704,27.5472392" id="Stroke-5" stroke="#A0A3A5" stroke-width="1.44"></path>
                    <path d="M44.4,0.437257752 L76.0514862,27.5472392" id="Stroke-6" stroke="#A0A3A5" stroke-width="1.44"></path>
                    <path d="M16.2653465,13.5549903 L78.6891109,13.5550592" id="Stroke-7" stroke="#A0A3A5" stroke-width="1.44"></path>
                </g>
            </g>
        </g>
    </g>
</svg>