<?xml version="1.0" encoding="UTF-8"?>
<svg width="120px" height="120px" viewBox="0 0 120 120" version="1.1" xmlns="http://www.w3.org/2000/svg" xmlns:xlink="http://www.w3.org/1999/xlink">
    <!-- Generator: Sketch 50.2 (55047) - http://www.bohemiancoding.com/sketch -->
    <title>iot</title>
    <desc>Created with Sketch.</desc>
    <defs></defs>
    <g id="Page-1" stroke="none" stroke-width="1" fill="none" fill-rule="evenodd">
        <g id="Custom-Preset">
            <g id="iot">
                <rect id="Rectangle-3" stroke="#FFFFFF" x="0.5" y="0.5" width="119" height="119"></rect>
                <path d="M43.345,73.7788086 L43.345,43.96 L49.345,43.96 L49.345,73.7788086 L43.345,73.7788086 Z M51.6513672,57.3999287 C51.6513672,56.4130525 51.7094121,55.5057766 51.8255037,54.678074 C51.9415953,53.8503714 52.1592638,53.1181839 52.4785156,52.4814895 C53.0009278,51.4309439 53.7482562,50.5873365 54.7205232,49.9506422 C55.6927903,49.3139479 56.8754556,48.9956055 58.2685547,48.9956055 C59.6616538,48.9956055 60.8443191,49.3139479 61.8165861,49.9506422 C62.7888532,50.5873365 63.5361816,51.4309439 64.0585937,52.4814895 C64.3778456,53.1181839 64.5955141,53.8503714 64.7116057,54.678074 C64.8276973,55.5057766 64.8857422,56.4130525 64.8857422,57.3999287 L64.8857422,65.3744854 C64.8857422,66.3613616 64.8276973,67.2686374 64.7116057,68.0963401 C64.5955141,68.9240427 64.3778456,69.6562302 64.0585937,70.2929245 C63.5361816,71.3434702 62.7888532,72.1870775 61.8165861,72.8237719 C60.8443191,73.4604662 59.6616538,73.7788086 58.2685547,73.7788086 C56.8754556,73.7788086 55.6927903,73.4604662 54.7205232,72.8237719 C53.7482562,72.1870775 53.0009278,71.3434702 52.4785156,70.2929245 C52.1592638,69.6562302 51.9415953,68.9240427 51.8255037,68.0963401 C51.7094121,67.2686374 51.6513672,66.3613616 51.6513672,65.3744854 L51.6513672,57.3999287 Z M56.0918483,66.1385148 C56.0918483,67.0617215 56.2877499,67.7541163 56.679559,68.2157196 C57.0713681,68.677323 57.601028,68.9081213 58.2685547,68.9081213 C58.9360813,68.9081213 59.4657413,68.677323 59.8575504,68.2157196 C60.2493595,67.7541163 60.4452611,67.0617215 60.4452611,66.1385148 L60.4452611,56.6358993 C60.4452611,55.7126925 60.2493595,55.0202978 59.8575504,54.5586944 C59.4657413,54.097091 58.9360813,53.8662928 58.2685547,53.8662928 C57.601028,53.8662928 57.0713681,54.097091 56.679559,54.5586944 C56.2877499,55.0202978 56.0918483,55.7126925 56.0918483,56.6358993 L56.0918483,66.1385148 Z M69.7309098,73.7788086 L69.7309098,49.9805135 L66.110625,49.9805135 L66.110625,43.96 L79.345,43.96 L79.345,49.9805135 L75.7247152,49.9805135 L75.7247152,73.7788086 L69.7309098,73.7788086 Z" id="IoT" fill="#01C9FF"></path>
                <g id="globe" opacity="0.699999988" transform="translate(89.000000, 28.000000)" stroke="#A0A3A5" stroke-width="0.5">
                    <path d="M0.137931034,8.00000025 C0.137931034,3.65789856 3.65789856,0.137931034 8.00000025,0.137931034 C12.3421019,0.137931034 15.8620695,3.65789856 15.8620695,8.00000025 C15.8620695,12.3421019 12.3421019,15.8620695 8.00000025,15.8620695 C3.65789856,15.8620695 0.137931034,12.3421019 0.137931034,8.00000025 Z" id="Stroke-1"></path>
                    <path d="M0.137931034,8.13793103 L15.8620695,8.13795308" id="Stroke-2"></path>
                    <path d="M14.2068969,13.1034483 C12.668286,12.367816 10.4458477,12 8.05245308,12 C5.83001478,12 3.60757648,12.367816 2.06896552,13.1034483" id="Stroke-3"></path>
                    <path d="M2.06896552,3.17241379 C3.60757648,3.90804607 5.83001478,4.2758621 8.05245308,4.2758621 C10.4458477,4.2758621 12.668286,3.90804607 14.2068969,3.17241379" id="Stroke-4"></path>
                    <path d="M8.13793112,0.137931034 C6.51521307,1.82869862 5.37931034,4.70300313 5.37931034,8.08453786 C5.37931034,11.2969974 6.51521307,14.1713021 8.13793112,15.8620695" id="Stroke-5"></path>
                    <path d="M8.13793103,0.137931034 C9.86206902,1.82869862 10.8965518,4.70300313 10.8965518,8.08453786 C10.8965518,11.2969974 9.86206902,14.1713021 8.13793103,15.8620695" id="Stroke-6"></path>
                </g>
                <g id="wifi" transform="translate(19.000000, 14.000000)" stroke="#A0A3A5" stroke-width="0.5">
                    <g id="Group-6" transform="translate(69.000000, 4.000000)">
                        <path d="M3.95454558,5.86363649 C3.95454558,3.71590914 2.28409098,2.04545455 0.136363636,2.04545455" id="Stroke-26"></path>
                        <path d="M0.136363636,3.95454545 C1.09090912,3.95454545 2.04545461,4.90909094 2.04545461,5.86363642" id="Stroke-27"></path>
                        <path d="M5.86363655,5.86363655 C5.86363655,2.76136372 3.23863646,0.136363636 0.136363636,0.136363636" id="Stroke-28"></path>
                    </g>
                    <g id="Group-6" transform="translate(64.000000, 29.000000)">
                        <path d="M3.95454558,5.86363649 C3.95454558,3.71590914 2.28409098,2.04545455 0.136363636,2.04545455" id="Stroke-26"></path>
                        <path d="M0.136363636,3.95454545 C1.09090912,3.95454545 2.04545461,4.90909094 2.04545461,5.86363642" id="Stroke-27"></path>
                        <path d="M5.86363655,5.86363655 C5.86363655,2.76136372 3.23863646,0.136363636 0.136363636,0.136363636" id="Stroke-28"></path>
                    </g>
                    <g id="Group-6" transform="translate(70.000000, 78.000000)">
                        <path d="M3.95454558,5.86363649 C3.95454558,3.71590914 2.28409098,2.04545455 0.136363636,2.04545455" id="Stroke-26"></path>
                        <path d="M0.136363636,3.95454545 C1.09090912,3.95454545 2.04545461,4.90909094 2.04545461,5.86363642" id="Stroke-27"></path>
                        <path d="M5.86363655,5.86363655 C5.86363655,2.76136372 3.23863646,0.136363636 0.136363636,0.136363636" id="Stroke-28"></path>
                    </g>
                    <g id="Group-6" transform="translate(9.000000, 83.000000)">
                        <path d="M3.95454558,5.86363649 C3.95454558,3.71590914 2.28409098,2.04545455 0.136363636,2.04545455" id="Stroke-26"></path>
                        <path d="M0.136363636,3.95454545 C1.09090912,3.95454545 2.04545461,4.90909094 2.04545461,5.86363642" id="Stroke-27"></path>
                        <path d="M5.86363655,5.86363655 C5.86363655,2.76136372 3.23863646,0.136363636 0.136363636,0.136363636" id="Stroke-28"></path>
                    </g>
                    <g id="Group-6" transform="translate(18.500000, 2.500000) scale(-1, 1) translate(-18.500000, -2.500000) translate(16.000000, 0.000000)">
                        <path d="M3.29545465,4.88636374 C3.29545465,3.09659095 1.90340915,1.70454545 0.113636364,1.70454545" id="Stroke-26"></path>
                        <path d="M0.113636364,3.29545455 C0.909090935,3.29545455 1.70454551,4.09090912 1.70454551,4.88636369" id="Stroke-27"></path>
                        <path d="M4.88636379,4.88636379 C4.88636379,2.30113643 2.69886372,0.113636364 0.113636364,0.113636364" id="Stroke-28"></path>
                    </g>
                    <g id="Group-6" transform="translate(7.500000, 40.500000) scale(-1, 1) translate(-7.500000, -40.500000) translate(5.000000, 38.000000)">
                        <path d="M3.29545465,4.88636374 C3.29545465,3.09659095 1.90340915,1.70454545 0.113636364,1.70454545" id="Stroke-26"></path>
                        <path d="M0.113636364,3.29545455 C0.909090935,3.29545455 1.70454551,4.09090912 1.70454551,4.88636369" id="Stroke-27"></path>
                        <path d="M4.88636379,4.88636379 C4.88636379,2.30113643 2.69886372,0.113636364 0.113636364,0.113636364" id="Stroke-28"></path>
                    </g>
                    <g id="Group-6" transform="translate(1.500000, 16.500000) scale(-1, 1) translate(-1.500000, -16.500000) translate(0.000000, 15.000000)">
                        <path d="M1.97727279,2.93181824 C1.97727279,1.85795457 1.14204549,1.02272727 0.0681818182,1.02272727" id="Stroke-26"></path>
                        <path d="M0.0681818182,1.97727273 C0.545454561,1.97727273 1.0227273,2.45454547 1.0227273,2.93181821" id="Stroke-27"></path>
                        <path d="M2.93181827,2.93181827 C2.93181827,1.38068186 1.61931823,0.0681818182 0.0681818182,0.0681818182" id="Stroke-28"></path>
                    </g>
                </g>
                <path d="M58.6063829,17 C58.6063829,17 58.6063829,17 58.6063829,17 C58.6063829,17 58.4468077,17 58.4468077,17 C49.5106381,17 49.5106381,17 49.5106381,17 C47.5957446,17 46,15.6153855 46,13.7692306 C46,12.0769226 47.5957446,10.5384613 49.351063,10.5384613 C49.6702133,8.53846161 51.5851066,7 53.6595751,7 C56.2127657,7 58.1276591,8.84615322 58.1276591,11.1538468 C58.1276591,11.4615387 58.1276591,11.7692306 58.1276591,12.0769226 C58.2872343,12.0769226 58.2872343,12.0769226 58.4468077,12.0769226 C59.882979,12.0769226 61,13.1538468 61,14.5384613 C61,15.1538468 60.8404249,15.7692306 60.3617028,16.3846145 C59.882979,16.8461549 59.2446801,17 58.6063829,17" id="Stroke-1" stroke="#A0A3A5" stroke-width="0.5"></path>
                <g id="watch" transform="translate(11.000000, 61.000000)">
                    <path d="M6.59918525,12.3355266 C1.29211953,12.3355266 1.29211953,12.3355266 1.29211953,12.3355266 C0.607337024,12.3355266 0.09375,11.6056349 0.09375,10.8757447 C0.09375,4.12425533 0.09375,4.12425533 0.09375,4.12425533 C0.09375,3.39436451 0.607337024,2.66447368 1.29211953,2.66447368 C6.59918525,2.66447368 6.59918525,2.66447368 6.59918525,2.66447368 C7.28396775,2.66447368 7.96875025,3.39436451 7.96875025,4.12425533 C7.96875025,10.8757447 7.96875025,10.8757447 7.96875025,10.8757447 C7.96875025,11.6056349 7.28396775,12.3355266 6.59918525,12.3355266 Z" id="Stroke-1" stroke="#A0A3A5" stroke-width="0.5"></path>
                    <path d="M1.40625,2.66447377 C1.580819,0.953947344 1.580819,0.953947344 1.580819,0.953947344 C1.580819,0.440789433 1.92995686,0.0986842105 2.45366386,0.0986842105 C5.59590515,0.0986842105 5.59590515,0.0986842105 5.59590515,0.0986842105 C5.94504345,0.0986842105 6.29418175,0.440789433 6.29418175,0.953947344 C6.46875016,2.66447377 6.46875016,2.66447377 6.46875016,2.66447377" id="Stroke-2" stroke="#A0A3A5" stroke-width="0.5"></path>
                    <path d="M6.46875016,12.3355263 C6.29418175,14.2171048 6.29418175,14.2171048 6.29418175,14.2171048 C6.29418175,14.5592111 5.94504345,14.9013159 5.59590515,14.9013159 C2.45366386,14.9013159 2.45366386,14.9013159 2.45366386,14.9013159 C2.10452586,14.9013159 1.755388,14.5592111 1.755388,14.2171048 C1.40625,12.3355263 1.40625,12.3355263 1.40625,12.3355263" id="Stroke-3" stroke="#A0A3A5" stroke-width="0.5"></path>
                    <path d="M8.15625,6.41447373 C8.71875002,6.41447373 8.71875002,6.41447373 8.71875002,6.41447373 C8.90625002,6.41447373 8.90625002,6.41447373 8.90625002,6.23903512 C8.90625002,5.01096494 8.90625002,5.01096494 8.90625002,5.01096494 C8.90625002,4.83552632 8.90625002,4.83552632 8.71875002,4.83552632 C8.15625,4.83552632 8.15625,4.83552632 8.15625,4.83552632" id="Stroke-4" stroke="#A0A3A5" stroke-width="0.5"></path>
                    <path d="M8.15625,10.5592106 C8.71875002,10.5592106 8.71875002,10.5592106 8.71875002,10.5592106 C8.90625002,10.5592106 8.90625002,10.5592106 8.90625002,10.3947374 C8.90625002,8.74999995 8.90625002,8.74999995 8.90625002,8.74999995 C8.90625002,8.58552632 8.90625002,8.58552632 8.71875002,8.58552632 C8.15625,8.58552632 8.15625,8.58552632 8.15625,8.58552632" id="Stroke-5" stroke="#A0A3A5" stroke-width="0.5"></path>
                    <path d="M3.65625,7.5 C3.65625,7.22749145 3.82414312,7.00657895 4.03125,7.00657895 C4.23835688,7.00657895 4.40625,7.22749145 4.40625,7.5 C4.40625,7.77250855 4.23835688,7.99342105 4.03125,7.99342105 C3.82414312,7.99342105 3.65625,7.77250855 3.65625,7.5 Z" id="Fill-6" fill="#0E0F1C"></path>
                    <path d="M3.65625,7.50000002 C3.65625,7.2274911 3.82414326,7.00657895 4.03125001,7.00657895 C4.23835676,7.00657895 4.40625002,7.2274911 4.40625002,7.50000002 C4.40625002,7.77250893 4.23835676,7.99342108 4.03125001,7.99342108 C3.82414326,7.99342108 3.65625,7.77250893 3.65625,7.50000002 Z" id="Stroke-7" stroke="#A0A3A5" stroke-width="0.5" stroke-linejoin="round"></path>
                    <path d="M4.03125,7.59868421 L6.28125007,5.03289465" id="Stroke-8" stroke="#A0A3A5" stroke-width="0.5"></path>
                    <path d="M4.03125,3.45394737 L4.03126543,4.44078951" id="Stroke-9" stroke="#A0A3A5" stroke-width="0.5"></path>
                    <path d="M4.03125,10.5592105 L4.03126543,11.5460527" id="Stroke-10" stroke="#A0A3A5" stroke-width="0.5"></path>
                    <path d="M0.84375,7.59868421 L1.59375002,7.59869964" id="Stroke-11" stroke="#A0A3A5" stroke-width="0.5"></path>
                    <path d="M6.28125,7.59868421 L7.03125002,7.59869964" id="Stroke-12" stroke="#A0A3A5" stroke-width="0.5"></path>
                </g>
                <g id="sat" transform="translate(70.500000, 20.500000) rotate(-225.000000) translate(-70.500000, -20.500000) translate(63.000000, 13.000000)">
                    <path d="M11.5364365,7.1106333 L14.9000004,10.4787326 L12.9170035,12.3000004 L9.70404905,9.10654517 L11.5364365,7.1106333 Z M4.48299534,0.1 L7.72105214,3.2934568 L5.86356231,5.2893671 L2.5,1.92126777 L4.48299534,0.1 Z M12.6157893,4.21656391 L8.62469626,8.18343648 L6.79230722,6.3621687 L10.6076932,2.39529614 L12.6157893,4.21656391 Z" id="Stroke-1" stroke="#A0A3A5" stroke-width="0.5"></path>
                    <path d="M6,8.6 C6,8.379086 6.179086,8.2 6.4,8.2 C6.620914,8.2 6.8,8.379086 6.8,8.6 C6.8,8.820914 6.620914,9 6.4,9 C6.179086,9 6,8.820914 6,8.6 Z" id="Fill-2" fill="#A0A3A5"></path>
                    <path d="M2.3,8.5 C2.3,11.0142851 4.1666662,12.9000001 6.50000013,12.9000001" id="Stroke-3" stroke="#A0A3A5" stroke-width="0.5"></path>
                    <path d="M6.50000007,10.7000001 C5.40000004,10.7000001 4.3,9.75714287 4.3,8.5" id="Stroke-4" stroke="#A0A3A5" stroke-width="0.5"></path>
                    <path d="M0.1,8.5 C0.1,12.0047623 2.909756,14.9000002 6.5000002,14.9000002" id="Stroke-5" stroke="#A0A3A5" stroke-width="0.5"></path>
                    <path d="M6.5,8.5 L6.50001596,8.50001596" id="Stroke-6" stroke="#A0A3A5" stroke-width="0.5"></path>
                </g>
                <g id="gear-1" transform="translate(91.000000, 47.000000)" stroke="#A0A3A5" stroke-width="0.5">
                    <path d="M8.72469568,5.00000016 C8.72469568,4.78174649 8.72469568,4.56349283 8.72469568,4.34523776 C9.91228102,3.69047677 9.91228102,3.69047677 9.91228102,3.69047677 C8.5087722,1.39880966 8.5087722,1.39880966 8.5087722,1.39880966 C7.42914929,2.05357149 7.42914929,2.05357149 7.42914929,2.05357149 C7.10526338,1.726191 6.67341505,1.50793593 6.34952776,1.39880966 C6.34952776,0.0892857143 6.34952776,0.0892857143 6.34952776,0.0892857143 C3.65047255,0.0892857143 3.65047255,0.0892857143 3.65047255,0.0892857143 C3.65047255,1.39880966 3.65047255,1.39880966 3.65047255,1.39880966 C3.32658527,1.50793593 2.89473693,1.726191 2.57084964,2.05357149 C1.38326596,1.39880966 1.38326596,1.39880966 1.38326596,1.39880966 C0.0877192982,3.69047677 0.0877192982,3.69047677 0.0877192982,3.69047677 C1.27530367,4.34523776 1.27530367,4.34523776 1.27530367,4.34523776 C1.27530367,4.56349283 1.16734138,4.78174649 1.16734138,5.00000016 C1.16734138,5.21825382 1.27530367,5.43650748 1.27530367,5.65476255 C0.0877192982,6.30952354 0.0877192982,6.30952354 0.0877192982,6.30952354 C1.38326596,8.60119122 1.38326596,8.60119122 1.38326596,8.60119122 C2.57084964,7.94642882 2.57084964,7.94642882 2.57084964,7.94642882 C2.89473693,8.16468249 3.32658527,8.38293615 3.65047255,8.49206439 C3.65047255,9.9107146 3.65047255,9.9107146 3.65047255,9.9107146 C6.34952776,9.9107146 6.34952776,9.9107146 6.34952776,9.9107146 C6.34952776,8.49206439 6.34952776,8.49206439 6.34952776,8.49206439 C6.67341505,8.38293615 7.10526338,8.16468249 7.42914929,7.94642882 C8.5087722,8.60119122 8.5087722,8.60119122 8.5087722,8.60119122 C9.91228102,6.30952354 9.91228102,6.30952354 9.91228102,6.30952354 C8.72469568,5.65476255 8.72469568,5.65476255 8.72469568,5.65476255 C8.72469568,5.43650748 8.72469568,5.21825382 8.72469568,5.00000016 Z" id="Stroke-1"></path>
                    <path d="M3.59649123,4.91071433 C3.59649123,4.1217361 4.22486354,3.48214286 5.00000004,3.48214286 C5.77513614,3.48214286 6.40350886,4.1217361 6.40350886,4.91071433 C6.40350886,5.69969214 5.77513614,6.33928581 5.00000004,6.33928581 C4.22486354,6.33928581 3.59649123,5.69969214 3.59649123,4.91071433 Z" id="Stroke-2"></path>
                </g>
                <g id="control" transform="translate(17.000000, 87.000000)">
                    <path d="M6.44388673,5.06163194 L8.57741477,5.06163194 L8.7344819,5.06163194 L8.80264562,5.20313739 C9.74850383,7.16670553 10.776759,7.95691515 11.896444,7.66818393 C13.8504667,7.1643035 12.1503383,1.05258137 8.96981534,0.25 C8.1740314,0.25 8.1714207,0.25 6.44394279,0.25 C4.71635341,0.24999992 4.71394092,0.249975526 3.97857487,0.242539911 C0.737435153,1.05258137 -0.962693268,7.1643035 0.991329452,7.66818393 C2.11101445,7.95691515 3.13926963,7.16670553 4.08512784,5.20313739 L4.15329155,5.06163194 L6.44388673,5.06163194 Z M6.42682884,5.06163194 L6.46094462,5.06163194 L6.46094462,5.56163194 L6.42682884,5.56163194 L6.42682884,5.06163194 Z" id="Rectangle" stroke="#A0A3A5" stroke-width="0.5"></path>
                    <rect id="Rectangle-5" stroke="#A0A3A5" stroke-width="0.5" x="5.92272727" y="2.02777778" width="1.15454545" height="1.27777778"></rect>
                    <ellipse id="Oval" stroke="#A0A3A5" stroke-width="0.5" cx="3.80545464" cy="2.68888855" rx="1" ry="1"></ellipse>
                    <polygon id="+" fill="#A0A3A5" points="9.06870284 2.50057532 9.06870284 1.75222222 9.3676608 1.75222222 9.3676608 2.50057532 10.1636364 2.50057532 10.1636364 2.7816469 9.3676608 2.7816469 9.3676608 3.53 9.06870284 3.53 9.06870284 2.7816469 8.27272727 2.7816469 8.27272727 2.50057532"></polygon>
                </g>
                <g id="chip" transform="translate(78.000000, 12.000000)" stroke="#A0A3A5" stroke-width="0.5">
                    <rect id="Rectangle" x="1.25" y="1.25" width="5.5" height="5.5" rx="0.32"></rect>
                    <g id="Group" transform="translate(1.833333, 0.000000)">
                        <rect id="Rectangle-Copy" x="0.25" y="0.25" width="1" height="1"></rect>
                        <rect id="Rectangle-Copy-2" x="1.25" y="0.25" width="1" height="1"></rect>
                        <rect id="Rectangle-Copy-3" x="2.25" y="0.25" width="1" height="1"></rect>
                        <rect id="Rectangle-Copy-4" x="3.25" y="0.25" width="1" height="1"></rect>
                        <rect id="Rectangle-Copy-5" x="4.25" y="0.25" width="1" height="1"></rect>
                    </g>
                    <g id="Group-Copy" transform="translate(1.833333, 7.000000)">
                        <rect id="Rectangle-Copy" x="0.25" y="0.25" width="1" height="1"></rect>
                        <rect id="Rectangle-Copy-2" x="1.25" y="0.25" width="1" height="1"></rect>
                        <rect id="Rectangle-Copy-3" x="2.25" y="0.25" width="1" height="1"></rect>
                        <rect id="Rectangle-Copy-4" x="3.25" y="0.25" width="1" height="1"></rect>
                        <rect id="Rectangle-Copy-5" x="4.25" y="0.25" width="1" height="1"></rect>
                    </g>
                    <g id="Group-Copy-2" transform="translate(0.500000, 4.000000) rotate(90.000000) translate(-0.500000, -4.000000) translate(-1.666667, 3.500000)">
                        <rect id="Rectangle-Copy" x="0.25" y="0.25" width="1" height="1"></rect>
                        <rect id="Rectangle-Copy-2" x="1.25" y="0.25" width="1" height="1"></rect>
                        <rect id="Rectangle-Copy-3" x="2.25" y="0.25" width="1" height="1"></rect>
                        <rect id="Rectangle-Copy-4" x="3.25" y="0.25" width="1" height="1"></rect>
                        <rect id="Rectangle-Copy-5" x="4.25" y="0.25" width="1" height="1"></rect>
                    </g>
                    <g id="Group-Copy-3" transform="translate(7.500000, 4.000000) rotate(90.000000) translate(-7.500000, -4.000000) translate(5.333333, 3.500000)">
                        <rect id="Rectangle-Copy" x="0.25" y="0.25" width="1" height="1"></rect>
                        <rect id="Rectangle-Copy-2" x="1.25" y="0.25" width="1" height="1"></rect>
                        <rect id="Rectangle-Copy-3" x="2.25" y="0.25" width="1" height="1"></rect>
                        <rect id="Rectangle-Copy-4" x="3.25" y="0.25" width="1" height="1"></rect>
                        <rect id="Rectangle-Copy-5" x="4.25" y="0.25" width="1" height="1"></rect>
                    </g>
                </g>
                <g id="antenna" transform="translate(78.000000, 51.000000)" stroke="#A0A3A5" stroke-width="0.5">
                    <g id="Group">
                        <g id="Group-2" transform="translate(1.973684, 3.391304) rotate(270.000000) translate(-1.973684, -3.391304) translate(-1.315789, 1.565217)">
                            <path d="M5.32894751,2.3671498 C4.08834656,1.01449275 2.22744409,1.01449275 0.986842105,2.3671498" id="Stroke-1"></path>
                            <path d="M2.17105263,3.57902755 C2.81015035,2.9100504 3.76879719,2.9100504 4.40789481,3.57902755" id="Stroke-2"></path>
                            <path d="M6.5131581,1.42028992 C4.67105278,-0.473429952 1.9078948,-0.473429952 0.0657894737,1.42028992" id="Stroke-3"></path>
                        </g>
                        <g id="Group-2-Copy" transform="translate(8.026316, 3.391304) rotate(90.000000) translate(-8.026316, -3.391304) translate(4.736842, 1.565217)">
                            <path d="M5.32894751,2.3671498 C4.08834656,1.01449275 2.22744409,1.01449275 0.986842105,2.3671498" id="Stroke-1"></path>
                            <path d="M2.17105263,3.57902755 C2.81015035,2.9100504 3.76879719,2.9100504 4.40789481,3.57902755" id="Stroke-2"></path>
                            <path d="M6.5131581,1.42028992 C4.67105278,-0.473429952 1.9078948,-0.473429952 0.0657894737,1.42028992" id="Stroke-3"></path>
                        </g>
                    </g>
                    <rect id="Rectangle-6" x="4.98684211" y="5.4673913" width="1" height="6.2826087"></rect>
                    <rect id="Rectangle-6-Copy" x="4.98684211" y="3.11956522" width="1" height="1"></rect>
                </g>
                <g id="house" transform="translate(66.000000, 77.000000)" stroke="#A0A3A5" stroke-width="0.5">
                    <path d="M9.39912281,2.94230769 L1.60087719,2.94230769 L1.60087719,9.75 L2.95531798,9.75 L2.95531798,6.09615385 L5.75,6.09615385 L5.75,9.75 L9.39912281,9.75 L9.39912281,2.94230769 Z" id="Rectangle"></path>
                    <path d="M9.98995394,3.01923077 L5.29542849,0.419398762 L1.02469811,3.01923077 L9.98995394,3.01923077 Z" id="Rectangle"></path>
                </g>
                <g id="car" transform="translate(27.000000, 35.000000)">
                    <path d="M10.4545458,7.11445652 C8.727273,4.30833333 8.727273,4.30833333 8.727273,4.30833333 C3.54545466,4.30833333 3.54545466,4.30833333 3.54545466,4.30833333 C2.46590988,4.30833333 1.49431816,4.86955783 0.954545482,5.76751658 C0.0909090909,7.11445652 0.0909090909,7.11445652 0.0909090909,7.11445652 C0.0909090909,9.80833351 0.0909090909,9.80833351 0.0909090909,9.80833351 C13.9090914,9.80833351 13.9090914,9.80833351 13.9090914,9.80833351 C13.9090914,7.11445652 13.9090914,7.11445652 13.9090914,7.11445652 L10.4545458,7.11445652 Z" id="Stroke-2" stroke="#A0A3A5" stroke-width="0.5" stroke-linejoin="round"></path>
                    <path d="M1.36363636,9.71666667 C1.36363636,9.0585275 1.89275455,8.525 2.54545455,8.525 C3.19815455,8.525 3.72727273,9.0585275 3.72727273,9.71666667 C3.72727273,10.3748058 3.19815455,10.9083333 2.54545455,10.9083333 C1.89275455,10.9083333 1.36363636,10.3748058 1.36363636,9.71666667 Z" id="Fill-4" fill="#FFFFFF"></path>
                    <path d="M1.36363636,9.7166667 C1.36363636,9.0585273 1.89275435,8.525 2.54545458,8.525 C3.19815468,8.525 3.7272728,9.0585273 3.7272728,9.7166667 C3.7272728,10.374806 3.19815468,10.9083334 2.54545458,10.9083334 C1.89275435,10.9083334 1.36363636,10.374806 1.36363636,9.7166667 Z" id="Stroke-5" stroke="#A0A3A5" stroke-width="0.5" stroke-linejoin="round"></path>
                    <path d="M1.36363636,9.7166667 C1.36363636,9.0585273 1.89275435,8.525 2.54545458,8.525 C3.19815468,8.525 3.7272728,9.0585273 3.7272728,9.7166667 C3.7272728,10.374806 3.19815468,10.9083334 2.54545458,10.9083334 C1.89275435,10.9083334 1.36363636,10.374806 1.36363636,9.7166667 Z" id="Stroke-6" stroke="#A0A3A5" stroke-width="0.5"></path>
                    <path d="M9.90909091,9.71666667 C9.90909091,9.0585275 10.3975073,8.525 11,8.525 C11.6024927,8.525 12.0909091,9.0585275 12.0909091,9.71666667 C12.0909091,10.3748058 11.6024927,10.9083333 11,10.9083333 C10.3975073,10.9083333 9.90909091,10.3748058 9.90909091,9.71666667 Z" id="Fill-7" fill="#FFFFFF"></path>
                    <path d="M9.90909091,9.7166667 C9.90909091,9.0585273 10.3975075,8.525 11,8.525 C11.6024925,8.525 12.0909092,9.0585273 12.0909092,9.7166667 C12.0909092,10.374806 11.6024925,10.9083334 11,10.9083334 C10.3975075,10.9083334 9.90909091,10.374806 9.90909091,9.7166667 Z" id="Stroke-9" stroke="#A0A3A5" stroke-width="0.5"></path>
                    <path d="M5.63636364,3.66333333 C5.63636364,3.56392293 5.71695324,3.48333333 5.81636364,3.48333333 C5.91577404,3.48333333 5.99636364,3.56392293 5.99636364,3.66333333 C5.99636364,3.76274373 5.91577404,3.84333333 5.81636364,3.84333333 C5.71695324,3.84333333 5.63636364,3.76274373 5.63636364,3.66333333 Z" id="Fill-10" fill="#A0A3A5"></path>
                    <path d="M7.54545466,2.10833337 C6.57386407,1.00833333 5.0625001,1.00833333 4.09090909,2.10833337" id="Stroke-11" stroke="#A0A3A5" stroke-width="0.5"></path>
                    <path d="M5,3.01750002 C5.45454547,2.4775 6.36363641,2.4775 6.81818188,3.01750002" id="Stroke-12" stroke="#A0A3A5" stroke-width="0.5"></path>
                    <path d="M8.45454562,1.00833337 C7.02651551,-0.275 4.60984844,-0.275 3.18181818,1.00833337" id="Stroke-13" stroke="#A0A3A5" stroke-width="0.5"></path>
                </g>
                <path d="M81.5,34.569899 C81.9908266,34.569899 82.4632996,34.4863417 82.9055243,34.3318749 C83.203345,34.2278477 84.1476468,34.4505561 85.7384299,35 C85.2375078,33.5788799 85.0884584,32.7000896 85.2912814,32.3636289 C85.7398822,31.6194506 86,30.7345005 86,29.7849495 C86,27.1422949 83.9852814,25 81.5,25 C79.0147186,25 77,27.1422949 77,29.7849495 C77,32.4276042 79.0147186,34.569899 81.5,34.569899 Z" id="Oval-2" stroke="#979797" stroke-width="0.5"></path>
                <g id="batery" transform="translate(38.000000, 94.000000)">
                    <polygon id="Stroke-1" stroke="#A0A3A5" stroke-width="0.5" points="0.0783553355 1.70338115 10.891392 1.70338115 10.891392 9.8147202 0.0783553355 9.8147202"></polygon>
                    <polygon id="Fill-2" fill="#001135" points="8.19852718 5.8787512 9.32428493 5.8787512 9.32428493 5.47712312 8.19852718 5.47712312 8.19852718 4.29900956 7.94267194 4.29900956 7.94267194 5.47712312 6.81691419 5.47712312 6.81691419 5.8787512 7.94267194 5.8787512 7.94267194 7.05686475 8.19852718 7.05686475"></polygon>
                    <polygon id="Stroke-3" stroke="#A0A3A5" stroke-width="0.5" fill="#A0A3A5" stroke-linejoin="round" points="8.1985261 5.87875224 9.32428501 5.87875224 9.32428501 5.47712242 8.1985261 5.47712242 8.1985261 4.29900956 7.9426726 4.29900956 7.9426726 5.47712242 6.81691419 5.47712242 6.81691419 5.87875224 7.9426726 5.87875224 7.9426726 7.05686484 8.1985261 7.05686484"></polygon>
                    <polygon id="Fill-4" fill="#001135" points="2.11559406 5.90181011 3.68270077 5.90181011 3.68270077 5.43459699 2.11559406 5.43459699"></polygon>
                    <polygon id="Stroke-5" stroke="#A0A3A5" stroke-width="0.5" fill="#A0A3A5" points="2.11559406 5.43459699 3.68270082 5.43459699 3.68270082 5.90181012 2.11559406 5.90181012"></polygon>
                    <polyline id="Stroke-6" stroke="#A0A3A5" stroke-width="0.5" points="3.68270084 1.05447407 3.68270084 0.081113388 1.48875138 0.081113388 1.48875138 1.05447407"></polyline>
                    <polyline id="Stroke-7" stroke="#A0A3A5" stroke-width="0.5" points="9.48099567 1.05447407 9.48099567 0.081113388 7.2870462 0.081113388 7.2870462 1.05447407"></polyline>
                </g>
                <g id="locker" transform="translate(102.000000, 71.000000)" stroke="#A0A3A5" stroke-width="0.5">
                    <path d="M6.99823135,3.49503438 C6.99823135,6.54722873 6.99823135,6.54722873 6.99823135,6.54722873 C6.99823135,8.2913384 5.384984,9.70842902 3.5412737,9.70842902 C3.5412737,9.70842902 3.5412737,9.70842902 3.5412737,9.70842902 C1.69756339,9.70842902 0.0843160377,8.2913384 0.0843160377,6.54722873 C0.0843160377,3.49503438 0.0843160377,3.49503438 0.0843160377,3.49503438 L6.99823135,3.49503438 Z" id="Stroke-1"></path>
                    <path d="M4.63738215,5.82505733 C4.63738215,5.17265089 4.04716987,4.73771327 3.45695758,4.73771327 C2.74870285,4.73771327 2.27653302,5.17265089 2.27653302,5.82505733 C2.27653302,6.25999496 2.51261793,6.69493258 2.98478776,6.80366699 C2.98478776,7.99974546 2.98478776,7.99974546 2.98478776,7.99974546 C3.92912741,7.99974546 3.92912741,7.99974546 3.92912741,7.99974546 C3.92912741,6.80366699 3.92912741,6.80366699 3.92912741,6.80366699 C4.28325478,6.69493258 4.63738215,6.25999496 4.63738215,5.82505733 Z" id="Stroke-2"></path>
                    <path d="M0.421580189,3.49503449 C0.421580189,2.77013804 0.421580189,2.77013804 0.421580189,2.77013804 C0.421580189,1.32034636 1.69458709,0.0776674306 3.31477823,0.0776674306 C3.31477823,0.0776674306 3.31477823,0.0776674306 3.31477823,0.0776674306 C5.05069546,0.0776674306 6.32370302,1.21678986 6.32370302,2.66658227 C6.32370302,3.49503449 6.32370302,3.49503449 6.32370302,3.49503449" id="Stroke-3"></path>
                </g>
                <g id="tablet" transform="translate(47.000000, 20.000000)" stroke="#979797" stroke-width="0.5">
                    <rect id="Rectangle" x="0.25" y="0.25" width="13.5" height="17.5" rx="1.08"></rect>
                    <ellipse id="Oval-3" cx="4.72972973" cy="15.6122449" rx="1" ry="1"></ellipse>
                    <ellipse id="Oval-3-Copy" cx="7" cy="15.6122449" rx="1" ry="1"></ellipse>
                    <ellipse id="Oval-3-Copy-2" cx="9.27027027" cy="15.6122449" rx="1" ry="1"></ellipse>
                </g>
                <g id="camera" transform="translate(90.000000, 81.000000)" stroke="#979797" stroke-width="0.5">
                    <ellipse id="Oval" cx="6.84693878" cy="5.03571429" rx="2.58163265" ry="2.46428571"></ellipse>
                    <rect id="Rectangle-7" x="0.25" y="1.32142857" width="10.5" height="7.42857143" rx="0.84"></rect>
                    <rect id="Rectangle-7" x="1.59693878" y="0.25" width="1.07142857" height="1"></rect>
                </g>
                <g id="phone" transform="translate(77.000000, 88.000000)" stroke="#A0A3A5" stroke-width="0.5">
                    <rect id="Rectangle" x="0.25" y="0.25" width="8.5" height="14.5" rx="1.2"></rect>
                    <ellipse id="Oval-4" cx="2.75806452" cy="2.90816327" rx="1.01612903" ry="1.07142857"></ellipse>
                </g>
                <g id="monitor" transform="translate(52.000000, 39.000000)" stroke="#A0A3A5" stroke-width="0.5">
                    <rect id="Rectangle-8" x="0.25" y="0.25" width="9.5" height="7.06818182" rx="0.8"></rect>
                    <rect id="Rectangle-9" x="2.90306122" y="8.63636364" width="4.19387755" height="1"></rect>
                    <rect id="Rectangle-9" x="4.94387755" y="7.61363636" width="1" height="1"></rect>
                    <ellipse id="Oval-5" cx="5" cy="1.32954545" rx="1" ry="1"></ellipse>
                </g>
                <path d="M36.4383311,82 C31.1780869,78.5862066 32.0547942,73.1494253 32.0547942,73.1494253 C34.9354049,72.3908045 36.4383311,71 36.4383311,71 C36.4383311,71 38.0665027,72.3908045 40.9471115,73.1494253 C40.9471115,73.1494253 41.8238191,78.5862066 36.4383311,82 Z" id="Stroke-1" stroke="#A0A3A5" stroke-width="0.5"></path>
                <path d="M50.5555554,80.1836738 C51.6555554,81.2448974 51.6555554,81.2448974 51.6555554,81.2448974 C53,79.9183675 53,79.9183675 53,79.9183675 L50.5555554,80.1836738 Z M50.5555554,78.9897963 C51.6555554,77.9285714 51.6555554,77.9285714 51.6555554,77.9285714 C53,79.1224487 53,79.1224487 53,79.1224487 L50.5555554,78.9897963 Z M50.5555554,80.1836738 C50.5555554,78.9897963 50.5555554,78.9897963 50.5555554,78.9897963 C47.0111108,78.9897963 47.0111108,78.9897963 47.0111108,78.9897963 C46.7666662,77.7959184 45.7888892,77 44.6888892,77 C43.3444445,77 42.2444445,78.1938775 42.2444445,79.6530613 C42.2444445,80.8469387 42.9777777,81.77551 43.9555554,82.1734701 C43.9555554,82.3061225 43.9555554,82.3061225 43.9555554,82.3061225 C44.9333338,86.6836738 44.9333338,86.6836738 44.9333338,86.6836738 C42,86.6836738 42,86.6836738 42,86.6836738 C42,90 42,90 42,90 C50.5555554,90 50.5555554,90 50.5555554,90 C50.5555554,86.6836738 50.5555554,86.6836738 50.5555554,86.6836738 C47.7444446,86.6836738 47.7444446,86.6836738 47.7444446,86.6836738 C46.5222216,81.3775513 46.5222216,81.3775513 46.5222216,81.3775513 C46.7666662,80.9795911 47.0111108,80.5816325 47.0111108,80.1836738 L50.5555554,80.1836738 Z M43.5888892,79.6530613 C43.5888892,78.9897963 44.0777784,78.4591838 44.6888892,78.4591838 C45.3,78.4591838 45.7888892,78.9897963 45.7888892,79.6530613 C45.7888892,80.3163262 45.3,80.8469387 44.6888892,80.8469387 C44.0777784,80.8469387 43.5888892,80.3163262 43.5888892,79.6530613 Z" id="Stroke-1" stroke="#A0A3A5" stroke-width="0.5"></path>
                <path d="M39.8666096,89.2140297 L38.6298498,87.9772516 C38.9279202,87.5469794 39.0770218,87.06736 39.0770218,86.5385262 C39.0770218,86.1947776 39.0102823,85.8660323 38.8768477,85.5523346 C38.7434573,85.2385926 38.5631546,84.9681788 38.3359838,84.7410046 C38.108813,84.5138305 37.8384474,84.3335251 37.5247544,84.2001328 C37.2109727,84.0666962 36.8822323,84 36.5384888,84 C36.1947452,84 35.8660048,84.0666962 35.5523117,84.2001328 C35.2385743,84.3335251 34.9681645,84.5138305 34.7409937,84.7410046 C34.5138229,84.9681788 34.3335202,85.2386369 34.2001298,85.5523346 C34.0666952,85.8660766 34,86.1947776 34,86.5385262 C34,86.8822748 34.0666952,87.2109316 34.2001298,87.5247179 C34.3335202,87.8384156 34.5138229,88.1087851 34.7409937,88.3359593 C34.9681645,88.5631777 35.2386186,88.7434388 35.5523117,88.8768754 C35.866049,89.010312 36.1947452,89.0770082 36.5384888,89.0770082 C37.0674033,89.0770082 37.5469713,88.9279044 37.9772372,88.6298296 L39.213997,89.8629785 C39.3005193,89.9543262 39.4085947,90 39.5384887,90 C39.6634703,90 39.7717227,89.9543262 39.8629805,89.8629785 C39.9543268,89.7716751 40,89.6634654 40,89.538482 C40.0000442,89.4111529 39.9556103,89.3029431 39.8666096,89.2140297 L39.8666096,89.2140297 Z M37.6797421,87.6797079 C37.3636149,87.9958398 36.9832266,88.1538836 36.5384888,88.1538836 C36.0937952,88.1538836 35.7134069,87.9957955 35.3972797,87.6797079 C35.0811524,87.363576 34.923111,86.9832264 34.923111,86.538482 C34.923111,86.0937818 35.0811967,85.7133437 35.3972797,85.397256 C35.7133626,85.0811241 36.0937952,84.9230803 36.5384888,84.9230803 C36.9831824,84.9230803 37.3635706,85.0811684 37.6797421,85.397256 C37.9958693,85.7133437 38.1539551,86.0937818 38.1539551,86.538482 C38.1539551,86.9832264 37.9958251,87.363576 37.6797421,87.6797079 L37.6797421,87.6797079 Z" id="Shape" fill="#A0A3A5"></path>
                <g id="powerbt" transform="translate(21.000000, 61.000000)" stroke="#A0A3A5">
                    <path d="M5.5,9 C7.43299662,9 9,7.43299662 9,5.5 C9,3.56700338 7.43299662,2 5.5,2 C3.56700338,2 2,3.56700338 2,5.5" id="Oval-6" stroke-width="0.5" transform="translate(5.500000, 5.500000) rotate(-225.000000) translate(-5.500000, -5.500000) "></path>
                    <rect id="Rectangle-10" x="5.70000076" y="1.5" width="1" height="4"></rect>
                </g>
                <g id="gauge" opacity="0.699999988" transform="translate(13.000000, 36.000000)">
                    <path d="M0.099909991,6.02537017 C0.099909991,2.75311182 2.73905216,0.100422833 5.99459965,0.100422833 C9.25014557,0.100422833 11.8892893,2.75311182 11.8892893,6.02537017 C11.8892893,9.29762694 9.25014557,11.9503175 5.99459965,11.9503175 C2.73905216,11.9503175 0.099909991,9.29762694 0.099909991,6.02537017 Z" id="Stroke-1" stroke="#A0A3A5" stroke-width="0.504"></path>
                    <path d="M5.45454545,7.63636364 C5.45454545,7.23470303 5.78015758,6.90909091 6.18181818,6.90909091 C6.58347879,6.90909091 6.90909091,7.23470303 6.90909091,7.63636364 C6.90909091,8.03802424 6.58347879,8.36363636 6.18181818,8.36363636 C5.78015758,8.36363636 5.45454545,8.03802424 5.45454545,7.63636364 Z" id="Fill-2" fill="#A0A3A5"></path>
                    <path d="M6.18181818,8.17970414 L6.18183333,4.36363636" id="Stroke-3" stroke="#A0A3A5" stroke-width="0.504" stroke-linecap="round"></path>
                    <path d="M5.89468947,2.67336152 L5.89470461,1.06659614" id="Stroke-4" stroke="#A0A3A5" stroke-width="0.504" stroke-linecap="round"></path>
                    <path d="M2.69756976,4.48097252 L1.49864983,3.67758983" id="Stroke-5" stroke="#A0A3A5" stroke-width="0.504" stroke-linecap="round"></path>
                    <path d="M9.29162916,4.48097252 L10.6903691,3.67758983" id="Stroke-6" stroke="#A0A3A5" stroke-width="0.504" stroke-linecap="round"></path>
                    <path d="M7.29342934,2.67336152 L7.68973899,1.26744182" id="Stroke-7" stroke="#A0A3A5" stroke-width="0.504" stroke-linecap="round"></path>
                    <path d="M4.69243924,2.87420719 L4.2961296,1.46828748" id="Stroke-8" stroke="#A0A3A5" stroke-width="0.504" stroke-linecap="round"></path>
                    <path d="M3.49684968,3.47674419 L2.69756973,2.27167015" id="Stroke-9" stroke="#A0A3A5" stroke-width="0.504" stroke-linecap="round"></path>
                    <path d="M8.49234923,3.47674419 L9.29162919,2.27167015" id="Stroke-10" stroke="#A0A3A5" stroke-width="0.504" stroke-linecap="round"></path>
                </g>
                <g id="bar" transform="translate(19.000000, 76.000000)" fill="#A0A3A5">
                    <rect id="Rectangle-path" x="0.53164557" y="4.21428571" width="1.45206962" height="2.23464286"></rect>
                    <rect id="Rectangle-path" x="2.68987342" y="1.28571429" width="1.452" height="5.21428571"></rect>
                    <rect id="Rectangle-path" x="4.84810127" y="2.78571429" width="1.45193038" height="3.7245"></rect>
                    <rect id="Rectangle-path" x="7.07594937" y="0.5" width="1.45206962" height="5.95921429"></rect>
                    <rect id="Rectangle-path-Copy" x="0.5" y="7" width="8.10000038" height="1"></rect>
                </g>
                <g id="bulb" transform="translate(26.000000, 20.000000)">
                    <polygon id="Rectangle-11" fill="#A0A3A5" points="2 8 6 8 6.22155762 9.53894043 6 10.994873 5.49731445 12.0723877 3.91137695 13 2.36047363 12.0723877 2 10.994873 1.82275391 9.53894043"></polygon>
                    <path d="M7.62733333,2.25921429 C7.3972381,1.7801746 7.09466667,1.38223016 6.71971429,1.0655873 C6.34466667,0.749047619 5.92038095,0.499674603 5.4472381,0.317468254 C4.97380952,0.135468254 4.49142857,0.0443650794 4,0.0443650794 C3.50857143,0.0443650794 3.02619048,0.135365079 2.55285714,0.317468254 C2.07952381,0.499674603 1.65533333,0.749047619 1.28028571,1.0655873 C0.905333333,1.38223016 0.602666667,1.78007143 0.37247619,2.25921429 C0.142285714,2.73835714 0.0272380952,3.2552619 0.0272380952,3.81013492 C0.0272380952,4.6787619 0.293714286,5.42966667 0.82647619,6.06295238 C1.05933333,6.3375 1.252,6.58130159 1.40457143,6.79425397 C1.5572381,7.00710317 1.71114286,7.2747381 1.86628571,7.59695238 C2.02142857,7.91916667 2.10942857,8.22043651 2.13009524,8.50065873 C1.88695238,8.6575873 1.76542857,8.88735714 1.76542857,9.19007143 C1.76542857,9.39745238 1.83009524,9.57676984 1.95942857,9.72802381 C1.83009524,9.87938095 1.76542857,10.0586984 1.76542857,10.2660794 C1.76542857,10.5575476 1.88190476,10.7844286 2.11466667,10.9471349 C2.04733333,11.0758968 2.01371429,11.2075476 2.01371429,11.3420873 C2.01371429,11.5998175 2.09514286,11.7989444 2.25809524,11.9388492 C2.42095238,12.0789603 2.62142857,12.1490159 2.85942857,12.1490159 C2.96285714,12.3956032 3.11809524,12.5917381 3.32495238,12.7374206 C3.53180952,12.8831032 3.75685714,12.9559444 4,12.9559444 C4.24314286,12.9559444 4.46819048,12.8831032 4.67504762,12.7374206 C4.882,12.5917381 5.0372381,12.3956032 5.14066667,12.1490159 C5.37857143,12.1490159 5.57914286,12.0789603 5.742,11.9388492 C5.90495238,11.7989444 5.98638095,11.5998175 5.98638095,11.3420873 C5.98638095,11.2075476 5.95266667,11.0758968 5.88533333,10.9471349 C6.11809524,10.7845317 6.23457143,10.5575476 6.23457143,10.2660794 C6.23457143,10.0586984 6.16980952,9.87938095 6.04057143,9.72802381 C6.16980952,9.57676984 6.23457143,9.39745238 6.23457143,9.19007143 C6.23457143,8.88735714 6.11304762,8.65769048 5.86980952,8.50065873 C5.89057143,8.22043651 5.97857143,7.91916667 6.13371429,7.59695238 C6.28904762,7.2747381 6.44285714,7.00710317 6.59552381,6.79425397 C6.74819048,6.58130159 6.94085714,6.3375 7.17352381,6.06295238 C7.70628571,5.42966667 7.97285714,4.6787619 7.97285714,3.81013492 C7.97285714,3.2552619 7.85771429,2.73835714 7.62733333,2.25921429 L7.62733333,2.25921429 Z" id="Shape" stroke="#979797" stroke-width="0.5"></path>
                    <path d="M4.77209524,2.59979365 C4.51609524,2.51013492 4.25866667,2.46525397 4.00009524,2.46525397 C3.93285714,2.46525397 3.87466667,2.49176984 3.82552381,2.54511111 C3.77638095,2.59834921 3.75180952,2.66138889 3.75180952,2.73423016 C3.75180952,2.80707143 3.77638095,2.87011111 3.82552381,2.92334921 C3.87466667,2.97648413 3.93285714,3.00320635 4.00009524,3.00320635 C4.26914286,3.00320635 4.5432381,3.0732619 4.8227619,3.21326984 C5.102,3.35338095 5.24152381,3.55230159 5.24152381,3.81013492 C5.24152381,3.88297619 5.266,3.94611905 5.3152381,3.99925397 C5.36447619,4.05238889 5.42257143,4.07900794 5.48971429,4.07900794 C5.55704762,4.07900794 5.61514286,4.05249206 5.66438095,3.99925397 C5.71352381,3.94601587 5.738,3.88297619 5.738,3.81013492 C5.738,3.51866667 5.64085714,3.26650794 5.44704762,3.05365873 C5.2532381,2.84080952 5.02809524,2.68934921 4.77209524,2.59979365 L4.77209524,2.59979365 Z" id="Shape" fill="#A0A3A5"></path>
                </g>
                <g id="oculus" transform="translate(6.000000, 52.000000)">
                    <path d="M2.12073581,5.04714715 C2.12073581,5.04714715 1.82920195,3.98348394 1.9263799,0.88918927 L2.12073581,5.04714715 Z M13.8792697,5.04714715 C13.8792697,5.04714715 14.1707973,3.98348394 14.073613,0.985885913 L13.8792697,5.04714715 Z M13.9764414,5.04714715 C15.5312887,4.95045038 15.9200005,4.08018071 15.9200005,4.08018071 C15.9200005,2.04954985 15.9200005,2.04954985 15.9200005,2.04954985 C15.9200005,2.04954985 14.5595091,0.018918927 8.0485886,0.018918927 C1.53766934,-0.0777777778 0.08,1.95285308 0.08,1.95285308 C0.08,3.98348394 0.08,3.98348394 0.08,3.98348394 C0.08,3.98348394 0.371533742,4.95045038 2.02355786,4.95045038 C2.02355786,4.95045038 2.21791377,7.07777801 6.49374257,6.88438447 C6.49374257,6.88438447 6.78527644,6.98108124 7.27116495,6.49759741 C7.65987678,5.91741804 8.0485886,5.53063098 8.63165634,6.49759741 C8.63165634,6.49759741 9.02036816,6.98108124 9.40907998,6.98108124 C13.6849138,7.07777801 13.9764414,5.04714715 13.9764414,5.04714715 Z" id="Stroke-1" stroke="#A0A3A5" stroke-width="0.5"></path>
                    <path d="M3.2,2.41111111 C3.2,1.93860022 3.5581728,1.55555556 4,1.55555556 C4.4418272,1.55555556 4.8,1.93860022 4.8,2.41111111 C4.8,2.883622 4.4418272,3.26666667 4,3.26666667 C3.5581728,3.26666667 3.2,2.883622 3.2,2.41111111 Z" id="Fill-2" fill="#A0A3A5"></path>
                </g>
                <g id="marker" transform="translate(102.000000, 55.000000)" stroke="#A0A3A5" stroke-width="0.5">
                    <path d="M4.5,0.0442619048 C3.26625,0.0442619048 2.21292857,0.464595238 1.34003571,1.30515873 C0.467142857,2.14572222 0.0306428571,3.16003175 0.0306428571,4.3480873 C0.0306428571,4.95898413 0.126642857,5.46051587 0.318642857,5.85278571 L3.50485714,12.3590794 C3.59217857,12.5439683 3.7275,12.6896508 3.91082143,12.7960238 C4.09414286,12.9025 4.29053571,12.9558413 4.50010714,12.9558413 C4.70957143,12.9558413 4.90607143,12.9025 5.08939286,12.7960238 C5.27271429,12.6896508 5.41082143,12.5439683 5.50392857,12.3590794 L8.68125,5.85278571 C8.87335714,5.46051587 8.96935714,4.95898413 8.96935714,4.3480873 C8.96946429,3.16003175 8.53296429,2.1458254 7.65996429,1.30515873 C6.78707143,0.464492063 5.73375,0.0442619048 4.5,0.0442619048 Z M6.07992857,5.86960317 C5.64353571,6.28983333 5.11692857,6.5 4.5,6.5 C3.88307143,6.5 3.35646429,6.28983333 2.91996429,5.86960317 C2.48346429,5.44926984 2.26521429,4.94216667 2.26521429,4.3480873 C2.26521429,3.75411111 2.48346429,3.24690476 2.91996429,2.8266746 C3.35646429,2.40634127 3.88317857,2.1961746 4.5,2.1961746 C5.11692857,2.1961746 5.64353571,2.40634127 6.07992857,2.8266746 C6.51642857,3.24690476 6.73467857,3.75411111 6.73467857,4.3480873 C6.73467857,4.94206349 6.51642857,5.44916667 6.07992857,5.86960317 L6.07992857,5.86960317 Z" id="Shape"></path>
                </g>
                <g id="cog2" transform="translate(102.000000, 44.000000)" stroke="#A0A3A5" stroke-width="0.5">
                    <path d="M7.93130159,3.31460317 C7.90361905,3.27834921 7.86749206,3.2567619 7.82266667,3.24990476 L6.87606349,3.10507937 C6.82431746,2.93955556 6.7535873,2.77060317 6.66393651,2.59815873 C6.72596825,2.51193651 6.81904762,2.3904127 6.9431746,2.23346032 C7.06730159,2.07650794 7.1552381,1.96190476 7.20698413,1.88946032 C7.23460317,1.85149206 7.24831746,1.81187302 7.24831746,1.77047619 C7.24831746,1.72222222 7.23631746,1.68431746 7.21212698,1.65669841 C7.088,1.4807619 6.80349206,1.18768254 6.35860317,0.777269841 C6.31733333,0.742793651 6.27415873,0.725587302 6.22939683,0.725587302 C6.17765079,0.725587302 6.13625397,0.741079365 6.10520635,0.772063492 L5.37073016,1.3255873 C5.22926984,1.25314286 5.07409524,1.18933333 4.90514286,1.13415873 L4.76031746,0.182412698 C4.75688889,0.137587302 4.73701587,0.100507937 4.7008254,0.0711746032 C4.66457143,0.0418412698 4.6224127,0.0272380952 4.57403175,0.0272380952 L3.42571429,0.0272380952 C3.32571429,0.0272380952 3.26361905,0.0754920635 3.23949206,0.172063492 C3.19466667,0.344444444 3.14463492,0.665142857 3.08946032,1.13415873 C2.92736508,1.18596825 2.77047619,1.25149206 2.61873016,1.33079365 L1.90488889,0.777269841 C1.86006349,0.742793651 1.8152381,0.725587302 1.7704127,0.725587302 C1.69453968,0.725587302 1.53161905,0.848825397 1.2815873,1.09542857 C1.03155556,1.34203175 0.861777778,1.52736508 0.772063492,1.65149206 C0.741015873,1.69631746 0.72552381,1.736 0.72552381,1.77047619 C0.72552381,1.81187302 0.742730159,1.85326984 0.777206349,1.89460317 C1.00825397,2.17396825 1.1927619,2.41187302 1.33073016,2.60850794 C1.24450794,2.76711111 1.17726984,2.92577778 1.12901587,3.08438095 L0.166857143,3.22920635 C0.128952381,3.23612698 0.0961904762,3.25853968 0.0685714286,3.29650794 C0.040952381,3.3344127 0.0271746032,3.37409524 0.0271746032,3.41542857 L0.0271746032,4.56380952 C0.0271746032,4.60869841 0.040952381,4.64914286 0.0685714286,4.68533333 C0.0961904762,4.7215873 0.132380952,4.7432381 0.177206349,4.75009524 L1.12387302,4.88977778 C1.17212698,5.05873016 1.24279365,5.22939683 1.33593651,5.40177778 C1.27390476,5.488 1.1807619,5.60952381 1.05663492,5.76647619 C0.932507937,5.92342857 0.844507937,6.03803175 0.792825397,6.11047619 C0.765206349,6.14850794 0.751428571,6.18806349 0.751428571,6.22946032 C0.751428571,6.27428571 0.763492063,6.31390476 0.787619048,6.34838095 C0.922095238,6.53466667 1.20660317,6.82438095 1.64114286,7.21746032 C1.67911111,7.25542857 1.72222222,7.27434921 1.77047619,7.27434921 C1.82222222,7.27434921 1.86533333,7.25885714 1.89980952,7.22787302 L2.62920635,6.67428571 C2.77066667,6.74673016 2.92584127,6.81053968 3.09479365,6.86577778 L3.23961905,7.81752381 C3.24311111,7.86234921 3.26292063,7.89942857 3.29911111,7.9287619 C3.33530159,7.95815873 3.3775873,7.97269841 3.42584127,7.97269841 L4.57422222,7.97269841 C4.67434921,7.97269841 4.73638095,7.92444444 4.76057143,7.82787302 C4.80533333,7.65542857 4.85530159,7.33479365 4.91047619,6.86577778 C5.07257143,6.81403175 5.22952381,6.74844444 5.38120635,6.66914286 L6.09511111,7.22787302 C6.14336508,7.25885714 6.18825397,7.27434921 6.2295873,7.27434921 C6.30539683,7.27434921 6.46749206,7.152 6.71574603,6.90711111 C6.96412698,6.66228571 7.13479365,6.476 7.22780952,6.34838095 C7.25885714,6.31390476 7.2744127,6.27428571 7.2744127,6.22946032 C7.2744127,6.18463492 7.25720635,6.14139683 7.22266667,6.10012698 C6.9744127,5.79663492 6.78990476,5.55873016 6.66914286,5.38628571 C6.73809524,5.25866667 6.80539683,5.10177778 6.87092063,4.91555556 L7.82787302,4.77079365 C7.86920635,4.76387302 7.90380952,4.74139683 7.93136508,4.70342857 C7.95892063,4.66546032 7.97263492,4.62577778 7.97263492,4.58444444 L7.97263492,3.43612698 C7.97269841,3.39130159 7.95898413,3.35085714 7.93130159,3.31460317 L7.93130159,3.31460317 Z M4.93631746,4.93625397 C4.67771429,5.19492063 4.3655873,5.32425397 4,5.32425397 C3.6344127,5.32425397 3.32234921,5.19492063 3.06368254,4.93625397 C2.80507937,4.67765079 2.67574603,4.3655873 2.67574603,4 C2.67574603,3.6344127 2.80501587,3.32234921 3.06368254,3.06368254 C3.32234921,2.80507937 3.63447619,2.67574603 4,2.67574603 C4.3655873,2.67574603 4.67771429,2.80507937 4.93631746,3.06368254 C5.19492063,3.32234921 5.32425397,3.6344127 5.32425397,4 C5.32425397,4.3655873 5.19492063,4.67765079 4.93631746,4.93625397 L4.93631746,4.93625397 Z" id="Shape"></path>
                </g>
                <g id="cart" transform="translate(64.000000, 30.000000)" stroke="#A0A3A5" stroke-width="0.5">
                    <polyline id="Stroke-1" points="9.93975932 0.0641025641 8.08499311 0.0641025641 6.42966434 7.50000024 1.14457831 7.50000024"></polyline>
                    <polyline id="Stroke-2" points="7.65060265 1.73076923 0.0602409639 1.73076923 1.03133197 5.70512833 6.77860281 5.70512833"></polyline>
                    <path d="M1.38554217,9.35897438 C1.38554217,9.04034858 1.65525017,8.78205128 1.98795183,8.78205128 C2.32065348,8.78205128 2.59036148,9.04034858 2.59036148,9.35897438 C2.59036148,9.67760017 2.32065348,9.93589747 1.98795183,9.93589747 C1.65525017,9.93589747 1.38554217,9.67760017 1.38554217,9.35897438 Z" id="Stroke-3"></path>
                    <path d="M5,9.35897438 C5,9.04034858 5.29667879,8.78205128 5.66265062,8.78205128 C6.02862255,8.78205128 6.32530125,9.04034858 6.32530125,9.35897438 C6.32530125,9.67760017 6.02862255,9.93589747 5.66265062,9.93589747 C5.29667879,9.93589747 5,9.67760017 5,9.35897438 Z" id="Stroke-4"></path>
                    <path d="M2.8313253,1.73076923 L2.83133475,5.70512833" id="Stroke-5"></path>
                    <path d="M5.12048193,1.73076923 L5.12049138,5.70512833" id="Stroke-6"></path>
                    <path d="M0.421686747,3.14102564 L7.53012071,3.14103509" id="Stroke-7"></path>
                    <path d="M0.662650602,4.55128205 L7.04819298,4.5512915" id="Stroke-8"></path>
                </g>
                <g id="surveillance" transform="translate(54.000000, 103.000000)" stroke="#A0A3A5" stroke-width="0.5">
                    <polygon id="Fill-1" points="3.2 5.311475 11.631422 9.34426212 12.457356 7.57377115 13.971572 8.22950962 14.83192 10 17 5.96721346 15.00399 6.29508269 13.489776 5.63934423 14.48778 3.86885192 5.88429 0"></polygon>
                    <polyline id="Stroke-3" points="7.70000024 7.40384615 6.67963013 9.32692314 0.1 9.32692314"></polyline>
                </g>
                <g id="charging-battery" transform="translate(78.000000, 65.000000)">
                    <polygon id="Rectangle-path" stroke="#A0A3A5" stroke-width="0.5" points="0 1 0 13 5 13 5 1"></polygon>
                    <polygon id="Rectangle-path" stroke="#A0A3A5" stroke-width="0.5" points="1 10 1 11.1641667 3.98653465 11.1641667 3.98653465 10"></polygon>
                    <polygon id="Rectangle-path" stroke="#A0A3A5" stroke-width="0.5" points="1 8 1 9.16416667 3.98653465 9.16416667 3.98653465 8"></polygon>
                    <polygon id="Rectangle-path" stroke="#A0A3A5" stroke-width="0.5" points="1 6 1 7.16416667 3.98653465 7.16416667 3.98653465 6"></polygon>
                    <polygon id="Rectangle-path" fill="#A0A3A5" points="1.5 0 1.5 1 3.49000001 1 3.49000001 0"></polygon>
                </g>
                <g id="headphones" transform="translate(74.000000, 36.000000)" fill="#A0A3A5">
                    <path d="M7.65370588,2.296 C7.43947059,1.83713793 7.15358824,1.4397069 6.79582353,1.10376724 C6.43794118,0.767827586 6.01288235,0.499836207 5.52094118,0.299913793 C5.02894118,0.0999913793 4.51782353,0 3.98735294,0 C3.457,0 2.94582353,0.100051724 2.45376471,0.299913793 C1.96170588,0.499775862 1.53682353,0.767767241 1.17894118,1.10376724 C0.821058824,1.43976724 0.535117647,1.83713793 0.321058824,2.296 C0.107,2.75492241 0,3.23182759 0,3.72665517 C0,4.27084483 0.0958235294,4.78540517 0.287529412,5.27051724 L0.383411765,5.51141379 L1.27,5.67362069 C1.34029412,5.94565517 1.48488235,6.16935345 1.70376471,6.34471552 C1.92258824,6.5199569 2.17258824,6.60763793 2.45376471,6.60763793 L2.45376471,6.7649569 C2.45376471,6.81087931 2.46811765,6.84853448 2.49688235,6.8780431 C2.52564706,6.90749138 2.56241176,6.92227586 2.60711765,6.92227586 L2.91382353,6.92227586 C2.95852941,6.92227586 2.99529412,6.90749138 3.02405882,6.8780431 C3.05276471,6.84853448 3.06717647,6.81087931 3.06717647,6.7649569 L3.06717647,3.93309483 C3.06717647,3.88717241 3.05282353,3.8494569 3.02405882,3.82000862 C2.99529412,3.79056034 2.95852941,3.77577586 2.91382353,3.77577586 L2.60711765,3.77577586 C2.56235294,3.77577586 2.52564706,3.79056034 2.49688235,3.82000862 C2.46811765,3.8494569 2.45376471,3.88717241 2.45376471,3.93309483 L2.45376471,4.09035345 C2.22688235,4.09035345 2.01923529,4.14858621 1.83070588,4.26499138 C1.64217647,4.38127586 1.49364706,4.53781034 1.385,4.73447414 L1.05905882,4.67539655 C0.966470588,4.3639569 0.920117647,4.04768966 0.920117647,3.72647414 C0.920117647,3.24142241 1.06064706,2.78418966 1.34182353,2.35483621 C1.623,1.92548276 2.00082353,1.58290517 2.47529412,1.32728448 C2.94976471,1.07166379 3.45376471,0.943853448 3.98735294,0.943853448 C4.52082353,0.943853448 5.02488235,1.07166379 5.49941176,1.32728448 C5.97394118,1.58290517 6.35170588,1.92548276 6.63288235,2.35483621 C6.91405882,2.78418966 7.05464706,3.24142241 7.05464706,3.72647414 C7.05464706,4.04775 7.00835294,4.3639569 6.91576471,4.67539655 L6.58976471,4.73453448 C6.48105882,4.53781034 6.33252941,4.38133621 6.14411765,4.26505172 C5.95558824,4.14864655 5.74782353,4.09041379 5.52105882,4.09041379 L5.52105882,3.93315517 C5.52105882,3.88723276 5.50670588,3.84951724 5.47788235,3.82006897 C5.44917647,3.79062069 5.41241176,3.77583621 5.36770588,3.77583621 L5.06094118,3.77583621 C5.01623529,3.77583621 4.97947059,3.79062069 4.95076471,3.82006897 C4.92194118,3.84951724 4.90758824,3.88723276 4.90758824,3.93315517 L4.90758824,6.76507759 C4.90758824,6.811 4.92194118,6.84865517 4.95076471,6.87816379 C4.97947059,6.90761207 5.01623529,6.92239655 5.06094118,6.92239655 L5.36770588,6.92239655 C5.41241176,6.92239655 5.44917647,6.90761207 5.47788235,6.87816379 C5.50670588,6.84865517 5.52105882,6.811 5.52105882,6.76507759 L5.52105882,6.60775862 C5.80217647,6.60775862 6.05217647,6.52007759 6.27105882,6.34483621 C6.48994118,6.16947414 6.63447059,5.94577586 6.70476471,5.67374138 L7.59135294,5.51153448 L7.68729412,5.27063793 C7.87894118,4.78552586 7.97476471,4.27096552 7.97476471,3.72677586 C7.97476471,3.23182759 7.86782353,2.75492241 7.65370588,2.296 L7.65370588,2.296 Z" id="Shape"></path>
                </g>
                <g id="Microwave" transform="translate(55.000000, 89.000000)" stroke="#979797" stroke-width="0.5">
                    <rect id="Rectangle-14" x="0.25" y="0.25" width="16.78" height="12.0691429" rx="0.6912"></rect>
                    <rect id="Rectangle-16" x="1.546" y="2.92428571" width="9.2632" height="6.80971429"></rect>
                    <rect id="Rectangle-17" fill="#000000" x="12.2596" y="0.25" width="1" height="12.0691429"></rect>
                    <g id="Group-7" transform="translate(12.239999, 2.785714)">
                        <rect id="Rectangle-15" x="0.7828" y="0.495142857" width="3.0424" height="6.00742857"></rect>
                        <rect id="Rectangle-20" fill="#FFFFFF" x="1.49199753" y="2.72371429" width="1.56999996" height="2.26342857"></rect>
                        <rect id="Rectangle-19" fill="#000000" x="1.3012" y="1.29742857" width="2.0056" height="1"></rect>
                    </g>
                </g>
                <g id="Fridge" transform="translate(33.000000, 49.000000)">
                    <rect id="Rectangle-7" stroke="#A0A3A5" stroke-width="0.4" x="0.2" y="0.2" width="7.856" height="19.6"></rect>
                    <rect id="Rectangle-8" stroke="#979797" stroke-width="0.2" x="3.1" y="2.1" width="3.8" height="3.936"></rect>
                    <rect id="Rectangle-8" fill="#A0A3A5" x="1" y="9" width="1" height="6"></rect>
                    <rect id="Rectangle-8-Copy" fill="#A0A3A5" x="1" y="1.09999847" width="1" height="5"></rect>
                    <rect id="Rectangle-8-Copy" fill="#A0A3A5" transform="translate(4.250000, 8.000000) rotate(90.000000) translate(-4.250000, -8.000000) " x="4" y="4" width="1" height="8"></rect>
                </g>
                <g id="Dishwasher" transform="translate(85.000000, 62.000000)">
                    <rect id="Rectangle-4" stroke="#A0A3A5" stroke-width="0.5" x="0.738372093" y="3.13429752" width="12.0348837" height="11.6157025"></rect>
                    <rect id="Rectangle" stroke="#A0A3A5" stroke-width="0.5" x="0.738372093" y="0.25" width="12.0348837" height="1.99173554"></rect>
                    <rect id="Rectangle-12" stroke="#979797" stroke-width="0.5" fill="#000000" x="2.12209302" y="4.07644628" width="9.51162791" height="1"></rect>
                    <rect id="Rectangle-2" fill="#A0A3A5" x="10" y="1" width="1" height="1" rx="0.5"></rect>
                    <rect id="Rectangle-2" fill="#A0A3A5" x="11" y="1" width="1" height="1" rx="0.5"></rect>
                    <circle id="Oval-7" stroke="#A0A3A5" stroke-width="0.4" cx="6.80000305" cy="8.5" r="3.5"></circle>
                </g>
                <g id="Dishwasher-Copy" transform="translate(55.000000, 77.000000)">
                    <rect id="Rectangle-4" stroke="#A0A3A5" stroke-width="0.3" x="0.498837209" y="1.26515152" width="8.65348837" height="8.58484848"></rect>
                    <rect id="Rectangle" stroke="#A0A3A5" stroke-width="0.3" x="0.498837209" y="0.15" width="8.65348837" height="1.52727273"></rect>
                    <rect id="Rectangle-Copy-6" stroke="#A0A3A5" stroke-width="0.2" x="1.39999924" y="3.1" width="6.9500001" height="4.8"></rect>
                    <rect id="Rectangle-2" fill="#A0A3A5" x="7.14285714" y="1.73333333" width="1" height="1" rx="0.5"></rect>
                    <rect id="Rectangle-2" fill="#A0A3A5" x="7.85714286" y="1.73333333" width="1" height="1" rx="0.5"></rect>
                </g>
                <g id="plug" transform="translate(37.000000, 26.000000)">
                    <path d="M4.125517,6.36839384 C4,7.70616958 4.86344946,7.9289499 5.25943566,7.79769629 C6.85150561,7.26998866 8,5.76911695 8,4 C8,1.790861 6.209139,0 4,0 C1.790861,0 0,1.790861 0,4 C0,5.47275933 0.701822917,6.70814919 2.10546875,7.70616958" id="Oval-8" stroke="#A0A3A5" stroke-width="0.5"></path>
                    <rect id="Rectangle-13" fill="#A0A3A5" x="2.58823529" y="3.52941176" width="3.05882353" height="1"></rect>
                    <path d="M2.82352941,4.23529412 L5.41176471,4.23529412 L5.41176471,5.27294118 C5.41176471,5.86940871 4.92823224,6.35294118 4.33176471,6.35294118 L3.90352941,6.35294118 C3.30706188,6.35294118 2.82352941,5.86940871 2.82352941,5.27294118 L2.82352941,4.23529412 Z" id="Rectangle-13-Copy" fill="#A0A3A5"></path>
                    <path d="M3.30588235,2.11764706 L3.30588235,2.11764706 C3.44232917,2.11764706 3.55294118,2.22825906 3.55294118,2.36470588 L3.55294118,3.98823529 C3.55294118,4.12468211 3.44232917,4.23529412 3.30588235,4.23529412 L3.30588235,4.23529412 C3.16943553,4.23529412 3.05882353,4.12468211 3.05882353,3.98823529 L3.05882353,2.36470588 C3.05882353,2.22825906 3.16943553,2.11764706 3.30588235,2.11764706 Z" id="Rectangle-13-Copy-2" fill="#A0A3A5"></path>
                    <path d="M4.95294118,2.11764706 L4.95294118,2.11764706 C5.089388,2.11764706 5.2,2.22825906 5.2,2.36470588 L5.2,3.98823529 C5.2,4.12468211 5.089388,4.23529412 4.95294118,4.23529412 L4.95294118,4.23529412 C4.81649436,4.23529412 4.70588235,4.12468211 4.70588235,3.98823529 L4.70588235,2.36470588 C4.70588235,2.22825906 4.81649436,2.11764706 4.95294118,2.11764706 Z" id="Rectangle-13-Copy-2" fill="#A0A3A5"></path>
                </g>
            </g>
        </g>
    </g>
</svg>