<?xml version="1.0" encoding="UTF-8"?>
<svg width="120px" height="120px" viewBox="0 0 120 120" version="1.1" xmlns="http://www.w3.org/2000/svg" xmlns:xlink="http://www.w3.org/1999/xlink">
    <!-- Generator: Sketch 50.2 (55047) - http://www.bohemiancoding.com/sketch -->
    <title>load balance</title>
    <desc>Created with Sketch.</desc>
    <defs></defs>
    <g id="Page-1" stroke="none" stroke-width="1" fill="none" fill-rule="evenodd">
        <g id="Custom-Preset">
            <g id="load-balance">
                <rect id="Rectangle-3" stroke="#FFFFFF" x="0.5" y="0.5" width="119" height="119"></rect>
                <path d="M7.78965245,92.6513148 C17.152675,92.6513148 10.6729641,65.4562412 20.3765585,65.4562412 C30.080153,65.4562412 28.1933557,111.899821 36.1509811,111.899821 C44.1086066,111.899821 44.0743611,65.4562412 52.2114251,65.4562412 C60.3484891,65.4562412 60.8214314,111.899821 68.5519931,111.899821 C76.2825548,111.899821 74.9181801,65.4562412 83.1990393,65.4562412 C91.4798986,65.4562412 89.6644984,92.6513148 98.1733884,92.6513148" id="Path-2" stroke="#979797" stroke-width="4.70399992"></path>
                <path d="M22.0042265,89.1134796 L84.4141461,89.1134796" id="Line" stroke="#FFFFFF" stroke-width="4.53600008" stroke-linecap="square"></path>
                <path d="M5.56372696,35.1950735 C11.1629258,35.1950735 7.28798162,8 13.0908465,8 C18.8937114,8 17.7653842,54.4435795 22.5241388,54.4435795 C27.2828935,54.4435795 27.2624143,8 32.1284753,8 C36.9945363,8 37.2773615,54.4435795 41.9003293,54.4435795 C46.5586814,54.4435795 45.2752131,8 50.6594372,8 C56.0436612,8 54.8262846,54.4435795 60.8024159,54.4435795 C66.7785472,54.4435795 65.5406914,8 70.4067524,8 C75.2728134,8 75.5556385,54.4435795 80.1786064,54.4435795 C84.8015742,54.4435795 83.9856619,8 88.9377142,8 C93.8897666,8 92.8041356,35.1950735 97.8925531,35.1950735" id="Path-2" stroke="#979797" stroke-width="3.50400009"></path>
                <path d="M17.1837137,32.9295716 L89.9627927,32.9295716" id="Line" stroke="#FFFFFF" stroke-width="3.33599997" stroke-linecap="square"></path>
                <path d="M109.5,15 L109.5,103.505882" id="Line-2" stroke="#A0A3A5" stroke-width="3" stroke-linecap="square"></path>
                <path id="Line-2-decoration-1" d="M109.5,15 L112.5,25.8 L106.5,25.8 L109.5,15 Z" stroke="#A0A3A5" stroke-width="3" stroke-linecap="square"></path>
                <path id="Line-2-decoration-2" d="M109.5,103.505882 L112.5,92.7058821 L106.5,92.7058821 L109.5,103.505882 Z" stroke="#A0A3A5" stroke-width="3" stroke-linecap="square"></path>
            </g>
        </g>
    </g>
</svg>