<?xml version="1.0" encoding="UTF-8"?>
<svg width="120px" height="120px" viewBox="0 0 120 120" version="1.1" xmlns="http://www.w3.org/2000/svg" xmlns:xlink="http://www.w3.org/1999/xlink">
    <!-- Generator: Sketch 50.2 (55047) - http://www.bohemiancoding.com/sketch -->
    <title>networkoverview</title>
    <desc>Created with Sketch.</desc>
    <defs></defs>
    <g id="Page-1" stroke="none" stroke-width="1" fill="none" fill-rule="evenodd">
        <g id="Custom-Preset">
            <g id="networkoverview">
                <rect id="Rectangle-3" stroke="#FFFFFF" x="0.5" y="0.5" width="119" height="119"></rect>
                <g id="Group-3" transform="translate(8.000000, 29.000000)">
                    <path d="M6.625,41.7090909 C6.625,39.4999481 8.41586057,37.7090909 10.625,37.7090909 C12.8341429,37.7090909 14.625,39.4999481 14.625,41.7090909 C14.625,43.9182338 12.8341429,45.7090909 10.625,45.7090909 C8.41586057,45.7090909 6.625,43.9182338 6.625,41.7090909 Z" id="Fill-1" fill="#A0A3A5"></path>
                    <path d="M19.5010098,51.5727289 C3.25907233,51.5727289 3.25907233,51.5727289 3.25907233,51.5727289 C1.90557783,51.5727289 0.552083333,50.2122411 0.552083333,48.851762 C0.552083333,3.27551495 0.552083333,3.27551495 0.552083333,3.27551495 C0.552083333,1.91503064 1.90557783,0.554545455 3.25907233,0.554545455 C19.5010098,0.554545455 19.5010098,0.554545455 19.5010098,0.554545455 C20.8545008,0.554545455 21.5312507,1.91503064 21.5312507,3.27551495 C21.5312507,48.851762 21.5312507,48.851762 21.5312507,48.851762 C21.5312507,50.2122411 20.8545008,51.5727289 19.5010098,51.5727289 Z" id="Stroke-2" stroke="#A0A3A5" stroke-width="1.44"></path>
                    <path d="M4.96875,11.6454545 L17.1145837,11.6455419" id="Stroke-3" stroke="#68717A" stroke-width="1.44"></path>
                    <path d="M4.96875,19.4090909 L17.1145837,19.4091782" id="Stroke-4" stroke="#68717A" stroke-width="1.44"></path>
                    <path d="M73.4270848,60.445456 C73.4270848,50.8550768 67.9712059,42.6347567 59.7873831,39.2096219 C62.5153182,36.469521 64.5612783,33.0443862 64.5612783,28.2492009 C64.5612783,20.7139043 58.4234068,13.8636364 50.2395841,13.8636364 C42.0557613,13.8636364 35.9178899,20.7139043 35.9178899,28.2492009 C35.9178899,33.0443862 37.9638499,36.469521 40.6917937,39.2096219 C33.1899513,42.6347567 27.0520833,50.8550768 27.0520833,60.445456" id="Stroke-5" stroke="#68717A" stroke-width="1.44"></path>
                    <polyline id="Stroke-9" stroke="#68717A" stroke-width="1.44" points="67.8828125 28.281819 80.7714844 28.281819 102.135418 28.281819 102.135418 3.88181818 60.1770833 3.88181818 60.1770833 11.3520508"></polyline>
                    <polyline id="Stroke-10" stroke="#68717A" stroke-width="1.44" points="73.4270833 48.2454545 94.4062507 48.2454545 94.4062507 58.227273"></polyline>
                    <polyline id="Stroke-11" stroke="#01C9FF" stroke-width="1.1" points="77.84375 51.5727273 80.0520834 51.5727273 80.0520834 54.9000001"></polyline>
                    <polyline id="Stroke-12" stroke="#01C9FF" stroke-width="1.1" points="82.2604167 51.5727273 84.4687501 51.5727273 84.4687501 54.9000001"></polyline>
                    <polyline id="Stroke-13" stroke="#01C9FF" stroke-width="1.1" points="86.6770833 51.5727273 89.9895834 51.5727273 89.9895834 54.9000001"></polyline>
                    <path d="M67.5129844,37.1545466 C102.12029,37.1545466 102.12029,37.1545466 102.12029,37.1545466 C104.116867,37.1545466 105.447918,35.0828433 105.447918,33.0111488 C105.447918,4.00737524 105.447918,4.00737524 105.447918,4.00737524 C105.447918,1.9356772 104.116867,0.554545455 102.12029,0.554545455 C60.1922088,0.554545455 60.1922088,0.554545455 60.1922088,0.554545455 C58.1956337,0.554545455 56.8645833,1.9356772 56.8645833,4.00737524 C56.8645833,19.4614258 56.8645833,6.7696396 56.8645833,6.7696396" id="Stroke-14" stroke="#A0A3A5" stroke-width="1.44"></path>
                    <rect id="Rectangle-2" stroke="#A0A3A5" stroke-width="1.44" fill="#FFFFFF" x="71" y="19" width="4" height="8"></rect>
                    <rect id="Rectangle-2" stroke="#A0A3A5" stroke-width="1.44" fill="#FFFFFF" x="75" y="14" width="4" height="13"></rect>
                    <rect id="Rectangle-2" stroke="#A0A3A5" stroke-width="1.44" fill="#FFFFFF" x="83" y="14" width="4" height="13"></rect>
                    <rect id="Rectangle-2" stroke="#A0A3A5" stroke-width="1.44" fill="#FFFFFF" x="87" y="17" width="4" height="10"></rect>
                    <rect id="Rectangle-2" stroke="#A0A3A5" stroke-width="1.44" fill="#FFFFFF" x="91" y="12" width="4" height="15"></rect>
                    <rect id="Rectangle-2" stroke="#01C9FF" stroke-width="1.44" fill="#FFFFFF" x="79" y="10" width="4" height="17"></rect>
                </g>
            </g>
        </g>
    </g>
</svg>