<?xml version="1.0" encoding="UTF-8"?>
<svg width="120px" height="120px" viewBox="0 0 120 120" version="1.1" xmlns="http://www.w3.org/2000/svg" xmlns:xlink="http://www.w3.org/1999/xlink">
    <!-- Generator: Sketch 50.2 (55047) - http://www.bohemiancoding.com/sketch -->
    <title>nwcoverage</title>
    <desc>Created with Sketch.</desc>
    <defs>
        <polyline id="path-1" points="110.39467 65.7494617 0 65.7494617 0 0 110.39467 0 110.39467 65.7494617"></polyline>
    </defs>
    <g id="Page-1" stroke="none" stroke-width="1" fill="none" fill-rule="evenodd">
        <g id="Custom-Preset">
            <g id="nwcoverage">
                <rect id="Rectangle-3" stroke="#FFFFFF" x="0.5" y="0.5" width="119" height="119"></rect>
                <g id="Group" transform="translate(3.000000, 25.000000)">
                    <polyline id="Fill-3" fill="#BEC8D2" opacity="0.804408482" points="111.394667 66.2827927 1 66.2827927 1 0.533333333 111.394667 0.533333333 111.394667 66.2827927"></polyline>
                    <polyline id="Fill-4" fill="#FFFFFF" points="50.7277511 17.715797 1 9.93333333 50.7277511 17.715797"></polyline>
                    <path d="M51.5555556,18.55 L0.22222058,10.7166664" id="Stroke-5" stroke="#FFFFFF" stroke-width="1.56" stroke-linejoin="round"></path>
                    <polyline id="Fill-6" fill="#FFFFFF" points="1 33.387477 50.7277978 24.0333333 1 33.387477"></polyline>
                    <path d="M1.77777778,34.2166667 L51.5555571,24.8166664" id="Stroke-7" stroke="#FFFFFF" stroke-width="1.56" stroke-linejoin="round"></path>
                    <path d="M77.1772925,13.85 C73.9823135,26.9330364 73.9823135,26.9330364 73.9823135,26.9330364 C73.3333333,28.8826729 73.9823135,31.4992777 75.879332,32.8332389 C112.172299,57.6653628 112.172299,57.6653628 112.172299,57.6653628" id="Stroke-8" stroke="#FFFFFF" stroke-width="1.56" stroke-linejoin="round"></path>
                    <path d="M62.4444444,20.0658008 C80.3044153,12.893723 80.3044153,12.893723 80.3044153,12.893723 C81.5551065,12.2833333 82.8558327,12.2833333 84.1065361,12.2833333 C112.172201,19.4045453 112.172201,19.4045453 112.172201,19.4045453" id="Stroke-9" stroke="#FFFFFF" stroke-width="1.56" stroke-linejoin="round"></path>
                    <path d="M1.77777778,59.2308201 C3.07889103,59.2308201 112.172179,31.0833333 112.172179,31.0833333" id="Stroke-10" stroke="#FFFFFF" stroke-width="1.56" stroke-linejoin="round"></path>
                    <path d="M23.5555556,52.9652387 C23.5555556,52.9652387 24.2016329,37.8959601 30.513312,35.8901517 C36.2286181,33.9357745 51.4362809,34.6043773 54.6169634,32.65" id="Stroke-11" stroke="#FFFFFF" stroke-width="1.56" stroke-linejoin="round"></path>
                    <path d="M55.1851849,67.0661284 C55.1851849,67.0661284 51.5555556,20.6725872 62.3973066,1.31666667" id="Stroke-12" stroke="#FFFFFF" stroke-width="1.56" stroke-linejoin="round"></path>
                    <path d="M96.6137538,48.3166667 C83.8095236,52.0864591 83.8095236,52.0864591 83.8095236,52.0864591 C81.7989418,52.6739591 81.1111111,55.1708336 81.7989418,56.4437503 C87.8835985,67.0677058 87.8835985,67.0677058 87.8835985,67.0677058" id="Stroke-13" stroke="#FFFFFF" stroke-width="1.56" stroke-linejoin="round"></path>
                    <polyline id="Stroke-14" stroke="#A0A3A5" stroke-width="1.56" stroke-linejoin="bevel" points="112.172448 67.0661284 1.77777778 67.0661284 1.77777778 1.31666667 112.172448 1.31666667 112.172448 67.0661284"></polyline>
                    <path d="M62.3934378,21.340625 C62.3934378,18.84375 59.7923467,16.9833333 56.5282311,16.9833333 C52.6010911,16.9833333 50,18.84375 50,21.340625 C50,23.8375 52.6010911,26.334375 56.5282311,26.334375 C59.7923467,26.334375 62.3934378,23.8375 62.3934378,21.340625" id="Fill-15" fill="#BEC8D2"></path>
                    <path d="M62.3934422,21.3406245 C62.3934422,18.8437501 59.7923499,16.9833333 56.5282333,16.9833333 C52.6010935,16.9833333 50,18.8437501 50,21.3406245 C50,23.8375002 52.6010935,26.3343747 56.5282333,26.3343747 C59.7923499,26.3343747 62.3934422,23.8375002 62.3934422,21.3406245" id="Stroke-16" stroke="#FFFFFF" stroke-width="1.56" stroke-linejoin="bevel"></path>
                </g>
                <g id="Group-5" transform="translate(5.000000, 26.000000)">
                    <mask id="mask-2" fill="white">
                        <use xlink:href="#path-1"></use>
                    </mask>
                    <g id="Mask"></g>
                    <g opacity="0.5" mask="url(#mask-2)">
                        <g transform="translate(-4.000000, -11.000000)">
                            <polygon id="Rectangle-4" stroke="none" fill="#01C9FF" fill-rule="evenodd" opacity="0.7" points="1.19607843 9.05095982 16.745098 0 32.2941176 9.05095982 32.2941176 27.3252455 16.745098 36.2373549 1.19607843 27.3252455"></polygon>
                            <polygon id="Rectangle-4" stroke="none" fill="#01C9FF" fill-rule="evenodd" opacity="0.7" points="45.4509804 35.4509598 61 26.4 76.5490196 35.4509598 76.5490196 53.7252455 61 62.6373549 45.4509804 53.7252455"></polygon>
                            <polygon id="Rectangle-4-Copy-3" stroke="none" fill="#01C9FF" fill-rule="evenodd" opacity="0.7" points="59.8039216 61.8509598 75.3529412 52.8 90.9019608 61.8509598 90.9019608 80.1252455 75.3529412 89.0373549 59.8039216 80.1252455"></polygon>
                            <path d="M90.3058824,62.1959518 L90.3058824,79.7775755 L105.254902,88.3457876 L120.203922,79.7775755 L120.203922,62.1959518 L105.254902,53.4942472 L90.3058824,62.1959518 Z" id="Rectangle-4" stroke="#68717A" stroke-width="1.2" fill="none"></path>
                            <path d="M91.5019608,26.9775755 L106.45098,35.5457876 L121.4,26.9775755 L121.4,9.39595184 L106.45098,0.694247212 L91.5019608,9.39595184 L91.5019608,26.9775755 Z" id="Rectangle-4" stroke="#68717A" stroke-width="1.2" fill="none"></path>
                            <path d="M61.6,26.9775755 L76.5490196,35.5457876 L91.4980392,26.9775755 L91.4980392,9.39595184 L76.5490196,0.694247212 L61.6,9.39595184 L61.6,26.9775755 Z" id="Rectangle-4-Copy" stroke="#68717A" stroke-width="1.2" fill="none"></path>
                            <path d="M31.6980392,26.9775755 L46.6470588,35.5457876 L61.5960784,26.9775755 L61.5960784,9.39595184 L46.6470588,0.694247212 L31.6980392,9.39595184 L31.6980392,26.9775755 Z" id="Rectangle-4-Copy-2" stroke="#68717A" stroke-width="1.2" fill="none"></path>
                            <path d="M60.4039216,62.1959518 L60.4039216,79.7775755 L75.3529412,88.3457876 L90.3019608,79.7775755 L90.3019608,62.1959518 L75.3529412,53.4942472 L60.4039216,62.1959518 Z" id="Rectangle-4" stroke="#68717A" stroke-width="1.2" fill="none"></path>
                            <path d="M46.0509804,53.1252455 L75.9490196,53.1252455 L75.9490196,35.7959518 L61,27.0942472 L46.0509804,35.7959518 L46.0509804,53.1252455 Z" id="Rectangle-4" stroke="#68717A" stroke-width="1.2" fill="none"></path>
                            <path d="M75.9529412,53.1252455 L105.85098,53.1252455 L105.85098,35.7959518 L90.9019608,27.0942472 L75.9529412,35.7959518 L75.9529412,53.1252455 Z" id="Rectangle-4" stroke="#68717A" stroke-width="1.2" fill="none"></path>
                            <path d="M16.1490196,53.1252455 L46.0470588,53.1252455 L46.0470588,35.7959518 L31.0980392,27.0942472 L16.1490196,35.7959518 L16.1490196,53.1252455 Z" id="Rectangle-4" stroke="#68717A" stroke-width="1.2" fill="none"></path>
                            <path d="M30.5019608,62.1959518 L30.5019608,79.7775755 L45.4509804,88.3457876 L60.4,79.7775755 L60.4,62.1959518 L45.4509804,53.4942472 L30.5019608,62.1959518 Z" id="Rectangle-4" stroke="#68717A" stroke-width="1.2" fill="none"></path>
                            <path d="M0.6,62.1959518 L0.6,79.7775755 L15.5490196,88.3457876 L30.4980392,79.7775755 L30.4980392,62.1959518 L15.5490196,53.4942472 L0.6,62.1959518 Z" id="Rectangle-4" stroke="#68717A" stroke-width="1.2" fill="none"></path>
                            <path d="M1.79607843,9.39595184 L1.79607843,26.9775755 L16.745098,35.5457876 L31.6941176,26.9775755 L31.6941176,9.39595184 L16.745098,0.694247212 L1.79607843,9.39595184 Z" id="Rectangle-4" stroke="#68717A" stroke-width="1.2" fill="none"></path>
                        </g>
                    </g>
                </g>
                <g id="search19" transform="translate(42.500000, 71.500000) scale(-1, 1) translate(-42.500000, -71.500000) translate(14.000000, 43.000000)" fill="#68717A">
                    <path d="M55.64625,49.4663603 L43.9340074,37.7541176 C46.7567647,33.6794559 48.1687721,29.1374779 48.1687721,24.1294412 C48.1687721,20.8741544 47.5367426,17.7609485 46.2731029,14.7902426 C45.0098824,11.8191176 43.3023971,9.25830882 41.1510662,7.10697794 C38.9997353,4.95564706 36.4393456,3.24816176 33.4686397,1.98494118 C30.4970956,0.721301471 27.3838897,0.0896911765 24.1286029,0.0896911765 C20.8733162,0.0896911765 17.7601103,0.721301471 14.7894044,1.98494118 C11.8182794,3.24816176 9.25747059,4.95564706 7.10613971,7.10697794 C4.95480882,9.25830882 3.24732353,11.8195368 1.98410294,14.7902426 C0.720463235,17.7613676 0.0888529412,20.8741544 0.0888529412,24.1294412 C0.0888529412,27.3847279 0.720463235,30.4970956 1.98410294,33.4686397 C3.24732353,36.4393456 4.95480882,38.9997353 7.10613971,41.1510662 C9.25747059,43.3028162 11.8186985,45.0098824 14.7894044,46.2735221 C17.7605294,47.5371618 20.8733162,48.1687721 24.1286029,48.1687721 C29.1374779,48.1687721 33.6790368,46.7567647 37.7536985,43.9340074 L49.4659412,55.6118824 C50.2853162,56.4769412 51.3088015,56.9094706 52.5389118,56.9094706 C53.7225,56.9094706 54.7476618,56.4769412 55.6118824,55.6118824 C56.4769412,54.7472426 56.9094706,53.7225 56.9094706,52.5389118 C56.9098897,51.3331103 56.4890956,50.3083676 55.64625,49.4663603 L55.64625,49.4663603 Z M34.9363897,34.9363897 C31.9426324,37.9301471 28.3403162,39.4268162 24.1286029,39.4268162 C19.9173088,39.4268162 16.3149926,37.9297279 13.3212353,34.9363897 C10.3274779,31.9426324 8.83080882,28.3407353 8.83080882,24.1290221 C8.83080882,19.9177279 10.3278971,16.3149926 13.3212353,13.3216544 C16.3145735,10.3278971 19.9173088,8.83122794 24.1286029,8.83122794 C28.3398971,8.83122794 31.9422132,10.3283162 34.9363897,13.3216544 C37.9301471,16.3149926 39.4272353,19.9177279 39.4272353,24.1290221 C39.4272353,28.3407353 37.9297279,31.9426324 34.9363897,34.9363897 L34.9363897,34.9363897 Z" id="Shape"></path>
                </g>
            </g>
        </g>
    </g>
</svg>