<?xml version="1.0" encoding="UTF-8"?>
<svg width="120px" height="120px" viewBox="0 0 120 120" version="1.1" xmlns="http://www.w3.org/2000/svg" xmlns:xlink="http://www.w3.org/1999/xlink">
    <!-- Generator: Sketch 50.2 (55047) - http://www.bohemiancoding.com/sketch -->
    <title>trafficforecast</title>
    <desc>Created with Sketch.</desc>
    <defs></defs>
    <g id="Page-1" stroke="none" stroke-width="1" fill="none" fill-rule="evenodd">
        <g id="Custom-Preset">
            <g id="trafficforecast">
                <rect id="Rectangle-3" stroke="#FFFFFF" x="0.5" y="0.5" width="119" height="119"></rect>
                <g id="Group-4" transform="translate(14.000000, 22.000000)" stroke="#A0A3A5">
                    <path d="M74.765985,46.9285714 L93.8026496,46.9285714" id="Stroke-2" stroke-width="1.3"></path>
                    <path d="M74.1780822,9.125 L93.2147468,9.125" id="Stroke-2" stroke-width="1.3"></path>
                    <polyline id="Stroke-2" stroke-width="1.3" points="78.4295826 17.6547016 83.9305391 13.0357143 89.4029011 17.6547016"></polyline>
                    <polyline id="Stroke-2" stroke-width="0.91" transform="translate(72.876712, 49.535714) rotate(49.000000) translate(-72.876712, -49.535714) " points="68.9726027 50.8392857 72.8868858 48.2321429 76.7808219 50.8392857"></polyline>
                    <polyline id="Stroke-2" stroke-width="1.053" transform="translate(70.924658, 13.687500) rotate(24.000000) translate(-70.924658, -13.687500) " points="66.369863 15.6428571 70.9365265 11.7321429 75.4794521 15.6428571"></polyline>
                    <polyline id="Stroke-9" stroke-width="1.872" points="87.570308 72.9654665 0.232377199 72.9654665 0.232377199 0.971151456"></polyline>
                    <path d="M84.2247453,44.0195611 L84.2247453,14.055877" id="Stroke-9" stroke-width="1.872"></path>
                    <path d="M1.30136986,72.1375582 C1.30136986,72.1375582 23.4428452,70.9302289 37.0890411,66.6210808 C57.7382883,60.1005337 72.8767123,49.5357143 72.8767123,49.5357143" id="Stroke-9" stroke-width="1.56"></path>
                    <path d="M2.60273973,71.9707642 C2.60273973,71.9707642 16.5996757,72.9298936 35.0635936,58.0222953 C48.0946055,47.5011756 70.285854,14.2366457 70.285854,14.2366457" id="Stroke-9-Copy" stroke-width="1.872" stroke-dasharray="2.6"></path>
                </g>
            </g>
        </g>
    </g>
</svg>