<?xml version="1.0" encoding="UTF-8"?>
<svg width="120px" height="120px" viewBox="0 0 120 120" version="1.1" xmlns="http://www.w3.org/2000/svg" xmlns:xlink="http://www.w3.org/1999/xlink">
    <!-- Generator: Sketch 50.2 (55047) - http://www.bohemiancoding.com/sketch -->
    <title>transport security</title>
    <desc>Created with Sketch.</desc>
    <defs></defs>
    <g id="Page-1" stroke="none" stroke-width="1" fill="none" fill-rule="evenodd">
        <g id="Custom-Preset">
            <g id="transport-security">
                <rect id="Rectangle-3" stroke="#FFFFFF" x="0.5" y="0.5" width="119" height="119"></rect>
                <g id="Group-4" transform="translate(51.773585, 45.327273)">
                    <path d="M40.5939944,37.5603446 L40.5939944,33.3348271 L42.984208,33.3348271 M40.5939944,26.7084394 L40.5939944,22.0027447 L42.984208,22.0027447 M35.4311321,57.3434672 L35.4311321,15.8565341 L48.1470683,22.4829167 L48.1470683,45.5312128 L54.1704079,45.5312128 L54.1704079,57.3434672 L62.5839631,57.3434672" id="Stroke-1" stroke="#A0A3A5" stroke-width="1.44"></path>
                    <polyline id="Stroke-2" stroke="#A0A3A5" points="19.5367925 53.3923297 19.5367925 48.1241477 22.8481133 48.1241477"></polyline>
                    <polyline id="Stroke-3" stroke="#A0A3A5" points="19.5367925 46.8071024 19.5367925 41.5389205 22.8481133 41.5389205"></polyline>
                    <polyline id="Stroke-4" stroke="#A0A3A5" points="23.5103774 40.2218752 23.5103774 34.9536932 26.8216982 34.9536932"></polyline>
                    <polyline id="Stroke-5" stroke="#A0A3A5" points="27.4839623 46.8071024 27.4839623 41.5389205 30.7952831 41.5389205"></polyline>
                    <polyline id="Stroke-6" stroke="#A0A3A5" points="23.5103774 33.6366479 23.5103774 28.3684659 26.8216982 28.3684659"></polyline>
                    <polyline id="Stroke-7" stroke="#A0A3A5" points="15.5632075 40.2218752 15.5632075 34.9536932 18.2122642 34.9536932"></polyline>
                    <polyline id="Stroke-8" stroke="#A0A3A5" points="19.5367925 33.6366479 19.5367925 28.3684659 22.8481133 28.3684659"></polyline>
                    <polyline id="Stroke-9" stroke="#A0A3A5" stroke-width="1.44" points="0.331132075 57.3434669 13.7295185 57.3434669 13.7295185 26.3928977 32.2230682 26.3928977 32.2230682 57.3434669 35.4311332 57.3434669"></polyline>
                    <polyline id="Stroke-11" stroke="#A0A3A5" points="40.7292453 52.0752842 40.7292453 47.465625 42.7160378 47.465625"></polyline>
                    <path d="M6.19690021,49.3471184 C6.19690021,57.3434663 6.19690021,57.3434663 6.19690021,57.3434663 L6.19690021,49.3471184 Z M6.19690021,50.7582388 C5.25080891,50.7582388 5.25080891,50.7582388 5.25080891,50.7582388 C4.777763,50.7582388 4.30471709,50.2878669 4.30471709,49.8174898 C4.30471709,46.9952516 4.30471709,46.9952516 4.30471709,46.9952516 L6.19690021,50.7582388 Z M7.61603795,45.5841318 C7.61603795,45.5841318 6.19690021,44.1730114 4.30471709,45.5841318 C2.41253396,47.4656251 2.41253396,47.4656251 2.41253396,47.4656251 C2.41253396,47.4656251 0.993396226,48.8767455 2.41253396,50.7582388 C4.30471709,52.6397317 4.30471709,52.6397317 4.30471709,52.6397317 C4.30471709,52.6397317 6.19690021,54.0508526 7.61603795,52.6397317 C9.50822055,50.7582388 9.50822055,50.7582388 9.50822055,50.7582388 C9.50822055,50.7582388 10.9273588,48.8767455 9.50822055,47.4656251 L7.61603795,45.5841318 Z" id="Stroke-12" stroke="#A0A3A5"></path>
                    <path d="M62.5839624,53.2205435 C62.5839624,57.3434662 62.5839624,57.3434662 62.5839624,57.3434662 L62.5839624,53.2205435 Z M62.5839624,53.2205435 C64.4761455,53.2205435 65.8952832,51.8462329 65.8952832,50.0138218 C65.8952832,48.6395134 64.4761455,46.8071023 62.5839624,46.8071023 C60.6917792,46.8071023 59.2726415,48.6395134 59.2726415,50.0138218 C59.2726415,51.8462329 60.6917792,53.2205435 62.5839624,53.2205435 Z" id="Stroke-13" stroke="#A0A3A5"></path>
                    <path d="M35.1,13.5119318 C35.1,12.9596518 35.54772,12.5119318 36.1,12.5119318 C36.65228,12.5119318 37.1,12.9596518 37.1,13.5119318 C37.1,14.0642118 36.65228,14.5119318 36.1,14.5119318 C35.54772,14.5119318 35.1,14.0642118 35.1,13.5119318 Z" id="Fill-14" fill="#00C9FF"></path>
                    <path d="M48.6764159,13.1704549 C48.6764159,6.61055724 43.0216967,0.987784091 36.4245287,0.987784091 C29.3561321,0.987784091 24.1726415,6.61055724 24.1726415,13.1704549 C24.1726415,20.1989201 29.3561321,25.3531258 36.4245287,25.3531258 C43.0216967,25.3531258 48.6764159,20.1989201 48.6764159,13.1704549 Z M44.4353804,13.1704549 C44.4353804,8.95337896 40.6655642,5.20486214 36.4245287,5.20486214 C31.7122636,5.20486214 27.9424525,8.95337896 27.9424525,13.1704549 C27.9424525,17.8560984 31.7122636,21.6046121 36.4245287,21.6046121 C40.6655642,21.6046121 44.4353804,17.8560984 44.4353804,13.1704549 Z M40.1943397,13.1704549 C40.1943397,10.8276332 38.7806612,8.95337896 36.4245287,8.95337896 C34.0683961,8.95337896 32.1834932,10.8276332 32.1834932,13.1704549 C32.1834932,15.5132767 34.0683961,17.3875309 36.4245287,17.3875309 C38.7806612,17.3875309 40.1943397,15.5132767 40.1943397,13.1704549 Z" id="Stroke-15" stroke="#00C9FF" stroke-width="1.44"></path>
                </g>
                <g id="Group" transform="translate(16.245283, 80.818182)" stroke="#A0A3A5">
                    <polyline id="Stroke-1" points="0.152244632 9.44167654 0.152244632 8.34698937 8.67794432 8.34698937 8.67794432 9.44167654"></polyline>
                    <path d="M1.67469096,12.1783943 L6.85100862,12.1784158" id="Stroke-2"></path>
                    <path d="M0.761223162,16.5571429 L7.76447648,16.5571644" id="Stroke-3"></path>
                    <polyline id="Stroke-4" points="0.152244632 3.96824088 0.152244632 3.1472255 8.67794432 3.1472255 8.67794432 3.96824088"></polyline>
                    <polyline id="Stroke-5" points="0.152244632 20.935892 4.32140528 0.136835891 8.67794432 20.935892"></polyline>
                    <path d="M1.67469096,12.1783943 L7.76447645,16.557143" id="Stroke-6" stroke-width="0.55"></path>
                    <path d="M7.15549772,12.1783943 L1.06571223,16.557143" id="Stroke-7" stroke-width="0.55"></path>
                </g>
                <g id="Group-Copy" transform="translate(4.000000, 88.581818)" stroke="#A0A3A5">
                    <polyline id="Stroke-1" points="0.0951528953 5.96316413 0.0951528953 5.27178276 5.4237152 5.27178276 5.4237152 5.96316413"></polyline>
                    <path d="M1.04668185,7.69161747 L4.28188039,7.69163063" id="Stroke-2" stroke-width="0.55"></path>
                    <path d="M0.475764476,10.4571429 L4.8527978,10.457156" id="Stroke-3" stroke-width="0.55"></path>
                    <polyline id="Stroke-4" points="0.0951528953 2.5062574 0.0951528953 1.98772137 5.4237152 1.98772137 5.4237152 2.5062574"></polyline>
                    <polyline id="Stroke-5" points="0.0951528953 13.2226687 2.7008783 0.0864226682 5.4237152 13.2226687"></polyline>
                    <path d="M1.04668185,7.69161747 L4.85279778,10.4571429" id="Stroke-6" stroke-width="0.55"></path>
                    <path d="M4.47218608,7.69161747 L0.666070145,10.4571429" id="Stroke-7" stroke-width="0.55"></path>
                </g>
                <g id="Group" transform="translate(18.452830, 42.000000)">
                    <polyline id="Stroke-1" stroke="#68717A" stroke-width="1.44" points="14.1688487 60.6089753 19.147093 30.1089744 24.1253372 60.6089753"></polyline>
                    <path d="M17.6153254,19.4871795 C17.6153254,18.6587495 18.2869054,17.9871795 19.1153254,17.9871795 C19.9437454,17.9871795 20.6153254,18.6587495 20.6153254,19.4871795 C20.6153254,20.3156095 19.9437454,20.9871795 19.1153254,20.9871795 C18.2869054,20.9871795 17.6153254,20.3156095 17.6153254,19.4871795 Z" id="Fill-2" fill="#00D2FF"></path>
                    <path d="M37.1453612,19.160257 C37.1453612,8.80482008 28.9055076,0.391025641 18.7641515,0.391025641 C8.62279551,0.391025641 0.382941856,8.80482008 0.382941856,19.160257 C0.382941856,29.5156939 8.62279551,37.9294884 18.7641515,37.9294884 C28.9055076,37.9294884 37.1453612,29.5156939 37.1453612,19.160257 Z M31.4408481,19.160257 C31.4408481,12.6881051 25.7363349,6.86317142 18.7641515,6.86317142 C12.4258002,6.86317142 6.72128711,12.6881051 6.72128711,19.160257 C6.72128711,26.2796211 12.4258002,32.1045547 18.7641515,32.1045547 C25.7363349,32.1045547 31.4408481,26.2796211 31.4408481,19.160257 Z M25.1024968,19.160257 C25.1024968,15.9241841 22.5671623,13.3353233 18.7641515,13.3353233 C15.5949789,13.3353233 13.0596384,15.9241841 13.0596384,19.160257 C13.0596384,23.0435482 15.5949789,25.6324028 18.7641515,25.6324028 C22.5671623,25.6324028 25.1024968,23.0435482 25.1024968,19.160257 Z" id="Stroke-3" stroke="#00D2FF" stroke-width="1.44"></path>
                </g>
                <g id="Group" transform="translate(60.000000, 37.000000)" stroke="#01C9FF" stroke-width="1.44">
                    <path d="M12.9967154,6.64056532 C12.9967154,12.4397346 12.9967154,12.4397346 12.9967154,12.4397346 C12.9967154,15.753543 10.0006846,18.4460151 6.57665115,18.4460151 C6.57665115,18.4460151 6.57665115,18.4460151 6.57665115,18.4460151 C3.15261772,18.4460151 0.156586927,15.753543 0.156586927,12.4397346 C0.156586927,6.64056532 0.156586927,6.64056532 0.156586927,6.64056532 L12.9967154,6.64056532 Z" id="Stroke-1"></path>
                    <path d="M8.61228114,11.0676089 C8.61228114,9.8280367 7.51617261,9.00165521 6.42006409,9.00165521 C5.10473386,9.00165521 4.22784704,9.8280367 4.22784704,11.0676089 C4.22784704,11.8939904 4.66629045,12.7203719 5.54317727,12.9269673 C5.54317727,15.1995164 5.54317727,15.1995164 5.54317727,15.1995164 C7.29695091,15.1995164 7.29695091,15.1995164 7.29695091,15.1995164 C7.29695091,12.9269673 7.29695091,12.9269673 7.29695091,12.9269673 C7.95461602,12.7203719 8.61228114,11.8939904 8.61228114,11.0676089 Z" id="Stroke-2"></path>
                    <path d="M0.782934636,6.64056552 C0.782934636,5.26326227 0.782934636,5.26326227 0.782934636,5.26326227 C0.782934636,2.50865808 3.1470903,0.147568118 6.15601671,0.147568118 C6.15601671,0.147568118 6.15601671,0.147568118 6.15601671,0.147568118 C9.37986299,0.147568118 11.7440199,2.31190074 11.7440199,5.06650632 C11.7440199,6.64056552 11.7440199,6.64056552 11.7440199,6.64056552" id="Stroke-3"></path>
                </g>
                <g id="Group" transform="translate(72.000000, 7.000000)">
                    <path d="M23.072873,14.2212666 L29.8000008,20.9574652 L25.834007,24.6000008 L19.4080981,18.2130903 L23.072873,14.2212666 Z M8.96599068,0.2 L15.4421043,6.58691359 L11.7271246,10.5787342 L5,3.84253555 L8.96599068,0.2 Z M25.2315786,8.43312782 L17.2493925,16.366873 L13.5846144,12.7243374 L21.2153863,4.79059227 L25.2315786,8.43312782 Z" id="Stroke-1" stroke="#A0A3A5" stroke-width="1.44"></path>
                    <path d="M12,17.2 C12,16.758172 12.358172,16.4 12.8,16.4 C13.241828,16.4 13.6,16.758172 13.6,17.2 C13.6,17.641828 13.241828,18 12.8,18 C12.358172,18 12,17.641828 12,17.2 Z" id="Fill-2" fill="#00C9FF"></path>
                    <path d="M4.6,17 C4.6,22.0285702 8.3333324,25.8000003 13.0000003,25.8000003" id="Stroke-3" stroke="#00C9FF" stroke-width="1.44"></path>
                    <path d="M13.0000001,21.4000001 C10.8000001,21.4000001 8.6,19.5142857 8.6,17" id="Stroke-4" stroke="#00C9FF" stroke-width="1.44"></path>
                    <path d="M0.2,17 C0.2,24.0095246 5.81951199,29.8000004 13.0000004,29.8000004" id="Stroke-5" stroke="#00C9FF" stroke-width="1.44"></path>
                    <path d="M13,17 L13.0000319,17.0000319" id="Stroke-6" stroke="#00C9FF" stroke-width="0.5"></path>
                </g>
            </g>
        </g>
    </g>
</svg>