<?xml version="1.0" encoding="UTF-8"?>
<svg width="120px" height="120px" viewBox="0 0 120 120" version="1.1" xmlns="http://www.w3.org/2000/svg" xmlns:xlink="http://www.w3.org/1999/xlink">
    <!-- Generator: Sketch 50.2 (55047) - http://www.bohemiancoding.com/sketch -->
    <title>volte</title>
    <desc>Created with Sketch.</desc>
    <defs></defs>
    <g id="Page-1" stroke="none" stroke-width="1" fill="none" fill-rule="evenodd">
        <g id="Custom-Preset">
            <g id="volte">
                <rect id="Rectangle-3" stroke="#FFFFFF" x="0.5" y="0.5" width="119" height="119"></rect>
                <path d="M96.4042546,90 C96.4042546,90 96.4042546,90 96.4042546,90 C96.4042546,90 95.297867,90 95.297867,90 C33.3404243,90 33.3404243,90 33.3404243,90 C20.0638291,90 9,80.4461599 9,67.7076914 C9,56.0307657 20.0638291,45.4153829 32.2340367,45.4153829 C34.4468119,31.6153851 47.7234059,21 62.1063876,21 C79.8085092,21 93.0851032,33.7384572 93.0851032,49.6615428 C93.0851032,51.7846171 93.0851032,53.9076914 93.0851032,56.0307657 C94.1914908,56.0307657 94.1914908,56.0307657 95.297867,56.0307657 C105.255321,56.0307657 113,63.4615428 113,73.0153829 C113,77.2615428 111.893612,81.5076914 108.574472,85.7538401 C105.255321,88.9384685 100.829782,90 96.4042546,90" id="Stroke-1" stroke="#01C9FF" stroke-width="1.44"></path>
                <path d="M53,81 L53,64 L59.1359283,64 L58.9070887,77.1516272 L62.3930162,77.1516272 C62.3930162,77.1516272 62.4552379,78.3481645 62.7529185,79.2529005 C63.0869109,80.266198 64,81 64,81 L53,81 Z M87.9989205,75.9444465 L87.9989205,76.2737438 L87.9958619,76.2737438 L87.9947824,76.4063845 L78.0645308,76.4063845 C78.1618668,77.1639902 78.3721918,77.7336455 78.6949659,78.1151797 C79.1746291,78.6954189 79.8003862,78.9854532 80.5727771,78.9854532 C81.0605366,78.9854532 81.5240071,78.8594701 81.9630087,78.6071625 C82.2310875,78.4477204 82.5196771,78.1655388 82.8285975,77.7621539 L82.9961018,77.4523174 L87.8929484,77.4500982 L87.8456298,77.7595932 C87.8456298,77.7595932 87.2259899,79.898916 85.0113709,81.123581 C83.9543486,81.7077465 82.4383539,82 80.4632066,82 C78.747682,82 77.3981121,81.7497409 76.4146766,81.2495641 C75.4307013,80.7493873 74.6158496,79.9547378 73.9694018,78.8657863 C73.3233139,77.7768348 73,76.4968602 73,75.0251795 C73,72.9316067 73.6484269,71.2373218 74.9451008,69.9423248 C76.2417747,68.6474985 78.0323254,68 80.3165729,68 C82.170275,68 83.6335536,68.2900343 84.7067685,68.8702735 C85.7798035,69.4505127 86.5966343,70.2912536 87.1574408,71.3928375 C87.7186072,72.4944215 87.9989205,73.9278633 87.9989205,75.6935045 L87.9989205,75.8469717 L88,75.8474839 L87.9989205,75.9444465 Z M81.3884941,72.5248642 C81.0401736,72.1749547 80.5823296,72 80.0145134,72 C79.3587192,72 78.8347423,72.2642429 78.4425825,72.7924502 C78.2274257,73.0756373 78.0801975,73.4784789 78,74 L82,74 C81.9012493,73.3274829 81.6974639,72.8354924 81.3884941,72.5248642 Z M72.2649508,81.5348994 C71.8196588,81.6376542 71.3843242,81.7231705 70.9584231,81.7919554 C70.0978862,81.9305391 69.2770046,82 68.496477,82 C67.1419088,82 66.144238,81.8169681 65.5029407,81.4510732 C64.8614686,81.0850093 64.3870029,80.5291533 64.0795435,79.7829981 C63.7722588,79.037012 63.6185291,77.8289674 63.6185291,76.1585263 L63.6185291,70.8940341 L62,70.8940341 L62,66.6941017 L63.6185291,66.6941017 L63.6185291,63.9457495 L69.0710418,61 L69.0710418,66.6941017 L72.0645781,66.6941017 L72.0645781,70.8940341 L69.0710418,70.8940341 L69.0710418,76.1968903 C69.0710418,76.8345445 69.1288651,77.2565489 69.2448611,77.4627345 C69.4228731,77.7814771 69.7346998,77.9410174 70.1801665,77.9410174 C70.5810866,77.9410174 71.1423747,77.8191651 71.8640307,77.5752915 C71.8640307,77.5752915 72.0167123,77.5264492 72.1145403,77.5014365 C72.3219007,77.8211932 71.990159,77.778097 72.8610027,79.4727058 C72.9769988,79.7118472 73.679264,80.6207538 74,80.9472706 C73.1553602,81.3287139 72.2649508,81.5348994 72.2649508,81.5348994 Z" id="Fill-1" fill="#68717A"></path>
                <path d="M72.9313632,61.9962297 C71.73453,62.0770407 71.8577902,60.8346393 71.8563875,60.5873469 C71.8318406,60.1276782 71.7557455,58.0548494 69.3834699,57.3990025 C67.1733788,56.8556431 65.4372168,57.5509056 64,59.322448 C64,59.322448 65.4498408,55.6384389 69.8947453,56.0289953 C73.6988022,56.3696973 74.0017802,60.2399856 73.9998515,60.5202144 C73.9980982,60.8006231 74.0592899,61.9199182 72.9313632,61.9962297 Z M77.9988688,57.3856535 C77.9802304,57.7030921 77.993568,58.9742158 76.5151452,58.999617 C74.9460951,59.0265392 75.1803582,57.625976 75.1935249,57.3456504 C75.188566,56.8236333 75.2119923,54.4719708 72.1499849,53.6008777 C69.2935134,52.8659166 66.983371,53.5593536 65,55.4881701 C65,55.4881701 67.1133272,51.3940171 72.899627,52.0768069 C77.8513001,52.668335 78.0180202,57.0683669 77.9988688,57.3856535 Z M83.9995833,55.6189947 C83.9844569,56.0790024 84.0465456,57.9188691 82.0074664,57.9975071 C79.8435062,58.080906 80.119124,56.0468249 80.1277425,55.6406653 C80.1029422,54.8849853 80.0547487,51.4799104 75.8007014,50.3055938 C71.8344083,49.3225367 68.6712236,50.3919479 66,53.2406465 C66,53.2406465 68.7762293,47.253487 76.7826888,48.0779548 C83.6349658,48.7939054 84.0150615,55.158987 83.9995833,55.6189947 Z" id="Fill-3" fill="#DA2E2D"></path>
                <path d="M41.898,68.436 L37.092,81 L34.842,81 L30.108,68.436 L32.124,68.436 L35.994,79.416 L36.03,79.416 L40.008,68.436 L41.898,68.436 Z M41.534,76.41 C41.534,73.62 43.406,71.604 46.214,71.604 C49.004,71.604 50.876,73.62 50.876,76.41 C50.876,79.038 48.968,81.216 46.214,81.216 C43.442,81.216 41.534,79.038 41.534,76.41 Z M43.334,76.41 C43.334,78.048 44.216,79.848 46.214,79.848 C48.194,79.848 49.076,78.048 49.076,76.41 C49.076,74.664 48.014,72.972 46.214,72.972 C44.396,72.972 43.334,74.664 43.334,76.41 Z" id="Vo" stroke="#68717A" fill="#68717A"></path>
            </g>
        </g>
    </g>
</svg>