<?xml version="1.0" encoding="UTF-8" ?>
<svg
  width="422px"
  height="230px"
  viewBox="0 0 422 230"
  version="1.1"
  xmlns="http://www.w3.org/2000/svg"
  xmlns:xlink="http://www.w3.org/1999/xlink"
>
    <title>placeholder</title>
    <g id="Page-1" stroke="none" stroke-width="1" fill="none" fill-rule="evenodd">
        <g id="Group" transform="translate(-3.000000, 0.000000)" fill="#D8D8D8">
            <rect id="Rectangle" x="57" y="52" width="9" height="157" rx="2" />
            <rect id="Rectangle" x="3" y="131" width="9" height="78" rx="2" />
            <rect id="Rectangle" x="17" y="37" width="9" height="172" rx="2" />
            <rect id="Rectangle" x="30" y="63" width="9" height="146" rx="2" />
            <rect id="Rectangle" x="44" y="110" width="9" height="99" rx="2" />
            <rect id="Rectangle" x="86" y="177" width="9" height="32" rx="2" />
            <rect id="Rectangle" x="98" y="99" width="9" height="110" rx="2" />
            <rect id="Rectangle" x="113" y="31" width="9" height="178" rx="2" />
            <rect id="Rectangle" x="127" y="171" width="9" height="38" rx="2" />
            <rect id="Rectangle" x="141" y="167" width="9" height="42" rx="2" />
            <rect id="Rectangle" x="168" y="177" width="9" height="32" rx="2" />
            <rect id="Rectangle" x="154" y="57" width="9" height="152" rx="2" />
            <rect id="Rectangle" x="182" y="78" width="9" height="131" rx="2" />
            <rect id="Rectangle" x="196" y="63" width="9" height="146" rx="2" />
            <rect id="Rectangle" x="210" y="110" width="9" height="99" rx="2" />
            <rect id="Rectangle" x="223" y="146" width="9" height="63" rx="2" />
            <rect id="Rectangle" x="237" y="203" width="9" height="6" rx="2" />
            <rect id="Rectangle" x="292" y="193" width="9" height="16" rx="2" />
            <rect id="Rectangle" x="251" y="99" width="9" height="110" rx="2" />
            <rect id="Rectangle" x="265" y="0" width="9" height="209" rx="2" />
            <rect id="Rectangle" x="278" y="16" width="9" height="193" rx="2" />
            <rect id="Rectangle" x="306" y="115" width="9" height="94" rx="2" />
            <rect id="Rectangle" x="320" y="57" width="9" height="152" rx="2" />
            <rect id="Rectangle" x="347" y="31" width="9" height="178" rx="2" />
            <rect id="Rectangle" x="361" y="198" width="9" height="11" rx="2" />
            <rect id="Rectangle" x="375" y="63" width="9" height="146" rx="2" />
            <rect id="Rectangle" x="389" y="125" width="9" height="84" rx="2" />
            <rect id="Rectangle" x="416" y="26" width="9" height="183" rx="2" />
            <rect id="Rectangle" x="333" y="115" width="9" height="94" rx="2" />
            <rect id="Rectangle-2" x="72" y="32" width="9" height="177" rx="2" />
        </g>
    </g>
</svg>
